G75*
G70*
%OFA0B0*%
%FSLAX24Y24*%
%IPPOS*%
%LPD*%
%AMOC8*
5,1,8,0,0,1.08239X$1,22.5*
%
%ADD10C,0.0040*%
%ADD11C,0.0110*%
%ADD12C,0.0050*%
%ADD13C,0.0080*%
%ADD14C,0.0120*%
%ADD15C,0.0060*%
%ADD16C,0.0150*%
%ADD17C,0.0130*%
%ADD18C,0.0020*%
%ADD19C,0.0000*%
%ADD20C,0.0100*%
D10*
X001331Y000169D02*
X038733Y000169D01*
X038799Y000171D01*
X038865Y000176D01*
X038931Y000186D01*
X038996Y000199D01*
X039060Y000215D01*
X039123Y000235D01*
X039185Y000259D01*
X039245Y000286D01*
X039304Y000316D01*
X039361Y000350D01*
X039416Y000387D01*
X039469Y000427D01*
X039520Y000469D01*
X039568Y000515D01*
X039614Y000563D01*
X039656Y000614D01*
X039696Y000667D01*
X039733Y000722D01*
X039767Y000779D01*
X039797Y000838D01*
X039824Y000898D01*
X039848Y000960D01*
X039868Y001023D01*
X039884Y001087D01*
X039897Y001152D01*
X039907Y001218D01*
X039912Y001284D01*
X039914Y001350D01*
X039914Y038751D01*
X039912Y038817D01*
X039907Y038883D01*
X039897Y038949D01*
X039884Y039014D01*
X039868Y039078D01*
X039848Y039141D01*
X039824Y039203D01*
X039797Y039263D01*
X039767Y039322D01*
X039733Y039379D01*
X039696Y039434D01*
X039656Y039487D01*
X039614Y039538D01*
X039568Y039586D01*
X039520Y039632D01*
X039469Y039674D01*
X039416Y039714D01*
X039361Y039751D01*
X039304Y039785D01*
X039245Y039815D01*
X039185Y039842D01*
X039123Y039866D01*
X039060Y039886D01*
X038996Y039902D01*
X038931Y039915D01*
X038865Y039925D01*
X038799Y039930D01*
X038733Y039932D01*
X038733Y039933D02*
X001331Y039933D01*
X001331Y039932D02*
X001265Y039930D01*
X001199Y039925D01*
X001133Y039915D01*
X001068Y039902D01*
X001004Y039886D01*
X000941Y039866D01*
X000879Y039842D01*
X000819Y039815D01*
X000760Y039785D01*
X000703Y039751D01*
X000648Y039714D01*
X000595Y039674D01*
X000544Y039632D01*
X000496Y039586D01*
X000450Y039538D01*
X000408Y039487D01*
X000368Y039434D01*
X000331Y039379D01*
X000297Y039322D01*
X000267Y039263D01*
X000240Y039203D01*
X000216Y039141D01*
X000196Y039078D01*
X000180Y039014D01*
X000167Y038949D01*
X000157Y038883D01*
X000152Y038817D01*
X000150Y038751D01*
X000150Y029205D01*
X003792Y029205D01*
X003792Y005147D01*
X000150Y005147D01*
X000150Y001350D01*
X000152Y001284D01*
X000157Y001218D01*
X000167Y001152D01*
X000180Y001087D01*
X000196Y001023D01*
X000216Y000960D01*
X000240Y000898D01*
X000267Y000838D01*
X000297Y000779D01*
X000331Y000722D01*
X000368Y000667D01*
X000408Y000614D01*
X000450Y000563D01*
X000496Y000515D01*
X000544Y000469D01*
X000595Y000427D01*
X000648Y000387D01*
X000703Y000350D01*
X000760Y000316D01*
X000819Y000286D01*
X000879Y000259D01*
X000941Y000235D01*
X001004Y000215D01*
X001068Y000199D01*
X001133Y000186D01*
X001199Y000176D01*
X001265Y000171D01*
X001331Y000169D01*
X011997Y024839D02*
X011920Y024915D01*
X011997Y024839D02*
X012150Y024839D01*
X012227Y024915D01*
X012227Y025069D01*
X012150Y025146D01*
X012073Y025146D01*
X011920Y025069D01*
X011920Y025299D01*
X012227Y025299D01*
X012380Y025299D02*
X012380Y025069D01*
X012534Y025146D01*
X012611Y025146D01*
X012687Y025069D01*
X012687Y024915D01*
X012611Y024839D01*
X012457Y024839D01*
X012380Y024915D01*
X012380Y025299D02*
X012687Y025299D01*
X012841Y025069D02*
X013071Y025069D01*
X013148Y024992D01*
X013148Y024915D01*
X013071Y024839D01*
X012918Y024839D01*
X012841Y024915D01*
X012841Y025069D01*
X012994Y025222D01*
X013148Y025299D01*
X013301Y025069D02*
X013301Y024915D01*
X013378Y024839D01*
X013531Y024839D01*
X013608Y024915D01*
X013608Y024992D01*
X013531Y025069D01*
X013301Y025069D01*
X013455Y025222D01*
X013608Y025299D01*
X013762Y025069D02*
X014068Y025069D01*
X014222Y025146D02*
X014222Y025222D01*
X014299Y025299D01*
X014452Y025299D01*
X014529Y025222D01*
X014529Y025146D01*
X014452Y025069D01*
X014299Y025069D01*
X014222Y025146D01*
X014299Y025069D02*
X014222Y024992D01*
X014222Y024915D01*
X014299Y024839D01*
X014452Y024839D01*
X014529Y024915D01*
X014529Y024992D01*
X014452Y025069D01*
X019650Y024669D02*
X036150Y024669D01*
X036150Y028919D01*
X019650Y028919D01*
X019650Y024669D01*
X031947Y017149D02*
X031947Y016919D01*
X032101Y016996D01*
X032177Y016996D01*
X032254Y016919D01*
X032254Y016765D01*
X032177Y016689D01*
X032024Y016689D01*
X031947Y016765D01*
X031947Y017149D02*
X032254Y017149D01*
X032408Y017149D02*
X032408Y016919D01*
X032561Y016996D01*
X032638Y016996D01*
X032715Y016919D01*
X032715Y016765D01*
X032638Y016689D01*
X032484Y016689D01*
X032408Y016765D01*
X032408Y017149D02*
X032715Y017149D01*
X032868Y016919D02*
X033021Y017072D01*
X033175Y017149D01*
X033098Y016919D02*
X032868Y016919D01*
X032868Y016765D01*
X032945Y016689D01*
X033098Y016689D01*
X033175Y016765D01*
X033175Y016842D01*
X033098Y016919D01*
X033328Y016919D02*
X033559Y016919D01*
X033635Y016842D01*
X033635Y016765D01*
X033559Y016689D01*
X033405Y016689D01*
X033328Y016765D01*
X033328Y016919D01*
X033482Y017072D01*
X033635Y017149D01*
X033789Y016919D02*
X034096Y016919D01*
X034249Y017072D02*
X034326Y017149D01*
X034479Y017149D01*
X034556Y017072D01*
X034556Y016996D01*
X034249Y016689D01*
X034556Y016689D01*
X034710Y016919D02*
X034940Y017149D01*
X034940Y016689D01*
X035017Y016919D02*
X034710Y016919D01*
D11*
X036504Y024974D02*
X037095Y024974D01*
X037095Y025367D01*
X037095Y025618D02*
X036504Y026012D01*
X036504Y026263D02*
X036504Y026558D01*
X036603Y026657D01*
X036800Y026657D01*
X036898Y026558D01*
X036898Y026263D01*
X037095Y026263D02*
X036504Y026263D01*
X036603Y026907D02*
X036504Y027006D01*
X036504Y027203D01*
X036603Y027301D01*
X036701Y027301D01*
X037095Y026907D01*
X037095Y027301D01*
X037095Y026012D02*
X036504Y025618D01*
X036504Y025367D02*
X036504Y024974D01*
X036800Y024974D02*
X036800Y025171D01*
X019295Y024974D02*
X019295Y025367D01*
X019295Y025618D02*
X018704Y026012D01*
X018704Y026263D02*
X018704Y026558D01*
X018803Y026657D01*
X019000Y026657D01*
X019098Y026558D01*
X019098Y026263D01*
X019295Y026263D02*
X018704Y026263D01*
X019295Y026012D02*
X018704Y025618D01*
X018704Y025367D02*
X018704Y024974D01*
X019295Y024974D01*
X019000Y024974D02*
X019000Y025171D01*
X018901Y026907D02*
X018704Y027104D01*
X019295Y027104D01*
X019295Y026907D02*
X019295Y027301D01*
X014758Y016464D02*
X014561Y016464D01*
X014463Y016366D01*
X014463Y016267D01*
X014561Y016169D01*
X014758Y016169D01*
X014857Y016071D01*
X014857Y015972D01*
X014758Y015874D01*
X014561Y015874D01*
X014463Y015972D01*
X014230Y015874D02*
X014033Y015874D01*
X014132Y015874D02*
X014132Y016464D01*
X014230Y016464D02*
X014033Y016464D01*
X013782Y016464D02*
X013389Y015874D01*
X013138Y015874D02*
X013138Y016267D01*
X012941Y016464D01*
X012744Y016267D01*
X012744Y015874D01*
X012744Y016169D02*
X013138Y016169D01*
X013389Y016464D02*
X013782Y015874D01*
X014758Y016464D02*
X014857Y016366D01*
X011849Y016366D02*
X011849Y016464D01*
X011849Y016366D02*
X011652Y016169D01*
X011652Y015874D01*
X011652Y016169D02*
X011455Y016366D01*
X011455Y016464D01*
X010607Y016366D02*
X010508Y016464D01*
X010311Y016464D01*
X010213Y016366D01*
X010213Y016267D01*
X010311Y016169D01*
X010508Y016169D01*
X010607Y016071D01*
X010607Y015972D01*
X010508Y015874D01*
X010311Y015874D01*
X010213Y015972D01*
X009980Y015874D02*
X009783Y015874D01*
X009882Y015874D02*
X009882Y016464D01*
X009980Y016464D02*
X009783Y016464D01*
X009532Y016464D02*
X009139Y015874D01*
X008888Y015874D02*
X008888Y016267D01*
X008691Y016464D01*
X008494Y016267D01*
X008494Y015874D01*
X008494Y016169D02*
X008888Y016169D01*
X009139Y016464D02*
X009532Y015874D01*
X007599Y015874D02*
X007205Y016464D01*
X007599Y016464D02*
X007205Y015874D01*
X008462Y001233D02*
X008462Y001124D01*
X008462Y000907D02*
X008462Y000474D01*
X008354Y000474D02*
X008571Y000474D01*
X008821Y000582D02*
X008929Y000474D01*
X009146Y000474D01*
X009254Y000582D01*
X009254Y000799D01*
X009146Y000907D01*
X008929Y000907D01*
X008821Y000799D01*
X008821Y000582D01*
X008462Y000907D02*
X008354Y000907D01*
X008088Y000907D02*
X007763Y000907D01*
X007654Y000799D01*
X007763Y000691D01*
X007979Y000691D01*
X008088Y000582D01*
X007979Y000474D01*
X007654Y000474D01*
X007388Y000691D02*
X006954Y000691D01*
X006954Y000799D02*
X007063Y000907D01*
X007280Y000907D01*
X007388Y000799D01*
X007388Y000691D01*
X007280Y000474D02*
X007063Y000474D01*
X006954Y000582D01*
X006954Y000799D01*
X006688Y000799D02*
X006580Y000907D01*
X006363Y000907D01*
X006255Y000799D01*
X005989Y000799D02*
X005880Y000907D01*
X005663Y000907D01*
X005555Y000799D01*
X005555Y000582D01*
X005663Y000474D01*
X005880Y000474D01*
X005989Y000582D01*
X005989Y000799D01*
X006255Y001124D02*
X006255Y000474D01*
X006688Y000474D02*
X006688Y000799D01*
X005289Y000582D02*
X005180Y000474D01*
X004963Y000474D01*
X004855Y000582D01*
X004855Y001016D01*
X004963Y001124D01*
X005180Y001124D01*
X005289Y001016D01*
X004197Y000907D02*
X004088Y000907D01*
X003871Y000691D01*
X003871Y000907D02*
X003871Y000474D01*
X003605Y000582D02*
X003605Y000799D01*
X003497Y000907D01*
X003280Y000907D01*
X003172Y000799D01*
X003172Y000582D01*
X003280Y000474D01*
X003497Y000474D01*
X003605Y000582D01*
X002922Y000799D02*
X002705Y000799D01*
X002813Y001016D02*
X002813Y000474D01*
X002813Y001016D02*
X002922Y001124D01*
X009520Y000907D02*
X009520Y000474D01*
X009520Y000907D02*
X009846Y000907D01*
X009954Y000799D01*
X009954Y000474D01*
X010220Y000582D02*
X010329Y000474D01*
X010545Y000474D01*
X010654Y000582D01*
X010654Y000691D01*
X010545Y000799D01*
X010437Y000799D01*
X010545Y000799D02*
X010654Y000907D01*
X010654Y001016D01*
X010545Y001124D01*
X010329Y001124D01*
X010220Y001016D01*
X010920Y001124D02*
X010920Y000474D01*
X011245Y000474D01*
X011354Y000582D01*
X011354Y001016D01*
X011245Y001124D01*
X010920Y001124D01*
X012320Y001124D02*
X012320Y000474D01*
X012320Y000691D02*
X012645Y000691D01*
X012753Y000799D01*
X012753Y001016D01*
X012645Y001124D01*
X012320Y001124D01*
X012536Y000691D02*
X012753Y000474D01*
X013019Y000582D02*
X013019Y000799D01*
X013128Y000907D01*
X013345Y000907D01*
X013453Y000799D01*
X013453Y000691D01*
X013019Y000691D01*
X013019Y000582D02*
X013128Y000474D01*
X013345Y000474D01*
X013719Y000474D02*
X013719Y001124D01*
X013936Y000907D01*
X014153Y001124D01*
X014153Y000474D01*
X014419Y000474D02*
X014636Y000474D01*
X014527Y000474D02*
X014527Y000907D01*
X014419Y000907D01*
X014527Y001124D02*
X014527Y001233D01*
X014885Y000907D02*
X015319Y000474D01*
X015319Y000907D02*
X014885Y000474D01*
D12*
X015524Y000125D02*
X018524Y000125D01*
X021524Y000125D01*
X024524Y000125D01*
X027524Y000125D01*
X030524Y000125D01*
X033524Y000125D01*
X033524Y002325D01*
X033024Y002325D01*
X033024Y001825D01*
X031024Y001825D01*
X031024Y002325D01*
X033024Y002325D01*
X031024Y002325D02*
X030524Y002325D01*
X030524Y000125D01*
X030524Y002325D01*
X030024Y002325D01*
X030024Y001825D01*
X028024Y001825D01*
X028024Y002325D01*
X030024Y002325D01*
X028024Y002325D02*
X027524Y002325D01*
X027524Y000125D01*
X027524Y002325D01*
X027024Y002325D01*
X027024Y001825D01*
X025024Y001825D01*
X025024Y002325D01*
X027024Y002325D01*
X025024Y002325D02*
X024524Y002325D01*
X024524Y000125D01*
X024524Y002325D01*
X024024Y002325D01*
X024024Y001825D01*
X022024Y001825D01*
X022024Y002325D01*
X024024Y002325D01*
X022024Y002325D02*
X021524Y002325D01*
X021524Y000125D01*
X021524Y002325D01*
X021024Y002325D01*
X021024Y001825D01*
X019024Y001825D01*
X019024Y002325D01*
X021024Y002325D01*
X019024Y002325D02*
X018524Y002325D01*
X018524Y000125D01*
X018524Y002325D01*
X018024Y002325D01*
X018024Y001825D01*
X016024Y001825D01*
X016024Y002325D01*
X018024Y002325D01*
X016024Y002325D02*
X015524Y002325D01*
X015524Y000125D01*
X023212Y004768D02*
X023212Y005038D01*
X023122Y005038D02*
X023302Y005038D01*
X023416Y005038D02*
X023416Y004768D01*
X023416Y004903D02*
X023596Y004903D01*
X023596Y005038D02*
X023596Y004768D01*
X023711Y004723D02*
X023891Y004723D01*
X024006Y004768D02*
X024141Y004768D01*
X024186Y004813D01*
X024186Y004858D01*
X024141Y004903D01*
X024006Y004903D01*
X024141Y004903D02*
X024186Y004948D01*
X024186Y004993D01*
X024141Y005038D01*
X024006Y005038D01*
X024006Y004768D01*
X024300Y004768D02*
X024300Y005038D01*
X024480Y005038D01*
X024595Y005038D02*
X024595Y004768D01*
X024730Y004768D01*
X024775Y004813D01*
X024775Y004993D01*
X024730Y005038D01*
X024595Y005038D01*
X024390Y004903D02*
X024300Y004903D01*
X024300Y004768D02*
X024480Y004768D01*
X025122Y005038D02*
X025302Y005038D01*
X025212Y005038D02*
X025212Y004768D01*
X025416Y004768D02*
X025416Y005038D01*
X025416Y004903D02*
X025596Y004903D01*
X025596Y005038D02*
X025596Y004768D01*
X025711Y004723D02*
X025891Y004723D01*
X026006Y004768D02*
X026186Y004768D01*
X026300Y004768D02*
X026480Y004768D01*
X026390Y004768D02*
X026390Y005038D01*
X026300Y004948D01*
X026186Y005038D02*
X026006Y005038D01*
X026006Y004768D01*
X026006Y004903D02*
X026096Y004903D01*
X027122Y005038D02*
X027302Y005038D01*
X027212Y005038D02*
X027212Y004768D01*
X027416Y004768D02*
X027416Y005038D01*
X027416Y004903D02*
X027596Y004903D01*
X027596Y005038D02*
X027596Y004768D01*
X027711Y004723D02*
X027891Y004723D01*
X028006Y004768D02*
X028186Y004768D01*
X028300Y004768D02*
X028480Y004948D01*
X028480Y004993D01*
X028435Y005038D01*
X028345Y005038D01*
X028300Y004993D01*
X028186Y005038D02*
X028006Y005038D01*
X028006Y004768D01*
X028006Y004903D02*
X028096Y004903D01*
X028300Y004768D02*
X028480Y004768D01*
X029122Y005038D02*
X029302Y005038D01*
X029212Y005038D02*
X029212Y004768D01*
X029416Y004768D02*
X029416Y005038D01*
X029416Y004903D02*
X029596Y004903D01*
X029596Y005038D02*
X029596Y004768D01*
X029711Y004723D02*
X029891Y004723D01*
X030006Y004768D02*
X030186Y004768D01*
X030300Y004813D02*
X030345Y004768D01*
X030435Y004768D01*
X030480Y004813D01*
X030480Y004858D01*
X030435Y004903D01*
X030390Y004903D01*
X030435Y004903D02*
X030480Y004948D01*
X030480Y004993D01*
X030435Y005038D01*
X030345Y005038D01*
X030300Y004993D01*
X030186Y005038D02*
X030006Y005038D01*
X030006Y004768D01*
X030006Y004903D02*
X030096Y004903D01*
X026153Y006352D02*
X026108Y006307D01*
X026018Y006307D01*
X025973Y006352D01*
X026018Y006442D02*
X026108Y006442D01*
X026153Y006397D01*
X026153Y006352D01*
X026018Y006442D02*
X025973Y006487D01*
X025973Y006532D01*
X026018Y006577D01*
X026108Y006577D01*
X026153Y006532D01*
X025858Y006532D02*
X025858Y006442D01*
X025813Y006397D01*
X025678Y006397D01*
X025768Y006397D02*
X025858Y006307D01*
X025678Y006307D02*
X025678Y006577D01*
X025813Y006577D01*
X025858Y006532D01*
X025563Y006532D02*
X025563Y006352D01*
X025518Y006307D01*
X025428Y006307D01*
X025383Y006352D01*
X025383Y006532D01*
X025428Y006577D01*
X025518Y006577D01*
X025563Y006532D01*
X025269Y006577D02*
X025089Y006577D01*
X025179Y006577D02*
X025179Y006307D01*
X024974Y006352D02*
X024929Y006307D01*
X024839Y006307D01*
X024794Y006352D01*
X024839Y006442D02*
X024929Y006442D01*
X024974Y006397D01*
X024974Y006352D01*
X024839Y006442D02*
X024794Y006487D01*
X024794Y006532D01*
X024839Y006577D01*
X024929Y006577D01*
X024974Y006532D01*
X024688Y006577D02*
X024598Y006577D01*
X024643Y006577D02*
X024643Y006307D01*
X024598Y006307D02*
X024688Y006307D01*
X024483Y006307D02*
X024483Y006577D01*
X024393Y006487D01*
X024303Y006577D01*
X024303Y006307D01*
X024188Y006307D02*
X024098Y006397D01*
X024143Y006397D02*
X024008Y006397D01*
X024008Y006307D02*
X024008Y006577D01*
X024143Y006577D01*
X024188Y006532D01*
X024188Y006442D01*
X024143Y006397D01*
X023894Y006307D02*
X023714Y006307D01*
X023714Y006577D01*
X023894Y006577D01*
X023804Y006442D02*
X023714Y006442D01*
X023599Y006442D02*
X023419Y006442D01*
X023419Y006307D02*
X023419Y006577D01*
X023304Y006577D02*
X023124Y006577D01*
X023214Y006577D02*
X023214Y006307D01*
X023599Y006307D02*
X023599Y006577D01*
X023543Y008557D02*
X023543Y008827D01*
X023453Y008827D02*
X023633Y008827D01*
X023748Y008827D02*
X023748Y008557D01*
X023748Y008692D02*
X023928Y008692D01*
X024042Y008692D02*
X024132Y008692D01*
X024042Y008827D02*
X024042Y008557D01*
X024222Y008557D01*
X024337Y008557D02*
X024337Y008827D01*
X024472Y008827D01*
X024517Y008782D01*
X024517Y008692D01*
X024472Y008647D01*
X024337Y008647D01*
X024427Y008647D02*
X024517Y008557D01*
X024632Y008557D02*
X024632Y008827D01*
X024722Y008737D01*
X024812Y008827D01*
X024812Y008557D01*
X024926Y008557D02*
X025016Y008557D01*
X024971Y008557D02*
X024971Y008827D01*
X024926Y008827D02*
X025016Y008827D01*
X025123Y008782D02*
X025123Y008737D01*
X025168Y008692D01*
X025258Y008692D01*
X025303Y008647D01*
X025303Y008602D01*
X025258Y008557D01*
X025168Y008557D01*
X025123Y008602D01*
X025123Y008782D02*
X025168Y008827D01*
X025258Y008827D01*
X025303Y008782D01*
X025417Y008827D02*
X025597Y008827D01*
X025507Y008827D02*
X025507Y008557D01*
X025712Y008602D02*
X025757Y008557D01*
X025847Y008557D01*
X025892Y008602D01*
X025892Y008782D01*
X025847Y008827D01*
X025757Y008827D01*
X025712Y008782D01*
X025712Y008602D01*
X026007Y008647D02*
X026142Y008647D01*
X026187Y008692D01*
X026187Y008782D01*
X026142Y008827D01*
X026007Y008827D01*
X026007Y008557D01*
X026097Y008647D02*
X026187Y008557D01*
X024222Y008827D02*
X024042Y008827D01*
X023928Y008827D02*
X023928Y008557D01*
X023044Y008602D02*
X023044Y008782D01*
X022999Y008827D01*
X022864Y008827D01*
X022864Y008557D01*
X022999Y008557D01*
X023044Y008602D01*
X022749Y008557D02*
X022569Y008557D01*
X022569Y008827D01*
X022749Y008827D01*
X022659Y008692D02*
X022569Y008692D01*
X022454Y008737D02*
X022409Y008692D01*
X022274Y008692D01*
X022274Y008827D02*
X022409Y008827D01*
X022454Y008782D01*
X022454Y008737D01*
X022409Y008692D02*
X022454Y008647D01*
X022454Y008602D01*
X022409Y008557D01*
X022274Y008557D01*
X022274Y008827D01*
X008125Y025421D02*
X007825Y025721D01*
X007750Y025721D01*
X007675Y025646D01*
X007675Y025496D01*
X007750Y025421D01*
X008125Y025421D02*
X008125Y025721D01*
X008125Y028371D02*
X008125Y028671D01*
X008125Y028521D02*
X007675Y028521D01*
X007825Y028371D01*
D13*
X009900Y022856D02*
X003900Y022856D01*
X003900Y017738D01*
X009900Y017738D01*
X015900Y017738D01*
X021900Y017738D01*
X027900Y017738D01*
X033900Y017738D01*
X039900Y017738D01*
X039900Y022856D01*
X033900Y022856D01*
X033900Y017738D01*
X033900Y022856D01*
X027900Y022856D01*
X027900Y017738D01*
X027900Y022856D01*
X021900Y022856D01*
X021900Y017738D01*
X021900Y022856D01*
X015900Y022856D01*
X015900Y017738D01*
X015900Y022856D01*
X009900Y022856D01*
X009900Y017738D01*
X009900Y022856D01*
X006804Y016139D02*
X004244Y016139D01*
X004244Y011730D01*
X003851Y011730D01*
X003851Y016139D01*
X004244Y016139D01*
X006804Y016139D02*
X006804Y011730D01*
X004244Y011730D01*
X003900Y011356D02*
X003900Y006238D01*
X009900Y006238D01*
X015900Y006238D01*
X021900Y006238D01*
X021900Y011356D01*
X015900Y011356D01*
X015900Y006238D01*
X015900Y011356D01*
X009900Y011356D01*
X009900Y006238D01*
X009900Y011356D01*
X003900Y011356D01*
X004400Y004019D02*
X004150Y003769D01*
X004150Y003269D01*
X004400Y003019D01*
X004900Y003019D01*
X005150Y003269D01*
X005400Y003019D01*
X005900Y003019D01*
X006150Y003269D01*
X006150Y003769D01*
X005900Y004019D01*
X005400Y004019D01*
X005150Y003769D01*
X004900Y004019D01*
X004400Y004019D01*
X006900Y003769D02*
X006900Y003269D01*
X007150Y003019D01*
X007650Y003019D01*
X007900Y003269D01*
X008150Y003019D01*
X008650Y003019D01*
X008900Y003269D01*
X008900Y003769D01*
X008650Y004019D01*
X008150Y004019D01*
X007900Y003769D01*
X007650Y004019D01*
X007150Y004019D01*
X006900Y003769D01*
X009650Y003769D02*
X009650Y003269D01*
X009900Y003019D01*
X010400Y003019D01*
X010650Y003269D01*
X010900Y003019D01*
X011400Y003019D01*
X011650Y003269D01*
X011650Y003769D01*
X011400Y004019D01*
X010900Y004019D01*
X010650Y003769D01*
X010400Y004019D01*
X009900Y004019D01*
X009650Y003769D01*
X012400Y003769D02*
X012400Y003269D01*
X012650Y003019D01*
X013150Y003019D01*
X013400Y003269D01*
X013650Y003019D01*
X014150Y003019D01*
X014400Y003269D01*
X014400Y003769D01*
X014150Y004019D01*
X013650Y004019D01*
X013400Y003769D01*
X013150Y004019D01*
X012650Y004019D01*
X012400Y003769D01*
X015971Y002863D02*
X016251Y002863D01*
X016251Y002793D01*
X015971Y002513D01*
X015971Y002443D01*
X016251Y002443D01*
X016431Y002653D02*
X016711Y002653D01*
X016891Y002443D02*
X016891Y002863D01*
X017032Y002723D01*
X017172Y002863D01*
X017172Y002443D01*
X017352Y002443D02*
X017352Y002723D01*
X017492Y002863D01*
X017632Y002723D01*
X017632Y002443D01*
X017812Y002443D02*
X018093Y002863D01*
X017812Y002863D02*
X018093Y002443D01*
X017632Y002653D02*
X017352Y002653D01*
X019075Y002544D02*
X019075Y002474D01*
X019356Y002474D01*
X019536Y002684D02*
X019816Y002684D01*
X019996Y002474D02*
X019996Y002895D01*
X020136Y002754D01*
X020276Y002895D01*
X020276Y002474D01*
X020457Y002474D02*
X020597Y002474D01*
X020527Y002474D02*
X020527Y002895D01*
X020457Y002895D02*
X020597Y002895D01*
X020764Y002895D02*
X021044Y002474D01*
X021044Y002895D01*
X020764Y002895D02*
X020764Y002474D01*
X021991Y002793D02*
X022131Y002653D01*
X022131Y002443D01*
X022131Y002653D02*
X022272Y002793D01*
X022272Y002863D01*
X022452Y002653D02*
X022732Y002653D01*
X022912Y002443D02*
X022912Y002863D01*
X023052Y002723D01*
X023192Y002863D01*
X023192Y002443D01*
X023373Y002443D02*
X023373Y002723D01*
X023513Y002863D01*
X023653Y002723D01*
X023653Y002443D01*
X023833Y002443D02*
X024113Y002863D01*
X023833Y002863D02*
X024113Y002443D01*
X023653Y002653D02*
X023373Y002653D01*
X021991Y002793D02*
X021991Y002863D01*
X023150Y005169D02*
X023650Y005169D01*
X023900Y005419D01*
X024150Y005169D01*
X024650Y005169D01*
X024900Y005419D01*
X025150Y005169D01*
X025650Y005169D01*
X025900Y005419D01*
X026150Y005169D01*
X026650Y005169D01*
X026900Y005419D01*
X027150Y005169D01*
X027650Y005169D01*
X027900Y005419D01*
X028150Y005169D01*
X028650Y005169D01*
X028900Y005419D01*
X029150Y005169D01*
X029650Y005169D01*
X029900Y005419D01*
X030150Y005169D01*
X030650Y005169D01*
X030900Y005419D01*
X030900Y005919D01*
X030650Y006169D01*
X030150Y006169D01*
X029900Y005919D01*
X029650Y006169D01*
X029150Y006169D01*
X028900Y005919D01*
X028650Y006169D01*
X028150Y006169D01*
X027900Y005919D01*
X027650Y006169D01*
X027150Y006169D01*
X026900Y005919D01*
X026650Y006169D01*
X026150Y006169D01*
X025900Y005919D01*
X025650Y006169D01*
X025150Y006169D01*
X024900Y005919D01*
X024650Y006169D01*
X024150Y006169D01*
X023900Y005919D01*
X023650Y006169D01*
X023150Y006169D01*
X022900Y005919D01*
X022900Y005419D01*
X023150Y005169D01*
X025167Y002863D02*
X025167Y002793D01*
X025307Y002653D01*
X025307Y002443D01*
X025307Y002653D02*
X025448Y002793D01*
X025448Y002863D01*
X025628Y002653D02*
X025908Y002653D01*
X026088Y002443D02*
X026088Y002863D01*
X026228Y002723D01*
X026368Y002863D01*
X026368Y002443D01*
X026549Y002443D02*
X026689Y002443D01*
X026619Y002443D02*
X026619Y002863D01*
X026549Y002863D02*
X026689Y002863D01*
X026855Y002863D02*
X027136Y002443D01*
X027136Y002863D01*
X026855Y002863D02*
X026855Y002443D01*
X028231Y002443D02*
X028511Y002863D01*
X028691Y002653D02*
X028971Y002653D01*
X029152Y002443D02*
X029152Y002863D01*
X029292Y002723D01*
X029432Y002863D01*
X029432Y002443D01*
X029612Y002443D02*
X029612Y002723D01*
X029752Y002863D01*
X029892Y002723D01*
X029892Y002443D01*
X030072Y002443D02*
X030353Y002863D01*
X030072Y002863D02*
X030353Y002443D01*
X029892Y002653D02*
X029612Y002653D01*
X028511Y002443D02*
X028231Y002863D01*
X031351Y002863D02*
X031631Y002443D01*
X031811Y002653D02*
X032091Y002653D01*
X032271Y002443D02*
X032271Y002863D01*
X032411Y002723D01*
X032552Y002863D01*
X032552Y002443D01*
X032732Y002443D02*
X032872Y002443D01*
X032802Y002443D02*
X032802Y002863D01*
X032732Y002863D02*
X032872Y002863D01*
X033039Y002863D02*
X033319Y002443D01*
X033319Y002863D01*
X033039Y002863D02*
X033039Y002443D01*
X031631Y002863D02*
X031351Y002443D01*
X034400Y001169D02*
X034400Y000669D01*
X034650Y000419D01*
X035150Y000419D01*
X035400Y000669D01*
X035650Y000419D01*
X036150Y000419D01*
X036400Y000669D01*
X036650Y000419D01*
X037150Y000419D01*
X037400Y000669D01*
X037400Y001169D01*
X037150Y001419D01*
X036650Y001419D01*
X036400Y001169D01*
X036150Y001419D01*
X035650Y001419D01*
X035400Y001169D01*
X035150Y001419D01*
X034650Y001419D01*
X034400Y001169D01*
X034847Y001613D02*
X034917Y001543D01*
X035057Y001543D01*
X035127Y001613D01*
X035127Y001683D01*
X035057Y001753D01*
X034917Y001753D01*
X034847Y001823D01*
X034847Y001893D01*
X034917Y001963D01*
X035057Y001963D01*
X035127Y001893D01*
X035307Y001963D02*
X035307Y001543D01*
X035588Y001543D01*
X035768Y001543D02*
X035768Y001963D01*
X035978Y001963D01*
X036048Y001893D01*
X036048Y001753D01*
X035978Y001683D01*
X035768Y001683D01*
X035908Y001683D02*
X036048Y001543D01*
X036228Y001683D02*
X036368Y001543D01*
X036509Y001683D01*
X036509Y001963D01*
X036689Y001893D02*
X036689Y001613D01*
X036759Y001543D01*
X036899Y001543D01*
X036969Y001613D01*
X036969Y001893D01*
X036899Y001963D01*
X036759Y001963D01*
X036689Y001893D01*
X036228Y001963D02*
X036228Y001683D01*
X035588Y001963D02*
X035307Y001963D01*
X035307Y001753D02*
X035448Y001753D01*
X033900Y006238D02*
X039900Y006238D01*
X039900Y011356D01*
X033900Y011356D01*
X033900Y006238D01*
X032400Y007238D02*
X032400Y012356D01*
X026400Y012356D01*
X026400Y007238D01*
X032400Y007238D01*
X024900Y007669D02*
X024650Y007419D01*
X024150Y007419D01*
X023900Y007669D01*
X023650Y007419D01*
X023150Y007419D01*
X022900Y007669D01*
X022900Y008169D01*
X023150Y008419D01*
X023650Y008419D01*
X023900Y008169D01*
X024150Y008419D01*
X024650Y008419D01*
X024900Y008169D01*
X024900Y007669D01*
X019356Y002895D02*
X019356Y002825D01*
X019075Y002544D01*
X019075Y002895D02*
X019356Y002895D01*
D14*
X020291Y038291D02*
X020291Y039212D01*
X020752Y039672D01*
X021212Y039212D01*
X021212Y038291D01*
X021212Y038982D02*
X020291Y038982D01*
X015212Y039442D02*
X014291Y038521D01*
X014291Y038291D01*
X015212Y038291D01*
X015212Y039442D02*
X015212Y039672D01*
X014291Y039672D01*
X009306Y039610D02*
X009306Y039380D01*
X008845Y038919D01*
X008845Y038229D01*
X008845Y038919D02*
X008385Y039380D01*
X008385Y039610D01*
X003337Y039672D02*
X002416Y038291D01*
X003337Y038291D02*
X002416Y039672D01*
X026291Y039672D02*
X026291Y038291D01*
X026982Y038291D01*
X027212Y038521D01*
X027212Y038752D01*
X026982Y038982D01*
X026291Y038982D01*
X026982Y038982D02*
X027212Y039212D01*
X027212Y039442D01*
X026982Y039672D01*
X026291Y039672D01*
X031916Y039442D02*
X031916Y038521D01*
X032146Y038291D01*
X032607Y038291D01*
X032837Y038521D01*
X032837Y039442D02*
X032607Y039672D01*
X032146Y039672D01*
X031916Y039442D01*
D15*
X031828Y037200D02*
X031828Y029300D01*
X029478Y029300D01*
X029476Y029344D01*
X029470Y029387D01*
X029461Y029429D01*
X029448Y029471D01*
X029431Y029511D01*
X029411Y029550D01*
X029388Y029587D01*
X029361Y029621D01*
X029332Y029654D01*
X029299Y029683D01*
X029265Y029710D01*
X029228Y029733D01*
X029189Y029753D01*
X029149Y029770D01*
X029107Y029783D01*
X029065Y029792D01*
X029022Y029798D01*
X028978Y029800D01*
X028934Y029798D01*
X028891Y029792D01*
X028849Y029783D01*
X028807Y029770D01*
X028767Y029753D01*
X028728Y029733D01*
X028691Y029710D01*
X028657Y029683D01*
X028624Y029654D01*
X028595Y029621D01*
X028568Y029587D01*
X028545Y029550D01*
X028525Y029511D01*
X028508Y029471D01*
X028495Y029429D01*
X028486Y029387D01*
X028480Y029344D01*
X028478Y029300D01*
X026128Y029300D01*
X026128Y037200D01*
X031828Y037200D01*
X032128Y037200D02*
X032128Y029300D01*
X034478Y029300D01*
X034480Y029344D01*
X034486Y029387D01*
X034495Y029429D01*
X034508Y029471D01*
X034525Y029511D01*
X034545Y029550D01*
X034568Y029587D01*
X034595Y029621D01*
X034624Y029654D01*
X034657Y029683D01*
X034691Y029710D01*
X034728Y029733D01*
X034767Y029753D01*
X034807Y029770D01*
X034849Y029783D01*
X034891Y029792D01*
X034934Y029798D01*
X034978Y029800D01*
X035022Y029798D01*
X035065Y029792D01*
X035107Y029783D01*
X035149Y029770D01*
X035189Y029753D01*
X035228Y029733D01*
X035265Y029710D01*
X035299Y029683D01*
X035332Y029654D01*
X035361Y029621D01*
X035388Y029587D01*
X035411Y029550D01*
X035431Y029511D01*
X035448Y029471D01*
X035461Y029429D01*
X035470Y029387D01*
X035476Y029344D01*
X035478Y029300D01*
X037828Y029300D01*
X037828Y037200D01*
X032128Y037200D01*
X025828Y037200D02*
X025828Y029300D01*
X023478Y029300D01*
X023476Y029344D01*
X023470Y029387D01*
X023461Y029429D01*
X023448Y029471D01*
X023431Y029511D01*
X023411Y029550D01*
X023388Y029587D01*
X023361Y029621D01*
X023332Y029654D01*
X023299Y029683D01*
X023265Y029710D01*
X023228Y029733D01*
X023189Y029753D01*
X023149Y029770D01*
X023107Y029783D01*
X023065Y029792D01*
X023022Y029798D01*
X022978Y029800D01*
X022934Y029798D01*
X022891Y029792D01*
X022849Y029783D01*
X022807Y029770D01*
X022767Y029753D01*
X022728Y029733D01*
X022691Y029710D01*
X022657Y029683D01*
X022624Y029654D01*
X022595Y029621D01*
X022568Y029587D01*
X022545Y029550D01*
X022525Y029511D01*
X022508Y029471D01*
X022495Y029429D01*
X022486Y029387D01*
X022480Y029344D01*
X022478Y029300D01*
X020128Y029300D01*
X020128Y037200D01*
X025828Y037200D01*
X019828Y037200D02*
X019828Y029300D01*
X017478Y029300D01*
X017476Y029344D01*
X017470Y029387D01*
X017461Y029429D01*
X017448Y029471D01*
X017431Y029511D01*
X017411Y029550D01*
X017388Y029587D01*
X017361Y029621D01*
X017332Y029654D01*
X017299Y029683D01*
X017265Y029710D01*
X017228Y029733D01*
X017189Y029753D01*
X017149Y029770D01*
X017107Y029783D01*
X017065Y029792D01*
X017022Y029798D01*
X016978Y029800D01*
X016934Y029798D01*
X016891Y029792D01*
X016849Y029783D01*
X016807Y029770D01*
X016767Y029753D01*
X016728Y029733D01*
X016691Y029710D01*
X016657Y029683D01*
X016624Y029654D01*
X016595Y029621D01*
X016568Y029587D01*
X016545Y029550D01*
X016525Y029511D01*
X016508Y029471D01*
X016495Y029429D01*
X016486Y029387D01*
X016480Y029344D01*
X016478Y029300D01*
X014128Y029300D01*
X014128Y037200D01*
X019828Y037200D01*
X013828Y037200D02*
X013828Y029300D01*
X011478Y029300D01*
X011476Y029344D01*
X011470Y029387D01*
X011461Y029429D01*
X011448Y029471D01*
X011431Y029511D01*
X011411Y029550D01*
X011388Y029587D01*
X011361Y029621D01*
X011332Y029654D01*
X011299Y029683D01*
X011265Y029710D01*
X011228Y029733D01*
X011189Y029753D01*
X011149Y029770D01*
X011107Y029783D01*
X011065Y029792D01*
X011022Y029798D01*
X010978Y029800D01*
X010934Y029798D01*
X010891Y029792D01*
X010849Y029783D01*
X010807Y029770D01*
X010767Y029753D01*
X010728Y029733D01*
X010691Y029710D01*
X010657Y029683D01*
X010624Y029654D01*
X010595Y029621D01*
X010568Y029587D01*
X010545Y029550D01*
X010525Y029511D01*
X010508Y029471D01*
X010495Y029429D01*
X010486Y029387D01*
X010480Y029344D01*
X010478Y029300D01*
X008128Y029300D01*
X008128Y037200D01*
X013828Y037200D01*
X007831Y037200D02*
X007831Y029300D01*
X005481Y029300D01*
X005050Y029106D02*
X003950Y029106D01*
X003950Y023106D01*
X005050Y023106D01*
X008700Y023106D01*
X008700Y024156D01*
X008700Y025056D02*
X008700Y027156D01*
X008700Y028056D02*
X008700Y029106D01*
X005050Y029106D01*
X005050Y023106D01*
X004450Y024406D02*
X003950Y024256D01*
X003950Y024956D02*
X004450Y024806D01*
X004450Y024406D01*
X003950Y027256D02*
X004450Y027406D01*
X004450Y027806D01*
X003950Y027956D01*
X004481Y029300D02*
X002131Y029300D01*
X002131Y037200D01*
X007831Y037200D01*
X005481Y029300D02*
X005479Y029344D01*
X005473Y029387D01*
X005464Y029429D01*
X005451Y029471D01*
X005434Y029511D01*
X005414Y029550D01*
X005391Y029587D01*
X005364Y029621D01*
X005335Y029654D01*
X005302Y029683D01*
X005268Y029710D01*
X005231Y029733D01*
X005192Y029753D01*
X005152Y029770D01*
X005110Y029783D01*
X005068Y029792D01*
X005025Y029798D01*
X004981Y029800D01*
X004937Y029798D01*
X004894Y029792D01*
X004852Y029783D01*
X004810Y029770D01*
X004770Y029753D01*
X004731Y029733D01*
X004694Y029710D01*
X004660Y029683D01*
X004627Y029654D01*
X004598Y029621D01*
X004571Y029587D01*
X004548Y029550D01*
X004528Y029511D01*
X004511Y029471D01*
X004498Y029429D01*
X004489Y029387D01*
X004483Y029344D01*
X004481Y029300D01*
X004106Y002857D02*
X004106Y002630D01*
X003993Y002744D02*
X004219Y002744D01*
X004493Y002789D02*
X004719Y002789D01*
X004861Y002789D02*
X004861Y002449D01*
X005088Y002449D01*
X004974Y002619D02*
X004861Y002619D01*
X004861Y002789D02*
X005088Y002789D01*
X005229Y002789D02*
X005456Y002789D01*
X005343Y002789D02*
X005343Y002449D01*
X005597Y002449D02*
X005824Y002449D01*
X005711Y002449D02*
X005711Y002789D01*
X005597Y002676D01*
X005993Y002744D02*
X006219Y002744D01*
X006743Y002744D02*
X006969Y002744D01*
X006856Y002857D02*
X006856Y002630D01*
X007243Y002619D02*
X007356Y002619D01*
X007243Y002789D02*
X007469Y002789D01*
X007611Y002789D02*
X007611Y002449D01*
X007838Y002449D01*
X007724Y002619D02*
X007611Y002619D01*
X007611Y002789D02*
X007838Y002789D01*
X007979Y002789D02*
X008206Y002789D01*
X008093Y002789D02*
X008093Y002449D01*
X008347Y002449D02*
X008574Y002676D01*
X008574Y002732D01*
X008518Y002789D01*
X008404Y002789D01*
X008347Y002732D01*
X008347Y002449D02*
X008574Y002449D01*
X008743Y002744D02*
X008969Y002744D01*
X009593Y002744D02*
X009819Y002744D01*
X009706Y002857D02*
X009706Y002630D01*
X009993Y002619D02*
X010106Y002619D01*
X009993Y002789D02*
X010219Y002789D01*
X010361Y002789D02*
X010361Y002449D01*
X010588Y002449D01*
X010474Y002619D02*
X010361Y002619D01*
X010361Y002789D02*
X010588Y002789D01*
X010729Y002789D02*
X010956Y002789D01*
X010843Y002789D02*
X010843Y002449D01*
X011097Y002505D02*
X011154Y002449D01*
X011268Y002449D01*
X011324Y002505D01*
X011324Y002562D01*
X011268Y002619D01*
X011211Y002619D01*
X011268Y002619D02*
X011324Y002676D01*
X011324Y002732D01*
X011268Y002789D01*
X011154Y002789D01*
X011097Y002732D01*
X011493Y002744D02*
X011719Y002744D01*
X012243Y002744D02*
X012469Y002744D01*
X012356Y002857D02*
X012356Y002630D01*
X012743Y002619D02*
X012856Y002619D01*
X012743Y002789D02*
X012969Y002789D01*
X013111Y002789D02*
X013111Y002449D01*
X013338Y002449D01*
X013224Y002619D02*
X013111Y002619D01*
X013111Y002789D02*
X013338Y002789D01*
X013479Y002789D02*
X013706Y002789D01*
X013593Y002789D02*
X013593Y002449D01*
X013847Y002619D02*
X014074Y002619D01*
X014018Y002789D02*
X013847Y002619D01*
X014018Y002449D02*
X014018Y002789D01*
X014243Y002744D02*
X014469Y002744D01*
X012743Y002789D02*
X012743Y002449D01*
X009993Y002449D02*
X009993Y002789D01*
X007243Y002789D02*
X007243Y002449D01*
X004606Y002619D02*
X004493Y002619D01*
X004493Y002449D02*
X004493Y002789D01*
D16*
X007450Y012823D02*
X007450Y013390D01*
X008225Y013644D02*
X008225Y014494D01*
X008509Y014211D01*
X008792Y014494D01*
X008792Y013644D01*
X009146Y013644D02*
X009146Y014211D01*
X009429Y014494D01*
X009713Y014211D01*
X009713Y013644D01*
X010067Y013644D02*
X010350Y013644D01*
X010208Y013644D02*
X010208Y014494D01*
X010067Y014494D02*
X010350Y014494D01*
X010680Y014494D02*
X011248Y013644D01*
X011248Y014494D01*
X010680Y014494D02*
X010680Y013644D01*
X009713Y014069D02*
X009146Y014069D01*
X007733Y014857D02*
X007166Y014857D01*
X007450Y015140D02*
X007450Y014573D01*
X012522Y014494D02*
X012522Y013644D01*
X012522Y013927D02*
X012947Y013927D01*
X013089Y014069D01*
X013089Y014353D01*
X012947Y014494D01*
X012522Y014494D01*
X013443Y014494D02*
X013443Y013644D01*
X013726Y013927D01*
X014010Y013644D01*
X014010Y014494D01*
X014364Y014494D02*
X014789Y014494D01*
X014931Y014353D01*
X014931Y014069D01*
X014789Y013927D01*
X014364Y013927D01*
X014647Y013927D02*
X014931Y013644D01*
X014364Y013644D02*
X014364Y014494D01*
X017259Y023244D02*
X017259Y023669D01*
X017542Y023953D01*
X017542Y024094D01*
X017259Y023669D02*
X016975Y023953D01*
X016975Y024094D01*
X018817Y023811D02*
X018817Y023244D01*
X018817Y023669D02*
X019384Y023669D01*
X019384Y023811D02*
X019100Y024094D01*
X018817Y023811D01*
X019384Y023811D02*
X019384Y023244D01*
X019737Y023244D02*
X020305Y024094D01*
X020658Y024094D02*
X020942Y024094D01*
X020800Y024094D02*
X020800Y023244D01*
X020658Y023244D02*
X020942Y023244D01*
X021272Y023386D02*
X021414Y023244D01*
X021697Y023244D01*
X021839Y023386D01*
X021839Y023527D01*
X021697Y023669D01*
X021414Y023669D01*
X021272Y023811D01*
X021272Y023953D01*
X021414Y024094D01*
X021697Y024094D01*
X021839Y023953D01*
X022475Y024094D02*
X023042Y024094D01*
X023042Y023953D01*
X022475Y023386D01*
X022475Y023244D01*
X023042Y023244D01*
X024317Y023244D02*
X024317Y023811D01*
X024600Y024094D01*
X024884Y023811D01*
X024884Y023244D01*
X025237Y023244D02*
X025805Y024094D01*
X026158Y024094D02*
X026442Y024094D01*
X026300Y024094D02*
X026300Y023244D01*
X026158Y023244D02*
X026442Y023244D01*
X026772Y023386D02*
X026914Y023244D01*
X027197Y023244D01*
X027339Y023386D01*
X027339Y023527D01*
X027197Y023669D01*
X026914Y023669D01*
X026772Y023811D01*
X026772Y023953D01*
X026914Y024094D01*
X027197Y024094D01*
X027339Y023953D01*
X028475Y024094D02*
X029042Y024094D01*
X029042Y023953D01*
X028475Y023386D01*
X028475Y023244D01*
X029042Y023244D01*
X030317Y023244D02*
X030317Y023811D01*
X030600Y024094D01*
X030884Y023811D01*
X030884Y023244D01*
X031237Y023244D02*
X031805Y024094D01*
X032158Y024094D02*
X032442Y024094D01*
X032300Y024094D02*
X032300Y023244D01*
X032158Y023244D02*
X032442Y023244D01*
X032772Y023386D02*
X032914Y023244D01*
X033197Y023244D01*
X033339Y023386D01*
X033339Y023527D01*
X033197Y023669D01*
X032914Y023669D01*
X032772Y023811D01*
X032772Y023953D01*
X032914Y024094D01*
X033197Y024094D01*
X033339Y023953D01*
X034475Y024094D02*
X034475Y023244D01*
X035042Y023244D01*
X034759Y023669D02*
X034475Y023669D01*
X034475Y024094D02*
X035042Y024094D01*
X035396Y023669D02*
X035963Y023669D01*
X036317Y023244D02*
X036317Y024094D01*
X036600Y023811D01*
X036884Y024094D01*
X036884Y023244D01*
X037237Y023386D02*
X037379Y023244D01*
X037663Y023244D01*
X037805Y023386D01*
X037805Y023953D01*
X037663Y024094D01*
X037379Y024094D01*
X037237Y023953D01*
X037237Y023386D01*
X038158Y024094D02*
X038725Y024094D01*
X038442Y024094D02*
X038442Y023244D01*
X031805Y023244D02*
X031237Y024094D01*
X030884Y023669D02*
X030317Y023669D01*
X025805Y023244D02*
X025237Y024094D01*
X024884Y023669D02*
X024317Y023669D01*
X020305Y023244D02*
X019737Y024094D01*
X016067Y027894D02*
X015783Y028177D01*
X015925Y028177D02*
X015500Y028177D01*
X015500Y027894D02*
X015500Y028744D01*
X015925Y028744D01*
X016067Y028603D01*
X016067Y028319D01*
X015925Y028177D01*
X015146Y027894D02*
X015146Y028744D01*
X014579Y028744D02*
X014579Y027894D01*
X014863Y028177D01*
X015146Y027894D01*
X014225Y028319D02*
X014084Y028177D01*
X013658Y028177D01*
X013658Y027894D02*
X013658Y028744D01*
X014084Y028744D01*
X014225Y028603D01*
X014225Y028319D01*
X012384Y028036D02*
X012384Y028603D01*
X012242Y028744D01*
X011817Y028744D01*
X011817Y027894D01*
X012242Y027894D01*
X012384Y028036D01*
X011463Y027894D02*
X010896Y027894D01*
X010896Y028744D01*
X011463Y028744D01*
X011179Y028319D02*
X010896Y028319D01*
X010542Y028177D02*
X010542Y028036D01*
X010400Y027894D01*
X009975Y027894D01*
X009975Y028744D01*
X010400Y028744D01*
X010542Y028603D01*
X010542Y028461D01*
X010400Y028319D01*
X009975Y028319D01*
X010400Y028319D02*
X010542Y028177D01*
X009483Y027607D02*
X008916Y027607D01*
X009200Y027890D02*
X009200Y027323D01*
X009050Y024890D02*
X009050Y024323D01*
X034225Y004844D02*
X034225Y003994D01*
X034792Y003994D02*
X034792Y004844D01*
X034509Y004561D01*
X034225Y004844D01*
X035146Y004703D02*
X035146Y004136D01*
X035288Y003994D01*
X035571Y003994D01*
X035713Y004136D01*
X035713Y004703D01*
X035571Y004844D01*
X035288Y004844D01*
X035146Y004703D01*
X036067Y004844D02*
X036634Y004844D01*
X036350Y004844D02*
X036350Y003994D01*
X036987Y004136D02*
X037129Y003994D01*
X037413Y003994D01*
X037555Y004136D01*
X037555Y004703D01*
X037413Y004844D01*
X037129Y004844D01*
X036987Y004703D01*
X036987Y004136D01*
X037908Y004277D02*
X038334Y004277D01*
X038475Y004419D01*
X038475Y004703D01*
X038334Y004844D01*
X037908Y004844D01*
X037908Y003994D01*
X038192Y004277D02*
X038475Y003994D01*
X038829Y004136D02*
X038971Y003994D01*
X039254Y003994D01*
X039396Y004136D01*
X039396Y004277D01*
X039254Y004419D01*
X038829Y004419D01*
X038829Y004136D01*
X038829Y004419D02*
X039113Y004703D01*
X039396Y004844D01*
D17*
X023315Y004234D02*
X022828Y004234D01*
X022828Y004964D01*
X022523Y004721D02*
X022523Y004234D01*
X022523Y004599D02*
X022036Y004599D01*
X022036Y004721D02*
X022280Y004964D01*
X022523Y004721D01*
X022036Y004721D02*
X022036Y004234D01*
X021731Y004234D02*
X021488Y004477D01*
X021609Y004477D02*
X021244Y004477D01*
X021244Y004234D02*
X021244Y004964D01*
X021609Y004964D01*
X021731Y004843D01*
X021731Y004599D01*
X021609Y004477D01*
X020939Y004234D02*
X020452Y004234D01*
X020452Y004964D01*
X020939Y004964D01*
X020696Y004599D02*
X020452Y004599D01*
X020148Y004599D02*
X019660Y004599D01*
X019356Y004599D02*
X019234Y004477D01*
X018869Y004477D01*
X018869Y004234D02*
X018869Y004964D01*
X019234Y004964D01*
X019356Y004843D01*
X019356Y004599D01*
X019660Y004234D02*
X019660Y004964D01*
X020148Y004964D02*
X020148Y004234D01*
X018584Y004234D02*
X018341Y004234D01*
X018462Y004234D02*
X018462Y004964D01*
X018341Y004964D02*
X018584Y004964D01*
X018036Y004843D02*
X018036Y004599D01*
X017914Y004477D01*
X017549Y004477D01*
X017549Y004234D02*
X017549Y004964D01*
X017914Y004964D01*
X018036Y004843D01*
X017792Y004477D02*
X018036Y004234D01*
X017244Y004234D02*
X016757Y004234D01*
X016757Y004964D01*
X017244Y004964D01*
X017000Y004599D02*
X016757Y004599D01*
X016452Y004599D02*
X016452Y004843D01*
X016330Y004964D01*
X015965Y004964D01*
X015965Y004234D01*
X015965Y004477D02*
X016330Y004477D01*
X016452Y004599D01*
X015203Y004721D02*
X015203Y004843D01*
X015082Y004964D01*
X014838Y004964D01*
X014716Y004843D01*
X014411Y004843D02*
X014411Y004599D01*
X014290Y004477D01*
X013924Y004477D01*
X013924Y004234D02*
X013924Y004964D01*
X014290Y004964D01*
X014411Y004843D01*
X014168Y004477D02*
X014411Y004234D01*
X014716Y004234D02*
X015203Y004721D01*
X015203Y004234D02*
X014716Y004234D01*
X013620Y004234D02*
X013133Y004234D01*
X013133Y004964D01*
X013620Y004964D01*
X013376Y004599D02*
X013133Y004599D01*
X012828Y004964D02*
X012341Y004964D01*
X012584Y004964D02*
X012584Y004234D01*
X012036Y004234D02*
X012036Y004721D01*
X011792Y004964D01*
X011549Y004721D01*
X011549Y004234D01*
X011244Y004234D02*
X010757Y004234D01*
X010757Y004964D01*
X011244Y004964D01*
X011000Y004599D02*
X010757Y004599D01*
X010452Y004599D02*
X009965Y004599D01*
X009965Y004234D02*
X009965Y004964D01*
X010452Y004964D02*
X010452Y004234D01*
X011549Y004599D02*
X012036Y004599D01*
X012218Y002214D02*
X012218Y001484D01*
X011913Y001606D02*
X011913Y001727D01*
X011791Y001849D01*
X011547Y001849D01*
X011426Y001971D01*
X011426Y002093D01*
X011547Y002214D01*
X011791Y002214D01*
X011913Y002093D01*
X012218Y001849D02*
X012339Y001971D01*
X012583Y001971D01*
X012705Y001849D01*
X012705Y001484D01*
X013009Y001484D02*
X013253Y001484D01*
X013131Y001484D02*
X013131Y001971D01*
X013009Y001971D01*
X013131Y002214D02*
X013131Y002336D01*
X013537Y001849D02*
X013659Y001971D01*
X013903Y001971D01*
X014024Y001849D01*
X014024Y001727D01*
X013537Y001727D01*
X013537Y001606D02*
X013537Y001849D01*
X013537Y001606D02*
X013659Y001484D01*
X013903Y001484D01*
X014329Y001484D02*
X014573Y001484D01*
X014451Y001484D02*
X014451Y002214D01*
X014329Y002214D01*
X014857Y001849D02*
X014979Y001971D01*
X015344Y001971D01*
X015344Y002214D02*
X015344Y001484D01*
X014979Y001484D01*
X014857Y001606D01*
X014857Y001849D01*
X011913Y001606D02*
X011791Y001484D01*
X011547Y001484D01*
X011426Y001606D01*
X010329Y001606D02*
X010207Y001484D01*
X009964Y001484D01*
X009842Y001606D01*
X009842Y001849D02*
X010085Y001971D01*
X010207Y001971D01*
X010329Y001849D01*
X010329Y001606D01*
X009842Y001849D02*
X009842Y002214D01*
X010329Y002214D01*
X009537Y002214D02*
X009050Y002214D01*
X009294Y002214D02*
X009294Y001484D01*
X008745Y001484D02*
X008745Y001971D01*
X008502Y002214D01*
X008258Y001971D01*
X008258Y001484D01*
X007953Y001606D02*
X007832Y001484D01*
X007588Y001484D01*
X007466Y001606D01*
X007466Y002093D01*
X007588Y002214D01*
X007832Y002214D01*
X007953Y002093D01*
X008258Y001849D02*
X008745Y001849D01*
X008716Y004234D02*
X009203Y004234D01*
X008960Y004234D02*
X008960Y004964D01*
X008716Y004721D01*
X008411Y004843D02*
X008411Y004599D01*
X008290Y004477D01*
X007924Y004477D01*
X007924Y004234D02*
X007924Y004964D01*
X008290Y004964D01*
X008411Y004843D01*
X008168Y004477D02*
X008411Y004234D01*
X007620Y004234D02*
X007133Y004234D01*
X007133Y004964D01*
X007620Y004964D01*
X007376Y004599D02*
X007133Y004599D01*
X006828Y004964D02*
X006341Y004964D01*
X006584Y004964D02*
X006584Y004234D01*
X006036Y004234D02*
X006036Y004721D01*
X005792Y004964D01*
X005549Y004721D01*
X005549Y004234D01*
X005244Y004234D02*
X004757Y004234D01*
X004757Y004964D01*
X005244Y004964D01*
X005000Y004599D02*
X004757Y004599D01*
X004452Y004599D02*
X003965Y004599D01*
X003965Y004234D02*
X003965Y004964D01*
X004452Y004964D02*
X004452Y004234D01*
X005549Y004599D02*
X006036Y004599D01*
X005883Y002214D02*
X006248Y002214D01*
X006370Y002093D01*
X006370Y001606D01*
X006248Y001484D01*
X005883Y001484D01*
X005883Y002214D01*
X005578Y002093D02*
X005578Y001971D01*
X005456Y001849D01*
X005578Y001727D01*
X005578Y001606D01*
X005456Y001484D01*
X005212Y001484D01*
X005091Y001606D01*
X004786Y001484D02*
X004542Y001727D01*
X004664Y001727D02*
X004299Y001727D01*
X004299Y001484D02*
X004299Y002214D01*
X004664Y002214D01*
X004786Y002093D01*
X004786Y001849D01*
X004664Y001727D01*
X005091Y002093D02*
X005212Y002214D01*
X005456Y002214D01*
X005578Y002093D01*
X005456Y001849D02*
X005334Y001849D01*
X003994Y001606D02*
X003994Y002093D01*
X003872Y002214D01*
X003629Y002214D01*
X003507Y002093D01*
X003507Y001606D01*
X003629Y001484D01*
X003872Y001484D01*
X003994Y001606D01*
X003202Y001606D02*
X003080Y001484D01*
X002837Y001484D01*
X002715Y001606D01*
X002715Y002093D01*
X002837Y002214D01*
X003080Y002214D01*
X003202Y002093D01*
D18*
X003212Y029510D02*
X003212Y029657D01*
X003249Y029657D01*
X003286Y029620D01*
X003322Y029657D01*
X003359Y029620D01*
X003359Y029510D01*
X003286Y029510D02*
X003286Y029620D01*
X003433Y029620D02*
X003433Y029547D01*
X003470Y029510D01*
X003543Y029510D01*
X003580Y029547D01*
X003580Y029620D01*
X003543Y029657D01*
X003470Y029657D01*
X003433Y029620D01*
X003654Y029657D02*
X003728Y029657D01*
X003691Y029693D02*
X003691Y029547D01*
X003728Y029510D01*
X003138Y029583D02*
X003138Y029730D01*
X003138Y029583D02*
X003065Y029510D01*
X002991Y029583D01*
X002991Y029730D01*
X003028Y030510D02*
X003101Y030510D01*
X003138Y030547D01*
X003138Y030620D01*
X003065Y030620D01*
X003138Y030693D02*
X003101Y030730D01*
X003028Y030730D01*
X002991Y030693D01*
X002991Y030547D01*
X003028Y030510D01*
X003212Y030510D02*
X003212Y030730D01*
X003359Y030510D01*
X003359Y030730D01*
X003433Y030730D02*
X003543Y030730D01*
X003580Y030693D01*
X003580Y030547D01*
X003543Y030510D01*
X003433Y030510D01*
X003433Y030730D01*
X003322Y031510D02*
X003212Y031510D01*
X003212Y031730D01*
X003322Y031730D01*
X003359Y031693D01*
X003359Y031657D01*
X003322Y031620D01*
X003212Y031620D01*
X003138Y031657D02*
X003138Y031693D01*
X003101Y031730D01*
X003028Y031730D01*
X002991Y031693D01*
X003138Y031657D02*
X002991Y031510D01*
X003138Y031510D01*
X003322Y031510D02*
X003359Y031547D01*
X003359Y031583D01*
X003322Y031620D01*
X003359Y032510D02*
X003359Y032657D01*
X003286Y032730D01*
X003212Y032657D01*
X003212Y032510D01*
X003138Y032510D02*
X002991Y032510D01*
X003138Y032657D01*
X003138Y032693D01*
X003101Y032730D01*
X003028Y032730D01*
X002991Y032693D01*
X003212Y032620D02*
X003359Y032620D01*
X003359Y033510D02*
X003359Y033657D01*
X003286Y033730D01*
X003212Y033657D01*
X003212Y033510D01*
X003138Y033510D02*
X002991Y033510D01*
X003065Y033510D02*
X003065Y033730D01*
X002991Y033657D01*
X003212Y033620D02*
X003359Y033620D01*
X003322Y034510D02*
X003212Y034510D01*
X003212Y034730D01*
X003322Y034730D01*
X003359Y034693D01*
X003359Y034657D01*
X003322Y034620D01*
X003212Y034620D01*
X003322Y034620D02*
X003359Y034583D01*
X003359Y034547D01*
X003322Y034510D01*
X003138Y034510D02*
X002991Y034510D01*
X003065Y034510D02*
X003065Y034730D01*
X002991Y034657D01*
X003065Y035510D02*
X003138Y035583D01*
X003138Y035730D01*
X003212Y035730D02*
X003322Y035730D01*
X003359Y035693D01*
X003359Y035547D01*
X003322Y035510D01*
X003212Y035510D01*
X003212Y035730D01*
X002991Y035730D02*
X002991Y035583D01*
X003065Y035510D01*
X003433Y035510D02*
X003543Y035510D01*
X003580Y035547D01*
X003580Y035693D01*
X003543Y035730D01*
X003433Y035730D01*
X003433Y035510D01*
X003433Y036510D02*
X003543Y036510D01*
X003580Y036547D01*
X003580Y036693D01*
X003543Y036730D01*
X003433Y036730D01*
X003433Y036510D01*
X003359Y036510D02*
X003359Y036730D01*
X003212Y036730D02*
X003212Y036510D01*
X003138Y036547D02*
X003138Y036620D01*
X003065Y036620D01*
X003138Y036547D02*
X003101Y036510D01*
X003028Y036510D01*
X002991Y036547D01*
X002991Y036693D01*
X003028Y036730D01*
X003101Y036730D01*
X003138Y036693D01*
X003212Y036730D02*
X003359Y036510D01*
X006107Y035953D02*
X006107Y035917D01*
X006144Y035880D01*
X006217Y035880D01*
X006254Y035843D01*
X006254Y035807D01*
X006217Y035770D01*
X006144Y035770D01*
X006107Y035807D01*
X006107Y035953D02*
X006144Y035990D01*
X006217Y035990D01*
X006254Y035953D01*
X006328Y035990D02*
X006475Y035990D01*
X006402Y035990D02*
X006402Y035770D01*
X006549Y035770D02*
X006549Y035990D01*
X006696Y035990D01*
X006770Y035990D02*
X006880Y035990D01*
X006917Y035953D01*
X006917Y035880D01*
X006880Y035843D01*
X006770Y035843D01*
X006770Y035770D02*
X006770Y035990D01*
X006623Y035880D02*
X006549Y035880D01*
X006549Y035770D02*
X006696Y035770D01*
X006770Y034990D02*
X006880Y034990D01*
X006917Y034953D01*
X006917Y034880D01*
X006880Y034843D01*
X006770Y034843D01*
X006770Y034770D02*
X006770Y034990D01*
X006549Y034990D02*
X006549Y034770D01*
X006696Y034770D01*
X006475Y034807D02*
X006438Y034770D01*
X006365Y034770D01*
X006328Y034807D01*
X006365Y034880D02*
X006438Y034880D01*
X006475Y034843D01*
X006475Y034807D01*
X006365Y034880D02*
X006328Y034917D01*
X006328Y034953D01*
X006365Y034990D01*
X006438Y034990D01*
X006475Y034953D01*
X006438Y033990D02*
X006475Y033953D01*
X006475Y033880D01*
X006438Y033843D01*
X006328Y033843D01*
X006328Y033770D02*
X006328Y033990D01*
X006438Y033990D01*
X006549Y033953D02*
X006549Y033917D01*
X006586Y033880D01*
X006659Y033880D01*
X006696Y033843D01*
X006696Y033807D01*
X006659Y033770D01*
X006586Y033770D01*
X006549Y033807D01*
X006475Y033770D02*
X006402Y033843D01*
X006549Y033953D02*
X006586Y033990D01*
X006659Y033990D01*
X006696Y033953D01*
X006770Y033990D02*
X006917Y033990D01*
X006844Y033990D02*
X006844Y033770D01*
X006807Y032990D02*
X006880Y032990D01*
X006917Y032953D01*
X006917Y032917D01*
X006880Y032880D01*
X006917Y032843D01*
X006917Y032807D01*
X006880Y032770D01*
X006807Y032770D01*
X006770Y032807D01*
X006696Y032807D02*
X006659Y032770D01*
X006586Y032770D01*
X006549Y032807D01*
X006586Y032880D02*
X006659Y032880D01*
X006696Y032843D01*
X006696Y032807D01*
X006586Y032880D02*
X006549Y032917D01*
X006549Y032953D01*
X006586Y032990D01*
X006659Y032990D01*
X006696Y032953D01*
X006770Y032953D02*
X006807Y032990D01*
X006844Y032880D02*
X006880Y032880D01*
X006475Y032990D02*
X006475Y032770D01*
X006328Y032770D02*
X006328Y032990D01*
X006402Y032917D01*
X006475Y032990D01*
X006475Y031990D02*
X006402Y031917D01*
X006328Y031990D01*
X006328Y031770D01*
X006475Y031770D02*
X006475Y031990D01*
X006549Y031953D02*
X006549Y031917D01*
X006586Y031880D01*
X006659Y031880D01*
X006696Y031843D01*
X006696Y031807D01*
X006659Y031770D01*
X006586Y031770D01*
X006549Y031807D01*
X006549Y031953D02*
X006586Y031990D01*
X006659Y031990D01*
X006696Y031953D01*
X006770Y031953D02*
X006807Y031990D01*
X006880Y031990D01*
X006917Y031953D01*
X006917Y031917D01*
X006770Y031770D01*
X006917Y031770D01*
X006844Y030990D02*
X006844Y030770D01*
X006917Y030770D02*
X006770Y030770D01*
X006696Y030807D02*
X006659Y030770D01*
X006586Y030770D01*
X006549Y030807D01*
X006586Y030880D02*
X006659Y030880D01*
X006696Y030843D01*
X006696Y030807D01*
X006586Y030880D02*
X006549Y030917D01*
X006549Y030953D01*
X006586Y030990D01*
X006659Y030990D01*
X006696Y030953D01*
X006770Y030917D02*
X006844Y030990D01*
X006475Y030990D02*
X006475Y030770D01*
X006328Y030770D02*
X006328Y030990D01*
X006402Y030917D01*
X006475Y030990D01*
X006549Y029990D02*
X006549Y029770D01*
X006696Y029770D01*
X006770Y029770D02*
X006770Y029990D01*
X006917Y029770D01*
X006917Y029990D01*
X006696Y029990D02*
X006549Y029990D01*
X006549Y029880D02*
X006623Y029880D01*
X008988Y029730D02*
X008988Y029583D01*
X009062Y029510D01*
X009135Y029583D01*
X009135Y029730D01*
X009209Y029657D02*
X009246Y029657D01*
X009283Y029620D01*
X009319Y029657D01*
X009356Y029620D01*
X009356Y029510D01*
X009283Y029510D02*
X009283Y029620D01*
X009209Y029657D02*
X009209Y029510D01*
X009430Y029547D02*
X009467Y029510D01*
X009540Y029510D01*
X009577Y029547D01*
X009577Y029620D01*
X009540Y029657D01*
X009467Y029657D01*
X009430Y029620D01*
X009430Y029547D01*
X009651Y029657D02*
X009724Y029657D01*
X009688Y029693D02*
X009688Y029547D01*
X009724Y029510D01*
X009540Y030510D02*
X009577Y030547D01*
X009577Y030693D01*
X009540Y030730D01*
X009430Y030730D01*
X009430Y030510D01*
X009540Y030510D01*
X009356Y030510D02*
X009356Y030730D01*
X009209Y030730D02*
X009209Y030510D01*
X009135Y030547D02*
X009135Y030620D01*
X009062Y030620D01*
X009135Y030547D02*
X009098Y030510D01*
X009025Y030510D01*
X008988Y030547D01*
X008988Y030693D01*
X009025Y030730D01*
X009098Y030730D01*
X009135Y030693D01*
X009209Y030730D02*
X009356Y030510D01*
X009319Y031510D02*
X009209Y031510D01*
X009209Y031730D01*
X009319Y031730D01*
X009356Y031693D01*
X009356Y031657D01*
X009319Y031620D01*
X009209Y031620D01*
X009135Y031657D02*
X009135Y031693D01*
X009098Y031730D01*
X009025Y031730D01*
X008988Y031693D01*
X009135Y031657D02*
X008988Y031510D01*
X009135Y031510D01*
X009319Y031510D02*
X009356Y031547D01*
X009356Y031583D01*
X009319Y031620D01*
X009356Y032510D02*
X009356Y032657D01*
X009283Y032730D01*
X009209Y032657D01*
X009209Y032510D01*
X009135Y032510D02*
X008988Y032510D01*
X009135Y032657D01*
X009135Y032693D01*
X009098Y032730D01*
X009025Y032730D01*
X008988Y032693D01*
X009209Y032620D02*
X009356Y032620D01*
X009356Y033510D02*
X009356Y033657D01*
X009283Y033730D01*
X009209Y033657D01*
X009209Y033510D01*
X009135Y033510D02*
X008988Y033510D01*
X009062Y033510D02*
X009062Y033730D01*
X008988Y033657D01*
X009209Y033620D02*
X009356Y033620D01*
X009319Y034510D02*
X009209Y034510D01*
X009209Y034730D01*
X009319Y034730D01*
X009356Y034693D01*
X009356Y034657D01*
X009319Y034620D01*
X009209Y034620D01*
X009319Y034620D02*
X009356Y034583D01*
X009356Y034547D01*
X009319Y034510D01*
X009135Y034510D02*
X008988Y034510D01*
X009062Y034510D02*
X009062Y034730D01*
X008988Y034657D01*
X009062Y035510D02*
X009135Y035583D01*
X009135Y035730D01*
X009209Y035730D02*
X009319Y035730D01*
X009356Y035693D01*
X009356Y035547D01*
X009319Y035510D01*
X009209Y035510D01*
X009209Y035730D01*
X008988Y035730D02*
X008988Y035583D01*
X009062Y035510D01*
X009430Y035510D02*
X009540Y035510D01*
X009577Y035547D01*
X009577Y035693D01*
X009540Y035730D01*
X009430Y035730D01*
X009430Y035510D01*
X009430Y036510D02*
X009540Y036510D01*
X009577Y036547D01*
X009577Y036693D01*
X009540Y036730D01*
X009430Y036730D01*
X009430Y036510D01*
X009356Y036510D02*
X009356Y036730D01*
X009209Y036730D02*
X009209Y036510D01*
X009135Y036547D02*
X009135Y036620D01*
X009062Y036620D01*
X009135Y036547D02*
X009098Y036510D01*
X009025Y036510D01*
X008988Y036547D01*
X008988Y036693D01*
X009025Y036730D01*
X009098Y036730D01*
X009135Y036693D01*
X009209Y036730D02*
X009356Y036510D01*
X006917Y036770D02*
X006844Y036843D01*
X006880Y036843D02*
X006770Y036843D01*
X006770Y036770D02*
X006770Y036990D01*
X006880Y036990D01*
X006917Y036953D01*
X006917Y036880D01*
X006880Y036843D01*
X006696Y036770D02*
X006623Y036770D01*
X006660Y036770D02*
X006660Y036990D01*
X006696Y036990D02*
X006623Y036990D01*
X006549Y036953D02*
X006512Y036990D01*
X006402Y036990D01*
X006402Y036770D01*
X006512Y036770D01*
X006549Y036807D01*
X006549Y036953D01*
X012104Y035953D02*
X012104Y035917D01*
X012141Y035880D01*
X012214Y035880D01*
X012251Y035843D01*
X012251Y035807D01*
X012214Y035770D01*
X012141Y035770D01*
X012104Y035807D01*
X012104Y035953D02*
X012141Y035990D01*
X012214Y035990D01*
X012251Y035953D01*
X012325Y035990D02*
X012472Y035990D01*
X012399Y035990D02*
X012399Y035770D01*
X012546Y035770D02*
X012546Y035990D01*
X012693Y035990D01*
X012767Y035990D02*
X012877Y035990D01*
X012914Y035953D01*
X012914Y035880D01*
X012877Y035843D01*
X012767Y035843D01*
X012767Y035770D02*
X012767Y035990D01*
X012620Y035880D02*
X012546Y035880D01*
X012546Y035770D02*
X012693Y035770D01*
X012767Y034990D02*
X012877Y034990D01*
X012914Y034953D01*
X012914Y034880D01*
X012877Y034843D01*
X012767Y034843D01*
X012767Y034770D02*
X012767Y034990D01*
X012546Y034990D02*
X012546Y034770D01*
X012693Y034770D01*
X012472Y034807D02*
X012435Y034770D01*
X012362Y034770D01*
X012325Y034807D01*
X012362Y034880D02*
X012435Y034880D01*
X012472Y034843D01*
X012472Y034807D01*
X012362Y034880D02*
X012325Y034917D01*
X012325Y034953D01*
X012362Y034990D01*
X012435Y034990D01*
X012472Y034953D01*
X012435Y033990D02*
X012472Y033953D01*
X012472Y033880D01*
X012435Y033843D01*
X012325Y033843D01*
X012325Y033770D02*
X012325Y033990D01*
X012435Y033990D01*
X012546Y033953D02*
X012546Y033917D01*
X012583Y033880D01*
X012656Y033880D01*
X012693Y033843D01*
X012693Y033807D01*
X012656Y033770D01*
X012583Y033770D01*
X012546Y033807D01*
X012472Y033770D02*
X012399Y033843D01*
X012546Y033953D02*
X012583Y033990D01*
X012656Y033990D01*
X012693Y033953D01*
X012767Y033990D02*
X012914Y033990D01*
X012841Y033990D02*
X012841Y033770D01*
X012877Y032990D02*
X012914Y032953D01*
X012914Y032917D01*
X012877Y032880D01*
X012914Y032843D01*
X012914Y032807D01*
X012877Y032770D01*
X012804Y032770D01*
X012767Y032807D01*
X012693Y032807D02*
X012656Y032770D01*
X012583Y032770D01*
X012546Y032807D01*
X012583Y032880D02*
X012656Y032880D01*
X012693Y032843D01*
X012693Y032807D01*
X012583Y032880D02*
X012546Y032917D01*
X012546Y032953D01*
X012583Y032990D01*
X012656Y032990D01*
X012693Y032953D01*
X012767Y032953D02*
X012804Y032990D01*
X012877Y032990D01*
X012877Y032880D02*
X012841Y032880D01*
X012472Y032990D02*
X012472Y032770D01*
X012325Y032770D02*
X012325Y032990D01*
X012399Y032917D01*
X012472Y032990D01*
X012472Y031990D02*
X012472Y031770D01*
X012546Y031807D02*
X012583Y031770D01*
X012656Y031770D01*
X012693Y031807D01*
X012693Y031843D01*
X012656Y031880D01*
X012583Y031880D01*
X012546Y031917D01*
X012546Y031953D01*
X012583Y031990D01*
X012656Y031990D01*
X012693Y031953D01*
X012767Y031953D02*
X012804Y031990D01*
X012877Y031990D01*
X012914Y031953D01*
X012914Y031917D01*
X012767Y031770D01*
X012914Y031770D01*
X012472Y031990D02*
X012399Y031917D01*
X012325Y031990D01*
X012325Y031770D01*
X012325Y030990D02*
X012399Y030917D01*
X012472Y030990D01*
X012472Y030770D01*
X012546Y030807D02*
X012583Y030770D01*
X012656Y030770D01*
X012693Y030807D01*
X012693Y030843D01*
X012656Y030880D01*
X012583Y030880D01*
X012546Y030917D01*
X012546Y030953D01*
X012583Y030990D01*
X012656Y030990D01*
X012693Y030953D01*
X012767Y030917D02*
X012841Y030990D01*
X012841Y030770D01*
X012914Y030770D02*
X012767Y030770D01*
X012325Y030770D02*
X012325Y030990D01*
X012546Y029990D02*
X012546Y029770D01*
X012693Y029770D01*
X012767Y029770D02*
X012767Y029990D01*
X012914Y029770D01*
X012914Y029990D01*
X012693Y029990D02*
X012546Y029990D01*
X012546Y029880D02*
X012620Y029880D01*
X014988Y029730D02*
X014988Y029583D01*
X015062Y029510D01*
X015135Y029583D01*
X015135Y029730D01*
X015209Y029657D02*
X015246Y029657D01*
X015283Y029620D01*
X015319Y029657D01*
X015356Y029620D01*
X015356Y029510D01*
X015283Y029510D02*
X015283Y029620D01*
X015209Y029657D02*
X015209Y029510D01*
X015430Y029547D02*
X015467Y029510D01*
X015540Y029510D01*
X015577Y029547D01*
X015577Y029620D01*
X015540Y029657D01*
X015467Y029657D01*
X015430Y029620D01*
X015430Y029547D01*
X015651Y029657D02*
X015724Y029657D01*
X015688Y029693D02*
X015688Y029547D01*
X015724Y029510D01*
X015540Y030510D02*
X015577Y030547D01*
X015577Y030693D01*
X015540Y030730D01*
X015430Y030730D01*
X015430Y030510D01*
X015540Y030510D01*
X015356Y030510D02*
X015356Y030730D01*
X015209Y030730D02*
X015209Y030510D01*
X015135Y030547D02*
X015135Y030620D01*
X015062Y030620D01*
X015135Y030547D02*
X015098Y030510D01*
X015025Y030510D01*
X014988Y030547D01*
X014988Y030693D01*
X015025Y030730D01*
X015098Y030730D01*
X015135Y030693D01*
X015209Y030730D02*
X015356Y030510D01*
X015319Y031510D02*
X015209Y031510D01*
X015209Y031730D01*
X015319Y031730D01*
X015356Y031693D01*
X015356Y031657D01*
X015319Y031620D01*
X015209Y031620D01*
X015135Y031657D02*
X015135Y031693D01*
X015098Y031730D01*
X015025Y031730D01*
X014988Y031693D01*
X015135Y031657D02*
X014988Y031510D01*
X015135Y031510D01*
X015319Y031510D02*
X015356Y031547D01*
X015356Y031583D01*
X015319Y031620D01*
X015356Y032510D02*
X015356Y032657D01*
X015283Y032730D01*
X015209Y032657D01*
X015209Y032510D01*
X015135Y032510D02*
X014988Y032510D01*
X015135Y032657D01*
X015135Y032693D01*
X015098Y032730D01*
X015025Y032730D01*
X014988Y032693D01*
X015209Y032620D02*
X015356Y032620D01*
X015356Y033510D02*
X015356Y033657D01*
X015283Y033730D01*
X015209Y033657D01*
X015209Y033510D01*
X015135Y033510D02*
X014988Y033510D01*
X015062Y033510D02*
X015062Y033730D01*
X014988Y033657D01*
X015209Y033620D02*
X015356Y033620D01*
X015319Y034510D02*
X015209Y034510D01*
X015209Y034730D01*
X015319Y034730D01*
X015356Y034693D01*
X015356Y034657D01*
X015319Y034620D01*
X015209Y034620D01*
X015319Y034620D02*
X015356Y034583D01*
X015356Y034547D01*
X015319Y034510D01*
X015135Y034510D02*
X014988Y034510D01*
X015062Y034510D02*
X015062Y034730D01*
X014988Y034657D01*
X015062Y035510D02*
X015135Y035583D01*
X015135Y035730D01*
X015209Y035730D02*
X015319Y035730D01*
X015356Y035693D01*
X015356Y035547D01*
X015319Y035510D01*
X015209Y035510D01*
X015209Y035730D01*
X014988Y035730D02*
X014988Y035583D01*
X015062Y035510D01*
X015430Y035510D02*
X015540Y035510D01*
X015577Y035547D01*
X015577Y035693D01*
X015540Y035730D01*
X015430Y035730D01*
X015430Y035510D01*
X015430Y036510D02*
X015540Y036510D01*
X015577Y036547D01*
X015577Y036693D01*
X015540Y036730D01*
X015430Y036730D01*
X015430Y036510D01*
X015356Y036510D02*
X015356Y036730D01*
X015209Y036730D02*
X015209Y036510D01*
X015135Y036547D02*
X015135Y036620D01*
X015062Y036620D01*
X015135Y036547D02*
X015098Y036510D01*
X015025Y036510D01*
X014988Y036547D01*
X014988Y036693D01*
X015025Y036730D01*
X015098Y036730D01*
X015135Y036693D01*
X015209Y036730D02*
X015356Y036510D01*
X012914Y036770D02*
X012841Y036843D01*
X012877Y036843D02*
X012767Y036843D01*
X012767Y036770D02*
X012767Y036990D01*
X012877Y036990D01*
X012914Y036953D01*
X012914Y036880D01*
X012877Y036843D01*
X012693Y036770D02*
X012620Y036770D01*
X012657Y036770D02*
X012657Y036990D01*
X012693Y036990D02*
X012620Y036990D01*
X012546Y036953D02*
X012509Y036990D01*
X012399Y036990D01*
X012399Y036770D01*
X012509Y036770D01*
X012546Y036807D01*
X012546Y036953D01*
X018104Y035953D02*
X018104Y035917D01*
X018141Y035880D01*
X018214Y035880D01*
X018251Y035843D01*
X018251Y035807D01*
X018214Y035770D01*
X018141Y035770D01*
X018104Y035807D01*
X018104Y035953D02*
X018141Y035990D01*
X018214Y035990D01*
X018251Y035953D01*
X018325Y035990D02*
X018472Y035990D01*
X018399Y035990D02*
X018399Y035770D01*
X018546Y035770D02*
X018546Y035990D01*
X018693Y035990D01*
X018767Y035990D02*
X018877Y035990D01*
X018914Y035953D01*
X018914Y035880D01*
X018877Y035843D01*
X018767Y035843D01*
X018767Y035770D02*
X018767Y035990D01*
X018620Y035880D02*
X018546Y035880D01*
X018546Y035770D02*
X018693Y035770D01*
X018767Y034990D02*
X018877Y034990D01*
X018914Y034953D01*
X018914Y034880D01*
X018877Y034843D01*
X018767Y034843D01*
X018767Y034770D02*
X018767Y034990D01*
X018546Y034990D02*
X018546Y034770D01*
X018693Y034770D01*
X018472Y034807D02*
X018435Y034770D01*
X018362Y034770D01*
X018325Y034807D01*
X018362Y034880D02*
X018435Y034880D01*
X018472Y034843D01*
X018472Y034807D01*
X018362Y034880D02*
X018325Y034917D01*
X018325Y034953D01*
X018362Y034990D01*
X018435Y034990D01*
X018472Y034953D01*
X018435Y033990D02*
X018472Y033953D01*
X018472Y033880D01*
X018435Y033843D01*
X018325Y033843D01*
X018325Y033770D02*
X018325Y033990D01*
X018435Y033990D01*
X018546Y033953D02*
X018546Y033917D01*
X018583Y033880D01*
X018656Y033880D01*
X018693Y033843D01*
X018693Y033807D01*
X018656Y033770D01*
X018583Y033770D01*
X018546Y033807D01*
X018472Y033770D02*
X018399Y033843D01*
X018546Y033953D02*
X018583Y033990D01*
X018656Y033990D01*
X018693Y033953D01*
X018767Y033990D02*
X018914Y033990D01*
X018841Y033990D02*
X018841Y033770D01*
X018877Y032990D02*
X018914Y032953D01*
X018914Y032917D01*
X018877Y032880D01*
X018914Y032843D01*
X018914Y032807D01*
X018877Y032770D01*
X018804Y032770D01*
X018767Y032807D01*
X018693Y032807D02*
X018656Y032770D01*
X018583Y032770D01*
X018546Y032807D01*
X018583Y032880D02*
X018656Y032880D01*
X018693Y032843D01*
X018693Y032807D01*
X018583Y032880D02*
X018546Y032917D01*
X018546Y032953D01*
X018583Y032990D01*
X018656Y032990D01*
X018693Y032953D01*
X018767Y032953D02*
X018804Y032990D01*
X018877Y032990D01*
X018877Y032880D02*
X018841Y032880D01*
X018472Y032990D02*
X018472Y032770D01*
X018325Y032770D02*
X018325Y032990D01*
X018399Y032917D01*
X018472Y032990D01*
X018472Y031990D02*
X018472Y031770D01*
X018546Y031807D02*
X018583Y031770D01*
X018656Y031770D01*
X018693Y031807D01*
X018693Y031843D01*
X018656Y031880D01*
X018583Y031880D01*
X018546Y031917D01*
X018546Y031953D01*
X018583Y031990D01*
X018656Y031990D01*
X018693Y031953D01*
X018767Y031953D02*
X018804Y031990D01*
X018877Y031990D01*
X018914Y031953D01*
X018914Y031917D01*
X018767Y031770D01*
X018914Y031770D01*
X018472Y031990D02*
X018399Y031917D01*
X018325Y031990D01*
X018325Y031770D01*
X018325Y030990D02*
X018399Y030917D01*
X018472Y030990D01*
X018472Y030770D01*
X018546Y030807D02*
X018583Y030770D01*
X018656Y030770D01*
X018693Y030807D01*
X018693Y030843D01*
X018656Y030880D01*
X018583Y030880D01*
X018546Y030917D01*
X018546Y030953D01*
X018583Y030990D01*
X018656Y030990D01*
X018693Y030953D01*
X018767Y030917D02*
X018841Y030990D01*
X018841Y030770D01*
X018914Y030770D02*
X018767Y030770D01*
X018325Y030770D02*
X018325Y030990D01*
X018546Y029990D02*
X018546Y029770D01*
X018693Y029770D01*
X018767Y029770D02*
X018767Y029990D01*
X018914Y029770D01*
X018914Y029990D01*
X018693Y029990D02*
X018546Y029990D01*
X018546Y029880D02*
X018620Y029880D01*
X020988Y029730D02*
X020988Y029583D01*
X021062Y029510D01*
X021135Y029583D01*
X021135Y029730D01*
X021209Y029657D02*
X021246Y029657D01*
X021283Y029620D01*
X021319Y029657D01*
X021356Y029620D01*
X021356Y029510D01*
X021283Y029510D02*
X021283Y029620D01*
X021209Y029657D02*
X021209Y029510D01*
X021430Y029547D02*
X021467Y029510D01*
X021540Y029510D01*
X021577Y029547D01*
X021577Y029620D01*
X021540Y029657D01*
X021467Y029657D01*
X021430Y029620D01*
X021430Y029547D01*
X021651Y029657D02*
X021724Y029657D01*
X021688Y029693D02*
X021688Y029547D01*
X021724Y029510D01*
X021540Y030510D02*
X021577Y030547D01*
X021577Y030693D01*
X021540Y030730D01*
X021430Y030730D01*
X021430Y030510D01*
X021540Y030510D01*
X021356Y030510D02*
X021356Y030730D01*
X021209Y030730D02*
X021356Y030510D01*
X021209Y030510D02*
X021209Y030730D01*
X021135Y030693D02*
X021098Y030730D01*
X021025Y030730D01*
X020988Y030693D01*
X020988Y030547D01*
X021025Y030510D01*
X021098Y030510D01*
X021135Y030547D01*
X021135Y030620D01*
X021062Y030620D01*
X021135Y031510D02*
X020988Y031510D01*
X021135Y031657D01*
X021135Y031693D01*
X021098Y031730D01*
X021025Y031730D01*
X020988Y031693D01*
X021209Y031730D02*
X021319Y031730D01*
X021356Y031693D01*
X021356Y031657D01*
X021319Y031620D01*
X021209Y031620D01*
X021209Y031510D02*
X021319Y031510D01*
X021356Y031547D01*
X021356Y031583D01*
X021319Y031620D01*
X021209Y031510D02*
X021209Y031730D01*
X021209Y032510D02*
X021209Y032657D01*
X021283Y032730D01*
X021356Y032657D01*
X021356Y032510D01*
X021356Y032620D02*
X021209Y032620D01*
X021135Y032657D02*
X021135Y032693D01*
X021098Y032730D01*
X021025Y032730D01*
X020988Y032693D01*
X021135Y032657D02*
X020988Y032510D01*
X021135Y032510D01*
X021135Y033510D02*
X020988Y033510D01*
X021062Y033510D02*
X021062Y033730D01*
X020988Y033657D01*
X021209Y033657D02*
X021283Y033730D01*
X021356Y033657D01*
X021356Y033510D01*
X021356Y033620D02*
X021209Y033620D01*
X021209Y033657D02*
X021209Y033510D01*
X021209Y034510D02*
X021319Y034510D01*
X021356Y034547D01*
X021356Y034583D01*
X021319Y034620D01*
X021209Y034620D01*
X021209Y034510D02*
X021209Y034730D01*
X021319Y034730D01*
X021356Y034693D01*
X021356Y034657D01*
X021319Y034620D01*
X021135Y034510D02*
X020988Y034510D01*
X021062Y034510D02*
X021062Y034730D01*
X020988Y034657D01*
X021062Y035510D02*
X021135Y035583D01*
X021135Y035730D01*
X021209Y035730D02*
X021319Y035730D01*
X021356Y035693D01*
X021356Y035547D01*
X021319Y035510D01*
X021209Y035510D01*
X021209Y035730D01*
X020988Y035730D02*
X020988Y035583D01*
X021062Y035510D01*
X021430Y035510D02*
X021540Y035510D01*
X021577Y035547D01*
X021577Y035693D01*
X021540Y035730D01*
X021430Y035730D01*
X021430Y035510D01*
X021430Y036510D02*
X021540Y036510D01*
X021577Y036547D01*
X021577Y036693D01*
X021540Y036730D01*
X021430Y036730D01*
X021430Y036510D01*
X021356Y036510D02*
X021356Y036730D01*
X021209Y036730D02*
X021356Y036510D01*
X021209Y036510D02*
X021209Y036730D01*
X021135Y036693D02*
X021098Y036730D01*
X021025Y036730D01*
X020988Y036693D01*
X020988Y036547D01*
X021025Y036510D01*
X021098Y036510D01*
X021135Y036547D01*
X021135Y036620D01*
X021062Y036620D01*
X018914Y036770D02*
X018841Y036843D01*
X018877Y036843D02*
X018767Y036843D01*
X018767Y036770D02*
X018767Y036990D01*
X018877Y036990D01*
X018914Y036953D01*
X018914Y036880D01*
X018877Y036843D01*
X018693Y036770D02*
X018620Y036770D01*
X018657Y036770D02*
X018657Y036990D01*
X018693Y036990D02*
X018620Y036990D01*
X018546Y036953D02*
X018509Y036990D01*
X018399Y036990D01*
X018399Y036770D01*
X018509Y036770D01*
X018546Y036807D01*
X018546Y036953D01*
X024104Y035953D02*
X024104Y035917D01*
X024141Y035880D01*
X024214Y035880D01*
X024251Y035843D01*
X024251Y035807D01*
X024214Y035770D01*
X024141Y035770D01*
X024104Y035807D01*
X024104Y035953D02*
X024141Y035990D01*
X024214Y035990D01*
X024251Y035953D01*
X024325Y035990D02*
X024472Y035990D01*
X024399Y035990D02*
X024399Y035770D01*
X024546Y035770D02*
X024693Y035770D01*
X024767Y035770D02*
X024767Y035990D01*
X024877Y035990D01*
X024914Y035953D01*
X024914Y035880D01*
X024877Y035843D01*
X024767Y035843D01*
X024620Y035880D02*
X024546Y035880D01*
X024546Y035990D02*
X024546Y035770D01*
X024546Y035990D02*
X024693Y035990D01*
X024693Y036770D02*
X024620Y036770D01*
X024657Y036770D02*
X024657Y036990D01*
X024693Y036990D02*
X024620Y036990D01*
X024546Y036953D02*
X024509Y036990D01*
X024399Y036990D01*
X024399Y036770D01*
X024509Y036770D01*
X024546Y036807D01*
X024546Y036953D01*
X024767Y036990D02*
X024877Y036990D01*
X024914Y036953D01*
X024914Y036880D01*
X024877Y036843D01*
X024767Y036843D01*
X024767Y036770D02*
X024767Y036990D01*
X024841Y036843D02*
X024914Y036770D01*
X024877Y034990D02*
X024914Y034953D01*
X024914Y034880D01*
X024877Y034843D01*
X024767Y034843D01*
X024767Y034770D02*
X024767Y034990D01*
X024877Y034990D01*
X024693Y034770D02*
X024546Y034770D01*
X024546Y034990D01*
X024472Y034953D02*
X024435Y034990D01*
X024362Y034990D01*
X024325Y034953D01*
X024325Y034917D01*
X024362Y034880D01*
X024435Y034880D01*
X024472Y034843D01*
X024472Y034807D01*
X024435Y034770D01*
X024362Y034770D01*
X024325Y034807D01*
X024325Y033990D02*
X024435Y033990D01*
X024472Y033953D01*
X024472Y033880D01*
X024435Y033843D01*
X024325Y033843D01*
X024325Y033770D02*
X024325Y033990D01*
X024399Y033843D02*
X024472Y033770D01*
X024546Y033807D02*
X024583Y033770D01*
X024656Y033770D01*
X024693Y033807D01*
X024693Y033843D01*
X024656Y033880D01*
X024583Y033880D01*
X024546Y033917D01*
X024546Y033953D01*
X024583Y033990D01*
X024656Y033990D01*
X024693Y033953D01*
X024767Y033990D02*
X024914Y033990D01*
X024841Y033990D02*
X024841Y033770D01*
X024877Y032990D02*
X024914Y032953D01*
X024914Y032917D01*
X024877Y032880D01*
X024914Y032843D01*
X024914Y032807D01*
X024877Y032770D01*
X024804Y032770D01*
X024767Y032807D01*
X024693Y032807D02*
X024656Y032770D01*
X024583Y032770D01*
X024546Y032807D01*
X024583Y032880D02*
X024656Y032880D01*
X024693Y032843D01*
X024693Y032807D01*
X024583Y032880D02*
X024546Y032917D01*
X024546Y032953D01*
X024583Y032990D01*
X024656Y032990D01*
X024693Y032953D01*
X024767Y032953D02*
X024804Y032990D01*
X024877Y032990D01*
X024877Y032880D02*
X024841Y032880D01*
X024472Y032990D02*
X024472Y032770D01*
X024325Y032770D02*
X024325Y032990D01*
X024399Y032917D01*
X024472Y032990D01*
X024472Y031990D02*
X024472Y031770D01*
X024546Y031807D02*
X024583Y031770D01*
X024656Y031770D01*
X024693Y031807D01*
X024693Y031843D01*
X024656Y031880D01*
X024583Y031880D01*
X024546Y031917D01*
X024546Y031953D01*
X024583Y031990D01*
X024656Y031990D01*
X024693Y031953D01*
X024767Y031953D02*
X024804Y031990D01*
X024877Y031990D01*
X024914Y031953D01*
X024914Y031917D01*
X024767Y031770D01*
X024914Y031770D01*
X024472Y031990D02*
X024399Y031917D01*
X024325Y031990D01*
X024325Y031770D01*
X024325Y030990D02*
X024399Y030917D01*
X024472Y030990D01*
X024472Y030770D01*
X024546Y030807D02*
X024583Y030770D01*
X024656Y030770D01*
X024693Y030807D01*
X024693Y030843D01*
X024656Y030880D01*
X024583Y030880D01*
X024546Y030917D01*
X024546Y030953D01*
X024583Y030990D01*
X024656Y030990D01*
X024693Y030953D01*
X024767Y030917D02*
X024841Y030990D01*
X024841Y030770D01*
X024914Y030770D02*
X024767Y030770D01*
X024325Y030770D02*
X024325Y030990D01*
X024546Y029990D02*
X024546Y029770D01*
X024693Y029770D01*
X024767Y029770D02*
X024767Y029990D01*
X024914Y029770D01*
X024914Y029990D01*
X024693Y029990D02*
X024546Y029990D01*
X024546Y029880D02*
X024620Y029880D01*
X026988Y029730D02*
X026988Y029583D01*
X027062Y029510D01*
X027135Y029583D01*
X027135Y029730D01*
X027209Y029657D02*
X027246Y029657D01*
X027283Y029620D01*
X027319Y029657D01*
X027356Y029620D01*
X027356Y029510D01*
X027283Y029510D02*
X027283Y029620D01*
X027209Y029657D02*
X027209Y029510D01*
X027430Y029547D02*
X027467Y029510D01*
X027540Y029510D01*
X027577Y029547D01*
X027577Y029620D01*
X027540Y029657D01*
X027467Y029657D01*
X027430Y029620D01*
X027430Y029547D01*
X027651Y029657D02*
X027724Y029657D01*
X027688Y029693D02*
X027688Y029547D01*
X027724Y029510D01*
X027540Y030510D02*
X027577Y030547D01*
X027577Y030693D01*
X027540Y030730D01*
X027430Y030730D01*
X027430Y030510D01*
X027540Y030510D01*
X027356Y030510D02*
X027356Y030730D01*
X027209Y030730D02*
X027356Y030510D01*
X027209Y030510D02*
X027209Y030730D01*
X027135Y030693D02*
X027098Y030730D01*
X027025Y030730D01*
X026988Y030693D01*
X026988Y030547D01*
X027025Y030510D01*
X027098Y030510D01*
X027135Y030547D01*
X027135Y030620D01*
X027062Y030620D01*
X027135Y031510D02*
X026988Y031510D01*
X027135Y031657D01*
X027135Y031693D01*
X027098Y031730D01*
X027025Y031730D01*
X026988Y031693D01*
X027209Y031730D02*
X027319Y031730D01*
X027356Y031693D01*
X027356Y031657D01*
X027319Y031620D01*
X027209Y031620D01*
X027209Y031510D02*
X027319Y031510D01*
X027356Y031547D01*
X027356Y031583D01*
X027319Y031620D01*
X027209Y031510D02*
X027209Y031730D01*
X027209Y032510D02*
X027209Y032657D01*
X027283Y032730D01*
X027356Y032657D01*
X027356Y032510D01*
X027356Y032620D02*
X027209Y032620D01*
X027135Y032657D02*
X027135Y032693D01*
X027098Y032730D01*
X027025Y032730D01*
X026988Y032693D01*
X027135Y032657D02*
X026988Y032510D01*
X027135Y032510D01*
X027135Y033510D02*
X026988Y033510D01*
X027062Y033510D02*
X027062Y033730D01*
X026988Y033657D01*
X027209Y033657D02*
X027283Y033730D01*
X027356Y033657D01*
X027356Y033510D01*
X027356Y033620D02*
X027209Y033620D01*
X027209Y033657D02*
X027209Y033510D01*
X027209Y034510D02*
X027319Y034510D01*
X027356Y034547D01*
X027356Y034583D01*
X027319Y034620D01*
X027209Y034620D01*
X027209Y034510D02*
X027209Y034730D01*
X027319Y034730D01*
X027356Y034693D01*
X027356Y034657D01*
X027319Y034620D01*
X027135Y034510D02*
X026988Y034510D01*
X027062Y034510D02*
X027062Y034730D01*
X026988Y034657D01*
X027062Y035510D02*
X026988Y035583D01*
X026988Y035730D01*
X027135Y035730D02*
X027135Y035583D01*
X027062Y035510D01*
X027209Y035510D02*
X027319Y035510D01*
X027356Y035547D01*
X027356Y035693D01*
X027319Y035730D01*
X027209Y035730D01*
X027209Y035510D01*
X027430Y035510D02*
X027540Y035510D01*
X027577Y035547D01*
X027577Y035693D01*
X027540Y035730D01*
X027430Y035730D01*
X027430Y035510D01*
X027430Y036510D02*
X027540Y036510D01*
X027577Y036547D01*
X027577Y036693D01*
X027540Y036730D01*
X027430Y036730D01*
X027430Y036510D01*
X027356Y036510D02*
X027356Y036730D01*
X027209Y036730D02*
X027356Y036510D01*
X027209Y036510D02*
X027209Y036730D01*
X027135Y036693D02*
X027098Y036730D01*
X027025Y036730D01*
X026988Y036693D01*
X026988Y036547D01*
X027025Y036510D01*
X027098Y036510D01*
X027135Y036547D01*
X027135Y036620D01*
X027062Y036620D01*
X030104Y035953D02*
X030104Y035917D01*
X030141Y035880D01*
X030214Y035880D01*
X030251Y035843D01*
X030251Y035807D01*
X030214Y035770D01*
X030141Y035770D01*
X030104Y035807D01*
X030104Y035953D02*
X030141Y035990D01*
X030214Y035990D01*
X030251Y035953D01*
X030325Y035990D02*
X030472Y035990D01*
X030399Y035990D02*
X030399Y035770D01*
X030546Y035770D02*
X030693Y035770D01*
X030767Y035770D02*
X030767Y035990D01*
X030877Y035990D01*
X030914Y035953D01*
X030914Y035880D01*
X030877Y035843D01*
X030767Y035843D01*
X030620Y035880D02*
X030546Y035880D01*
X030546Y035990D02*
X030546Y035770D01*
X030546Y035990D02*
X030693Y035990D01*
X030693Y036770D02*
X030620Y036770D01*
X030657Y036770D02*
X030657Y036990D01*
X030693Y036990D02*
X030620Y036990D01*
X030546Y036953D02*
X030509Y036990D01*
X030399Y036990D01*
X030399Y036770D01*
X030509Y036770D01*
X030546Y036807D01*
X030546Y036953D01*
X030767Y036990D02*
X030877Y036990D01*
X030914Y036953D01*
X030914Y036880D01*
X030877Y036843D01*
X030767Y036843D01*
X030767Y036770D02*
X030767Y036990D01*
X030841Y036843D02*
X030914Y036770D01*
X030877Y034990D02*
X030914Y034953D01*
X030914Y034880D01*
X030877Y034843D01*
X030767Y034843D01*
X030767Y034770D02*
X030767Y034990D01*
X030877Y034990D01*
X030693Y034770D02*
X030546Y034770D01*
X030546Y034990D01*
X030472Y034953D02*
X030435Y034990D01*
X030362Y034990D01*
X030325Y034953D01*
X030325Y034917D01*
X030362Y034880D01*
X030435Y034880D01*
X030472Y034843D01*
X030472Y034807D01*
X030435Y034770D01*
X030362Y034770D01*
X030325Y034807D01*
X030325Y033990D02*
X030435Y033990D01*
X030472Y033953D01*
X030472Y033880D01*
X030435Y033843D01*
X030325Y033843D01*
X030325Y033770D02*
X030325Y033990D01*
X030399Y033843D02*
X030472Y033770D01*
X030546Y033807D02*
X030583Y033770D01*
X030656Y033770D01*
X030693Y033807D01*
X030693Y033843D01*
X030656Y033880D01*
X030583Y033880D01*
X030546Y033917D01*
X030546Y033953D01*
X030583Y033990D01*
X030656Y033990D01*
X030693Y033953D01*
X030767Y033990D02*
X030914Y033990D01*
X030841Y033990D02*
X030841Y033770D01*
X030877Y032990D02*
X030914Y032953D01*
X030914Y032917D01*
X030877Y032880D01*
X030914Y032843D01*
X030914Y032807D01*
X030877Y032770D01*
X030804Y032770D01*
X030767Y032807D01*
X030693Y032807D02*
X030656Y032770D01*
X030583Y032770D01*
X030546Y032807D01*
X030583Y032880D02*
X030656Y032880D01*
X030693Y032843D01*
X030693Y032807D01*
X030583Y032880D02*
X030546Y032917D01*
X030546Y032953D01*
X030583Y032990D01*
X030656Y032990D01*
X030693Y032953D01*
X030767Y032953D02*
X030804Y032990D01*
X030877Y032990D01*
X030877Y032880D02*
X030841Y032880D01*
X030472Y032990D02*
X030472Y032770D01*
X030325Y032770D02*
X030325Y032990D01*
X030399Y032917D01*
X030472Y032990D01*
X030472Y031990D02*
X030472Y031770D01*
X030546Y031807D02*
X030583Y031770D01*
X030656Y031770D01*
X030693Y031807D01*
X030693Y031843D01*
X030656Y031880D01*
X030583Y031880D01*
X030546Y031917D01*
X030546Y031953D01*
X030583Y031990D01*
X030656Y031990D01*
X030693Y031953D01*
X030767Y031953D02*
X030804Y031990D01*
X030877Y031990D01*
X030914Y031953D01*
X030914Y031917D01*
X030767Y031770D01*
X030914Y031770D01*
X030472Y031990D02*
X030399Y031917D01*
X030325Y031990D01*
X030325Y031770D01*
X030325Y030990D02*
X030399Y030917D01*
X030472Y030990D01*
X030472Y030770D01*
X030546Y030807D02*
X030583Y030770D01*
X030656Y030770D01*
X030693Y030807D01*
X030693Y030843D01*
X030656Y030880D01*
X030583Y030880D01*
X030546Y030917D01*
X030546Y030953D01*
X030583Y030990D01*
X030656Y030990D01*
X030693Y030953D01*
X030767Y030917D02*
X030841Y030990D01*
X030841Y030770D01*
X030914Y030770D02*
X030767Y030770D01*
X030325Y030770D02*
X030325Y030990D01*
X030546Y029990D02*
X030546Y029770D01*
X030693Y029770D01*
X030767Y029770D02*
X030767Y029990D01*
X030914Y029770D01*
X030914Y029990D01*
X030693Y029990D02*
X030546Y029990D01*
X030546Y029880D02*
X030620Y029880D01*
X032988Y029730D02*
X032988Y029583D01*
X033062Y029510D01*
X033135Y029583D01*
X033135Y029730D01*
X033209Y029657D02*
X033246Y029657D01*
X033283Y029620D01*
X033319Y029657D01*
X033356Y029620D01*
X033356Y029510D01*
X033283Y029510D02*
X033283Y029620D01*
X033209Y029657D02*
X033209Y029510D01*
X033430Y029547D02*
X033467Y029510D01*
X033540Y029510D01*
X033577Y029547D01*
X033577Y029620D01*
X033540Y029657D01*
X033467Y029657D01*
X033430Y029620D01*
X033430Y029547D01*
X033651Y029657D02*
X033724Y029657D01*
X033688Y029693D02*
X033688Y029547D01*
X033724Y029510D01*
X033540Y030510D02*
X033430Y030510D01*
X033430Y030730D01*
X033540Y030730D01*
X033577Y030693D01*
X033577Y030547D01*
X033540Y030510D01*
X033356Y030510D02*
X033356Y030730D01*
X033209Y030730D02*
X033356Y030510D01*
X033209Y030510D02*
X033209Y030730D01*
X033135Y030693D02*
X033098Y030730D01*
X033025Y030730D01*
X032988Y030693D01*
X032988Y030547D01*
X033025Y030510D01*
X033098Y030510D01*
X033135Y030547D01*
X033135Y030620D01*
X033062Y030620D01*
X033135Y031510D02*
X032988Y031510D01*
X033135Y031657D01*
X033135Y031693D01*
X033098Y031730D01*
X033025Y031730D01*
X032988Y031693D01*
X033209Y031730D02*
X033319Y031730D01*
X033356Y031693D01*
X033356Y031657D01*
X033319Y031620D01*
X033209Y031620D01*
X033209Y031510D02*
X033319Y031510D01*
X033356Y031547D01*
X033356Y031583D01*
X033319Y031620D01*
X033209Y031510D02*
X033209Y031730D01*
X033209Y032510D02*
X033209Y032657D01*
X033283Y032730D01*
X033356Y032657D01*
X033356Y032510D01*
X033356Y032620D02*
X033209Y032620D01*
X033135Y032657D02*
X033135Y032693D01*
X033098Y032730D01*
X033025Y032730D01*
X032988Y032693D01*
X033135Y032657D02*
X032988Y032510D01*
X033135Y032510D01*
X033135Y033510D02*
X032988Y033510D01*
X033062Y033510D02*
X033062Y033730D01*
X032988Y033657D01*
X033209Y033657D02*
X033283Y033730D01*
X033356Y033657D01*
X033356Y033510D01*
X033356Y033620D02*
X033209Y033620D01*
X033209Y033657D02*
X033209Y033510D01*
X033209Y034510D02*
X033319Y034510D01*
X033356Y034547D01*
X033356Y034583D01*
X033319Y034620D01*
X033209Y034620D01*
X033209Y034510D02*
X033209Y034730D01*
X033319Y034730D01*
X033356Y034693D01*
X033356Y034657D01*
X033319Y034620D01*
X033135Y034510D02*
X032988Y034510D01*
X033062Y034510D02*
X033062Y034730D01*
X032988Y034657D01*
X033062Y035510D02*
X032988Y035583D01*
X032988Y035730D01*
X033135Y035730D02*
X033135Y035583D01*
X033062Y035510D01*
X033209Y035510D02*
X033319Y035510D01*
X033356Y035547D01*
X033356Y035693D01*
X033319Y035730D01*
X033209Y035730D01*
X033209Y035510D01*
X033430Y035510D02*
X033540Y035510D01*
X033577Y035547D01*
X033577Y035693D01*
X033540Y035730D01*
X033430Y035730D01*
X033430Y035510D01*
X033430Y036510D02*
X033540Y036510D01*
X033577Y036547D01*
X033577Y036693D01*
X033540Y036730D01*
X033430Y036730D01*
X033430Y036510D01*
X033356Y036510D02*
X033356Y036730D01*
X033209Y036730D02*
X033356Y036510D01*
X033209Y036510D02*
X033209Y036730D01*
X033135Y036693D02*
X033098Y036730D01*
X033025Y036730D01*
X032988Y036693D01*
X032988Y036547D01*
X033025Y036510D01*
X033098Y036510D01*
X033135Y036547D01*
X033135Y036620D01*
X033062Y036620D01*
X036104Y035953D02*
X036104Y035917D01*
X036141Y035880D01*
X036214Y035880D01*
X036251Y035843D01*
X036251Y035807D01*
X036214Y035770D01*
X036141Y035770D01*
X036104Y035807D01*
X036104Y035953D02*
X036141Y035990D01*
X036214Y035990D01*
X036251Y035953D01*
X036325Y035990D02*
X036472Y035990D01*
X036399Y035990D02*
X036399Y035770D01*
X036546Y035770D02*
X036693Y035770D01*
X036767Y035770D02*
X036767Y035990D01*
X036877Y035990D01*
X036914Y035953D01*
X036914Y035880D01*
X036877Y035843D01*
X036767Y035843D01*
X036620Y035880D02*
X036546Y035880D01*
X036546Y035990D02*
X036546Y035770D01*
X036546Y035990D02*
X036693Y035990D01*
X036693Y036770D02*
X036620Y036770D01*
X036657Y036770D02*
X036657Y036990D01*
X036693Y036990D02*
X036620Y036990D01*
X036546Y036953D02*
X036509Y036990D01*
X036399Y036990D01*
X036399Y036770D01*
X036509Y036770D01*
X036546Y036807D01*
X036546Y036953D01*
X036767Y036990D02*
X036877Y036990D01*
X036914Y036953D01*
X036914Y036880D01*
X036877Y036843D01*
X036767Y036843D01*
X036767Y036770D02*
X036767Y036990D01*
X036841Y036843D02*
X036914Y036770D01*
X036877Y034990D02*
X036914Y034953D01*
X036914Y034880D01*
X036877Y034843D01*
X036767Y034843D01*
X036767Y034770D02*
X036767Y034990D01*
X036877Y034990D01*
X036693Y034770D02*
X036546Y034770D01*
X036546Y034990D01*
X036472Y034953D02*
X036435Y034990D01*
X036362Y034990D01*
X036325Y034953D01*
X036325Y034917D01*
X036362Y034880D01*
X036435Y034880D01*
X036472Y034843D01*
X036472Y034807D01*
X036435Y034770D01*
X036362Y034770D01*
X036325Y034807D01*
X036325Y033990D02*
X036435Y033990D01*
X036472Y033953D01*
X036472Y033880D01*
X036435Y033843D01*
X036325Y033843D01*
X036325Y033770D02*
X036325Y033990D01*
X036399Y033843D02*
X036472Y033770D01*
X036546Y033807D02*
X036583Y033770D01*
X036656Y033770D01*
X036693Y033807D01*
X036693Y033843D01*
X036656Y033880D01*
X036583Y033880D01*
X036546Y033917D01*
X036546Y033953D01*
X036583Y033990D01*
X036656Y033990D01*
X036693Y033953D01*
X036767Y033990D02*
X036914Y033990D01*
X036841Y033990D02*
X036841Y033770D01*
X036877Y032990D02*
X036914Y032953D01*
X036914Y032917D01*
X036877Y032880D01*
X036914Y032843D01*
X036914Y032807D01*
X036877Y032770D01*
X036804Y032770D01*
X036767Y032807D01*
X036693Y032807D02*
X036656Y032770D01*
X036583Y032770D01*
X036546Y032807D01*
X036583Y032880D02*
X036656Y032880D01*
X036693Y032843D01*
X036693Y032807D01*
X036583Y032880D02*
X036546Y032917D01*
X036546Y032953D01*
X036583Y032990D01*
X036656Y032990D01*
X036693Y032953D01*
X036767Y032953D02*
X036804Y032990D01*
X036877Y032990D01*
X036877Y032880D02*
X036841Y032880D01*
X036472Y032990D02*
X036472Y032770D01*
X036325Y032770D02*
X036325Y032990D01*
X036399Y032917D01*
X036472Y032990D01*
X036472Y031990D02*
X036472Y031770D01*
X036546Y031807D02*
X036583Y031770D01*
X036656Y031770D01*
X036693Y031807D01*
X036693Y031843D01*
X036656Y031880D01*
X036583Y031880D01*
X036546Y031917D01*
X036546Y031953D01*
X036583Y031990D01*
X036656Y031990D01*
X036693Y031953D01*
X036767Y031953D02*
X036804Y031990D01*
X036877Y031990D01*
X036914Y031953D01*
X036914Y031917D01*
X036767Y031770D01*
X036914Y031770D01*
X036472Y031990D02*
X036399Y031917D01*
X036325Y031990D01*
X036325Y031770D01*
X036325Y030990D02*
X036399Y030917D01*
X036472Y030990D01*
X036472Y030770D01*
X036546Y030807D02*
X036583Y030770D01*
X036656Y030770D01*
X036693Y030807D01*
X036693Y030843D01*
X036656Y030880D01*
X036583Y030880D01*
X036546Y030917D01*
X036546Y030953D01*
X036583Y030990D01*
X036656Y030990D01*
X036693Y030953D01*
X036767Y030917D02*
X036841Y030990D01*
X036841Y030770D01*
X036914Y030770D02*
X036767Y030770D01*
X036325Y030770D02*
X036325Y030990D01*
X036546Y029990D02*
X036546Y029770D01*
X036693Y029770D01*
X036767Y029770D02*
X036767Y029990D01*
X036914Y029770D01*
X036914Y029990D01*
X036693Y029990D02*
X036546Y029990D01*
X036546Y029880D02*
X036620Y029880D01*
D19*
X034020Y018919D02*
X034022Y018969D01*
X034028Y019019D01*
X034038Y019068D01*
X034052Y019116D01*
X034069Y019163D01*
X034090Y019208D01*
X034115Y019252D01*
X034143Y019293D01*
X034175Y019332D01*
X034209Y019369D01*
X034246Y019403D01*
X034286Y019433D01*
X034328Y019460D01*
X034372Y019484D01*
X034418Y019505D01*
X034465Y019521D01*
X034513Y019534D01*
X034563Y019543D01*
X034612Y019548D01*
X034663Y019549D01*
X034713Y019546D01*
X034762Y019539D01*
X034811Y019528D01*
X034859Y019513D01*
X034905Y019495D01*
X034950Y019473D01*
X034993Y019447D01*
X035034Y019418D01*
X035073Y019386D01*
X035109Y019351D01*
X035141Y019313D01*
X035171Y019273D01*
X035198Y019230D01*
X035221Y019186D01*
X035240Y019140D01*
X035256Y019092D01*
X035268Y019043D01*
X035276Y018994D01*
X035280Y018944D01*
X035280Y018894D01*
X035276Y018844D01*
X035268Y018795D01*
X035256Y018746D01*
X035240Y018698D01*
X035221Y018652D01*
X035198Y018608D01*
X035171Y018565D01*
X035141Y018525D01*
X035109Y018487D01*
X035073Y018452D01*
X035034Y018420D01*
X034993Y018391D01*
X034950Y018365D01*
X034905Y018343D01*
X034859Y018325D01*
X034811Y018310D01*
X034762Y018299D01*
X034713Y018292D01*
X034663Y018289D01*
X034612Y018290D01*
X034563Y018295D01*
X034513Y018304D01*
X034465Y018317D01*
X034418Y018333D01*
X034372Y018354D01*
X034328Y018378D01*
X034286Y018405D01*
X034246Y018435D01*
X034209Y018469D01*
X034175Y018506D01*
X034143Y018545D01*
X034115Y018586D01*
X034090Y018630D01*
X034069Y018675D01*
X034052Y018722D01*
X034038Y018770D01*
X034028Y018819D01*
X034022Y018869D01*
X034020Y018919D01*
X032520Y018919D02*
X032522Y018969D01*
X032528Y019019D01*
X032538Y019068D01*
X032552Y019116D01*
X032569Y019163D01*
X032590Y019208D01*
X032615Y019252D01*
X032643Y019293D01*
X032675Y019332D01*
X032709Y019369D01*
X032746Y019403D01*
X032786Y019433D01*
X032828Y019460D01*
X032872Y019484D01*
X032918Y019505D01*
X032965Y019521D01*
X033013Y019534D01*
X033063Y019543D01*
X033112Y019548D01*
X033163Y019549D01*
X033213Y019546D01*
X033262Y019539D01*
X033311Y019528D01*
X033359Y019513D01*
X033405Y019495D01*
X033450Y019473D01*
X033493Y019447D01*
X033534Y019418D01*
X033573Y019386D01*
X033609Y019351D01*
X033641Y019313D01*
X033671Y019273D01*
X033698Y019230D01*
X033721Y019186D01*
X033740Y019140D01*
X033756Y019092D01*
X033768Y019043D01*
X033776Y018994D01*
X033780Y018944D01*
X033780Y018894D01*
X033776Y018844D01*
X033768Y018795D01*
X033756Y018746D01*
X033740Y018698D01*
X033721Y018652D01*
X033698Y018608D01*
X033671Y018565D01*
X033641Y018525D01*
X033609Y018487D01*
X033573Y018452D01*
X033534Y018420D01*
X033493Y018391D01*
X033450Y018365D01*
X033405Y018343D01*
X033359Y018325D01*
X033311Y018310D01*
X033262Y018299D01*
X033213Y018292D01*
X033163Y018289D01*
X033112Y018290D01*
X033063Y018295D01*
X033013Y018304D01*
X032965Y018317D01*
X032918Y018333D01*
X032872Y018354D01*
X032828Y018378D01*
X032786Y018405D01*
X032746Y018435D01*
X032709Y018469D01*
X032675Y018506D01*
X032643Y018545D01*
X032615Y018586D01*
X032590Y018630D01*
X032569Y018675D01*
X032552Y018722D01*
X032538Y018770D01*
X032528Y018819D01*
X032522Y018869D01*
X032520Y018919D01*
X028020Y018919D02*
X028022Y018969D01*
X028028Y019019D01*
X028038Y019068D01*
X028052Y019116D01*
X028069Y019163D01*
X028090Y019208D01*
X028115Y019252D01*
X028143Y019293D01*
X028175Y019332D01*
X028209Y019369D01*
X028246Y019403D01*
X028286Y019433D01*
X028328Y019460D01*
X028372Y019484D01*
X028418Y019505D01*
X028465Y019521D01*
X028513Y019534D01*
X028563Y019543D01*
X028612Y019548D01*
X028663Y019549D01*
X028713Y019546D01*
X028762Y019539D01*
X028811Y019528D01*
X028859Y019513D01*
X028905Y019495D01*
X028950Y019473D01*
X028993Y019447D01*
X029034Y019418D01*
X029073Y019386D01*
X029109Y019351D01*
X029141Y019313D01*
X029171Y019273D01*
X029198Y019230D01*
X029221Y019186D01*
X029240Y019140D01*
X029256Y019092D01*
X029268Y019043D01*
X029276Y018994D01*
X029280Y018944D01*
X029280Y018894D01*
X029276Y018844D01*
X029268Y018795D01*
X029256Y018746D01*
X029240Y018698D01*
X029221Y018652D01*
X029198Y018608D01*
X029171Y018565D01*
X029141Y018525D01*
X029109Y018487D01*
X029073Y018452D01*
X029034Y018420D01*
X028993Y018391D01*
X028950Y018365D01*
X028905Y018343D01*
X028859Y018325D01*
X028811Y018310D01*
X028762Y018299D01*
X028713Y018292D01*
X028663Y018289D01*
X028612Y018290D01*
X028563Y018295D01*
X028513Y018304D01*
X028465Y018317D01*
X028418Y018333D01*
X028372Y018354D01*
X028328Y018378D01*
X028286Y018405D01*
X028246Y018435D01*
X028209Y018469D01*
X028175Y018506D01*
X028143Y018545D01*
X028115Y018586D01*
X028090Y018630D01*
X028069Y018675D01*
X028052Y018722D01*
X028038Y018770D01*
X028028Y018819D01*
X028022Y018869D01*
X028020Y018919D01*
X026520Y018919D02*
X026522Y018969D01*
X026528Y019019D01*
X026538Y019068D01*
X026552Y019116D01*
X026569Y019163D01*
X026590Y019208D01*
X026615Y019252D01*
X026643Y019293D01*
X026675Y019332D01*
X026709Y019369D01*
X026746Y019403D01*
X026786Y019433D01*
X026828Y019460D01*
X026872Y019484D01*
X026918Y019505D01*
X026965Y019521D01*
X027013Y019534D01*
X027063Y019543D01*
X027112Y019548D01*
X027163Y019549D01*
X027213Y019546D01*
X027262Y019539D01*
X027311Y019528D01*
X027359Y019513D01*
X027405Y019495D01*
X027450Y019473D01*
X027493Y019447D01*
X027534Y019418D01*
X027573Y019386D01*
X027609Y019351D01*
X027641Y019313D01*
X027671Y019273D01*
X027698Y019230D01*
X027721Y019186D01*
X027740Y019140D01*
X027756Y019092D01*
X027768Y019043D01*
X027776Y018994D01*
X027780Y018944D01*
X027780Y018894D01*
X027776Y018844D01*
X027768Y018795D01*
X027756Y018746D01*
X027740Y018698D01*
X027721Y018652D01*
X027698Y018608D01*
X027671Y018565D01*
X027641Y018525D01*
X027609Y018487D01*
X027573Y018452D01*
X027534Y018420D01*
X027493Y018391D01*
X027450Y018365D01*
X027405Y018343D01*
X027359Y018325D01*
X027311Y018310D01*
X027262Y018299D01*
X027213Y018292D01*
X027163Y018289D01*
X027112Y018290D01*
X027063Y018295D01*
X027013Y018304D01*
X026965Y018317D01*
X026918Y018333D01*
X026872Y018354D01*
X026828Y018378D01*
X026786Y018405D01*
X026746Y018435D01*
X026709Y018469D01*
X026675Y018506D01*
X026643Y018545D01*
X026615Y018586D01*
X026590Y018630D01*
X026569Y018675D01*
X026552Y018722D01*
X026538Y018770D01*
X026528Y018819D01*
X026522Y018869D01*
X026520Y018919D01*
X022020Y018919D02*
X022022Y018969D01*
X022028Y019019D01*
X022038Y019068D01*
X022052Y019116D01*
X022069Y019163D01*
X022090Y019208D01*
X022115Y019252D01*
X022143Y019293D01*
X022175Y019332D01*
X022209Y019369D01*
X022246Y019403D01*
X022286Y019433D01*
X022328Y019460D01*
X022372Y019484D01*
X022418Y019505D01*
X022465Y019521D01*
X022513Y019534D01*
X022563Y019543D01*
X022612Y019548D01*
X022663Y019549D01*
X022713Y019546D01*
X022762Y019539D01*
X022811Y019528D01*
X022859Y019513D01*
X022905Y019495D01*
X022950Y019473D01*
X022993Y019447D01*
X023034Y019418D01*
X023073Y019386D01*
X023109Y019351D01*
X023141Y019313D01*
X023171Y019273D01*
X023198Y019230D01*
X023221Y019186D01*
X023240Y019140D01*
X023256Y019092D01*
X023268Y019043D01*
X023276Y018994D01*
X023280Y018944D01*
X023280Y018894D01*
X023276Y018844D01*
X023268Y018795D01*
X023256Y018746D01*
X023240Y018698D01*
X023221Y018652D01*
X023198Y018608D01*
X023171Y018565D01*
X023141Y018525D01*
X023109Y018487D01*
X023073Y018452D01*
X023034Y018420D01*
X022993Y018391D01*
X022950Y018365D01*
X022905Y018343D01*
X022859Y018325D01*
X022811Y018310D01*
X022762Y018299D01*
X022713Y018292D01*
X022663Y018289D01*
X022612Y018290D01*
X022563Y018295D01*
X022513Y018304D01*
X022465Y018317D01*
X022418Y018333D01*
X022372Y018354D01*
X022328Y018378D01*
X022286Y018405D01*
X022246Y018435D01*
X022209Y018469D01*
X022175Y018506D01*
X022143Y018545D01*
X022115Y018586D01*
X022090Y018630D01*
X022069Y018675D01*
X022052Y018722D01*
X022038Y018770D01*
X022028Y018819D01*
X022022Y018869D01*
X022020Y018919D01*
X020520Y018919D02*
X020522Y018969D01*
X020528Y019019D01*
X020538Y019068D01*
X020552Y019116D01*
X020569Y019163D01*
X020590Y019208D01*
X020615Y019252D01*
X020643Y019293D01*
X020675Y019332D01*
X020709Y019369D01*
X020746Y019403D01*
X020786Y019433D01*
X020828Y019460D01*
X020872Y019484D01*
X020918Y019505D01*
X020965Y019521D01*
X021013Y019534D01*
X021063Y019543D01*
X021112Y019548D01*
X021163Y019549D01*
X021213Y019546D01*
X021262Y019539D01*
X021311Y019528D01*
X021359Y019513D01*
X021405Y019495D01*
X021450Y019473D01*
X021493Y019447D01*
X021534Y019418D01*
X021573Y019386D01*
X021609Y019351D01*
X021641Y019313D01*
X021671Y019273D01*
X021698Y019230D01*
X021721Y019186D01*
X021740Y019140D01*
X021756Y019092D01*
X021768Y019043D01*
X021776Y018994D01*
X021780Y018944D01*
X021780Y018894D01*
X021776Y018844D01*
X021768Y018795D01*
X021756Y018746D01*
X021740Y018698D01*
X021721Y018652D01*
X021698Y018608D01*
X021671Y018565D01*
X021641Y018525D01*
X021609Y018487D01*
X021573Y018452D01*
X021534Y018420D01*
X021493Y018391D01*
X021450Y018365D01*
X021405Y018343D01*
X021359Y018325D01*
X021311Y018310D01*
X021262Y018299D01*
X021213Y018292D01*
X021163Y018289D01*
X021112Y018290D01*
X021063Y018295D01*
X021013Y018304D01*
X020965Y018317D01*
X020918Y018333D01*
X020872Y018354D01*
X020828Y018378D01*
X020786Y018405D01*
X020746Y018435D01*
X020709Y018469D01*
X020675Y018506D01*
X020643Y018545D01*
X020615Y018586D01*
X020590Y018630D01*
X020569Y018675D01*
X020552Y018722D01*
X020538Y018770D01*
X020528Y018819D01*
X020522Y018869D01*
X020520Y018919D01*
X016020Y018919D02*
X016022Y018969D01*
X016028Y019019D01*
X016038Y019068D01*
X016052Y019116D01*
X016069Y019163D01*
X016090Y019208D01*
X016115Y019252D01*
X016143Y019293D01*
X016175Y019332D01*
X016209Y019369D01*
X016246Y019403D01*
X016286Y019433D01*
X016328Y019460D01*
X016372Y019484D01*
X016418Y019505D01*
X016465Y019521D01*
X016513Y019534D01*
X016563Y019543D01*
X016612Y019548D01*
X016663Y019549D01*
X016713Y019546D01*
X016762Y019539D01*
X016811Y019528D01*
X016859Y019513D01*
X016905Y019495D01*
X016950Y019473D01*
X016993Y019447D01*
X017034Y019418D01*
X017073Y019386D01*
X017109Y019351D01*
X017141Y019313D01*
X017171Y019273D01*
X017198Y019230D01*
X017221Y019186D01*
X017240Y019140D01*
X017256Y019092D01*
X017268Y019043D01*
X017276Y018994D01*
X017280Y018944D01*
X017280Y018894D01*
X017276Y018844D01*
X017268Y018795D01*
X017256Y018746D01*
X017240Y018698D01*
X017221Y018652D01*
X017198Y018608D01*
X017171Y018565D01*
X017141Y018525D01*
X017109Y018487D01*
X017073Y018452D01*
X017034Y018420D01*
X016993Y018391D01*
X016950Y018365D01*
X016905Y018343D01*
X016859Y018325D01*
X016811Y018310D01*
X016762Y018299D01*
X016713Y018292D01*
X016663Y018289D01*
X016612Y018290D01*
X016563Y018295D01*
X016513Y018304D01*
X016465Y018317D01*
X016418Y018333D01*
X016372Y018354D01*
X016328Y018378D01*
X016286Y018405D01*
X016246Y018435D01*
X016209Y018469D01*
X016175Y018506D01*
X016143Y018545D01*
X016115Y018586D01*
X016090Y018630D01*
X016069Y018675D01*
X016052Y018722D01*
X016038Y018770D01*
X016028Y018819D01*
X016022Y018869D01*
X016020Y018919D01*
X014520Y018919D02*
X014522Y018969D01*
X014528Y019019D01*
X014538Y019068D01*
X014552Y019116D01*
X014569Y019163D01*
X014590Y019208D01*
X014615Y019252D01*
X014643Y019293D01*
X014675Y019332D01*
X014709Y019369D01*
X014746Y019403D01*
X014786Y019433D01*
X014828Y019460D01*
X014872Y019484D01*
X014918Y019505D01*
X014965Y019521D01*
X015013Y019534D01*
X015063Y019543D01*
X015112Y019548D01*
X015163Y019549D01*
X015213Y019546D01*
X015262Y019539D01*
X015311Y019528D01*
X015359Y019513D01*
X015405Y019495D01*
X015450Y019473D01*
X015493Y019447D01*
X015534Y019418D01*
X015573Y019386D01*
X015609Y019351D01*
X015641Y019313D01*
X015671Y019273D01*
X015698Y019230D01*
X015721Y019186D01*
X015740Y019140D01*
X015756Y019092D01*
X015768Y019043D01*
X015776Y018994D01*
X015780Y018944D01*
X015780Y018894D01*
X015776Y018844D01*
X015768Y018795D01*
X015756Y018746D01*
X015740Y018698D01*
X015721Y018652D01*
X015698Y018608D01*
X015671Y018565D01*
X015641Y018525D01*
X015609Y018487D01*
X015573Y018452D01*
X015534Y018420D01*
X015493Y018391D01*
X015450Y018365D01*
X015405Y018343D01*
X015359Y018325D01*
X015311Y018310D01*
X015262Y018299D01*
X015213Y018292D01*
X015163Y018289D01*
X015112Y018290D01*
X015063Y018295D01*
X015013Y018304D01*
X014965Y018317D01*
X014918Y018333D01*
X014872Y018354D01*
X014828Y018378D01*
X014786Y018405D01*
X014746Y018435D01*
X014709Y018469D01*
X014675Y018506D01*
X014643Y018545D01*
X014615Y018586D01*
X014590Y018630D01*
X014569Y018675D01*
X014552Y018722D01*
X014538Y018770D01*
X014528Y018819D01*
X014522Y018869D01*
X014520Y018919D01*
X010020Y018919D02*
X010022Y018969D01*
X010028Y019019D01*
X010038Y019068D01*
X010052Y019116D01*
X010069Y019163D01*
X010090Y019208D01*
X010115Y019252D01*
X010143Y019293D01*
X010175Y019332D01*
X010209Y019369D01*
X010246Y019403D01*
X010286Y019433D01*
X010328Y019460D01*
X010372Y019484D01*
X010418Y019505D01*
X010465Y019521D01*
X010513Y019534D01*
X010563Y019543D01*
X010612Y019548D01*
X010663Y019549D01*
X010713Y019546D01*
X010762Y019539D01*
X010811Y019528D01*
X010859Y019513D01*
X010905Y019495D01*
X010950Y019473D01*
X010993Y019447D01*
X011034Y019418D01*
X011073Y019386D01*
X011109Y019351D01*
X011141Y019313D01*
X011171Y019273D01*
X011198Y019230D01*
X011221Y019186D01*
X011240Y019140D01*
X011256Y019092D01*
X011268Y019043D01*
X011276Y018994D01*
X011280Y018944D01*
X011280Y018894D01*
X011276Y018844D01*
X011268Y018795D01*
X011256Y018746D01*
X011240Y018698D01*
X011221Y018652D01*
X011198Y018608D01*
X011171Y018565D01*
X011141Y018525D01*
X011109Y018487D01*
X011073Y018452D01*
X011034Y018420D01*
X010993Y018391D01*
X010950Y018365D01*
X010905Y018343D01*
X010859Y018325D01*
X010811Y018310D01*
X010762Y018299D01*
X010713Y018292D01*
X010663Y018289D01*
X010612Y018290D01*
X010563Y018295D01*
X010513Y018304D01*
X010465Y018317D01*
X010418Y018333D01*
X010372Y018354D01*
X010328Y018378D01*
X010286Y018405D01*
X010246Y018435D01*
X010209Y018469D01*
X010175Y018506D01*
X010143Y018545D01*
X010115Y018586D01*
X010090Y018630D01*
X010069Y018675D01*
X010052Y018722D01*
X010038Y018770D01*
X010028Y018819D01*
X010022Y018869D01*
X010020Y018919D01*
X008520Y018919D02*
X008522Y018969D01*
X008528Y019019D01*
X008538Y019068D01*
X008552Y019116D01*
X008569Y019163D01*
X008590Y019208D01*
X008615Y019252D01*
X008643Y019293D01*
X008675Y019332D01*
X008709Y019369D01*
X008746Y019403D01*
X008786Y019433D01*
X008828Y019460D01*
X008872Y019484D01*
X008918Y019505D01*
X008965Y019521D01*
X009013Y019534D01*
X009063Y019543D01*
X009112Y019548D01*
X009163Y019549D01*
X009213Y019546D01*
X009262Y019539D01*
X009311Y019528D01*
X009359Y019513D01*
X009405Y019495D01*
X009450Y019473D01*
X009493Y019447D01*
X009534Y019418D01*
X009573Y019386D01*
X009609Y019351D01*
X009641Y019313D01*
X009671Y019273D01*
X009698Y019230D01*
X009721Y019186D01*
X009740Y019140D01*
X009756Y019092D01*
X009768Y019043D01*
X009776Y018994D01*
X009780Y018944D01*
X009780Y018894D01*
X009776Y018844D01*
X009768Y018795D01*
X009756Y018746D01*
X009740Y018698D01*
X009721Y018652D01*
X009698Y018608D01*
X009671Y018565D01*
X009641Y018525D01*
X009609Y018487D01*
X009573Y018452D01*
X009534Y018420D01*
X009493Y018391D01*
X009450Y018365D01*
X009405Y018343D01*
X009359Y018325D01*
X009311Y018310D01*
X009262Y018299D01*
X009213Y018292D01*
X009163Y018289D01*
X009112Y018290D01*
X009063Y018295D01*
X009013Y018304D01*
X008965Y018317D01*
X008918Y018333D01*
X008872Y018354D01*
X008828Y018378D01*
X008786Y018405D01*
X008746Y018435D01*
X008709Y018469D01*
X008675Y018506D01*
X008643Y018545D01*
X008615Y018586D01*
X008590Y018630D01*
X008569Y018675D01*
X008552Y018722D01*
X008538Y018770D01*
X008528Y018819D01*
X008522Y018869D01*
X008520Y018919D01*
X004020Y018919D02*
X004022Y018969D01*
X004028Y019019D01*
X004038Y019068D01*
X004052Y019116D01*
X004069Y019163D01*
X004090Y019208D01*
X004115Y019252D01*
X004143Y019293D01*
X004175Y019332D01*
X004209Y019369D01*
X004246Y019403D01*
X004286Y019433D01*
X004328Y019460D01*
X004372Y019484D01*
X004418Y019505D01*
X004465Y019521D01*
X004513Y019534D01*
X004563Y019543D01*
X004612Y019548D01*
X004663Y019549D01*
X004713Y019546D01*
X004762Y019539D01*
X004811Y019528D01*
X004859Y019513D01*
X004905Y019495D01*
X004950Y019473D01*
X004993Y019447D01*
X005034Y019418D01*
X005073Y019386D01*
X005109Y019351D01*
X005141Y019313D01*
X005171Y019273D01*
X005198Y019230D01*
X005221Y019186D01*
X005240Y019140D01*
X005256Y019092D01*
X005268Y019043D01*
X005276Y018994D01*
X005280Y018944D01*
X005280Y018894D01*
X005276Y018844D01*
X005268Y018795D01*
X005256Y018746D01*
X005240Y018698D01*
X005221Y018652D01*
X005198Y018608D01*
X005171Y018565D01*
X005141Y018525D01*
X005109Y018487D01*
X005073Y018452D01*
X005034Y018420D01*
X004993Y018391D01*
X004950Y018365D01*
X004905Y018343D01*
X004859Y018325D01*
X004811Y018310D01*
X004762Y018299D01*
X004713Y018292D01*
X004663Y018289D01*
X004612Y018290D01*
X004563Y018295D01*
X004513Y018304D01*
X004465Y018317D01*
X004418Y018333D01*
X004372Y018354D01*
X004328Y018378D01*
X004286Y018405D01*
X004246Y018435D01*
X004209Y018469D01*
X004175Y018506D01*
X004143Y018545D01*
X004115Y018586D01*
X004090Y018630D01*
X004069Y018675D01*
X004052Y018722D01*
X004038Y018770D01*
X004028Y018819D01*
X004022Y018869D01*
X004020Y018919D01*
X004020Y007419D02*
X004022Y007469D01*
X004028Y007519D01*
X004038Y007568D01*
X004052Y007616D01*
X004069Y007663D01*
X004090Y007708D01*
X004115Y007752D01*
X004143Y007793D01*
X004175Y007832D01*
X004209Y007869D01*
X004246Y007903D01*
X004286Y007933D01*
X004328Y007960D01*
X004372Y007984D01*
X004418Y008005D01*
X004465Y008021D01*
X004513Y008034D01*
X004563Y008043D01*
X004612Y008048D01*
X004663Y008049D01*
X004713Y008046D01*
X004762Y008039D01*
X004811Y008028D01*
X004859Y008013D01*
X004905Y007995D01*
X004950Y007973D01*
X004993Y007947D01*
X005034Y007918D01*
X005073Y007886D01*
X005109Y007851D01*
X005141Y007813D01*
X005171Y007773D01*
X005198Y007730D01*
X005221Y007686D01*
X005240Y007640D01*
X005256Y007592D01*
X005268Y007543D01*
X005276Y007494D01*
X005280Y007444D01*
X005280Y007394D01*
X005276Y007344D01*
X005268Y007295D01*
X005256Y007246D01*
X005240Y007198D01*
X005221Y007152D01*
X005198Y007108D01*
X005171Y007065D01*
X005141Y007025D01*
X005109Y006987D01*
X005073Y006952D01*
X005034Y006920D01*
X004993Y006891D01*
X004950Y006865D01*
X004905Y006843D01*
X004859Y006825D01*
X004811Y006810D01*
X004762Y006799D01*
X004713Y006792D01*
X004663Y006789D01*
X004612Y006790D01*
X004563Y006795D01*
X004513Y006804D01*
X004465Y006817D01*
X004418Y006833D01*
X004372Y006854D01*
X004328Y006878D01*
X004286Y006905D01*
X004246Y006935D01*
X004209Y006969D01*
X004175Y007006D01*
X004143Y007045D01*
X004115Y007086D01*
X004090Y007130D01*
X004069Y007175D01*
X004052Y007222D01*
X004038Y007270D01*
X004028Y007319D01*
X004022Y007369D01*
X004020Y007419D01*
X008520Y007419D02*
X008522Y007469D01*
X008528Y007519D01*
X008538Y007568D01*
X008552Y007616D01*
X008569Y007663D01*
X008590Y007708D01*
X008615Y007752D01*
X008643Y007793D01*
X008675Y007832D01*
X008709Y007869D01*
X008746Y007903D01*
X008786Y007933D01*
X008828Y007960D01*
X008872Y007984D01*
X008918Y008005D01*
X008965Y008021D01*
X009013Y008034D01*
X009063Y008043D01*
X009112Y008048D01*
X009163Y008049D01*
X009213Y008046D01*
X009262Y008039D01*
X009311Y008028D01*
X009359Y008013D01*
X009405Y007995D01*
X009450Y007973D01*
X009493Y007947D01*
X009534Y007918D01*
X009573Y007886D01*
X009609Y007851D01*
X009641Y007813D01*
X009671Y007773D01*
X009698Y007730D01*
X009721Y007686D01*
X009740Y007640D01*
X009756Y007592D01*
X009768Y007543D01*
X009776Y007494D01*
X009780Y007444D01*
X009780Y007394D01*
X009776Y007344D01*
X009768Y007295D01*
X009756Y007246D01*
X009740Y007198D01*
X009721Y007152D01*
X009698Y007108D01*
X009671Y007065D01*
X009641Y007025D01*
X009609Y006987D01*
X009573Y006952D01*
X009534Y006920D01*
X009493Y006891D01*
X009450Y006865D01*
X009405Y006843D01*
X009359Y006825D01*
X009311Y006810D01*
X009262Y006799D01*
X009213Y006792D01*
X009163Y006789D01*
X009112Y006790D01*
X009063Y006795D01*
X009013Y006804D01*
X008965Y006817D01*
X008918Y006833D01*
X008872Y006854D01*
X008828Y006878D01*
X008786Y006905D01*
X008746Y006935D01*
X008709Y006969D01*
X008675Y007006D01*
X008643Y007045D01*
X008615Y007086D01*
X008590Y007130D01*
X008569Y007175D01*
X008552Y007222D01*
X008538Y007270D01*
X008528Y007319D01*
X008522Y007369D01*
X008520Y007419D01*
X010020Y007419D02*
X010022Y007469D01*
X010028Y007519D01*
X010038Y007568D01*
X010052Y007616D01*
X010069Y007663D01*
X010090Y007708D01*
X010115Y007752D01*
X010143Y007793D01*
X010175Y007832D01*
X010209Y007869D01*
X010246Y007903D01*
X010286Y007933D01*
X010328Y007960D01*
X010372Y007984D01*
X010418Y008005D01*
X010465Y008021D01*
X010513Y008034D01*
X010563Y008043D01*
X010612Y008048D01*
X010663Y008049D01*
X010713Y008046D01*
X010762Y008039D01*
X010811Y008028D01*
X010859Y008013D01*
X010905Y007995D01*
X010950Y007973D01*
X010993Y007947D01*
X011034Y007918D01*
X011073Y007886D01*
X011109Y007851D01*
X011141Y007813D01*
X011171Y007773D01*
X011198Y007730D01*
X011221Y007686D01*
X011240Y007640D01*
X011256Y007592D01*
X011268Y007543D01*
X011276Y007494D01*
X011280Y007444D01*
X011280Y007394D01*
X011276Y007344D01*
X011268Y007295D01*
X011256Y007246D01*
X011240Y007198D01*
X011221Y007152D01*
X011198Y007108D01*
X011171Y007065D01*
X011141Y007025D01*
X011109Y006987D01*
X011073Y006952D01*
X011034Y006920D01*
X010993Y006891D01*
X010950Y006865D01*
X010905Y006843D01*
X010859Y006825D01*
X010811Y006810D01*
X010762Y006799D01*
X010713Y006792D01*
X010663Y006789D01*
X010612Y006790D01*
X010563Y006795D01*
X010513Y006804D01*
X010465Y006817D01*
X010418Y006833D01*
X010372Y006854D01*
X010328Y006878D01*
X010286Y006905D01*
X010246Y006935D01*
X010209Y006969D01*
X010175Y007006D01*
X010143Y007045D01*
X010115Y007086D01*
X010090Y007130D01*
X010069Y007175D01*
X010052Y007222D01*
X010038Y007270D01*
X010028Y007319D01*
X010022Y007369D01*
X010020Y007419D01*
X014520Y007419D02*
X014522Y007469D01*
X014528Y007519D01*
X014538Y007568D01*
X014552Y007616D01*
X014569Y007663D01*
X014590Y007708D01*
X014615Y007752D01*
X014643Y007793D01*
X014675Y007832D01*
X014709Y007869D01*
X014746Y007903D01*
X014786Y007933D01*
X014828Y007960D01*
X014872Y007984D01*
X014918Y008005D01*
X014965Y008021D01*
X015013Y008034D01*
X015063Y008043D01*
X015112Y008048D01*
X015163Y008049D01*
X015213Y008046D01*
X015262Y008039D01*
X015311Y008028D01*
X015359Y008013D01*
X015405Y007995D01*
X015450Y007973D01*
X015493Y007947D01*
X015534Y007918D01*
X015573Y007886D01*
X015609Y007851D01*
X015641Y007813D01*
X015671Y007773D01*
X015698Y007730D01*
X015721Y007686D01*
X015740Y007640D01*
X015756Y007592D01*
X015768Y007543D01*
X015776Y007494D01*
X015780Y007444D01*
X015780Y007394D01*
X015776Y007344D01*
X015768Y007295D01*
X015756Y007246D01*
X015740Y007198D01*
X015721Y007152D01*
X015698Y007108D01*
X015671Y007065D01*
X015641Y007025D01*
X015609Y006987D01*
X015573Y006952D01*
X015534Y006920D01*
X015493Y006891D01*
X015450Y006865D01*
X015405Y006843D01*
X015359Y006825D01*
X015311Y006810D01*
X015262Y006799D01*
X015213Y006792D01*
X015163Y006789D01*
X015112Y006790D01*
X015063Y006795D01*
X015013Y006804D01*
X014965Y006817D01*
X014918Y006833D01*
X014872Y006854D01*
X014828Y006878D01*
X014786Y006905D01*
X014746Y006935D01*
X014709Y006969D01*
X014675Y007006D01*
X014643Y007045D01*
X014615Y007086D01*
X014590Y007130D01*
X014569Y007175D01*
X014552Y007222D01*
X014538Y007270D01*
X014528Y007319D01*
X014522Y007369D01*
X014520Y007419D01*
X016020Y007419D02*
X016022Y007469D01*
X016028Y007519D01*
X016038Y007568D01*
X016052Y007616D01*
X016069Y007663D01*
X016090Y007708D01*
X016115Y007752D01*
X016143Y007793D01*
X016175Y007832D01*
X016209Y007869D01*
X016246Y007903D01*
X016286Y007933D01*
X016328Y007960D01*
X016372Y007984D01*
X016418Y008005D01*
X016465Y008021D01*
X016513Y008034D01*
X016563Y008043D01*
X016612Y008048D01*
X016663Y008049D01*
X016713Y008046D01*
X016762Y008039D01*
X016811Y008028D01*
X016859Y008013D01*
X016905Y007995D01*
X016950Y007973D01*
X016993Y007947D01*
X017034Y007918D01*
X017073Y007886D01*
X017109Y007851D01*
X017141Y007813D01*
X017171Y007773D01*
X017198Y007730D01*
X017221Y007686D01*
X017240Y007640D01*
X017256Y007592D01*
X017268Y007543D01*
X017276Y007494D01*
X017280Y007444D01*
X017280Y007394D01*
X017276Y007344D01*
X017268Y007295D01*
X017256Y007246D01*
X017240Y007198D01*
X017221Y007152D01*
X017198Y007108D01*
X017171Y007065D01*
X017141Y007025D01*
X017109Y006987D01*
X017073Y006952D01*
X017034Y006920D01*
X016993Y006891D01*
X016950Y006865D01*
X016905Y006843D01*
X016859Y006825D01*
X016811Y006810D01*
X016762Y006799D01*
X016713Y006792D01*
X016663Y006789D01*
X016612Y006790D01*
X016563Y006795D01*
X016513Y006804D01*
X016465Y006817D01*
X016418Y006833D01*
X016372Y006854D01*
X016328Y006878D01*
X016286Y006905D01*
X016246Y006935D01*
X016209Y006969D01*
X016175Y007006D01*
X016143Y007045D01*
X016115Y007086D01*
X016090Y007130D01*
X016069Y007175D01*
X016052Y007222D01*
X016038Y007270D01*
X016028Y007319D01*
X016022Y007369D01*
X016020Y007419D01*
X020520Y007419D02*
X020522Y007469D01*
X020528Y007519D01*
X020538Y007568D01*
X020552Y007616D01*
X020569Y007663D01*
X020590Y007708D01*
X020615Y007752D01*
X020643Y007793D01*
X020675Y007832D01*
X020709Y007869D01*
X020746Y007903D01*
X020786Y007933D01*
X020828Y007960D01*
X020872Y007984D01*
X020918Y008005D01*
X020965Y008021D01*
X021013Y008034D01*
X021063Y008043D01*
X021112Y008048D01*
X021163Y008049D01*
X021213Y008046D01*
X021262Y008039D01*
X021311Y008028D01*
X021359Y008013D01*
X021405Y007995D01*
X021450Y007973D01*
X021493Y007947D01*
X021534Y007918D01*
X021573Y007886D01*
X021609Y007851D01*
X021641Y007813D01*
X021671Y007773D01*
X021698Y007730D01*
X021721Y007686D01*
X021740Y007640D01*
X021756Y007592D01*
X021768Y007543D01*
X021776Y007494D01*
X021780Y007444D01*
X021780Y007394D01*
X021776Y007344D01*
X021768Y007295D01*
X021756Y007246D01*
X021740Y007198D01*
X021721Y007152D01*
X021698Y007108D01*
X021671Y007065D01*
X021641Y007025D01*
X021609Y006987D01*
X021573Y006952D01*
X021534Y006920D01*
X021493Y006891D01*
X021450Y006865D01*
X021405Y006843D01*
X021359Y006825D01*
X021311Y006810D01*
X021262Y006799D01*
X021213Y006792D01*
X021163Y006789D01*
X021112Y006790D01*
X021063Y006795D01*
X021013Y006804D01*
X020965Y006817D01*
X020918Y006833D01*
X020872Y006854D01*
X020828Y006878D01*
X020786Y006905D01*
X020746Y006935D01*
X020709Y006969D01*
X020675Y007006D01*
X020643Y007045D01*
X020615Y007086D01*
X020590Y007130D01*
X020569Y007175D01*
X020552Y007222D01*
X020538Y007270D01*
X020528Y007319D01*
X020522Y007369D01*
X020520Y007419D01*
X026520Y008419D02*
X026522Y008469D01*
X026528Y008519D01*
X026538Y008568D01*
X026552Y008616D01*
X026569Y008663D01*
X026590Y008708D01*
X026615Y008752D01*
X026643Y008793D01*
X026675Y008832D01*
X026709Y008869D01*
X026746Y008903D01*
X026786Y008933D01*
X026828Y008960D01*
X026872Y008984D01*
X026918Y009005D01*
X026965Y009021D01*
X027013Y009034D01*
X027063Y009043D01*
X027112Y009048D01*
X027163Y009049D01*
X027213Y009046D01*
X027262Y009039D01*
X027311Y009028D01*
X027359Y009013D01*
X027405Y008995D01*
X027450Y008973D01*
X027493Y008947D01*
X027534Y008918D01*
X027573Y008886D01*
X027609Y008851D01*
X027641Y008813D01*
X027671Y008773D01*
X027698Y008730D01*
X027721Y008686D01*
X027740Y008640D01*
X027756Y008592D01*
X027768Y008543D01*
X027776Y008494D01*
X027780Y008444D01*
X027780Y008394D01*
X027776Y008344D01*
X027768Y008295D01*
X027756Y008246D01*
X027740Y008198D01*
X027721Y008152D01*
X027698Y008108D01*
X027671Y008065D01*
X027641Y008025D01*
X027609Y007987D01*
X027573Y007952D01*
X027534Y007920D01*
X027493Y007891D01*
X027450Y007865D01*
X027405Y007843D01*
X027359Y007825D01*
X027311Y007810D01*
X027262Y007799D01*
X027213Y007792D01*
X027163Y007789D01*
X027112Y007790D01*
X027063Y007795D01*
X027013Y007804D01*
X026965Y007817D01*
X026918Y007833D01*
X026872Y007854D01*
X026828Y007878D01*
X026786Y007905D01*
X026746Y007935D01*
X026709Y007969D01*
X026675Y008006D01*
X026643Y008045D01*
X026615Y008086D01*
X026590Y008130D01*
X026569Y008175D01*
X026552Y008222D01*
X026538Y008270D01*
X026528Y008319D01*
X026522Y008369D01*
X026520Y008419D01*
X031020Y008419D02*
X031022Y008469D01*
X031028Y008519D01*
X031038Y008568D01*
X031052Y008616D01*
X031069Y008663D01*
X031090Y008708D01*
X031115Y008752D01*
X031143Y008793D01*
X031175Y008832D01*
X031209Y008869D01*
X031246Y008903D01*
X031286Y008933D01*
X031328Y008960D01*
X031372Y008984D01*
X031418Y009005D01*
X031465Y009021D01*
X031513Y009034D01*
X031563Y009043D01*
X031612Y009048D01*
X031663Y009049D01*
X031713Y009046D01*
X031762Y009039D01*
X031811Y009028D01*
X031859Y009013D01*
X031905Y008995D01*
X031950Y008973D01*
X031993Y008947D01*
X032034Y008918D01*
X032073Y008886D01*
X032109Y008851D01*
X032141Y008813D01*
X032171Y008773D01*
X032198Y008730D01*
X032221Y008686D01*
X032240Y008640D01*
X032256Y008592D01*
X032268Y008543D01*
X032276Y008494D01*
X032280Y008444D01*
X032280Y008394D01*
X032276Y008344D01*
X032268Y008295D01*
X032256Y008246D01*
X032240Y008198D01*
X032221Y008152D01*
X032198Y008108D01*
X032171Y008065D01*
X032141Y008025D01*
X032109Y007987D01*
X032073Y007952D01*
X032034Y007920D01*
X031993Y007891D01*
X031950Y007865D01*
X031905Y007843D01*
X031859Y007825D01*
X031811Y007810D01*
X031762Y007799D01*
X031713Y007792D01*
X031663Y007789D01*
X031612Y007790D01*
X031563Y007795D01*
X031513Y007804D01*
X031465Y007817D01*
X031418Y007833D01*
X031372Y007854D01*
X031328Y007878D01*
X031286Y007905D01*
X031246Y007935D01*
X031209Y007969D01*
X031175Y008006D01*
X031143Y008045D01*
X031115Y008086D01*
X031090Y008130D01*
X031069Y008175D01*
X031052Y008222D01*
X031038Y008270D01*
X031028Y008319D01*
X031022Y008369D01*
X031020Y008419D01*
X034020Y007419D02*
X034022Y007469D01*
X034028Y007519D01*
X034038Y007568D01*
X034052Y007616D01*
X034069Y007663D01*
X034090Y007708D01*
X034115Y007752D01*
X034143Y007793D01*
X034175Y007832D01*
X034209Y007869D01*
X034246Y007903D01*
X034286Y007933D01*
X034328Y007960D01*
X034372Y007984D01*
X034418Y008005D01*
X034465Y008021D01*
X034513Y008034D01*
X034563Y008043D01*
X034612Y008048D01*
X034663Y008049D01*
X034713Y008046D01*
X034762Y008039D01*
X034811Y008028D01*
X034859Y008013D01*
X034905Y007995D01*
X034950Y007973D01*
X034993Y007947D01*
X035034Y007918D01*
X035073Y007886D01*
X035109Y007851D01*
X035141Y007813D01*
X035171Y007773D01*
X035198Y007730D01*
X035221Y007686D01*
X035240Y007640D01*
X035256Y007592D01*
X035268Y007543D01*
X035276Y007494D01*
X035280Y007444D01*
X035280Y007394D01*
X035276Y007344D01*
X035268Y007295D01*
X035256Y007246D01*
X035240Y007198D01*
X035221Y007152D01*
X035198Y007108D01*
X035171Y007065D01*
X035141Y007025D01*
X035109Y006987D01*
X035073Y006952D01*
X035034Y006920D01*
X034993Y006891D01*
X034950Y006865D01*
X034905Y006843D01*
X034859Y006825D01*
X034811Y006810D01*
X034762Y006799D01*
X034713Y006792D01*
X034663Y006789D01*
X034612Y006790D01*
X034563Y006795D01*
X034513Y006804D01*
X034465Y006817D01*
X034418Y006833D01*
X034372Y006854D01*
X034328Y006878D01*
X034286Y006905D01*
X034246Y006935D01*
X034209Y006969D01*
X034175Y007006D01*
X034143Y007045D01*
X034115Y007086D01*
X034090Y007130D01*
X034069Y007175D01*
X034052Y007222D01*
X034038Y007270D01*
X034028Y007319D01*
X034022Y007369D01*
X034020Y007419D01*
X038520Y007419D02*
X038522Y007469D01*
X038528Y007519D01*
X038538Y007568D01*
X038552Y007616D01*
X038569Y007663D01*
X038590Y007708D01*
X038615Y007752D01*
X038643Y007793D01*
X038675Y007832D01*
X038709Y007869D01*
X038746Y007903D01*
X038786Y007933D01*
X038828Y007960D01*
X038872Y007984D01*
X038918Y008005D01*
X038965Y008021D01*
X039013Y008034D01*
X039063Y008043D01*
X039112Y008048D01*
X039163Y008049D01*
X039213Y008046D01*
X039262Y008039D01*
X039311Y008028D01*
X039359Y008013D01*
X039405Y007995D01*
X039450Y007973D01*
X039493Y007947D01*
X039534Y007918D01*
X039573Y007886D01*
X039609Y007851D01*
X039641Y007813D01*
X039671Y007773D01*
X039698Y007730D01*
X039721Y007686D01*
X039740Y007640D01*
X039756Y007592D01*
X039768Y007543D01*
X039776Y007494D01*
X039780Y007444D01*
X039780Y007394D01*
X039776Y007344D01*
X039768Y007295D01*
X039756Y007246D01*
X039740Y007198D01*
X039721Y007152D01*
X039698Y007108D01*
X039671Y007065D01*
X039641Y007025D01*
X039609Y006987D01*
X039573Y006952D01*
X039534Y006920D01*
X039493Y006891D01*
X039450Y006865D01*
X039405Y006843D01*
X039359Y006825D01*
X039311Y006810D01*
X039262Y006799D01*
X039213Y006792D01*
X039163Y006789D01*
X039112Y006790D01*
X039063Y006795D01*
X039013Y006804D01*
X038965Y006817D01*
X038918Y006833D01*
X038872Y006854D01*
X038828Y006878D01*
X038786Y006905D01*
X038746Y006935D01*
X038709Y006969D01*
X038675Y007006D01*
X038643Y007045D01*
X038615Y007086D01*
X038590Y007130D01*
X038569Y007175D01*
X038552Y007222D01*
X038538Y007270D01*
X038528Y007319D01*
X038522Y007369D01*
X038520Y007419D01*
X038520Y018919D02*
X038522Y018969D01*
X038528Y019019D01*
X038538Y019068D01*
X038552Y019116D01*
X038569Y019163D01*
X038590Y019208D01*
X038615Y019252D01*
X038643Y019293D01*
X038675Y019332D01*
X038709Y019369D01*
X038746Y019403D01*
X038786Y019433D01*
X038828Y019460D01*
X038872Y019484D01*
X038918Y019505D01*
X038965Y019521D01*
X039013Y019534D01*
X039063Y019543D01*
X039112Y019548D01*
X039163Y019549D01*
X039213Y019546D01*
X039262Y019539D01*
X039311Y019528D01*
X039359Y019513D01*
X039405Y019495D01*
X039450Y019473D01*
X039493Y019447D01*
X039534Y019418D01*
X039573Y019386D01*
X039609Y019351D01*
X039641Y019313D01*
X039671Y019273D01*
X039698Y019230D01*
X039721Y019186D01*
X039740Y019140D01*
X039756Y019092D01*
X039768Y019043D01*
X039776Y018994D01*
X039780Y018944D01*
X039780Y018894D01*
X039776Y018844D01*
X039768Y018795D01*
X039756Y018746D01*
X039740Y018698D01*
X039721Y018652D01*
X039698Y018608D01*
X039671Y018565D01*
X039641Y018525D01*
X039609Y018487D01*
X039573Y018452D01*
X039534Y018420D01*
X039493Y018391D01*
X039450Y018365D01*
X039405Y018343D01*
X039359Y018325D01*
X039311Y018310D01*
X039262Y018299D01*
X039213Y018292D01*
X039163Y018289D01*
X039112Y018290D01*
X039063Y018295D01*
X039013Y018304D01*
X038965Y018317D01*
X038918Y018333D01*
X038872Y018354D01*
X038828Y018378D01*
X038786Y018405D01*
X038746Y018435D01*
X038709Y018469D01*
X038675Y018506D01*
X038643Y018545D01*
X038615Y018586D01*
X038590Y018630D01*
X038569Y018675D01*
X038552Y018722D01*
X038538Y018770D01*
X038528Y018819D01*
X038522Y018869D01*
X038520Y018919D01*
D20*
X035518Y016348D02*
X035518Y012647D01*
X015282Y012647D01*
X015282Y015285D01*
X015282Y015284D02*
X015254Y015286D01*
X015226Y015291D01*
X015199Y015301D01*
X015174Y015313D01*
X015150Y015329D01*
X015129Y015348D01*
X015110Y015369D01*
X015094Y015393D01*
X015082Y015418D01*
X015072Y015445D01*
X015067Y015473D01*
X015065Y015501D01*
X015067Y015529D01*
X015072Y015557D01*
X015082Y015584D01*
X015094Y015610D01*
X015110Y015633D01*
X015129Y015654D01*
X015150Y015673D01*
X015174Y015689D01*
X015199Y015701D01*
X015226Y015711D01*
X015254Y015716D01*
X015282Y015718D01*
X015282Y016348D01*
X035518Y016348D01*
X026227Y012608D02*
X026227Y011938D01*
X024573Y011938D01*
X024573Y012608D01*
X016404Y023140D02*
X009396Y023140D01*
X009396Y026840D01*
X016404Y026840D01*
X016404Y024203D01*
X016432Y024201D01*
X016460Y024196D01*
X016487Y024186D01*
X016513Y024174D01*
X016536Y024158D01*
X016557Y024139D01*
X016576Y024118D01*
X016592Y024095D01*
X016604Y024069D01*
X016614Y024042D01*
X016619Y024014D01*
X016621Y023986D01*
X016619Y023958D01*
X016614Y023930D01*
X016604Y023903D01*
X016592Y023878D01*
X016576Y023854D01*
X016557Y023833D01*
X016536Y023814D01*
X016513Y023798D01*
X016487Y023786D01*
X016460Y023776D01*
X016432Y023771D01*
X016404Y023769D01*
X016404Y023770D02*
X016404Y023140D01*
X013727Y026880D02*
X013727Y027549D01*
X012073Y027549D01*
X012073Y026880D01*
M02*
