G75*
G70*
%OFA0B0*%
%FSLAX24Y24*%
%IPPOS*%
%LPD*%
%AMOC8*
5,1,8,0,0,1.08239X$1,22.5*
%
%ADD10C,0.0040*%
%ADD11C,0.0000*%
D10*
X001331Y000169D02*
X038733Y000169D01*
X038799Y000171D01*
X038865Y000176D01*
X038931Y000186D01*
X038996Y000199D01*
X039060Y000215D01*
X039123Y000235D01*
X039185Y000259D01*
X039245Y000286D01*
X039304Y000316D01*
X039361Y000350D01*
X039416Y000387D01*
X039469Y000427D01*
X039520Y000469D01*
X039568Y000515D01*
X039614Y000563D01*
X039656Y000614D01*
X039696Y000667D01*
X039733Y000722D01*
X039767Y000779D01*
X039797Y000838D01*
X039824Y000898D01*
X039848Y000960D01*
X039868Y001023D01*
X039884Y001087D01*
X039897Y001152D01*
X039907Y001218D01*
X039912Y001284D01*
X039914Y001350D01*
X039914Y038751D01*
X039912Y038817D01*
X039907Y038883D01*
X039897Y038949D01*
X039884Y039014D01*
X039868Y039078D01*
X039848Y039141D01*
X039824Y039203D01*
X039797Y039263D01*
X039767Y039322D01*
X039733Y039379D01*
X039696Y039434D01*
X039656Y039487D01*
X039614Y039538D01*
X039568Y039586D01*
X039520Y039632D01*
X039469Y039674D01*
X039416Y039714D01*
X039361Y039751D01*
X039304Y039785D01*
X039245Y039815D01*
X039185Y039842D01*
X039123Y039866D01*
X039060Y039886D01*
X038996Y039902D01*
X038931Y039915D01*
X038865Y039925D01*
X038799Y039930D01*
X038733Y039932D01*
X038733Y039933D02*
X001331Y039933D01*
X001331Y039932D02*
X001265Y039930D01*
X001199Y039925D01*
X001133Y039915D01*
X001068Y039902D01*
X001004Y039886D01*
X000941Y039866D01*
X000879Y039842D01*
X000819Y039815D01*
X000760Y039785D01*
X000703Y039751D01*
X000648Y039714D01*
X000595Y039674D01*
X000544Y039632D01*
X000496Y039586D01*
X000450Y039538D01*
X000408Y039487D01*
X000368Y039434D01*
X000331Y039379D01*
X000297Y039322D01*
X000267Y039263D01*
X000240Y039203D01*
X000216Y039141D01*
X000196Y039078D01*
X000180Y039014D01*
X000167Y038949D01*
X000157Y038883D01*
X000152Y038817D01*
X000150Y038751D01*
X000150Y029205D01*
X003792Y029205D01*
X003792Y005147D01*
X000150Y005147D01*
X000150Y001350D01*
X000152Y001284D01*
X000157Y001218D01*
X000167Y001152D01*
X000180Y001087D01*
X000196Y001023D01*
X000216Y000960D01*
X000240Y000898D01*
X000267Y000838D01*
X000297Y000779D01*
X000331Y000722D01*
X000368Y000667D01*
X000408Y000614D01*
X000450Y000563D01*
X000496Y000515D01*
X000544Y000469D01*
X000595Y000427D01*
X000648Y000387D01*
X000703Y000350D01*
X000760Y000316D01*
X000819Y000286D01*
X000879Y000259D01*
X000941Y000235D01*
X001004Y000215D01*
X001068Y000199D01*
X001133Y000186D01*
X001199Y000176D01*
X001265Y000171D01*
X001331Y000169D01*
X019650Y024669D02*
X036150Y024669D01*
X036150Y028919D01*
X019650Y028919D01*
X019650Y024669D01*
D11*
X020520Y018919D02*
X020522Y018969D01*
X020528Y019019D01*
X020538Y019068D01*
X020552Y019116D01*
X020569Y019163D01*
X020590Y019208D01*
X020615Y019252D01*
X020643Y019293D01*
X020675Y019332D01*
X020709Y019369D01*
X020746Y019403D01*
X020786Y019433D01*
X020828Y019460D01*
X020872Y019484D01*
X020918Y019505D01*
X020965Y019521D01*
X021013Y019534D01*
X021063Y019543D01*
X021112Y019548D01*
X021163Y019549D01*
X021213Y019546D01*
X021262Y019539D01*
X021311Y019528D01*
X021359Y019513D01*
X021405Y019495D01*
X021450Y019473D01*
X021493Y019447D01*
X021534Y019418D01*
X021573Y019386D01*
X021609Y019351D01*
X021641Y019313D01*
X021671Y019273D01*
X021698Y019230D01*
X021721Y019186D01*
X021740Y019140D01*
X021756Y019092D01*
X021768Y019043D01*
X021776Y018994D01*
X021780Y018944D01*
X021780Y018894D01*
X021776Y018844D01*
X021768Y018795D01*
X021756Y018746D01*
X021740Y018698D01*
X021721Y018652D01*
X021698Y018608D01*
X021671Y018565D01*
X021641Y018525D01*
X021609Y018487D01*
X021573Y018452D01*
X021534Y018420D01*
X021493Y018391D01*
X021450Y018365D01*
X021405Y018343D01*
X021359Y018325D01*
X021311Y018310D01*
X021262Y018299D01*
X021213Y018292D01*
X021163Y018289D01*
X021112Y018290D01*
X021063Y018295D01*
X021013Y018304D01*
X020965Y018317D01*
X020918Y018333D01*
X020872Y018354D01*
X020828Y018378D01*
X020786Y018405D01*
X020746Y018435D01*
X020709Y018469D01*
X020675Y018506D01*
X020643Y018545D01*
X020615Y018586D01*
X020590Y018630D01*
X020569Y018675D01*
X020552Y018722D01*
X020538Y018770D01*
X020528Y018819D01*
X020522Y018869D01*
X020520Y018919D01*
X022020Y018919D02*
X022022Y018969D01*
X022028Y019019D01*
X022038Y019068D01*
X022052Y019116D01*
X022069Y019163D01*
X022090Y019208D01*
X022115Y019252D01*
X022143Y019293D01*
X022175Y019332D01*
X022209Y019369D01*
X022246Y019403D01*
X022286Y019433D01*
X022328Y019460D01*
X022372Y019484D01*
X022418Y019505D01*
X022465Y019521D01*
X022513Y019534D01*
X022563Y019543D01*
X022612Y019548D01*
X022663Y019549D01*
X022713Y019546D01*
X022762Y019539D01*
X022811Y019528D01*
X022859Y019513D01*
X022905Y019495D01*
X022950Y019473D01*
X022993Y019447D01*
X023034Y019418D01*
X023073Y019386D01*
X023109Y019351D01*
X023141Y019313D01*
X023171Y019273D01*
X023198Y019230D01*
X023221Y019186D01*
X023240Y019140D01*
X023256Y019092D01*
X023268Y019043D01*
X023276Y018994D01*
X023280Y018944D01*
X023280Y018894D01*
X023276Y018844D01*
X023268Y018795D01*
X023256Y018746D01*
X023240Y018698D01*
X023221Y018652D01*
X023198Y018608D01*
X023171Y018565D01*
X023141Y018525D01*
X023109Y018487D01*
X023073Y018452D01*
X023034Y018420D01*
X022993Y018391D01*
X022950Y018365D01*
X022905Y018343D01*
X022859Y018325D01*
X022811Y018310D01*
X022762Y018299D01*
X022713Y018292D01*
X022663Y018289D01*
X022612Y018290D01*
X022563Y018295D01*
X022513Y018304D01*
X022465Y018317D01*
X022418Y018333D01*
X022372Y018354D01*
X022328Y018378D01*
X022286Y018405D01*
X022246Y018435D01*
X022209Y018469D01*
X022175Y018506D01*
X022143Y018545D01*
X022115Y018586D01*
X022090Y018630D01*
X022069Y018675D01*
X022052Y018722D01*
X022038Y018770D01*
X022028Y018819D01*
X022022Y018869D01*
X022020Y018919D01*
X026520Y018919D02*
X026522Y018969D01*
X026528Y019019D01*
X026538Y019068D01*
X026552Y019116D01*
X026569Y019163D01*
X026590Y019208D01*
X026615Y019252D01*
X026643Y019293D01*
X026675Y019332D01*
X026709Y019369D01*
X026746Y019403D01*
X026786Y019433D01*
X026828Y019460D01*
X026872Y019484D01*
X026918Y019505D01*
X026965Y019521D01*
X027013Y019534D01*
X027063Y019543D01*
X027112Y019548D01*
X027163Y019549D01*
X027213Y019546D01*
X027262Y019539D01*
X027311Y019528D01*
X027359Y019513D01*
X027405Y019495D01*
X027450Y019473D01*
X027493Y019447D01*
X027534Y019418D01*
X027573Y019386D01*
X027609Y019351D01*
X027641Y019313D01*
X027671Y019273D01*
X027698Y019230D01*
X027721Y019186D01*
X027740Y019140D01*
X027756Y019092D01*
X027768Y019043D01*
X027776Y018994D01*
X027780Y018944D01*
X027780Y018894D01*
X027776Y018844D01*
X027768Y018795D01*
X027756Y018746D01*
X027740Y018698D01*
X027721Y018652D01*
X027698Y018608D01*
X027671Y018565D01*
X027641Y018525D01*
X027609Y018487D01*
X027573Y018452D01*
X027534Y018420D01*
X027493Y018391D01*
X027450Y018365D01*
X027405Y018343D01*
X027359Y018325D01*
X027311Y018310D01*
X027262Y018299D01*
X027213Y018292D01*
X027163Y018289D01*
X027112Y018290D01*
X027063Y018295D01*
X027013Y018304D01*
X026965Y018317D01*
X026918Y018333D01*
X026872Y018354D01*
X026828Y018378D01*
X026786Y018405D01*
X026746Y018435D01*
X026709Y018469D01*
X026675Y018506D01*
X026643Y018545D01*
X026615Y018586D01*
X026590Y018630D01*
X026569Y018675D01*
X026552Y018722D01*
X026538Y018770D01*
X026528Y018819D01*
X026522Y018869D01*
X026520Y018919D01*
X028020Y018919D02*
X028022Y018969D01*
X028028Y019019D01*
X028038Y019068D01*
X028052Y019116D01*
X028069Y019163D01*
X028090Y019208D01*
X028115Y019252D01*
X028143Y019293D01*
X028175Y019332D01*
X028209Y019369D01*
X028246Y019403D01*
X028286Y019433D01*
X028328Y019460D01*
X028372Y019484D01*
X028418Y019505D01*
X028465Y019521D01*
X028513Y019534D01*
X028563Y019543D01*
X028612Y019548D01*
X028663Y019549D01*
X028713Y019546D01*
X028762Y019539D01*
X028811Y019528D01*
X028859Y019513D01*
X028905Y019495D01*
X028950Y019473D01*
X028993Y019447D01*
X029034Y019418D01*
X029073Y019386D01*
X029109Y019351D01*
X029141Y019313D01*
X029171Y019273D01*
X029198Y019230D01*
X029221Y019186D01*
X029240Y019140D01*
X029256Y019092D01*
X029268Y019043D01*
X029276Y018994D01*
X029280Y018944D01*
X029280Y018894D01*
X029276Y018844D01*
X029268Y018795D01*
X029256Y018746D01*
X029240Y018698D01*
X029221Y018652D01*
X029198Y018608D01*
X029171Y018565D01*
X029141Y018525D01*
X029109Y018487D01*
X029073Y018452D01*
X029034Y018420D01*
X028993Y018391D01*
X028950Y018365D01*
X028905Y018343D01*
X028859Y018325D01*
X028811Y018310D01*
X028762Y018299D01*
X028713Y018292D01*
X028663Y018289D01*
X028612Y018290D01*
X028563Y018295D01*
X028513Y018304D01*
X028465Y018317D01*
X028418Y018333D01*
X028372Y018354D01*
X028328Y018378D01*
X028286Y018405D01*
X028246Y018435D01*
X028209Y018469D01*
X028175Y018506D01*
X028143Y018545D01*
X028115Y018586D01*
X028090Y018630D01*
X028069Y018675D01*
X028052Y018722D01*
X028038Y018770D01*
X028028Y018819D01*
X028022Y018869D01*
X028020Y018919D01*
X032520Y018919D02*
X032522Y018969D01*
X032528Y019019D01*
X032538Y019068D01*
X032552Y019116D01*
X032569Y019163D01*
X032590Y019208D01*
X032615Y019252D01*
X032643Y019293D01*
X032675Y019332D01*
X032709Y019369D01*
X032746Y019403D01*
X032786Y019433D01*
X032828Y019460D01*
X032872Y019484D01*
X032918Y019505D01*
X032965Y019521D01*
X033013Y019534D01*
X033063Y019543D01*
X033112Y019548D01*
X033163Y019549D01*
X033213Y019546D01*
X033262Y019539D01*
X033311Y019528D01*
X033359Y019513D01*
X033405Y019495D01*
X033450Y019473D01*
X033493Y019447D01*
X033534Y019418D01*
X033573Y019386D01*
X033609Y019351D01*
X033641Y019313D01*
X033671Y019273D01*
X033698Y019230D01*
X033721Y019186D01*
X033740Y019140D01*
X033756Y019092D01*
X033768Y019043D01*
X033776Y018994D01*
X033780Y018944D01*
X033780Y018894D01*
X033776Y018844D01*
X033768Y018795D01*
X033756Y018746D01*
X033740Y018698D01*
X033721Y018652D01*
X033698Y018608D01*
X033671Y018565D01*
X033641Y018525D01*
X033609Y018487D01*
X033573Y018452D01*
X033534Y018420D01*
X033493Y018391D01*
X033450Y018365D01*
X033405Y018343D01*
X033359Y018325D01*
X033311Y018310D01*
X033262Y018299D01*
X033213Y018292D01*
X033163Y018289D01*
X033112Y018290D01*
X033063Y018295D01*
X033013Y018304D01*
X032965Y018317D01*
X032918Y018333D01*
X032872Y018354D01*
X032828Y018378D01*
X032786Y018405D01*
X032746Y018435D01*
X032709Y018469D01*
X032675Y018506D01*
X032643Y018545D01*
X032615Y018586D01*
X032590Y018630D01*
X032569Y018675D01*
X032552Y018722D01*
X032538Y018770D01*
X032528Y018819D01*
X032522Y018869D01*
X032520Y018919D01*
X034020Y018919D02*
X034022Y018969D01*
X034028Y019019D01*
X034038Y019068D01*
X034052Y019116D01*
X034069Y019163D01*
X034090Y019208D01*
X034115Y019252D01*
X034143Y019293D01*
X034175Y019332D01*
X034209Y019369D01*
X034246Y019403D01*
X034286Y019433D01*
X034328Y019460D01*
X034372Y019484D01*
X034418Y019505D01*
X034465Y019521D01*
X034513Y019534D01*
X034563Y019543D01*
X034612Y019548D01*
X034663Y019549D01*
X034713Y019546D01*
X034762Y019539D01*
X034811Y019528D01*
X034859Y019513D01*
X034905Y019495D01*
X034950Y019473D01*
X034993Y019447D01*
X035034Y019418D01*
X035073Y019386D01*
X035109Y019351D01*
X035141Y019313D01*
X035171Y019273D01*
X035198Y019230D01*
X035221Y019186D01*
X035240Y019140D01*
X035256Y019092D01*
X035268Y019043D01*
X035276Y018994D01*
X035280Y018944D01*
X035280Y018894D01*
X035276Y018844D01*
X035268Y018795D01*
X035256Y018746D01*
X035240Y018698D01*
X035221Y018652D01*
X035198Y018608D01*
X035171Y018565D01*
X035141Y018525D01*
X035109Y018487D01*
X035073Y018452D01*
X035034Y018420D01*
X034993Y018391D01*
X034950Y018365D01*
X034905Y018343D01*
X034859Y018325D01*
X034811Y018310D01*
X034762Y018299D01*
X034713Y018292D01*
X034663Y018289D01*
X034612Y018290D01*
X034563Y018295D01*
X034513Y018304D01*
X034465Y018317D01*
X034418Y018333D01*
X034372Y018354D01*
X034328Y018378D01*
X034286Y018405D01*
X034246Y018435D01*
X034209Y018469D01*
X034175Y018506D01*
X034143Y018545D01*
X034115Y018586D01*
X034090Y018630D01*
X034069Y018675D01*
X034052Y018722D01*
X034038Y018770D01*
X034028Y018819D01*
X034022Y018869D01*
X034020Y018919D01*
X038520Y018919D02*
X038522Y018969D01*
X038528Y019019D01*
X038538Y019068D01*
X038552Y019116D01*
X038569Y019163D01*
X038590Y019208D01*
X038615Y019252D01*
X038643Y019293D01*
X038675Y019332D01*
X038709Y019369D01*
X038746Y019403D01*
X038786Y019433D01*
X038828Y019460D01*
X038872Y019484D01*
X038918Y019505D01*
X038965Y019521D01*
X039013Y019534D01*
X039063Y019543D01*
X039112Y019548D01*
X039163Y019549D01*
X039213Y019546D01*
X039262Y019539D01*
X039311Y019528D01*
X039359Y019513D01*
X039405Y019495D01*
X039450Y019473D01*
X039493Y019447D01*
X039534Y019418D01*
X039573Y019386D01*
X039609Y019351D01*
X039641Y019313D01*
X039671Y019273D01*
X039698Y019230D01*
X039721Y019186D01*
X039740Y019140D01*
X039756Y019092D01*
X039768Y019043D01*
X039776Y018994D01*
X039780Y018944D01*
X039780Y018894D01*
X039776Y018844D01*
X039768Y018795D01*
X039756Y018746D01*
X039740Y018698D01*
X039721Y018652D01*
X039698Y018608D01*
X039671Y018565D01*
X039641Y018525D01*
X039609Y018487D01*
X039573Y018452D01*
X039534Y018420D01*
X039493Y018391D01*
X039450Y018365D01*
X039405Y018343D01*
X039359Y018325D01*
X039311Y018310D01*
X039262Y018299D01*
X039213Y018292D01*
X039163Y018289D01*
X039112Y018290D01*
X039063Y018295D01*
X039013Y018304D01*
X038965Y018317D01*
X038918Y018333D01*
X038872Y018354D01*
X038828Y018378D01*
X038786Y018405D01*
X038746Y018435D01*
X038709Y018469D01*
X038675Y018506D01*
X038643Y018545D01*
X038615Y018586D01*
X038590Y018630D01*
X038569Y018675D01*
X038552Y018722D01*
X038538Y018770D01*
X038528Y018819D01*
X038522Y018869D01*
X038520Y018919D01*
X031020Y008419D02*
X031022Y008469D01*
X031028Y008519D01*
X031038Y008568D01*
X031052Y008616D01*
X031069Y008663D01*
X031090Y008708D01*
X031115Y008752D01*
X031143Y008793D01*
X031175Y008832D01*
X031209Y008869D01*
X031246Y008903D01*
X031286Y008933D01*
X031328Y008960D01*
X031372Y008984D01*
X031418Y009005D01*
X031465Y009021D01*
X031513Y009034D01*
X031563Y009043D01*
X031612Y009048D01*
X031663Y009049D01*
X031713Y009046D01*
X031762Y009039D01*
X031811Y009028D01*
X031859Y009013D01*
X031905Y008995D01*
X031950Y008973D01*
X031993Y008947D01*
X032034Y008918D01*
X032073Y008886D01*
X032109Y008851D01*
X032141Y008813D01*
X032171Y008773D01*
X032198Y008730D01*
X032221Y008686D01*
X032240Y008640D01*
X032256Y008592D01*
X032268Y008543D01*
X032276Y008494D01*
X032280Y008444D01*
X032280Y008394D01*
X032276Y008344D01*
X032268Y008295D01*
X032256Y008246D01*
X032240Y008198D01*
X032221Y008152D01*
X032198Y008108D01*
X032171Y008065D01*
X032141Y008025D01*
X032109Y007987D01*
X032073Y007952D01*
X032034Y007920D01*
X031993Y007891D01*
X031950Y007865D01*
X031905Y007843D01*
X031859Y007825D01*
X031811Y007810D01*
X031762Y007799D01*
X031713Y007792D01*
X031663Y007789D01*
X031612Y007790D01*
X031563Y007795D01*
X031513Y007804D01*
X031465Y007817D01*
X031418Y007833D01*
X031372Y007854D01*
X031328Y007878D01*
X031286Y007905D01*
X031246Y007935D01*
X031209Y007969D01*
X031175Y008006D01*
X031143Y008045D01*
X031115Y008086D01*
X031090Y008130D01*
X031069Y008175D01*
X031052Y008222D01*
X031038Y008270D01*
X031028Y008319D01*
X031022Y008369D01*
X031020Y008419D01*
X034020Y007419D02*
X034022Y007469D01*
X034028Y007519D01*
X034038Y007568D01*
X034052Y007616D01*
X034069Y007663D01*
X034090Y007708D01*
X034115Y007752D01*
X034143Y007793D01*
X034175Y007832D01*
X034209Y007869D01*
X034246Y007903D01*
X034286Y007933D01*
X034328Y007960D01*
X034372Y007984D01*
X034418Y008005D01*
X034465Y008021D01*
X034513Y008034D01*
X034563Y008043D01*
X034612Y008048D01*
X034663Y008049D01*
X034713Y008046D01*
X034762Y008039D01*
X034811Y008028D01*
X034859Y008013D01*
X034905Y007995D01*
X034950Y007973D01*
X034993Y007947D01*
X035034Y007918D01*
X035073Y007886D01*
X035109Y007851D01*
X035141Y007813D01*
X035171Y007773D01*
X035198Y007730D01*
X035221Y007686D01*
X035240Y007640D01*
X035256Y007592D01*
X035268Y007543D01*
X035276Y007494D01*
X035280Y007444D01*
X035280Y007394D01*
X035276Y007344D01*
X035268Y007295D01*
X035256Y007246D01*
X035240Y007198D01*
X035221Y007152D01*
X035198Y007108D01*
X035171Y007065D01*
X035141Y007025D01*
X035109Y006987D01*
X035073Y006952D01*
X035034Y006920D01*
X034993Y006891D01*
X034950Y006865D01*
X034905Y006843D01*
X034859Y006825D01*
X034811Y006810D01*
X034762Y006799D01*
X034713Y006792D01*
X034663Y006789D01*
X034612Y006790D01*
X034563Y006795D01*
X034513Y006804D01*
X034465Y006817D01*
X034418Y006833D01*
X034372Y006854D01*
X034328Y006878D01*
X034286Y006905D01*
X034246Y006935D01*
X034209Y006969D01*
X034175Y007006D01*
X034143Y007045D01*
X034115Y007086D01*
X034090Y007130D01*
X034069Y007175D01*
X034052Y007222D01*
X034038Y007270D01*
X034028Y007319D01*
X034022Y007369D01*
X034020Y007419D01*
X038520Y007419D02*
X038522Y007469D01*
X038528Y007519D01*
X038538Y007568D01*
X038552Y007616D01*
X038569Y007663D01*
X038590Y007708D01*
X038615Y007752D01*
X038643Y007793D01*
X038675Y007832D01*
X038709Y007869D01*
X038746Y007903D01*
X038786Y007933D01*
X038828Y007960D01*
X038872Y007984D01*
X038918Y008005D01*
X038965Y008021D01*
X039013Y008034D01*
X039063Y008043D01*
X039112Y008048D01*
X039163Y008049D01*
X039213Y008046D01*
X039262Y008039D01*
X039311Y008028D01*
X039359Y008013D01*
X039405Y007995D01*
X039450Y007973D01*
X039493Y007947D01*
X039534Y007918D01*
X039573Y007886D01*
X039609Y007851D01*
X039641Y007813D01*
X039671Y007773D01*
X039698Y007730D01*
X039721Y007686D01*
X039740Y007640D01*
X039756Y007592D01*
X039768Y007543D01*
X039776Y007494D01*
X039780Y007444D01*
X039780Y007394D01*
X039776Y007344D01*
X039768Y007295D01*
X039756Y007246D01*
X039740Y007198D01*
X039721Y007152D01*
X039698Y007108D01*
X039671Y007065D01*
X039641Y007025D01*
X039609Y006987D01*
X039573Y006952D01*
X039534Y006920D01*
X039493Y006891D01*
X039450Y006865D01*
X039405Y006843D01*
X039359Y006825D01*
X039311Y006810D01*
X039262Y006799D01*
X039213Y006792D01*
X039163Y006789D01*
X039112Y006790D01*
X039063Y006795D01*
X039013Y006804D01*
X038965Y006817D01*
X038918Y006833D01*
X038872Y006854D01*
X038828Y006878D01*
X038786Y006905D01*
X038746Y006935D01*
X038709Y006969D01*
X038675Y007006D01*
X038643Y007045D01*
X038615Y007086D01*
X038590Y007130D01*
X038569Y007175D01*
X038552Y007222D01*
X038538Y007270D01*
X038528Y007319D01*
X038522Y007369D01*
X038520Y007419D01*
X026520Y008419D02*
X026522Y008469D01*
X026528Y008519D01*
X026538Y008568D01*
X026552Y008616D01*
X026569Y008663D01*
X026590Y008708D01*
X026615Y008752D01*
X026643Y008793D01*
X026675Y008832D01*
X026709Y008869D01*
X026746Y008903D01*
X026786Y008933D01*
X026828Y008960D01*
X026872Y008984D01*
X026918Y009005D01*
X026965Y009021D01*
X027013Y009034D01*
X027063Y009043D01*
X027112Y009048D01*
X027163Y009049D01*
X027213Y009046D01*
X027262Y009039D01*
X027311Y009028D01*
X027359Y009013D01*
X027405Y008995D01*
X027450Y008973D01*
X027493Y008947D01*
X027534Y008918D01*
X027573Y008886D01*
X027609Y008851D01*
X027641Y008813D01*
X027671Y008773D01*
X027698Y008730D01*
X027721Y008686D01*
X027740Y008640D01*
X027756Y008592D01*
X027768Y008543D01*
X027776Y008494D01*
X027780Y008444D01*
X027780Y008394D01*
X027776Y008344D01*
X027768Y008295D01*
X027756Y008246D01*
X027740Y008198D01*
X027721Y008152D01*
X027698Y008108D01*
X027671Y008065D01*
X027641Y008025D01*
X027609Y007987D01*
X027573Y007952D01*
X027534Y007920D01*
X027493Y007891D01*
X027450Y007865D01*
X027405Y007843D01*
X027359Y007825D01*
X027311Y007810D01*
X027262Y007799D01*
X027213Y007792D01*
X027163Y007789D01*
X027112Y007790D01*
X027063Y007795D01*
X027013Y007804D01*
X026965Y007817D01*
X026918Y007833D01*
X026872Y007854D01*
X026828Y007878D01*
X026786Y007905D01*
X026746Y007935D01*
X026709Y007969D01*
X026675Y008006D01*
X026643Y008045D01*
X026615Y008086D01*
X026590Y008130D01*
X026569Y008175D01*
X026552Y008222D01*
X026538Y008270D01*
X026528Y008319D01*
X026522Y008369D01*
X026520Y008419D01*
X020520Y007419D02*
X020522Y007469D01*
X020528Y007519D01*
X020538Y007568D01*
X020552Y007616D01*
X020569Y007663D01*
X020590Y007708D01*
X020615Y007752D01*
X020643Y007793D01*
X020675Y007832D01*
X020709Y007869D01*
X020746Y007903D01*
X020786Y007933D01*
X020828Y007960D01*
X020872Y007984D01*
X020918Y008005D01*
X020965Y008021D01*
X021013Y008034D01*
X021063Y008043D01*
X021112Y008048D01*
X021163Y008049D01*
X021213Y008046D01*
X021262Y008039D01*
X021311Y008028D01*
X021359Y008013D01*
X021405Y007995D01*
X021450Y007973D01*
X021493Y007947D01*
X021534Y007918D01*
X021573Y007886D01*
X021609Y007851D01*
X021641Y007813D01*
X021671Y007773D01*
X021698Y007730D01*
X021721Y007686D01*
X021740Y007640D01*
X021756Y007592D01*
X021768Y007543D01*
X021776Y007494D01*
X021780Y007444D01*
X021780Y007394D01*
X021776Y007344D01*
X021768Y007295D01*
X021756Y007246D01*
X021740Y007198D01*
X021721Y007152D01*
X021698Y007108D01*
X021671Y007065D01*
X021641Y007025D01*
X021609Y006987D01*
X021573Y006952D01*
X021534Y006920D01*
X021493Y006891D01*
X021450Y006865D01*
X021405Y006843D01*
X021359Y006825D01*
X021311Y006810D01*
X021262Y006799D01*
X021213Y006792D01*
X021163Y006789D01*
X021112Y006790D01*
X021063Y006795D01*
X021013Y006804D01*
X020965Y006817D01*
X020918Y006833D01*
X020872Y006854D01*
X020828Y006878D01*
X020786Y006905D01*
X020746Y006935D01*
X020709Y006969D01*
X020675Y007006D01*
X020643Y007045D01*
X020615Y007086D01*
X020590Y007130D01*
X020569Y007175D01*
X020552Y007222D01*
X020538Y007270D01*
X020528Y007319D01*
X020522Y007369D01*
X020520Y007419D01*
X016020Y007419D02*
X016022Y007469D01*
X016028Y007519D01*
X016038Y007568D01*
X016052Y007616D01*
X016069Y007663D01*
X016090Y007708D01*
X016115Y007752D01*
X016143Y007793D01*
X016175Y007832D01*
X016209Y007869D01*
X016246Y007903D01*
X016286Y007933D01*
X016328Y007960D01*
X016372Y007984D01*
X016418Y008005D01*
X016465Y008021D01*
X016513Y008034D01*
X016563Y008043D01*
X016612Y008048D01*
X016663Y008049D01*
X016713Y008046D01*
X016762Y008039D01*
X016811Y008028D01*
X016859Y008013D01*
X016905Y007995D01*
X016950Y007973D01*
X016993Y007947D01*
X017034Y007918D01*
X017073Y007886D01*
X017109Y007851D01*
X017141Y007813D01*
X017171Y007773D01*
X017198Y007730D01*
X017221Y007686D01*
X017240Y007640D01*
X017256Y007592D01*
X017268Y007543D01*
X017276Y007494D01*
X017280Y007444D01*
X017280Y007394D01*
X017276Y007344D01*
X017268Y007295D01*
X017256Y007246D01*
X017240Y007198D01*
X017221Y007152D01*
X017198Y007108D01*
X017171Y007065D01*
X017141Y007025D01*
X017109Y006987D01*
X017073Y006952D01*
X017034Y006920D01*
X016993Y006891D01*
X016950Y006865D01*
X016905Y006843D01*
X016859Y006825D01*
X016811Y006810D01*
X016762Y006799D01*
X016713Y006792D01*
X016663Y006789D01*
X016612Y006790D01*
X016563Y006795D01*
X016513Y006804D01*
X016465Y006817D01*
X016418Y006833D01*
X016372Y006854D01*
X016328Y006878D01*
X016286Y006905D01*
X016246Y006935D01*
X016209Y006969D01*
X016175Y007006D01*
X016143Y007045D01*
X016115Y007086D01*
X016090Y007130D01*
X016069Y007175D01*
X016052Y007222D01*
X016038Y007270D01*
X016028Y007319D01*
X016022Y007369D01*
X016020Y007419D01*
X014520Y007419D02*
X014522Y007469D01*
X014528Y007519D01*
X014538Y007568D01*
X014552Y007616D01*
X014569Y007663D01*
X014590Y007708D01*
X014615Y007752D01*
X014643Y007793D01*
X014675Y007832D01*
X014709Y007869D01*
X014746Y007903D01*
X014786Y007933D01*
X014828Y007960D01*
X014872Y007984D01*
X014918Y008005D01*
X014965Y008021D01*
X015013Y008034D01*
X015063Y008043D01*
X015112Y008048D01*
X015163Y008049D01*
X015213Y008046D01*
X015262Y008039D01*
X015311Y008028D01*
X015359Y008013D01*
X015405Y007995D01*
X015450Y007973D01*
X015493Y007947D01*
X015534Y007918D01*
X015573Y007886D01*
X015609Y007851D01*
X015641Y007813D01*
X015671Y007773D01*
X015698Y007730D01*
X015721Y007686D01*
X015740Y007640D01*
X015756Y007592D01*
X015768Y007543D01*
X015776Y007494D01*
X015780Y007444D01*
X015780Y007394D01*
X015776Y007344D01*
X015768Y007295D01*
X015756Y007246D01*
X015740Y007198D01*
X015721Y007152D01*
X015698Y007108D01*
X015671Y007065D01*
X015641Y007025D01*
X015609Y006987D01*
X015573Y006952D01*
X015534Y006920D01*
X015493Y006891D01*
X015450Y006865D01*
X015405Y006843D01*
X015359Y006825D01*
X015311Y006810D01*
X015262Y006799D01*
X015213Y006792D01*
X015163Y006789D01*
X015112Y006790D01*
X015063Y006795D01*
X015013Y006804D01*
X014965Y006817D01*
X014918Y006833D01*
X014872Y006854D01*
X014828Y006878D01*
X014786Y006905D01*
X014746Y006935D01*
X014709Y006969D01*
X014675Y007006D01*
X014643Y007045D01*
X014615Y007086D01*
X014590Y007130D01*
X014569Y007175D01*
X014552Y007222D01*
X014538Y007270D01*
X014528Y007319D01*
X014522Y007369D01*
X014520Y007419D01*
X010020Y007419D02*
X010022Y007469D01*
X010028Y007519D01*
X010038Y007568D01*
X010052Y007616D01*
X010069Y007663D01*
X010090Y007708D01*
X010115Y007752D01*
X010143Y007793D01*
X010175Y007832D01*
X010209Y007869D01*
X010246Y007903D01*
X010286Y007933D01*
X010328Y007960D01*
X010372Y007984D01*
X010418Y008005D01*
X010465Y008021D01*
X010513Y008034D01*
X010563Y008043D01*
X010612Y008048D01*
X010663Y008049D01*
X010713Y008046D01*
X010762Y008039D01*
X010811Y008028D01*
X010859Y008013D01*
X010905Y007995D01*
X010950Y007973D01*
X010993Y007947D01*
X011034Y007918D01*
X011073Y007886D01*
X011109Y007851D01*
X011141Y007813D01*
X011171Y007773D01*
X011198Y007730D01*
X011221Y007686D01*
X011240Y007640D01*
X011256Y007592D01*
X011268Y007543D01*
X011276Y007494D01*
X011280Y007444D01*
X011280Y007394D01*
X011276Y007344D01*
X011268Y007295D01*
X011256Y007246D01*
X011240Y007198D01*
X011221Y007152D01*
X011198Y007108D01*
X011171Y007065D01*
X011141Y007025D01*
X011109Y006987D01*
X011073Y006952D01*
X011034Y006920D01*
X010993Y006891D01*
X010950Y006865D01*
X010905Y006843D01*
X010859Y006825D01*
X010811Y006810D01*
X010762Y006799D01*
X010713Y006792D01*
X010663Y006789D01*
X010612Y006790D01*
X010563Y006795D01*
X010513Y006804D01*
X010465Y006817D01*
X010418Y006833D01*
X010372Y006854D01*
X010328Y006878D01*
X010286Y006905D01*
X010246Y006935D01*
X010209Y006969D01*
X010175Y007006D01*
X010143Y007045D01*
X010115Y007086D01*
X010090Y007130D01*
X010069Y007175D01*
X010052Y007222D01*
X010038Y007270D01*
X010028Y007319D01*
X010022Y007369D01*
X010020Y007419D01*
X008520Y007419D02*
X008522Y007469D01*
X008528Y007519D01*
X008538Y007568D01*
X008552Y007616D01*
X008569Y007663D01*
X008590Y007708D01*
X008615Y007752D01*
X008643Y007793D01*
X008675Y007832D01*
X008709Y007869D01*
X008746Y007903D01*
X008786Y007933D01*
X008828Y007960D01*
X008872Y007984D01*
X008918Y008005D01*
X008965Y008021D01*
X009013Y008034D01*
X009063Y008043D01*
X009112Y008048D01*
X009163Y008049D01*
X009213Y008046D01*
X009262Y008039D01*
X009311Y008028D01*
X009359Y008013D01*
X009405Y007995D01*
X009450Y007973D01*
X009493Y007947D01*
X009534Y007918D01*
X009573Y007886D01*
X009609Y007851D01*
X009641Y007813D01*
X009671Y007773D01*
X009698Y007730D01*
X009721Y007686D01*
X009740Y007640D01*
X009756Y007592D01*
X009768Y007543D01*
X009776Y007494D01*
X009780Y007444D01*
X009780Y007394D01*
X009776Y007344D01*
X009768Y007295D01*
X009756Y007246D01*
X009740Y007198D01*
X009721Y007152D01*
X009698Y007108D01*
X009671Y007065D01*
X009641Y007025D01*
X009609Y006987D01*
X009573Y006952D01*
X009534Y006920D01*
X009493Y006891D01*
X009450Y006865D01*
X009405Y006843D01*
X009359Y006825D01*
X009311Y006810D01*
X009262Y006799D01*
X009213Y006792D01*
X009163Y006789D01*
X009112Y006790D01*
X009063Y006795D01*
X009013Y006804D01*
X008965Y006817D01*
X008918Y006833D01*
X008872Y006854D01*
X008828Y006878D01*
X008786Y006905D01*
X008746Y006935D01*
X008709Y006969D01*
X008675Y007006D01*
X008643Y007045D01*
X008615Y007086D01*
X008590Y007130D01*
X008569Y007175D01*
X008552Y007222D01*
X008538Y007270D01*
X008528Y007319D01*
X008522Y007369D01*
X008520Y007419D01*
X004020Y007419D02*
X004022Y007469D01*
X004028Y007519D01*
X004038Y007568D01*
X004052Y007616D01*
X004069Y007663D01*
X004090Y007708D01*
X004115Y007752D01*
X004143Y007793D01*
X004175Y007832D01*
X004209Y007869D01*
X004246Y007903D01*
X004286Y007933D01*
X004328Y007960D01*
X004372Y007984D01*
X004418Y008005D01*
X004465Y008021D01*
X004513Y008034D01*
X004563Y008043D01*
X004612Y008048D01*
X004663Y008049D01*
X004713Y008046D01*
X004762Y008039D01*
X004811Y008028D01*
X004859Y008013D01*
X004905Y007995D01*
X004950Y007973D01*
X004993Y007947D01*
X005034Y007918D01*
X005073Y007886D01*
X005109Y007851D01*
X005141Y007813D01*
X005171Y007773D01*
X005198Y007730D01*
X005221Y007686D01*
X005240Y007640D01*
X005256Y007592D01*
X005268Y007543D01*
X005276Y007494D01*
X005280Y007444D01*
X005280Y007394D01*
X005276Y007344D01*
X005268Y007295D01*
X005256Y007246D01*
X005240Y007198D01*
X005221Y007152D01*
X005198Y007108D01*
X005171Y007065D01*
X005141Y007025D01*
X005109Y006987D01*
X005073Y006952D01*
X005034Y006920D01*
X004993Y006891D01*
X004950Y006865D01*
X004905Y006843D01*
X004859Y006825D01*
X004811Y006810D01*
X004762Y006799D01*
X004713Y006792D01*
X004663Y006789D01*
X004612Y006790D01*
X004563Y006795D01*
X004513Y006804D01*
X004465Y006817D01*
X004418Y006833D01*
X004372Y006854D01*
X004328Y006878D01*
X004286Y006905D01*
X004246Y006935D01*
X004209Y006969D01*
X004175Y007006D01*
X004143Y007045D01*
X004115Y007086D01*
X004090Y007130D01*
X004069Y007175D01*
X004052Y007222D01*
X004038Y007270D01*
X004028Y007319D01*
X004022Y007369D01*
X004020Y007419D01*
X004020Y018919D02*
X004022Y018969D01*
X004028Y019019D01*
X004038Y019068D01*
X004052Y019116D01*
X004069Y019163D01*
X004090Y019208D01*
X004115Y019252D01*
X004143Y019293D01*
X004175Y019332D01*
X004209Y019369D01*
X004246Y019403D01*
X004286Y019433D01*
X004328Y019460D01*
X004372Y019484D01*
X004418Y019505D01*
X004465Y019521D01*
X004513Y019534D01*
X004563Y019543D01*
X004612Y019548D01*
X004663Y019549D01*
X004713Y019546D01*
X004762Y019539D01*
X004811Y019528D01*
X004859Y019513D01*
X004905Y019495D01*
X004950Y019473D01*
X004993Y019447D01*
X005034Y019418D01*
X005073Y019386D01*
X005109Y019351D01*
X005141Y019313D01*
X005171Y019273D01*
X005198Y019230D01*
X005221Y019186D01*
X005240Y019140D01*
X005256Y019092D01*
X005268Y019043D01*
X005276Y018994D01*
X005280Y018944D01*
X005280Y018894D01*
X005276Y018844D01*
X005268Y018795D01*
X005256Y018746D01*
X005240Y018698D01*
X005221Y018652D01*
X005198Y018608D01*
X005171Y018565D01*
X005141Y018525D01*
X005109Y018487D01*
X005073Y018452D01*
X005034Y018420D01*
X004993Y018391D01*
X004950Y018365D01*
X004905Y018343D01*
X004859Y018325D01*
X004811Y018310D01*
X004762Y018299D01*
X004713Y018292D01*
X004663Y018289D01*
X004612Y018290D01*
X004563Y018295D01*
X004513Y018304D01*
X004465Y018317D01*
X004418Y018333D01*
X004372Y018354D01*
X004328Y018378D01*
X004286Y018405D01*
X004246Y018435D01*
X004209Y018469D01*
X004175Y018506D01*
X004143Y018545D01*
X004115Y018586D01*
X004090Y018630D01*
X004069Y018675D01*
X004052Y018722D01*
X004038Y018770D01*
X004028Y018819D01*
X004022Y018869D01*
X004020Y018919D01*
X008520Y018919D02*
X008522Y018969D01*
X008528Y019019D01*
X008538Y019068D01*
X008552Y019116D01*
X008569Y019163D01*
X008590Y019208D01*
X008615Y019252D01*
X008643Y019293D01*
X008675Y019332D01*
X008709Y019369D01*
X008746Y019403D01*
X008786Y019433D01*
X008828Y019460D01*
X008872Y019484D01*
X008918Y019505D01*
X008965Y019521D01*
X009013Y019534D01*
X009063Y019543D01*
X009112Y019548D01*
X009163Y019549D01*
X009213Y019546D01*
X009262Y019539D01*
X009311Y019528D01*
X009359Y019513D01*
X009405Y019495D01*
X009450Y019473D01*
X009493Y019447D01*
X009534Y019418D01*
X009573Y019386D01*
X009609Y019351D01*
X009641Y019313D01*
X009671Y019273D01*
X009698Y019230D01*
X009721Y019186D01*
X009740Y019140D01*
X009756Y019092D01*
X009768Y019043D01*
X009776Y018994D01*
X009780Y018944D01*
X009780Y018894D01*
X009776Y018844D01*
X009768Y018795D01*
X009756Y018746D01*
X009740Y018698D01*
X009721Y018652D01*
X009698Y018608D01*
X009671Y018565D01*
X009641Y018525D01*
X009609Y018487D01*
X009573Y018452D01*
X009534Y018420D01*
X009493Y018391D01*
X009450Y018365D01*
X009405Y018343D01*
X009359Y018325D01*
X009311Y018310D01*
X009262Y018299D01*
X009213Y018292D01*
X009163Y018289D01*
X009112Y018290D01*
X009063Y018295D01*
X009013Y018304D01*
X008965Y018317D01*
X008918Y018333D01*
X008872Y018354D01*
X008828Y018378D01*
X008786Y018405D01*
X008746Y018435D01*
X008709Y018469D01*
X008675Y018506D01*
X008643Y018545D01*
X008615Y018586D01*
X008590Y018630D01*
X008569Y018675D01*
X008552Y018722D01*
X008538Y018770D01*
X008528Y018819D01*
X008522Y018869D01*
X008520Y018919D01*
X010020Y018919D02*
X010022Y018969D01*
X010028Y019019D01*
X010038Y019068D01*
X010052Y019116D01*
X010069Y019163D01*
X010090Y019208D01*
X010115Y019252D01*
X010143Y019293D01*
X010175Y019332D01*
X010209Y019369D01*
X010246Y019403D01*
X010286Y019433D01*
X010328Y019460D01*
X010372Y019484D01*
X010418Y019505D01*
X010465Y019521D01*
X010513Y019534D01*
X010563Y019543D01*
X010612Y019548D01*
X010663Y019549D01*
X010713Y019546D01*
X010762Y019539D01*
X010811Y019528D01*
X010859Y019513D01*
X010905Y019495D01*
X010950Y019473D01*
X010993Y019447D01*
X011034Y019418D01*
X011073Y019386D01*
X011109Y019351D01*
X011141Y019313D01*
X011171Y019273D01*
X011198Y019230D01*
X011221Y019186D01*
X011240Y019140D01*
X011256Y019092D01*
X011268Y019043D01*
X011276Y018994D01*
X011280Y018944D01*
X011280Y018894D01*
X011276Y018844D01*
X011268Y018795D01*
X011256Y018746D01*
X011240Y018698D01*
X011221Y018652D01*
X011198Y018608D01*
X011171Y018565D01*
X011141Y018525D01*
X011109Y018487D01*
X011073Y018452D01*
X011034Y018420D01*
X010993Y018391D01*
X010950Y018365D01*
X010905Y018343D01*
X010859Y018325D01*
X010811Y018310D01*
X010762Y018299D01*
X010713Y018292D01*
X010663Y018289D01*
X010612Y018290D01*
X010563Y018295D01*
X010513Y018304D01*
X010465Y018317D01*
X010418Y018333D01*
X010372Y018354D01*
X010328Y018378D01*
X010286Y018405D01*
X010246Y018435D01*
X010209Y018469D01*
X010175Y018506D01*
X010143Y018545D01*
X010115Y018586D01*
X010090Y018630D01*
X010069Y018675D01*
X010052Y018722D01*
X010038Y018770D01*
X010028Y018819D01*
X010022Y018869D01*
X010020Y018919D01*
X014520Y018919D02*
X014522Y018969D01*
X014528Y019019D01*
X014538Y019068D01*
X014552Y019116D01*
X014569Y019163D01*
X014590Y019208D01*
X014615Y019252D01*
X014643Y019293D01*
X014675Y019332D01*
X014709Y019369D01*
X014746Y019403D01*
X014786Y019433D01*
X014828Y019460D01*
X014872Y019484D01*
X014918Y019505D01*
X014965Y019521D01*
X015013Y019534D01*
X015063Y019543D01*
X015112Y019548D01*
X015163Y019549D01*
X015213Y019546D01*
X015262Y019539D01*
X015311Y019528D01*
X015359Y019513D01*
X015405Y019495D01*
X015450Y019473D01*
X015493Y019447D01*
X015534Y019418D01*
X015573Y019386D01*
X015609Y019351D01*
X015641Y019313D01*
X015671Y019273D01*
X015698Y019230D01*
X015721Y019186D01*
X015740Y019140D01*
X015756Y019092D01*
X015768Y019043D01*
X015776Y018994D01*
X015780Y018944D01*
X015780Y018894D01*
X015776Y018844D01*
X015768Y018795D01*
X015756Y018746D01*
X015740Y018698D01*
X015721Y018652D01*
X015698Y018608D01*
X015671Y018565D01*
X015641Y018525D01*
X015609Y018487D01*
X015573Y018452D01*
X015534Y018420D01*
X015493Y018391D01*
X015450Y018365D01*
X015405Y018343D01*
X015359Y018325D01*
X015311Y018310D01*
X015262Y018299D01*
X015213Y018292D01*
X015163Y018289D01*
X015112Y018290D01*
X015063Y018295D01*
X015013Y018304D01*
X014965Y018317D01*
X014918Y018333D01*
X014872Y018354D01*
X014828Y018378D01*
X014786Y018405D01*
X014746Y018435D01*
X014709Y018469D01*
X014675Y018506D01*
X014643Y018545D01*
X014615Y018586D01*
X014590Y018630D01*
X014569Y018675D01*
X014552Y018722D01*
X014538Y018770D01*
X014528Y018819D01*
X014522Y018869D01*
X014520Y018919D01*
X016020Y018919D02*
X016022Y018969D01*
X016028Y019019D01*
X016038Y019068D01*
X016052Y019116D01*
X016069Y019163D01*
X016090Y019208D01*
X016115Y019252D01*
X016143Y019293D01*
X016175Y019332D01*
X016209Y019369D01*
X016246Y019403D01*
X016286Y019433D01*
X016328Y019460D01*
X016372Y019484D01*
X016418Y019505D01*
X016465Y019521D01*
X016513Y019534D01*
X016563Y019543D01*
X016612Y019548D01*
X016663Y019549D01*
X016713Y019546D01*
X016762Y019539D01*
X016811Y019528D01*
X016859Y019513D01*
X016905Y019495D01*
X016950Y019473D01*
X016993Y019447D01*
X017034Y019418D01*
X017073Y019386D01*
X017109Y019351D01*
X017141Y019313D01*
X017171Y019273D01*
X017198Y019230D01*
X017221Y019186D01*
X017240Y019140D01*
X017256Y019092D01*
X017268Y019043D01*
X017276Y018994D01*
X017280Y018944D01*
X017280Y018894D01*
X017276Y018844D01*
X017268Y018795D01*
X017256Y018746D01*
X017240Y018698D01*
X017221Y018652D01*
X017198Y018608D01*
X017171Y018565D01*
X017141Y018525D01*
X017109Y018487D01*
X017073Y018452D01*
X017034Y018420D01*
X016993Y018391D01*
X016950Y018365D01*
X016905Y018343D01*
X016859Y018325D01*
X016811Y018310D01*
X016762Y018299D01*
X016713Y018292D01*
X016663Y018289D01*
X016612Y018290D01*
X016563Y018295D01*
X016513Y018304D01*
X016465Y018317D01*
X016418Y018333D01*
X016372Y018354D01*
X016328Y018378D01*
X016286Y018405D01*
X016246Y018435D01*
X016209Y018469D01*
X016175Y018506D01*
X016143Y018545D01*
X016115Y018586D01*
X016090Y018630D01*
X016069Y018675D01*
X016052Y018722D01*
X016038Y018770D01*
X016028Y018819D01*
X016022Y018869D01*
X016020Y018919D01*
M02*
