  0
SECTION
  2
HEADER
  9
$ACADVER
  1
AC1009
  9
$MEASUREMENT
 70
     1
  0
ENDSEC
  0
SECTION
  2
ENTITIES
  0
LWPOLYLINE
  8
0
 62
7
 90
5
 70
1
 10
82.590062
 20
23.320750
 10
82.590062
 20
22.822312
 10
83.686937
 20
22.822312
 10
83.686937
 20
23.819188
 10
82.590062
 20
23.819188
  0
LWPOLYLINE
  8
0
 62
7
 90
5
 70
1
 10
80.890062
 20
23.320750
 10
80.890062
 20
22.822312
 10
81.986938
 20
22.822312
 10
81.986938
 20
23.819188
 10
80.890062
 20
23.819188
  0
LWPOLYLINE
  8
0
 62
7
 90
5
 70
1
 10
70.169837
 20
28.141750
 10
70.169837
 20
28.640187
 10
69.072962
 20
28.640187
 10
69.072962
 20
27.643312
 10
70.169837
 20
27.643312
  0
LWPOLYLINE
  8
0
 62
7
 90
5
 70
1
 10
71.869838
 20
28.141750
 10
71.869838
 20
28.640187
 10
70.772962
 20
28.640187
 10
70.772962
 20
27.643312
 10
71.869838
 20
27.643312
  0
LWPOLYLINE
  8
0
 62
7
 90
5
 70
1
 10
73.113000
 20
31.110313
 10
73.611437
 20
31.110313
 10
73.611437
 20
32.207188
 10
72.614563
 20
32.207188
 10
72.614563
 20
31.110313
  0
LWPOLYLINE
  8
0
 62
7
 90
5
 70
1
 10
73.113000
 20
29.410312
 10
73.611437
 20
29.410312
 10
73.611437
 20
30.507187
 10
72.614563
 20
30.507187
 10
72.614563
 20
29.410312
  0
LWPOLYLINE
  8
0
 62
7
 90
5
 70
1
 10
83.692062
 20
38.501250
 10
83.692062
 20
38.002812
 10
84.788938
 20
38.002812
 10
84.788938
 20
38.999688
 10
83.692062
 20
38.999688
  0
LWPOLYLINE
  8
0
 62
7
 90
5
 70
1
 10
81.992062
 20
38.501250
 10
81.992062
 20
38.002812
 10
83.088938
 20
38.002812
 10
83.088938
 20
38.999688
 10
81.992062
 20
38.999688
  0
LWPOLYLINE
  8
0
 62
7
 90
5
 70
1
 10
83.642062
 20
32.913750
 10
83.642062
 20
32.415312
 10
84.738938
 20
32.415312
 10
84.738938
 20
33.412188
 10
83.642062
 20
33.412188
  0
LWPOLYLINE
  8
0
 62
7
 90
5
 70
1
 10
81.942062
 20
32.913750
 10
81.942062
 20
32.415312
 10
83.038938
 20
32.415312
 10
83.038938
 20
33.412188
 10
81.942062
 20
33.412188
  0
LWPOLYLINE
  8
0
 62
7
 90
5
 70
1
 10
66.062760
 20
27.715510
 10
65.710312
 20
28.067959
 10
64.934704
 20
27.292351
 10
65.639601
 20
26.587454
 10
66.415209
 20
27.363062
  0
LWPOLYLINE
  8
0
 62
7
 90
5
 70
1
 10
67.264845
 20
28.917595
 10
66.912396
 20
29.270043
 10
66.136788
 20
28.494435
 10
66.841685
 20
27.789538
 10
67.617293
 20
28.565146
  0
LWPOLYLINE
  8
0
 62
7
 90
5
 70
1
 10
59.622000
 20
50.579687
 10
59.123562
 20
50.579687
 10
59.123562
 20
49.482813
 10
60.120438
 20
49.482813
 10
60.120438
 20
50.579687
  0
LWPOLYLINE
  8
0
 62
7
 90
5
 70
1
 10
59.622000
 20
52.279688
 10
59.123562
 20
52.279688
 10
59.123562
 20
51.182813
 10
60.120438
 20
51.182813
 10
60.120438
 20
52.279688
  0
LWPOLYLINE
  8
0
 62
7
 90
5
 70
1
 10
53.194260
 20
47.673487
 10
53.546709
 20
48.025935
 10
52.771101
 20
48.801543
 10
52.066204
 20
48.096646
 10
52.841812
 20
47.321038
  0
LWPOLYLINE
  8
0
 62
7
 90
5
 70
1
 10
54.396345
 20
46.471402
 10
54.748793
 20
46.823851
 10
53.973185
 20
47.599459
 10
53.268288
 20
46.894562
 10
54.043896
 20
46.118954
  0
LWPOLYLINE
  8
0
 62
7
 90
5
 70
1
 10
64.880737
 20
46.769987
 10
65.233185
 20
46.417538
 10
66.008793
 20
47.193146
 10
65.303896
 20
47.898043
 10
64.528288
 20
47.122435
  0
LWPOLYLINE
  8
0
 62
7
 90
5
 70
1
 10
63.678652
 20
45.567902
 10
64.031101
 20
45.215454
 10
64.806709
 20
45.991062
 10
64.101812
 20
46.695959
 10
63.326204
 20
45.920351
  0
LWPOLYLINE
  8
0
 62
7
 90
5
 70
1
 10
68.598760
 20
40.922510
 10
68.246312
 20
41.274959
 10
67.470704
 20
40.499351
 10
68.175601
 20
39.794454
 10
68.951209
 20
40.570062
  0
LWPOLYLINE
  8
0
 62
7
 90
5
 70
1
 10
69.800845
 20
42.124595
 10
69.448396
 20
42.477043
 10
68.672788
 20
41.701435
 10
69.377685
 20
40.996538
 10
70.153293
 20
41.772146
  0
LWPOLYLINE
  8
0
 62
7
 90
5
 70
1
 10
51.766237
 20
23.096987
 10
52.118685
 20
22.744538
 10
52.894293
 20
23.520146
 10
52.189396
 20
24.225043
 10
51.413788
 20
23.449435
  0
LWPOLYLINE
  8
0
 62
7
 90
5
 70
1
 10
50.564152
 20
21.894902
 10
50.916601
 20
21.542454
 10
51.692209
 20
22.318062
 10
50.987312
 20
23.022959
 10
50.211704
 20
22.247351
  0
LWPOLYLINE
  8
0
 62
7
 90
5
 70
1
 10
47.191237
 20
29.932987
 10
47.543685
 20
29.580538
 10
48.319293
 20
30.356146
 10
47.614396
 20
31.061043
 10
46.838788
 20
30.285435
  0
LWPOLYLINE
  8
0
 62
7
 90
5
 70
1
 10
45.989152
 20
28.730902
 10
46.341601
 20
28.378454
 10
47.117209
 20
29.154062
 10
46.412312
 20
29.858959
 10
45.636704
 20
29.083351
  0
LWPOLYLINE
  8
0
 62
7
 90
5
 70
1
 10
70.763962
 20
26.120250
 10
70.763962
 20
25.621812
 10
71.860838
 20
25.621812
 10
71.860838
 20
26.618688
 10
70.763962
 20
26.618688
  0
LWPOLYLINE
  8
0
 62
7
 90
5
 70
1
 10
69.063962
 20
26.120250
 10
69.063962
 20
25.621812
 10
70.160837
 20
25.621812
 10
70.160837
 20
26.618688
 10
69.063962
 20
26.618688
  0
LWPOLYLINE
  8
0
 62
7
 90
5
 70
1
 10
46.225737
 20
40.414010
 10
45.873288
 20
40.061562
 10
46.648896
 20
39.285954
 10
47.353793
 20
39.990851
 10
46.578185
 20
40.766459
  0
LWPOLYLINE
  8
0
 62
7
 90
5
 70
1
 10
45.023652
 20
41.616095
 10
44.671204
 20
41.263646
 10
45.446812
 20
40.488038
 10
46.151709
 20
41.192935
 10
45.376101
 20
41.968543
  0
LWPOLYLINE
  8
0
 62
7
 90
5
 70
1
 10
9.987563
 20
69.342000
 10
9.987563
 20
68.093563
 10
13.484438
 20
68.093563
 10
13.484438
 20
70.590437
 10
9.987563
 20
70.590437
  0
LWPOLYLINE
  8
0
 62
7
 90
5
 70
1
 10
16.487562
 20
69.342000
 10
16.487562
 20
68.093563
 10
19.984438
 20
68.093563
 10
19.984438
 20
70.590437
 10
16.487562
 20
70.590437
  0
LWPOLYLINE
  8
0
 62
7
 90
5
 70
1
 10
33.395637
 20
55.499000
 10
33.395637
 20
56.747438
 10
29.898763
 20
56.747438
 10
29.898763
 20
54.250563
 10
33.395637
 20
54.250563
  0
LWPOLYLINE
  8
0
 62
7
 90
5
 70
1
 10
26.895638
 20
55.499000
 10
26.895638
 20
56.747438
 10
23.398763
 20
56.747438
 10
23.398763
 20
54.250563
 10
26.895638
 20
54.250563
  0
LWPOLYLINE
  8
0
 62
7
 90
5
 70
1
 10
79.067500
 20
8.625938
 10
78.569063
 20
8.625938
 10
78.569063
 20
7.529063
 10
79.565937
 20
7.529063
 10
79.565937
 20
8.625938
  0
LWPOLYLINE
  8
0
 62
7
 90
5
 70
1
 10
79.067500
 20
10.325938
 10
78.569063
 20
10.325938
 10
78.569063
 20
9.229062
 10
79.565937
 20
9.229062
 10
79.565937
 20
10.325938
  0
LWPOLYLINE
  8
0
 62
7
 90
5
 70
1
 10
71.447500
 20
8.759438
 10
70.949063
 20
8.759438
 10
70.949063
 20
7.662562
 10
71.945937
 20
7.662562
 10
71.945937
 20
8.759438
  0
LWPOLYLINE
  8
0
 62
7
 90
5
 70
1
 10
71.447500
 20
10.459437
 10
70.949063
 20
10.459437
 10
70.949063
 20
9.362562
 10
71.945937
 20
9.362562
 10
71.945937
 20
10.459437
  0
LWPOLYLINE
  8
0
 62
7
 90
5
 70
1
 10
63.827500
 20
8.834062
 10
63.329062
 20
8.834062
 10
63.329062
 20
7.737187
 10
64.325937
 20
7.737187
 10
64.325937
 20
8.834062
  0
LWPOLYLINE
  8
0
 62
7
 90
5
 70
1
 10
63.827500
 20
10.534063
 10
63.329062
 20
10.534063
 10
63.329062
 20
9.437188
 10
64.325937
 20
9.437188
 10
64.325937
 20
10.534063
  0
LWPOLYLINE
  8
0
 62
7
 90
5
 70
1
 10
56.207500
 20
8.816562
 10
55.709063
 20
8.816562
 10
55.709063
 20
7.719687
 10
56.705938
 20
7.719687
 10
56.705938
 20
8.816562
  0
LWPOLYLINE
  8
0
 62
7
 90
5
 70
1
 10
56.207500
 20
10.516563
 10
55.709063
 20
10.516563
 10
55.709063
 20
9.419688
 10
56.705938
 20
9.419688
 10
56.705938
 20
10.516563
  0
LWPOLYLINE
  8
0
 62
7
 90
5
 70
1
 10
48.460500
 20
8.838688
 10
47.962063
 20
8.838688
 10
47.962063
 20
7.741812
 10
48.958938
 20
7.741812
 10
48.958938
 20
8.838688
  0
LWPOLYLINE
  8
0
 62
7
 90
5
 70
1
 10
48.460500
 20
10.538687
 10
47.962063
 20
10.538687
 10
47.962063
 20
9.441812
 10
48.958938
 20
9.441812
 10
48.958938
 20
10.538687
  0
LWPOLYLINE
  8
0
 62
7
 90
5
 70
1
 10
40.840500
 20
8.711688
 10
40.342062
 20
8.711688
 10
40.342062
 20
7.614812
 10
41.338938
 20
7.614812
 10
41.338938
 20
8.711688
  0
LWPOLYLINE
  8
0
 62
7
 90
5
 70
1
 10
40.840500
 20
10.411688
 10
40.342062
 20
10.411688
 10
40.342062
 20
9.314813
 10
41.338938
 20
9.314813
 10
41.338938
 20
10.411688
  0
LWPOLYLINE
  8
0
 62
7
 90
5
 70
1
 10
76.835000
 20
25.403438
 10
76.036562
 20
25.403438
 10
76.036562
 20
21.906562
 10
77.633437
 20
21.906562
 10
77.633437
 20
25.403438
  0
LWPOLYLINE
  8
0
 62
7
 90
5
 70
1
 10
76.835000
 20
20.003438
 10
76.036562
 20
20.003438
 10
76.036562
 20
16.506562
 10
77.633437
 20
16.506562
 10
77.633437
 20
20.003438
  0
LWPOLYLINE
  8
0
 62
7
 90
5
 70
1
 10
40.643438
 20
50.165000
 10
40.643438
 20
50.963437
 10
37.146563
 20
50.963437
 10
37.146563
 20
49.366563
 10
40.643438
 20
49.366563
  0
LWPOLYLINE
  8
0
 62
7
 90
5
 70
1
 10
35.243437
 20
50.165000
 10
35.243437
 20
50.963437
 10
31.746562
 20
50.963437
 10
31.746562
 20
49.366563
 10
35.243437
 20
49.366563
  0
LWPOLYLINE
  8
0
 62
7
 90
5
 70
1
 10
76.991563
 20
57.191250
 10
76.991563
 20
56.692812
 10
78.088438
 20
56.692812
 10
78.088438
 20
57.689687
 10
76.991563
 20
57.689687
  0
LWPOLYLINE
  8
0
 62
7
 90
5
 70
1
 10
75.291562
 20
57.191250
 10
75.291562
 20
56.692812
 10
76.388438
 20
56.692812
 10
76.388438
 20
57.689687
 10
75.291562
 20
57.689687
  0
LWPOLYLINE
  8
0
 62
7
 90
5
 70
1
 10
8.747188
 20
75.882500
 10
8.747188
 20
76.380937
 10
7.650313
 20
76.380937
 10
7.650313
 20
75.384062
 10
8.747188
 20
75.384062
  0
LWPOLYLINE
  8
0
 62
7
 90
5
 70
1
 10
10.447188
 20
75.882500
 10
10.447188
 20
76.380937
 10
9.350312
 20
76.380937
 10
9.350312
 20
75.384062
 10
10.447188
 20
75.384062
  0
LWPOLYLINE
  8
0
 62
7
 90
5
 70
1
 10
8.207375
 20
92.281438
 10
7.708938
 20
92.281438
 10
7.708938
 20
91.184562
 10
8.705813
 20
91.184562
 10
8.705813
 20
92.281438
  0
LWPOLYLINE
  8
0
 62
7
 90
5
 70
1
 10
8.207375
 20
93.981438
 10
7.708938
 20
93.981438
 10
7.708938
 20
92.884563
 10
8.705813
 20
92.884563
 10
8.705813
 20
93.981438
  0
LWPOLYLINE
  8
0
 62
7
 90
5
 70
1
 10
17.545313
 20
81.121250
 10
17.545313
 20
81.919688
 10
14.048438
 20
81.919688
 10
14.048438
 20
80.322812
 10
17.545313
 20
80.322812
  0
LWPOLYLINE
  8
0
 62
7
 90
5
 70
1
 10
12.145312
 20
81.121250
 10
12.145312
 20
81.919688
 10
8.648438
 20
81.919688
 10
8.648438
 20
80.322812
 10
12.145312
 20
80.322812
  0
LWPOLYLINE
  8
0
 62
7
 90
5
 70
1
 10
23.987187
 20
75.882500
 10
23.987187
 20
76.380937
 10
22.890313
 20
76.380937
 10
22.890313
 20
75.384062
 10
23.987187
 20
75.384062
  0
LWPOLYLINE
  8
0
 62
7
 90
5
 70
1
 10
25.687188
 20
75.882500
 10
25.687188
 20
76.380937
 10
24.590313
 20
76.380937
 10
24.590313
 20
75.384062
 10
25.687188
 20
75.384062
  0
LWPOLYLINE
  8
0
 62
7
 90
5
 70
1
 10
23.415625
 20
92.281438
 10
22.917187
 20
92.281438
 10
22.917187
 20
91.184562
 10
23.914062
 20
91.184562
 10
23.914062
 20
92.281438
  0
LWPOLYLINE
  8
0
 62
7
 90
5
 70
1
 10
23.415625
 20
93.981438
 10
22.917187
 20
93.981438
 10
22.917187
 20
92.884563
 10
23.914062
 20
92.884563
 10
23.914062
 20
93.981438
  0
LWPOLYLINE
  8
0
 62
7
 90
5
 70
1
 10
32.785312
 20
81.121250
 10
32.785312
 20
81.919688
 10
29.288437
 20
81.919688
 10
29.288437
 20
80.322812
 10
32.785312
 20
80.322812
  0
LWPOLYLINE
  8
0
 62
7
 90
5
 70
1
 10
27.385313
 20
81.121250
 10
27.385313
 20
81.919688
 10
23.888437
 20
81.919688
 10
23.888437
 20
80.322812
 10
27.385313
 20
80.322812
  0
LWPOLYLINE
  8
0
 62
7
 90
5
 70
1
 10
39.227187
 20
75.882500
 10
39.227187
 20
76.380937
 10
38.130313
 20
76.380937
 10
38.130313
 20
75.384062
 10
39.227187
 20
75.384062
  0
LWPOLYLINE
  8
0
 62
7
 90
5
 70
1
 10
40.927187
 20
75.882500
 10
40.927187
 20
76.380937
 10
39.830312
 20
76.380937
 10
39.830312
 20
75.384062
 10
40.927187
 20
75.384062
  0
LWPOLYLINE
  8
0
 62
7
 90
5
 70
1
 10
38.687375
 20
92.281438
 10
38.188938
 20
92.281438
 10
38.188938
 20
91.184562
 10
39.185813
 20
91.184562
 10
39.185813
 20
92.281438
  0
LWPOLYLINE
  8
0
 62
7
 90
5
 70
1
 10
38.687375
 20
93.981438
 10
38.188938
 20
93.981438
 10
38.188938
 20
92.884563
 10
39.185813
 20
92.884563
 10
39.185813
 20
93.981438
  0
LWPOLYLINE
  8
0
 62
7
 90
5
 70
1
 10
48.025312
 20
81.121250
 10
48.025312
 20
81.919688
 10
44.528437
 20
81.919688
 10
44.528437
 20
80.322812
 10
48.025312
 20
80.322812
  0
LWPOLYLINE
  8
0
 62
7
 90
5
 70
1
 10
42.625312
 20
81.121250
 10
42.625312
 20
81.919688
 10
39.128437
 20
81.919688
 10
39.128437
 20
80.322812
 10
42.625312
 20
80.322812
  0
LWPOLYLINE
  8
0
 62
7
 90
5
 70
1
 10
54.467188
 20
75.882500
 10
54.467188
 20
76.380937
 10
53.370313
 20
76.380937
 10
53.370313
 20
75.384062
 10
54.467188
 20
75.384062
  0
LWPOLYLINE
  8
0
 62
7
 90
5
 70
1
 10
56.167187
 20
75.882500
 10
56.167187
 20
76.380937
 10
55.070312
 20
76.380937
 10
55.070312
 20
75.384062
 10
56.167187
 20
75.384062
  0
LWPOLYLINE
  8
0
 62
7
 90
5
 70
1
 10
53.927375
 20
92.281438
 10
53.428937
 20
92.281438
 10
53.428937
 20
91.184562
 10
54.425812
 20
91.184562
 10
54.425812
 20
92.281438
  0
LWPOLYLINE
  8
0
 62
7
 90
5
 70
1
 10
53.927375
 20
93.981438
 10
53.428937
 20
93.981438
 10
53.428937
 20
92.884563
 10
54.425812
 20
92.884563
 10
54.425812
 20
93.981438
  0
LWPOLYLINE
  8
0
 62
7
 90
5
 70
1
 10
63.265313
 20
81.121250
 10
63.265313
 20
81.919688
 10
59.768437
 20
81.919688
 10
59.768437
 20
80.322812
 10
63.265313
 20
80.322812
  0
LWPOLYLINE
  8
0
 62
7
 90
5
 70
1
 10
57.865313
 20
81.121250
 10
57.865313
 20
81.919688
 10
54.368437
 20
81.919688
 10
54.368437
 20
80.322812
 10
57.865313
 20
80.322812
  0
LWPOLYLINE
  8
0
 62
7
 90
5
 70
1
 10
69.707188
 20
75.882500
 10
69.707188
 20
76.380937
 10
68.610312
 20
76.380937
 10
68.610312
 20
75.384062
 10
69.707188
 20
75.384062
  0
LWPOLYLINE
  8
0
 62
7
 90
5
 70
1
 10
71.407188
 20
75.882500
 10
71.407188
 20
76.380937
 10
70.310312
 20
76.380937
 10
70.310312
 20
75.384062
 10
71.407188
 20
75.384062
  0
LWPOLYLINE
  8
0
 62
7
 90
5
 70
1
 10
69.167375
 20
92.281438
 10
68.668938
 20
92.281438
 10
68.668938
 20
91.184562
 10
69.665813
 20
91.184562
 10
69.665813
 20
92.281438
  0
LWPOLYLINE
  8
0
 62
7
 90
5
 70
1
 10
69.167375
 20
93.981438
 10
68.668938
 20
93.981438
 10
68.668938
 20
92.884563
 10
69.665813
 20
92.884563
 10
69.665813
 20
93.981438
  0
LWPOLYLINE
  8
0
 62
7
 90
5
 70
1
 10
78.505312
 20
81.121250
 10
78.505312
 20
81.919688
 10
75.008437
 20
81.919688
 10
75.008437
 20
80.322812
 10
78.505312
 20
80.322812
  0
LWPOLYLINE
  8
0
 62
7
 90
5
 70
1
 10
73.105312
 20
81.121250
 10
73.105312
 20
81.919688
 10
69.608438
 20
81.919688
 10
69.608438
 20
80.322812
 10
73.105312
 20
80.322812
  0
LWPOLYLINE
  8
0
 62
7
 90
5
 70
1
 10
66.675000
 20
18.113437
 10
66.176563
 20
18.113437
 10
66.176563
 20
17.016563
 10
67.173437
 20
17.016563
 10
67.173437
 20
18.113437
  0
LWPOLYLINE
  8
0
 62
7
 90
5
 70
1
 10
66.675000
 20
19.813437
 10
66.176563
 20
19.813437
 10
66.176563
 20
18.716563
 10
67.173437
 20
18.716563
 10
67.173437
 20
19.813437
  0
LWPOLYLINE
  8
0
 62
7
 90
5
 70
1
 10
68.580000
 20
18.113437
 10
68.081563
 20
18.113437
 10
68.081563
 20
17.016563
 10
69.078437
 20
17.016563
 10
69.078437
 20
18.113437
  0
LWPOLYLINE
  8
0
 62
7
 90
5
 70
1
 10
68.580000
 20
19.813437
 10
68.081563
 20
19.813437
 10
68.081563
 20
18.716563
 10
69.078437
 20
18.716563
 10
69.078437
 20
19.813437
  0
LWPOLYLINE
  8
0
 62
7
 90
5
 70
1
 10
70.485000
 20
18.113437
 10
69.986563
 20
18.113437
 10
69.986563
 20
17.016563
 10
70.983437
 20
17.016563
 10
70.983437
 20
18.113437
  0
LWPOLYLINE
  8
0
 62
7
 90
5
 70
1
 10
70.485000
 20
19.813437
 10
69.986563
 20
19.813437
 10
69.986563
 20
18.716563
 10
70.983437
 20
18.716563
 10
70.983437
 20
19.813437
  0
LWPOLYLINE
  8
0
 62
7
 90
5
 70
1
 10
72.390000
 20
18.113437
 10
71.891563
 20
18.113437
 10
71.891563
 20
17.016563
 10
72.888437
 20
17.016563
 10
72.888437
 20
18.113437
  0
LWPOLYLINE
  8
0
 62
7
 90
5
 70
1
 10
72.390000
 20
19.813437
 10
71.891563
 20
19.813437
 10
71.891563
 20
18.716563
 10
72.888437
 20
18.716563
 10
72.888437
 20
19.813437
  0
LWPOLYLINE
  8
0
 62
7
 90
5
 70
1
 10
84.947188
 20
75.882500
 10
84.947188
 20
76.380937
 10
83.850313
 20
76.380937
 10
83.850313
 20
75.384062
 10
84.947188
 20
75.384062
  0
LWPOLYLINE
  8
0
 62
7
 90
5
 70
1
 10
86.647188
 20
75.882500
 10
86.647188
 20
76.380937
 10
85.550312
 20
76.380937
 10
85.550312
 20
75.384062
 10
86.647188
 20
75.384062
  0
LWPOLYLINE
  8
0
 62
7
 90
5
 70
1
 10
84.407375
 20
92.297313
 10
83.908938
 20
92.297313
 10
83.908938
 20
91.200437
 10
84.905812
 20
91.200437
 10
84.905812
 20
92.297313
  0
LWPOLYLINE
  8
0
 62
7
 90
5
 70
1
 10
84.407375
 20
93.997313
 10
83.908938
 20
93.997313
 10
83.908938
 20
92.900437
 10
84.905812
 20
92.900437
 10
84.905812
 20
93.997313
  0
LWPOLYLINE
  8
0
 62
7
 90
5
 70
1
 10
93.745312
 20
81.121250
 10
93.745312
 20
81.919688
 10
90.248438
 20
81.919688
 10
90.248438
 20
80.322812
 10
93.745312
 20
80.322812
  0
LWPOLYLINE
  8
0
 62
7
 90
5
 70
1
 10
88.345312
 20
81.121250
 10
88.345312
 20
81.919688
 10
84.848438
 20
81.919688
 10
84.848438
 20
80.322812
 10
88.345312
 20
80.322812
  0
LWPOLYLINE
  8
0
 62
7
 90
5
 70
1
 10
44.592813
 20
24.288750
 10
44.592813
 20
23.790312
 10
45.689687
 20
23.790312
 10
45.689687
 20
24.787188
 10
44.592813
 20
24.787188
  0
LWPOLYLINE
  8
0
 62
7
 90
5
 70
1
 10
42.892812
 20
24.288750
 10
42.892812
 20
23.790312
 10
43.989687
 20
23.790312
 10
43.989687
 20
24.787188
 10
42.892812
 20
24.787188
  0
LWPOLYLINE
  8
0
 62
7
 90
5
 70
1
 10
92.725938
 20
69.573750
 10
92.725938
 20
70.072187
 10
91.629062
 20
70.072187
 10
91.629062
 20
69.075313
 10
92.725938
 20
69.075313
  0
LWPOLYLINE
  8
0
 62
7
 90
5
 70
1
 10
94.425938
 20
69.573750
 10
94.425938
 20
70.072187
 10
93.329062
 20
70.072187
 10
93.329062
 20
69.075313
 10
94.425938
 20
69.075313
  0
LWPOLYLINE
  8
0
 62
7
 90
5
 70
1
 10
36.510938
 20
45.923750
 10
36.510938
 20
45.425312
 10
37.607813
 20
45.425312
 10
37.607813
 20
46.422187
 10
36.510938
 20
46.422187
  0
LWPOLYLINE
  8
0
 62
7
 90
5
 70
1
 10
34.810938
 20
45.923750
 10
34.810938
 20
45.425312
 10
35.907812
 20
45.425312
 10
35.907812
 20
46.422187
 10
34.810938
 20
46.422187
  0
LWPOLYLINE
  8
0
 62
7
 90
5
 70
1
 10
82.556562
 20
21.065750
 10
82.556562
 20
20.567312
 10
83.653438
 20
20.567312
 10
83.653438
 20
21.564188
 10
82.556562
 20
21.564188
  0
LWPOLYLINE
  8
0
 62
7
 90
5
 70
1
 10
80.856562
 20
21.065750
 10
80.856562
 20
20.567312
 10
81.953438
 20
20.567312
 10
81.953438
 20
21.564188
 10
80.856562
 20
21.564188
  0
LWPOLYLINE
  8
0
 62
7
 90
5
 70
1
 10
77.900000
 20
30.469812
 10
79.168438
 20
30.469812
 10
79.168438
 20
33.006687
 10
76.631563
 20
33.006687
 10
76.631563
 20
30.469812
  0
LWPOLYLINE
  8
0
 62
7
 90
5
 70
1
 10
77.900000
 20
28.307688
 10
76.631563
 20
28.307688
 10
76.631563
 20
25.770812
 10
79.168438
 20
25.770812
 10
79.168438
 20
28.307688
  0
LWPOLYLINE
  8
0
 62
7
 90
5
 70
1
 10
21.590000
 20
66.280937
 10
20.541563
 20
66.280937
 10
20.541563
 20
65.014062
 10
22.638437
 20
65.014062
 10
22.638437
 20
66.280937
  0
LWPOLYLINE
  8
0
 62
7
 90
5
 70
1
 10
21.590000
 20
70.240938
 10
20.541563
 20
70.240938
 10
20.541563
 20
68.974063
 10
22.638437
 20
68.974063
 10
22.638437
 20
70.240938
  0
LWPOLYLINE
  8
0
 62
7
 90
5
 70
1
 10
36.329687
 20
57.360000
 10
36.329687
 20
58.628437
 10
33.792813
 20
58.628437
 10
33.792813
 20
56.091563
 10
36.329687
 20
56.091563
  0
LWPOLYLINE
  8
0
 62
7
 90
5
 70
1
 10
38.491813
 20
57.360000
 10
38.491813
 20
56.091563
 10
41.028687
 20
56.091563
 10
41.028687
 20
58.628437
 10
38.491813
 20
58.628437
  0
LWPOLYLINE
  8
0
 62
7
 90
5
 70
1
 10
9.271000
 20
9.464437
 10
8.857563
 20
9.464437
 10
8.857563
 20
8.837563
 10
9.684438
 20
8.837563
 10
9.684438
 20
9.464437
  0
LWPOLYLINE
  8
0
 62
7
 90
5
 70
1
 10
9.271000
 20
7.164438
 10
8.857563
 20
7.164438
 10
8.857563
 20
6.537562
 10
9.684438
 20
6.537562
 10
9.684438
 20
7.164438
  0
LWPOLYLINE
  8
0
 62
7
 90
5
 70
1
 10
16.256000
 20
9.464437
 10
15.842562
 20
9.464437
 10
15.842562
 20
8.837563
 10
16.669438
 20
8.837563
 10
16.669438
 20
9.464437
  0
LWPOLYLINE
  8
0
 62
7
 90
5
 70
1
 10
16.256000
 20
7.164438
 10
15.842562
 20
7.164438
 10
15.842562
 20
6.537562
 10
16.669438
 20
6.537562
 10
16.669438
 20
7.164438
  0
LWPOLYLINE
  8
0
 62
7
 90
5
 70
1
 10
23.241000
 20
9.464437
 10
22.827562
 20
9.464437
 10
22.827562
 20
8.837563
 10
23.654438
 20
8.837563
 10
23.654438
 20
9.464437
  0
LWPOLYLINE
  8
0
 62
7
 90
5
 70
1
 10
23.241000
 20
7.164438
 10
22.827562
 20
7.164438
 10
22.827562
 20
6.537562
 10
23.654438
 20
6.537562
 10
23.654438
 20
7.164438
  0
LWPOLYLINE
  8
0
 62
7
 90
5
 70
1
 10
81.103250
 20
10.370437
 10
80.689813
 20
10.370437
 10
80.689813
 20
9.743563
 10
81.516688
 20
9.743563
 10
81.516688
 20
10.370437
  0
LWPOLYLINE
  8
0
 62
7
 90
5
 70
1
 10
81.103250
 20
8.070437
 10
80.689813
 20
8.070437
 10
80.689813
 20
7.443562
 10
81.516688
 20
7.443562
 10
81.516688
 20
8.070437
  0
LWPOLYLINE
  8
0
 62
7
 90
5
 70
1
 10
73.483250
 20
10.527687
 10
73.069812
 20
10.527687
 10
73.069812
 20
9.900813
 10
73.896687
 20
9.900813
 10
73.896687
 20
10.527687
  0
LWPOLYLINE
  8
0
 62
7
 90
5
 70
1
 10
73.483250
 20
8.227688
 10
73.069812
 20
8.227688
 10
73.069812
 20
7.600812
 10
73.896687
 20
7.600812
 10
73.896687
 20
8.227688
  0
LWPOLYLINE
  8
0
 62
7
 90
5
 70
1
 10
65.863250
 20
10.599187
 10
65.449812
 20
10.599187
 10
65.449812
 20
9.972313
 10
66.276687
 20
9.972313
 10
66.276687
 20
10.599187
  0
LWPOLYLINE
  8
0
 62
7
 90
5
 70
1
 10
65.863250
 20
8.299188
 10
65.449812
 20
8.299188
 10
65.449812
 20
7.672313
 10
66.276687
 20
7.672313
 10
66.276687
 20
8.299188
  0
LWPOLYLINE
  8
0
 62
7
 90
5
 70
1
 10
58.243250
 20
10.581687
 10
57.829813
 20
10.581687
 10
57.829813
 20
9.954813
 10
58.656688
 20
9.954813
 10
58.656688
 20
10.581687
  0
LWPOLYLINE
  8
0
 62
7
 90
5
 70
1
 10
58.243250
 20
8.281688
 10
57.829813
 20
8.281688
 10
57.829813
 20
7.654813
 10
58.656688
 20
7.654813
 10
58.656688
 20
8.281688
  0
LWPOLYLINE
  8
0
 62
7
 90
5
 70
1
 10
50.623250
 20
10.632437
 10
50.209812
 20
10.632437
 10
50.209812
 20
10.005563
 10
51.036687
 20
10.005563
 10
51.036687
 20
10.632437
  0
LWPOLYLINE
  8
0
 62
7
 90
5
 70
1
 10
50.623250
 20
8.332437
 10
50.209812
 20
8.332437
 10
50.209812
 20
7.705563
 10
51.036687
 20
7.705563
 10
51.036687
 20
8.332437
  0
LWPOLYLINE
  8
0
 62
7
 90
5
 70
1
 10
43.003250
 20
10.524437
 10
42.589813
 20
10.524437
 10
42.589813
 20
9.897563
 10
43.416688
 20
9.897563
 10
43.416688
 20
10.524437
  0
LWPOLYLINE
  8
0
 62
7
 90
5
 70
1
 10
43.003250
 20
8.224437
 10
42.589813
 20
8.224437
 10
42.589813
 20
7.597562
 10
43.416688
 20
7.597562
 10
43.416688
 20
8.224437
  0
LWPOLYLINE
  8
0
 62
7
 90
5
 70
1
 10
30.226000
 20
9.464437
 10
29.812562
 20
9.464437
 10
29.812562
 20
8.837563
 10
30.639437
 20
8.837563
 10
30.639437
 20
9.464437
  0
LWPOLYLINE
  8
0
 62
7
 90
5
 70
1
 10
30.226000
 20
7.164438
 10
29.812562
 20
7.164438
 10
29.812562
 20
6.537562
 10
30.639437
 20
6.537562
 10
30.639437
 20
7.164438
  0
LWPOLYLINE
  8
0
 62
7
 90
5
 70
1
 10
33.467438
 20
35.941000
 10
33.467438
 20
36.354438
 10
32.840563
 20
36.354438
 10
32.840563
 20
35.527563
 10
33.467438
 20
35.527563
  0
LWPOLYLINE
  8
0
 62
7
 90
5
 70
1
 10
31.167437
 20
35.941000
 10
31.167437
 20
36.354438
 10
30.540563
 20
36.354438
 10
30.540563
 20
35.527563
 10
31.167437
 20
35.527563
  0
LWPOLYLINE
  8
0
 62
7
 90
5
 70
1
 10
4.886563
 20
26.066750
 10
4.886563
 20
25.653312
 10
5.513438
 20
25.653312
 10
5.513438
 20
26.480187
 10
4.886563
 20
26.480187
  0
LWPOLYLINE
  8
0
 62
7
 90
5
 70
1
 10
7.186562
 20
26.066750
 10
7.186562
 20
25.653312
 10
7.813438
 20
25.653312
 10
7.813438
 20
26.480187
 10
7.186562
 20
26.480187
  0
LWPOLYLINE
  8
0
 62
7
 90
5
 70
1
 10
33.969563
 20
35.941000
 10
33.969563
 20
35.527563
 10
34.596438
 20
35.527563
 10
34.596438
 20
36.354438
 10
33.969563
 20
36.354438
  0
LWPOLYLINE
  8
0
 62
7
 90
5
 70
1
 10
36.269562
 20
35.941000
 10
36.269562
 20
35.527563
 10
36.896437
 20
35.527563
 10
36.896437
 20
36.354438
 10
36.269562
 20
36.354438
  0
LWPOLYLINE
  8
0
 62
7
 90
5
 70
1
 10
59.331789
 20
26.260386
 10
58.802564
 20
26.789611
 10
58.613855
 20
26.600902
 10
59.672305
 20
25.542451
 10
59.861014
 20
25.731161
  0
LWPOLYLINE
  8
0
 62
7
 90
5
 70
1
 10
59.685342
 20
26.613939
 10
59.156117
 20
27.143164
 10
58.967408
 20
26.954455
 10
60.025858
 20
25.896005
 10
60.214567
 20
26.084714
  0
LWPOLYLINE
  8
0
 62
7
 90
5
 70
1
 10
60.038895
 20
26.967492
 10
59.509670
 20
27.496717
 10
59.320961
 20
27.308008
 10
60.379411
 20
26.249558
 10
60.568120
 20
26.438267
  0
LWPOLYLINE
  8
0
 62
7
 90
5
 70
1
 10
60.392451
 20
27.321045
 10
59.863226
 20
27.850270
 10
59.674517
 20
27.661561
 10
60.732968
 20
26.603111
 10
60.921677
 20
26.791820
  0
LWPOLYLINE
  8
0
 62
7
 90
5
 70
1
 10
60.746005
 20
27.674598
 10
60.216779
 20
28.203824
 10
60.028070
 20
28.015114
 10
61.086521
 20
26.956664
 10
61.275230
 20
27.145373
  0
LWPOLYLINE
  8
0
 62
7
 90
5
 70
1
 10
61.099558
 20
28.028151
 10
60.570332
 20
28.557377
 10
60.381623
 20
28.368668
 10
61.440074
 20
27.310217
 10
61.628783
 20
27.498926
  0
LWPOLYLINE
  8
0
 62
7
 90
5
 70
1
 10
61.453111
 20
28.381705
 10
60.923886
 20
28.910930
 10
60.735176
 20
28.722221
 10
61.793627
 20
27.663770
 10
61.982336
 20
27.852479
  0
LWPOLYLINE
  8
0
 62
7
 90
5
 70
1
 10
61.806664
 20
28.735258
 10
61.277439
 20
29.264483
 10
61.088730
 20
29.075774
 10
62.147180
 20
28.017323
 10
62.335889
 20
28.206032
  0
LWPOLYLINE
  8
0
 62
7
 90
5
 70
1
 10
62.160217
 20
29.088811
 10
61.630992
 20
29.618036
 10
61.442283
 20
29.429327
 10
62.500733
 20
28.370876
 10
62.689442
 20
28.559586
  0
LWPOLYLINE
  8
0
 62
7
 90
5
 70
1
 10
62.513770
 20
29.442364
 10
61.984545
 20
29.971589
 10
61.795836
 20
29.782880
 10
62.854286
 20
28.724430
 10
63.042995
 20
28.913139
  0
LWPOLYLINE
  8
0
 62
7
 90
5
 70
1
 10
62.867323
 20
29.795920
 10
62.338098
 20
30.325145
 10
62.149389
 20
30.136436
 10
63.207839
 20
29.077986
 10
63.396549
 20
29.266695
  0
LWPOLYLINE
  8
0
 62
7
 90
5
 70
1
 10
63.220876
 20
30.149473
 10
62.691651
 20
30.678699
 10
62.502942
 20
30.489989
 10
63.561393
 20
29.431539
 10
63.750102
 20
29.620248
  0
LWPOLYLINE
  8
0
 62
7
 90
5
 70
1
 10
63.574430
 20
30.503026
 10
63.045204
 20
31.032252
 10
62.856495
 20
30.843543
 10
63.914946
 20
29.785092
 10
64.103655
 20
29.973801
  0
LWPOLYLINE
  8
0
 62
7
 90
5
 70
1
 10
63.927983
 20
30.856580
 10
63.398757
 20
31.385805
 10
63.210048
 20
31.197096
 10
64.268499
 20
30.138645
 10
64.457208
 20
30.327354
  0
LWPOLYLINE
  8
0
 62
7
 90
5
 70
1
 10
64.281536
 20
31.210133
 10
63.752311
 20
31.739358
 10
63.563601
 20
31.550649
 10
64.622052
 20
30.492198
 10
64.810761
 20
30.680907
  0
LWPOLYLINE
  8
0
 62
7
 90
5
 70
1
 10
64.635092
 20
31.563686
 10
64.105867
 20
32.092911
 10
63.917158
 20
31.904202
 10
64.975608
 20
30.845751
 10
65.164317
 20
31.034461
  0
LWPOLYLINE
  8
0
 62
7
 90
5
 70
1
 10
64.988645
 20
31.917239
 10
64.459420
 20
32.446464
 10
64.270711
 20
32.257755
 10
65.329161
 20
31.199305
 10
65.517870
 20
31.388014
  0
LWPOLYLINE
  8
0
 62
7
 90
5
 70
1
 10
65.342198
 20
32.270792
 10
64.812973
 20
32.800017
 10
64.624264
 20
32.611308
 10
65.682714
 20
31.552858
 10
65.871424
 20
31.741567
  0
LWPOLYLINE
  8
0
 62
7
 90
5
 70
1
 10
65.695751
 20
32.624345
 10
65.166526
 20
33.153570
 10
64.977817
 20
32.964861
 10
66.036268
 20
31.906411
 10
66.224977
 20
32.095120
  0
LWPOLYLINE
  8
0
 62
7
 90
5
 70
1
 10
66.049305
 20
32.977898
 10
65.520079
 20
33.507124
 10
65.331370
 20
33.318414
 10
66.389821
 20
32.259964
 10
66.578530
 20
32.448673
  0
LWPOLYLINE
  8
0
 62
7
 90
5
 70
1
 10
66.402858
 20
33.331451
 10
65.873632
 20
33.860677
 10
65.684923
 20
33.671968
 10
66.743374
 20
32.613517
 10
66.932083
 20
32.802226
  0
LWPOLYLINE
  8
0
 62
7
 90
5
 70
1
 10
66.756411
 20
33.685005
 10
66.227186
 20
34.214230
 10
66.038476
 20
34.025521
 10
67.096927
 20
32.967070
 10
67.285636
 20
33.155779
  0
LWPOLYLINE
  8
0
 62
7
 90
5
 70
1
 10
67.109964
 20
34.038561
 10
66.580739
 20
34.567786
 10
66.392030
 20
34.379077
 10
67.450480
 20
33.320626
 10
67.639189
 20
33.509336
  0
LWPOLYLINE
  8
0
 62
7
 90
5
 70
1
 10
67.463517
 20
34.392114
 10
66.934292
 20
34.921339
 10
66.745583
 20
34.732630
 10
67.804033
 20
33.674180
 10
67.992742
 20
33.862889
  0
LWPOLYLINE
  8
0
 62
7
 90
5
 70
1
 10
67.817070
 20
34.745667
 10
67.287845
 20
35.274892
 10
67.099136
 20
35.086183
 10
68.157586
 20
34.027733
 10
68.346295
 20
34.216442
  0
LWPOLYLINE
  8
0
 62
7
 90
5
 70
1
 10
68.251941
 20
37.655410
 10
68.157586
 20
37.749764
 10
67.099136
 20
36.691314
 10
67.287845
 20
36.502605
 10
68.346295
 20
37.561055
  0
LWPOLYLINE
  8
0
 62
7
 90
5
 70
1
 10
67.898388
 20
38.008963
 10
67.804033
 20
38.103317
 10
66.745583
 20
37.044867
 10
66.934292
 20
36.856158
 10
67.992742
 20
37.914608
  0
LWPOLYLINE
  8
0
 62
7
 90
5
 70
1
 10
67.544835
 20
38.362516
 10
67.450480
 20
38.456870
 10
66.392030
 20
37.398420
 10
66.580739
 20
37.209711
 10
67.639189
 20
38.268161
  0
LWPOLYLINE
  8
0
 62
7
 90
5
 70
1
 10
67.191281
 20
38.716072
 10
67.096927
 20
38.810427
 10
66.038476
 20
37.751976
 10
66.227186
 20
37.563267
 10
67.285636
 20
38.621718
  0
LWPOLYLINE
  8
0
 62
7
 90
5
 70
1
 10
66.837728
 20
39.069625
 10
66.743374
 20
39.163980
 10
65.684923
 20
38.105529
 10
65.873632
 20
37.916820
 10
66.932083
 20
38.975271
  0
LWPOLYLINE
  8
0
 62
7
 90
5
 70
1
 10
66.484175
 20
39.423178
 10
66.389821
 20
39.517533
 10
65.331370
 20
38.459082
 10
65.520079
 20
38.270373
 10
66.578530
 20
39.328824
  0
LWPOLYLINE
  8
0
 62
7
 90
5
 70
1
 10
66.130622
 20
39.776731
 10
66.036268
 20
39.871086
 10
64.977817
 20
38.812636
 10
65.166526
 20
38.623926
 10
66.224977
 20
39.682377
  0
LWPOLYLINE
  8
0
 62
7
 90
5
 70
1
 10
65.777069
 20
40.130285
 10
65.682714
 20
40.224639
 10
64.624264
 20
39.166189
 10
64.812973
 20
38.977480
 10
65.871424
 20
40.035930
  0
LWPOLYLINE
  8
0
 62
7
 90
5
 70
1
 10
65.423516
 20
40.483838
 10
65.329161
 20
40.578192
 10
64.270711
 20
39.519742
 10
64.459420
 20
39.331033
 10
65.517870
 20
40.389483
  0
LWPOLYLINE
  8
0
 62
7
 90
5
 70
1
 10
65.069963
 20
40.837391
 10
64.975608
 20
40.931745
 10
63.917158
 20
39.873295
 10
64.105867
 20
39.684586
 10
65.164317
 20
40.743036
  0
LWPOLYLINE
  8
0
 62
7
 90
5
 70
1
 10
64.716406
 20
41.190944
 10
64.622052
 20
41.285299
 10
63.563601
 20
40.226848
 10
63.752311
 20
40.038139
 10
64.810761
 20
41.096589
  0
LWPOLYLINE
  8
0
 62
7
 90
5
 70
1
 10
64.362853
 20
41.544497
 10
64.268499
 20
41.638852
 10
63.210048
 20
40.580401
 10
63.398757
 20
40.391692
 10
64.457208
 20
41.450143
  0
LWPOLYLINE
  8
0
 62
7
 90
5
 70
1
 10
64.009300
 20
41.898050
 10
63.914946
 20
41.992405
 10
62.856495
 20
40.933954
 10
63.045204
 20
40.745245
 10
64.103655
 20
41.803696
  0
LWPOLYLINE
  8
0
 62
7
 90
5
 70
1
 10
63.655747
 20
42.251603
 10
63.561393
 20
42.345958
 10
62.502942
 20
41.287507
 10
62.691651
 20
41.098798
 10
63.750102
 20
42.157249
  0
LWPOLYLINE
  8
0
 62
7
 90
5
 70
1
 10
63.302194
 20
42.605156
 10
63.207839
 20
42.699511
 10
62.149389
 20
41.641061
 10
62.338098
 20
41.452351
 10
63.396549
 20
42.510802
  0
LWPOLYLINE
  8
0
 62
7
 90
5
 70
1
 10
62.948641
 20
42.958713
 10
62.854286
 20
43.053067
 10
61.795836
 20
41.994617
 10
61.984545
 20
41.805908
 10
63.042995
 20
42.864358
  0
LWPOLYLINE
  8
0
 62
7
 90
5
 70
1
 10
62.595088
 20
43.312266
 10
62.500733
 20
43.406620
 10
61.442283
 20
42.348170
 10
61.630992
 20
42.159461
 10
62.689442
 20
43.217911
  0
LWPOLYLINE
  8
0
 62
7
 90
5
 70
1
 10
62.241535
 20
43.665819
 10
62.147180
 20
43.760174
 10
61.088730
 20
42.701723
 10
61.277439
 20
42.513014
 10
62.335889
 20
43.571464
  0
LWPOLYLINE
  8
0
 62
7
 90
5
 70
1
 10
61.887981
 20
44.019372
 10
61.793627
 20
44.113727
 10
60.735176
 20
43.055276
 10
60.923886
 20
42.866567
 10
61.982336
 20
43.925018
  0
LWPOLYLINE
  8
0
 62
7
 90
5
 70
1
 10
61.534428
 20
44.372925
 10
61.440074
 20
44.467280
 10
60.381623
 20
43.408829
 10
60.570332
 20
43.220120
 10
61.628783
 20
44.278571
  0
LWPOLYLINE
  8
0
 62
7
 90
5
 70
1
 10
61.180875
 20
44.726478
 10
61.086521
 20
44.820833
 10
60.028070
 20
43.762382
 10
60.216779
 20
43.573673
 10
61.275230
 20
44.632124
  0
LWPOLYLINE
  8
0
 62
7
 90
5
 70
1
 10
60.827322
 20
45.080031
 10
60.732968
 20
45.174386
 10
59.674517
 20
44.115936
 10
59.863226
 20
43.927226
 10
60.921677
 20
44.985677
  0
LWPOLYLINE
  8
0
 62
7
 90
5
 70
1
 10
60.473766
 20
45.433585
 10
60.379411
 20
45.527939
 10
59.320961
 20
44.469489
 10
59.509670
 20
44.280780
 10
60.568120
 20
45.339230
  0
LWPOLYLINE
  8
0
 62
7
 90
5
 70
1
 10
60.120213
 20
45.787138
 10
60.025858
 20
45.881492
 10
58.967408
 20
44.823042
 10
59.156117
 20
44.634333
 10
60.214567
 20
45.692783
  0
LWPOLYLINE
  8
0
 62
7
 90
5
 70
1
 10
59.766660
 20
46.140691
 10
59.672305
 20
46.235045
 10
58.613855
 20
45.176595
 10
58.802564
 20
44.987886
 10
59.861014
 20
46.046336
  0
LWPOLYLINE
  8
0
 62
7
 90
5
 70
1
 10
56.856917
 20
45.705820
 10
56.327692
 20
46.235045
 10
56.138983
 20
46.046336
 10
57.197433
 20
44.987886
 10
57.386142
 20
45.176595
  0
LWPOLYLINE
  8
0
 62
7
 90
5
 70
1
 10
56.503364
 20
45.352267
 10
55.974139
 20
45.881492
 10
55.785430
 20
45.692783
 10
56.843880
 20
44.634333
 10
57.032589
 20
44.823042
  0
LWPOLYLINE
  8
0
 62
7
 90
5
 70
1
 10
56.149811
 20
44.998714
 10
55.620586
 20
45.527939
 10
55.431876
 20
45.339230
 10
56.490327
 20
44.280780
 10
56.679036
 20
44.469489
  0
LWPOLYLINE
  8
0
 62
7
 90
5
 70
1
 10
55.796255
 20
44.645161
 10
55.267029
 20
45.174386
 10
55.078320
 20
44.985677
 10
56.136771
 20
43.927226
 10
56.325480
 20
44.115936
  0
LWPOLYLINE
  8
0
 62
7
 90
5
 70
1
 10
55.442701
 20
44.291608
 10
54.913476
 20
44.820833
 10
54.724767
 20
44.632124
 10
55.783218
 20
43.573673
 10
55.971927
 20
43.762382
  0
LWPOLYLINE
  8
0
 62
7
 90
5
 70
1
 10
55.089148
 20
43.938055
 10
54.559923
 20
44.467280
 10
54.371214
 20
44.278571
 10
55.429664
 20
43.220120
 10
55.618374
 20
43.408829
  0
LWPOLYLINE
  8
0
 62
7
 90
5
 70
1
 10
54.735595
 20
43.584501
 10
54.206370
 20
44.113727
 10
54.017661
 20
43.925018
 10
55.076111
 20
42.866567
 10
55.264820
 20
43.055276
  0
LWPOLYLINE
  8
0
 62
7
 90
5
 70
1
 10
54.382042
 20
43.230948
 10
53.852817
 20
43.760174
 10
53.664108
 20
43.571464
 10
54.722558
 20
42.513014
 10
54.911267
 20
42.701723
  0
LWPOLYLINE
  8
0
 62
7
 90
5
 70
1
 10
54.028489
 20
42.877395
 10
53.499264
 20
43.406620
 10
53.310555
 20
43.217911
 10
54.369005
 20
42.159461
 10
54.557714
 20
42.348170
  0
LWPOLYLINE
  8
0
 62
7
 90
5
 70
1
 10
53.674936
 20
42.523842
 10
53.145711
 20
43.053067
 10
52.957001
 20
42.864358
 10
54.015452
 20
41.805908
 10
54.204161
 20
41.994617
  0
LWPOLYLINE
  8
0
 62
7
 90
5
 70
1
 10
53.321383
 20
42.170286
 10
52.792157
 20
42.699511
 10
52.603448
 20
42.510802
 10
53.661899
 20
41.452351
 10
53.850608
 20
41.641061
  0
LWPOLYLINE
  8
0
 62
7
 90
5
 70
1
 10
52.967830
 20
41.816733
 10
52.438604
 20
42.345958
 10
52.249895
 20
42.157249
 10
53.308346
 20
41.098798
 10
53.497055
 20
41.287507
  0
LWPOLYLINE
  8
0
 62
7
 90
5
 70
1
 10
52.614276
 20
41.463180
 10
52.085051
 20
41.992405
 10
51.896342
 20
41.803696
 10
52.954793
 20
40.745245
 10
53.143502
 20
40.933954
  0
LWPOLYLINE
  8
0
 62
7
 90
5
 70
1
 10
52.260723
 20
41.109626
 10
51.731498
 20
41.638852
 10
51.542789
 20
41.450143
 10
52.601239
 20
40.391692
 10
52.789949
 20
40.580401
  0
LWPOLYLINE
  8
0
 62
7
 90
5
 70
1
 10
51.907170
 20
40.756073
 10
51.377945
 20
41.285299
 10
51.189236
 20
41.096589
 10
52.247686
 20
40.038139
 10
52.436395
 20
40.226848
  0
LWPOLYLINE
  8
0
 62
7
 90
5
 70
1
 10
51.553614
 20
40.402520
 10
51.024389
 20
40.931745
 10
50.835680
 20
40.743036
 10
51.894130
 20
39.684586
 10
52.082839
 20
39.873295
  0
LWPOLYLINE
  8
0
 62
7
 90
5
 70
1
 10
51.200061
 20
40.048967
 10
50.670836
 20
40.578192
 10
50.482126
 20
40.389483
 10
51.540577
 20
39.331033
 10
51.729286
 20
39.519742
  0
LWPOLYLINE
  8
0
 62
7
 90
5
 70
1
 10
50.846508
 20
39.695414
 10
50.317282
 20
40.224639
 10
50.128573
 20
40.035930
 10
51.187024
 20
38.977480
 10
51.375733
 20
39.166189
  0
LWPOLYLINE
  8
0
 62
7
 90
5
 70
1
 10
50.492955
 20
39.341861
 10
49.963729
 20
39.871086
 10
49.775020
 20
39.682377
 10
50.833471
 20
38.623926
 10
51.022180
 20
38.812636
  0
LWPOLYLINE
  8
0
 62
7
 90
5
 70
1
 10
50.139401
 20
38.988308
 10
49.610176
 20
39.517533
 10
49.421467
 20
39.328824
 10
50.479918
 20
38.270373
 10
50.668627
 20
38.459082
  0
LWPOLYLINE
  8
0
 62
7
 90
5
 70
1
 10
49.785848
 20
38.634755
 10
49.256623
 20
39.163980
 10
49.067914
 20
38.975271
 10
50.126364
 20
37.916820
 10
50.315074
 20
38.105529
  0
LWPOLYLINE
  8
0
 62
7
 90
5
 70
1
 10
49.432295
 20
38.281201
 10
48.903070
 20
38.810427
 10
48.714361
 20
38.621718
 10
49.772811
 20
37.563267
 10
49.961520
 20
37.751976
  0
LWPOLYLINE
  8
0
 62
7
 90
5
 70
1
 10
49.078742
 20
37.927645
 10
48.549517
 20
38.456870
 10
48.360808
 20
38.268161
 10
49.419258
 20
37.209711
 10
49.607967
 20
37.398420
  0
LWPOLYLINE
  8
0
 62
7
 90
5
 70
1
 10
48.725189
 20
37.574092
 10
48.195964
 20
38.103317
 10
48.007255
 20
37.914608
 10
49.065705
 20
36.856158
 10
49.254414
 20
37.044867
  0
LWPOLYLINE
  8
0
 62
7
 90
5
 70
1
 10
48.371636
 20
37.220539
 10
47.842411
 20
37.749764
 10
47.653701
 20
37.561055
 10
48.712152
 20
36.502605
 10
48.900861
 20
36.691314
  0
LWPOLYLINE
  8
0
 62
7
 90
5
 70
1
 10
48.806506
 20
35.180538
 10
48.712152
 20
35.274892
 10
47.653701
 20
34.216442
 10
47.842411
 20
34.027733
 10
48.900861
 20
35.086183
  0
LWPOLYLINE
  8
0
 62
7
 90
5
 70
1
 10
49.160060
 20
34.826985
 10
49.065705
 20
34.921339
 10
48.007255
 20
33.862889
 10
48.195964
 20
33.674180
 10
49.254414
 20
34.732630
  0
LWPOLYLINE
  8
0
 62
7
 90
5
 70
1
 10
49.513613
 20
34.473431
 10
49.419258
 20
34.567786
 10
48.360808
 20
33.509336
 10
48.549517
 20
33.320626
 10
49.607967
 20
34.379077
  0
LWPOLYLINE
  8
0
 62
7
 90
5
 70
1
 10
49.867166
 20
34.119875
 10
49.772811
 20
34.214230
 10
48.714361
 20
33.155779
 10
48.903070
 20
32.967070
 10
49.961520
 20
34.025521
  0
LWPOLYLINE
  8
0
 62
7
 90
5
 70
1
 10
50.220719
 20
33.766322
 10
50.126364
 20
33.860677
 10
49.067914
 20
32.802226
 10
49.256623
 20
32.613517
 10
50.315074
 20
33.671968
  0
LWPOLYLINE
  8
0
 62
7
 90
5
 70
1
 10
50.574272
 20
33.412769
 10
50.479918
 20
33.507124
 10
49.421467
 20
32.448673
 10
49.610176
 20
32.259964
 10
50.668627
 20
33.318414
  0
LWPOLYLINE
  8
0
 62
7
 90
5
 70
1
 10
50.927825
 20
33.059216
 10
50.833471
 20
33.153570
 10
49.775020
 20
32.095120
 10
49.963729
 20
31.906411
 10
51.022180
 20
32.964861
  0
LWPOLYLINE
  8
0
 62
7
 90
5
 70
1
 10
51.281378
 20
32.705663
 10
51.187024
 20
32.800017
 10
50.128573
 20
31.741567
 10
50.317282
 20
31.552858
 10
51.375733
 20
32.611308
  0
LWPOLYLINE
  8
0
 62
7
 90
5
 70
1
 10
51.634931
 20
32.352110
 10
51.540577
 20
32.446464
 10
50.482126
 20
31.388014
 10
50.670836
 20
31.199305
 10
51.729286
 20
32.257755
  0
LWPOLYLINE
  8
0
 62
7
 90
5
 70
1
 10
51.988485
 20
31.998556
 10
51.894130
 20
32.092911
 10
50.835680
 20
31.034461
 10
51.024389
 20
30.845751
 10
52.082839
 20
31.904202
  0
LWPOLYLINE
  8
0
 62
7
 90
5
 70
1
 10
52.342041
 20
31.645003
 10
52.247686
 20
31.739358
 10
51.189236
 20
30.680907
 10
51.377945
 20
30.492198
 10
52.436395
 20
31.550649
  0
LWPOLYLINE
  8
0
 62
7
 90
5
 70
1
 10
52.695594
 20
31.291450
 10
52.601239
 20
31.385805
 10
51.542789
 20
30.327354
 10
51.731498
 20
30.138645
 10
52.789949
 20
31.197096
  0
LWPOLYLINE
  8
0
 62
7
 90
5
 70
1
 10
53.049147
 20
30.937897
 10
52.954793
 20
31.032252
 10
51.896342
 20
29.973801
 10
52.085051
 20
29.785092
 10
53.143502
 20
30.843543
  0
LWPOLYLINE
  8
0
 62
7
 90
5
 70
1
 10
53.402700
 20
30.584344
 10
53.308346
 20
30.678699
 10
52.249895
 20
29.620248
 10
52.438604
 20
29.431539
 10
53.497055
 20
30.489989
  0
LWPOLYLINE
  8
0
 62
7
 90
5
 70
1
 10
53.756253
 20
30.230791
 10
53.661899
 20
30.325145
 10
52.603448
 20
29.266695
 10
52.792157
 20
29.077986
 10
53.850608
 20
30.136436
  0
LWPOLYLINE
  8
0
 62
7
 90
5
 70
1
 10
54.109806
 20
29.877235
 10
54.015452
 20
29.971589
 10
52.957001
 20
28.913139
 10
53.145711
 20
28.724430
 10
54.204161
 20
29.782880
  0
LWPOLYLINE
  8
0
 62
7
 90
5
 70
1
 10
54.463360
 20
29.523681
 10
54.369005
 20
29.618036
 10
53.310555
 20
28.559586
 10
53.499264
 20
28.370876
 10
54.557714
 20
29.429327
  0
LWPOLYLINE
  8
0
 62
7
 90
5
 70
1
 10
54.816913
 20
29.170128
 10
54.722558
 20
29.264483
 10
53.664108
 20
28.206032
 10
53.852817
 20
28.017323
 10
54.911267
 20
29.075774
  0
LWPOLYLINE
  8
0
 62
7
 90
5
 70
1
 10
55.170466
 20
28.816575
 10
55.076111
 20
28.910930
 10
54.017661
 20
27.852479
 10
54.206370
 20
27.663770
 10
55.264820
 20
28.722221
  0
LWPOLYLINE
  8
0
 62
7
 90
5
 70
1
 10
55.524019
 20
28.463022
 10
55.429664
 20
28.557377
 10
54.371214
 20
27.498926
 10
54.559923
 20
27.310217
 10
55.618374
 20
28.368668
  0
LWPOLYLINE
  8
0
 62
7
 90
5
 70
1
 10
55.877572
 20
28.109469
 10
55.783218
 20
28.203824
 10
54.724767
 20
27.145373
 10
54.913476
 20
26.956664
 10
55.971927
 20
28.015114
  0
LWPOLYLINE
  8
0
 62
7
 90
5
 70
1
 10
56.231125
 20
27.755916
 10
56.136771
 20
27.850270
 10
55.078320
 20
26.791820
 10
55.267029
 20
26.603111
 10
56.325480
 20
27.661561
  0
LWPOLYLINE
  8
0
 62
7
 90
5
 70
1
 10
56.584681
 20
27.402363
 10
56.490327
 20
27.496717
 10
55.431876
 20
26.438267
 10
55.620586
 20
26.249558
 10
56.679036
 20
27.308008
  0
LWPOLYLINE
  8
0
 62
7
 90
5
 70
1
 10
56.938235
 20
27.048810
 10
56.843880
 20
27.143164
 10
55.785430
 20
26.084714
 10
55.974139
 20
25.896005
 10
57.032589
 20
26.954455
  0
LWPOLYLINE
  8
0
 62
7
 90
5
 70
1
 10
57.291788
 20
26.695256
 10
57.197433
 20
26.789611
 10
56.138983
 20
25.731161
 10
56.327692
 20
25.542451
 10
57.386142
 20
26.600902
  0
LWPOLYLINE
  8
0
 62
7
 90
5
 70
1
 10
24.978800
 20
68.160513
 10
26.056738
 20
68.160513
 10
26.056738
 20
69.224187
 10
23.900862
 20
69.224187
 10
23.900862
 20
68.160513
  0
LWPOLYLINE
  8
0
 62
7
 90
5
 70
1
 10
24.978800
 20
66.458713
 10
26.056738
 20
66.458713
 10
26.056738
 20
67.522387
 10
23.900862
 20
67.522387
 10
23.900862
 20
66.458713
  0
LWPOLYLINE
  8
0
 62
7
 90
5
 70
1
 10
24.978800
 20
64.756912
 10
26.056738
 20
64.756912
 10
26.056738
 20
65.820587
 10
23.900862
 20
65.820587
 10
23.900862
 20
64.756912
  0
LWPOLYLINE
  8
0
 62
7
 90
5
 70
1
 10
24.978800
 20
63.055112
 10
26.056738
 20
63.055112
 10
26.056738
 20
64.118787
 10
23.900862
 20
64.118787
 10
23.900862
 20
63.055112
  0
LWPOLYLINE
  8
0
 62
7
 90
5
 70
1
 10
24.978800
 20
61.353313
 10
26.056738
 20
61.353313
 10
26.056738
 20
62.416988
 10
23.900862
 20
62.416988
 10
23.900862
 20
61.353313
  0
LWPOLYLINE
  8
0
 62
7
 90
5
 70
1
 10
33.310000
 20
59.890312
 10
38.513438
 20
59.890312
 10
38.513438
 20
70.687187
 10
28.106563
 20
70.687187
 10
28.106563
 20
59.890312
  0
LWPOLYLINE
  8
0
 62
7
 90
5
 70
1
 10
41.879900
 20
27.981562
 10
42.478338
 20
27.981562
 10
42.478338
 20
28.528437
 10
41.281462
 20
28.528437
 10
41.281462
 20
27.981562
  0
LWPOLYLINE
  8
0
 62
7
 90
5
 70
1
 10
41.879900
 20
27.031562
 10
42.478338
 20
27.031562
 10
42.478338
 20
27.578437
 10
41.281462
 20
27.578437
 10
41.281462
 20
27.031562
  0
LWPOLYLINE
  8
0
 62
7
 90
5
 70
1
 10
41.879900
 20
26.081563
 10
42.478338
 20
26.081563
 10
42.478338
 20
26.628438
 10
41.281462
 20
26.628438
 10
41.281462
 20
26.081563
  0
LWPOLYLINE
  8
0
 62
7
 90
5
 70
1
 10
44.480100
 20
26.081563
 10
45.078538
 20
26.081563
 10
45.078538
 20
26.628438
 10
43.881662
 20
26.628438
 10
43.881662
 20
26.081563
  0
LWPOLYLINE
  8
0
 62
7
 90
5
 70
1
 10
44.480100
 20
27.981562
 10
45.078538
 20
27.981562
 10
45.078538
 20
28.528437
 10
43.881662
 20
28.528437
 10
43.881662
 20
27.981562
  0
LWPOLYLINE
  8
0
 62
7
 90
5
 70
1
 10
67.725760
 20
24.914987
 10
68.078209
 20
25.267435
 10
67.302601
 20
26.043043
 10
66.597704
 20
25.338146
 10
67.373312
 20
24.562538
  0
LWPOLYLINE
  8
0
 62
7
 90
5
 70
1
 10
68.927845
 20
23.712902
 10
69.280293
 20
24.065351
 10
68.504685
 20
24.840959
 10
67.799788
 20
24.136062
 10
68.575396
 20
23.360454
  0
LWPOLYLINE
  8
0
 62
7
 90
5
 70
1
 10
19.899438
 20
62.906000
 10
19.899438
 20
64.904438
 10
14.502562
 20
64.904438
 10
14.502562
 20
60.907562
 10
19.899438
 20
60.907562
  0
LWPOLYLINE
  8
0
 62
7
 90
5
 70
1
 10
19.899438
 20
53.106000
 10
19.899438
 20
55.104438
 10
14.502562
 20
55.104438
 10
14.502562
 20
51.107563
 10
19.899438
 20
51.107563
  0
LWPOLYLINE
  8
0
 62
7
 90
5
 70
1
 10
68.528063
 20
51.957125
 10
68.528063
 20
51.558687
 10
69.324938
 20
51.558687
 10
69.324938
 20
52.355562
 10
68.528063
 20
52.355562
  0
LWPOLYLINE
  8
0
 62
7
 90
5
 70
1
 10
70.028063
 20
51.957125
 10
70.028063
 20
51.558687
 10
70.824938
 20
51.558687
 10
70.824938
 20
52.355562
 10
70.028063
 20
52.355562
  0
LWPOLYLINE
  8
0
 62
7
 90
5
 70
1
 10
68.528063
 20
54.036750
 10
68.528063
 20
53.638312
 10
69.324938
 20
53.638312
 10
69.324938
 20
54.435187
 10
68.528063
 20
54.435187
  0
LWPOLYLINE
  8
0
 62
7
 90
5
 70
1
 10
70.028063
 20
54.036750
 10
70.028063
 20
53.638312
 10
70.824938
 20
53.638312
 10
70.824938
 20
54.435187
 10
70.028063
 20
54.435187
  0
LWPOLYLINE
  8
0
 62
7
 90
5
 70
1
 10
68.528063
 20
56.100500
 10
68.528063
 20
55.702062
 10
69.324938
 20
55.702062
 10
69.324938
 20
56.498937
 10
68.528063
 20
56.498937
  0
LWPOLYLINE
  8
0
 62
7
 90
5
 70
1
 10
70.028063
 20
56.100500
 10
70.028063
 20
55.702062
 10
70.824938
 20
55.702062
 10
70.824938
 20
56.498937
 10
70.028063
 20
56.498937
  0
LWPOLYLINE
  8
0
 62
7
 90
5
 70
1
 10
68.528063
 20
58.148375
 10
68.528063
 20
57.749938
 10
69.324938
 20
57.749938
 10
69.324938
 20
58.546813
 10
68.528063
 20
58.546813
  0
LWPOLYLINE
  8
0
 62
7
 90
5
 70
1
 10
70.028063
 20
58.148375
 10
70.028063
 20
57.749938
 10
70.824938
 20
57.749938
 10
70.824938
 20
58.546813
 10
70.028063
 20
58.546813
  0
LWPOLYLINE
  8
0
 62
7
 90
5
 70
1
 10
95.530312
 20
73.183750
 10
95.530312
 20
72.785313
 10
96.327187
 20
72.785313
 10
96.327187
 20
73.582188
 10
95.530312
 20
73.582188
  0
LWPOLYLINE
  8
0
 62
7
 90
5
 70
1
 10
97.030312
 20
73.183750
 10
97.030312
 20
72.785313
 10
97.827187
 20
72.785313
 10
97.827187
 20
73.582188
 10
97.030312
 20
73.582188
  0
LWPOLYLINE
  8
0
 62
7
 90
5
 70
1
 10
14.726562
 20
27.463750
 10
14.726562
 20
27.065313
 10
15.523438
 20
27.065313
 10
15.523438
 20
27.862188
 10
14.726562
 20
27.862188
  0
LWPOLYLINE
  8
0
 62
7
 90
5
 70
1
 10
16.226562
 20
27.463750
 10
16.226562
 20
27.065313
 10
17.023438
 20
27.065313
 10
17.023438
 20
27.862188
 10
16.226562
 20
27.862188
  0
LWPOLYLINE
  8
0
 62
7
 90
5
 70
1
 10
11.906250
 20
24.643438
 10
11.507812
 20
24.643438
 10
11.507812
 20
23.846563
 10
12.304688
 20
23.846563
 10
12.304688
 20
24.643438
  0
LWPOLYLINE
  8
0
 62
7
 90
5
 70
1
 10
11.906250
 20
23.143438
 10
11.507812
 20
23.143438
 10
11.507812
 20
22.346563
 10
12.304688
 20
22.346563
 10
12.304688
 20
23.143438
  0
LWPOLYLINE
  8
0
 62
7
 90
5
 70
1
 10
18.891250
 20
24.643438
 10
18.492812
 20
24.643438
 10
18.492812
 20
23.846563
 10
19.289687
 20
23.846563
 10
19.289687
 20
24.643438
  0
LWPOLYLINE
  8
0
 62
7
 90
5
 70
1
 10
18.891250
 20
23.143438
 10
18.492812
 20
23.143438
 10
18.492812
 20
22.346563
 10
19.289687
 20
22.346563
 10
19.289687
 20
23.143438
  0
LWPOLYLINE
  8
0
 62
7
 90
5
 70
1
 10
68.536563
 20
60.193750
 10
68.536563
 20
59.795313
 10
69.333438
 20
59.795313
 10
69.333438
 20
60.592188
 10
68.536563
 20
60.592188
  0
LWPOLYLINE
  8
0
 62
7
 90
5
 70
1
 10
70.036563
 20
60.193750
 10
70.036563
 20
59.795313
 10
70.833438
 20
59.795313
 10
70.833438
 20
60.592188
 10
70.036563
 20
60.592188
  0
LWPOLYLINE
  8
0
 62
7
 90
5
 70
1
 10
25.876250
 20
24.643438
 10
25.477812
 20
24.643438
 10
25.477812
 20
23.846563
 10
26.274687
 20
23.846563
 10
26.274687
 20
24.643438
  0
LWPOLYLINE
  8
0
 62
7
 90
5
 70
1
 10
25.876250
 20
23.143438
 10
25.477812
 20
23.143438
 10
25.477812
 20
22.346563
 10
26.274687
 20
22.346563
 10
26.274687
 20
23.143438
  0
LWPOLYLINE
  8
0
 62
7
 90
5
 70
1
 10
32.861250
 20
24.643438
 10
32.462812
 20
24.643438
 10
32.462812
 20
23.846563
 10
33.259687
 20
23.846563
 10
33.259687
 20
24.643438
  0
LWPOLYLINE
  8
0
 62
7
 90
5
 70
1
 10
32.861250
 20
23.143438
 10
32.462812
 20
23.143438
 10
32.462812
 20
22.346563
 10
33.259687
 20
22.346563
 10
33.259687
 20
23.143438
  0
LWPOLYLINE
  8
0
 62
7
 90
5
 70
1
 10
70.833438
 20
62.230000
 10
70.833438
 20
62.628437
 10
70.036563
 20
62.628437
 10
70.036563
 20
61.831562
 10
70.833438
 20
61.831562
  0
LWPOLYLINE
  8
0
 62
7
 90
5
 70
1
 10
69.333438
 20
62.230000
 10
69.333438
 20
62.628437
 10
68.536563
 20
62.628437
 10
68.536563
 20
61.831562
 10
69.333438
 20
61.831562
  0
LWPOLYLINE
  8
0
 62
7
 90
5
 70
1
 10
82.719563
 20
42.383750
 10
82.719563
 20
42.135312
 10
83.216437
 20
42.135312
 10
83.216437
 20
42.632188
 10
82.719563
 20
42.632188
  0
LWPOLYLINE
  8
0
 62
7
 90
5
 70
1
 10
81.769563
 20
42.383750
 10
81.769563
 20
42.135312
 10
82.266437
 20
42.135312
 10
82.266437
 20
42.632188
 10
81.769563
 20
42.632188
  0
LWPOLYLINE
  8
0
 62
7
 90
5
 70
1
 10
80.819563
 20
42.383750
 10
80.819563
 20
42.135312
 10
81.316437
 20
42.135312
 10
81.316437
 20
42.632188
 10
80.819563
 20
42.632188
  0
LWPOLYLINE
  8
0
 62
7
 90
5
 70
1
 10
80.819563
 20
39.983750
 10
80.819563
 20
39.735312
 10
81.316437
 20
39.735312
 10
81.316437
 20
40.232188
 10
80.819563
 20
40.232188
  0
LWPOLYLINE
  8
0
 62
7
 90
5
 70
1
 10
81.769563
 20
39.983750
 10
81.769563
 20
39.735312
 10
82.266437
 20
39.735312
 10
82.266437
 20
40.232188
 10
81.769563
 20
40.232188
  0
LWPOLYLINE
  8
0
 62
7
 90
5
 70
1
 10
82.719563
 20
39.983750
 10
82.719563
 20
39.735312
 10
83.216437
 20
39.735312
 10
83.216437
 20
40.232188
 10
82.719563
 20
40.232188
  0
LWPOLYLINE
  8
0
 62
7
 90
5
 70
1
 10
70.466563
 20
31.608750
 10
70.466563
 20
31.010313
 10
71.863438
 20
31.010313
 10
71.863438
 20
32.207188
 10
70.466563
 20
32.207188
  0
LWPOLYLINE
  8
0
 62
7
 90
5
 70
1
 10
68.266563
 20
30.008750
 10
68.266563
 20
29.410312
 10
69.663438
 20
29.410312
 10
69.663438
 20
30.607187
 10
68.266563
 20
30.607187
  0
LWPOLYLINE
  8
0
 62
7
 90
5
 70
1
 10
70.466563
 20
30.008750
 10
70.466563
 20
29.410312
 10
71.863438
 20
29.410312
 10
71.863438
 20
30.607187
 10
70.466563
 20
30.607187
  0
LWPOLYLINE
  8
0
 62
7
 90
5
 70
1
 10
68.266563
 20
31.608750
 10
68.266563
 20
31.010313
 10
69.663438
 20
31.010313
 10
69.663438
 20
32.207188
 10
68.266563
 20
32.207188
  0
LWPOLYLINE
  8
0
 62
7
 90
5
 70
1
 10
82.622563
 20
27.539750
 10
82.622563
 20
26.991313
 10
83.619437
 20
26.991313
 10
83.619437
 20
28.088188
 10
82.622563
 20
28.088188
  0
LWPOLYLINE
  8
0
 62
7
 90
5
 70
1
 10
80.922563
 20
27.539750
 10
80.922563
 20
26.991313
 10
81.919438
 20
26.991313
 10
81.919438
 20
28.088188
 10
80.922563
 20
28.088188
  0
LWPOLYLINE
  8
0
 62
7
 90
5
 70
1
 10
82.465563
 20
18.637750
 10
82.465563
 20
18.089313
 10
83.462437
 20
18.089313
 10
83.462437
 20
19.186187
 10
82.465563
 20
19.186187
  0
LWPOLYLINE
  8
0
 62
7
 90
5
 70
1
 10
80.765563
 20
18.637750
 10
80.765563
 20
18.089313
 10
81.762437
 20
18.089313
 10
81.762437
 20
19.186187
 10
80.765563
 20
19.186187
  0
LWPOLYLINE
  8
0
 62
7
 90
5
 70
1
 10
82.622563
 20
25.461750
 10
82.622563
 20
24.913312
 10
83.619437
 20
24.913312
 10
83.619437
 20
26.010187
 10
82.622563
 20
26.010187
  0
LWPOLYLINE
  8
0
 62
7
 90
5
 70
1
 10
80.922563
 20
25.461750
 10
80.922563
 20
24.913312
 10
81.919438
 20
24.913312
 10
81.919438
 20
26.010187
 10
80.922563
 20
26.010187
  0
LWPOLYLINE
  8
0
 62
7
 90
5
 70
1
 10
76.991563
 20
47.903750
 10
76.991563
 20
47.355313
 10
77.988437
 20
47.355313
 10
77.988437
 20
48.452188
 10
76.991563
 20
48.452188
  0
LWPOLYLINE
  8
0
 62
7
 90
5
 70
1
 10
75.291563
 20
47.903750
 10
75.291563
 20
47.355313
 10
76.288438
 20
47.355313
 10
76.288438
 20
48.452188
 10
75.291563
 20
48.452188
  0
LWPOLYLINE
  8
0
 62
7
 90
5
 70
1
 10
45.392500
 20
8.663437
 10
44.844062
 20
8.663437
 10
44.844062
 20
7.666562
 10
45.940937
 20
7.666562
 10
45.940937
 20
8.663437
  0
LWPOLYLINE
  8
0
 62
7
 90
5
 70
1
 10
45.392500
 20
10.363437
 10
44.844062
 20
10.363437
 10
44.844062
 20
9.366563
 10
45.940937
 20
9.366563
 10
45.940937
 20
10.363437
  0
LWPOLYLINE
  8
0
 62
7
 90
5
 70
1
 10
53.032500
 20
8.778562
 10
52.484063
 20
8.778562
 10
52.484063
 20
7.781688
 10
53.580937
 20
7.781688
 10
53.580937
 20
8.778562
  0
LWPOLYLINE
  8
0
 62
7
 90
5
 70
1
 10
53.032500
 20
10.478562
 10
52.484063
 20
10.478562
 10
52.484063
 20
9.481687
 10
53.580937
 20
9.481687
 10
53.580937
 20
10.478562
  0
LWPOLYLINE
  8
0
 62
7
 90
5
 70
1
 10
82.988937
 20
34.701250
 10
82.988937
 20
35.249688
 10
81.992063
 20
35.249688
 10
81.992063
 20
34.152813
 10
82.988937
 20
34.152813
  0
LWPOLYLINE
  8
0
 62
7
 90
5
 70
1
 10
84.688937
 20
34.701250
 10
84.688937
 20
35.249688
 10
83.692063
 20
35.249688
 10
83.692063
 20
34.152813
 10
84.688937
 20
34.152813
  0
LWPOLYLINE
  8
0
 62
7
 90
5
 70
1
 10
83.692063
 20
31.126250
 10
83.692063
 20
30.577813
 10
84.688937
 20
30.577813
 10
84.688937
 20
31.674687
 10
83.692063
 20
31.674687
  0
LWPOLYLINE
  8
0
 62
7
 90
5
 70
1
 10
81.992063
 20
31.126250
 10
81.992063
 20
30.577813
 10
82.988937
 20
30.577813
 10
82.988937
 20
31.674687
 10
81.992063
 20
31.674687
  0
LWPOLYLINE
  8
0
 62
7
 90
5
 70
1
 10
83.692063
 20
36.588750
 10
83.692063
 20
36.040312
 10
84.688937
 20
36.040312
 10
84.688937
 20
37.137187
 10
83.692063
 20
37.137187
  0
LWPOLYLINE
  8
0
 62
7
 90
5
 70
1
 10
81.992063
 20
36.588750
 10
81.992063
 20
36.040312
 10
82.988937
 20
36.040312
 10
82.988937
 20
37.137187
 10
81.992063
 20
37.137187
  0
LWPOLYLINE
  8
0
 62
7
 90
5
 70
1
 10
66.789563
 20
51.957125
 10
66.789563
 20
51.408687
 10
67.786437
 20
51.408687
 10
67.786437
 20
52.505562
 10
66.789563
 20
52.505562
  0
LWPOLYLINE
  8
0
 62
7
 90
5
 70
1
 10
65.089562
 20
51.957125
 10
65.089562
 20
51.408687
 10
66.086437
 20
51.408687
 10
66.086437
 20
52.505562
 10
65.089562
 20
52.505562
  0
LWPOLYLINE
  8
0
 62
7
 90
5
 70
1
 10
66.789563
 20
54.036750
 10
66.789563
 20
53.488312
 10
67.786437
 20
53.488312
 10
67.786437
 20
54.585187
 10
66.789563
 20
54.585187
  0
LWPOLYLINE
  8
0
 62
7
 90
5
 70
1
 10
65.089562
 20
54.036750
 10
65.089562
 20
53.488312
 10
66.086437
 20
53.488312
 10
66.086437
 20
54.585187
 10
65.089562
 20
54.585187
  0
LWPOLYLINE
  8
0
 62
7
 90
5
 70
1
 10
66.789563
 20
56.100500
 10
66.789563
 20
55.552062
 10
67.786437
 20
55.552062
 10
67.786437
 20
56.648937
 10
66.789563
 20
56.648937
  0
LWPOLYLINE
  8
0
 62
7
 90
5
 70
1
 10
65.089562
 20
56.100500
 10
65.089562
 20
55.552062
 10
66.086437
 20
55.552062
 10
66.086437
 20
56.648937
 10
65.089562
 20
56.648937
  0
LWPOLYLINE
  8
0
 62
7
 90
5
 70
1
 10
66.789563
 20
58.148375
 10
66.789563
 20
57.599938
 10
67.786437
 20
57.599938
 10
67.786437
 20
58.696813
 10
66.789563
 20
58.696813
  0
LWPOLYLINE
  8
0
 62
7
 90
5
 70
1
 10
65.089562
 20
58.148375
 10
65.089562
 20
57.599938
 10
66.086437
 20
57.599938
 10
66.086437
 20
58.696813
 10
65.089562
 20
58.696813
  0
LWPOLYLINE
  8
0
 62
7
 90
5
 70
1
 10
82.462563
 20
16.393750
 10
82.462563
 20
15.845313
 10
83.459437
 20
15.845313
 10
83.459437
 20
16.942187
 10
82.462563
 20
16.942187
  0
LWPOLYLINE
  8
0
 62
7
 90
5
 70
1
 10
80.762563
 20
16.393750
 10
80.762563
 20
15.845313
 10
81.759437
 20
15.845313
 10
81.759437
 20
16.942187
 10
80.762563
 20
16.942187
  0
LWPOLYLINE
  8
0
 62
7
 90
5
 70
1
 10
55.617592
 20
48.674655
 10
55.229788
 20
48.286851
 10
55.934685
 20
47.581954
 10
56.710293
 20
48.357562
 10
56.005396
 20
49.062459
  0
LWPOLYLINE
  8
0
 62
7
 90
5
 70
1
 10
54.415508
 20
49.876739
 10
54.027704
 20
49.488935
 10
54.732601
 20
48.784038
 10
55.508209
 20
49.559646
 10
54.803312
 20
50.264543
  0
LWPOLYLINE
  8
0
 62
7
 90
5
 70
1
 10
76.991563
 20
50.453750
 10
76.991563
 20
49.905313
 10
77.988437
 20
49.905313
 10
77.988437
 20
51.002187
 10
76.991563
 20
51.002187
  0
LWPOLYLINE
  8
0
 62
7
 90
5
 70
1
 10
75.291563
 20
50.453750
 10
75.291563
 20
49.905313
 10
76.288438
 20
49.905313
 10
76.288438
 20
51.002187
 10
75.291563
 20
51.002187
  0
LWPOLYLINE
  8
0
 62
7
 90
5
 70
1
 10
93.391563
 20
67.358750
 10
93.391563
 20
66.810312
 10
94.388437
 20
66.810312
 10
94.388437
 20
67.907188
 10
93.391563
 20
67.907188
  0
LWPOLYLINE
  8
0
 62
7
 90
5
 70
1
 10
91.691563
 20
67.358750
 10
91.691563
 20
66.810312
 10
92.688437
 20
66.810312
 10
92.688437
 20
67.907188
 10
91.691563
 20
67.907188
  0
LWPOLYLINE
  8
0
 62
7
 90
5
 70
1
 10
89.727812
 20
72.945625
 10
89.727812
 20
72.397188
 10
90.724687
 20
72.397188
 10
90.724687
 20
73.494063
 10
89.727812
 20
73.494063
  0
LWPOLYLINE
  8
0
 62
7
 90
5
 70
1
 10
88.027813
 20
72.945625
 10
88.027813
 20
72.397188
 10
89.024687
 20
72.397188
 10
89.024687
 20
73.494063
 10
88.027813
 20
73.494063
  0
LWPOLYLINE
  8
0
 62
7
 90
5
 70
1
 10
12.030938
 20
75.882500
 10
12.030938
 20
76.430937
 10
11.034063
 20
76.430937
 10
11.034063
 20
75.334062
 10
12.030938
 20
75.334062
  0
LWPOLYLINE
  8
0
 62
7
 90
5
 70
1
 10
13.730937
 20
75.882500
 10
13.730937
 20
76.430937
 10
12.734063
 20
76.430937
 10
12.734063
 20
75.334062
 10
13.730937
 20
75.334062
  0
LWPOLYLINE
  8
0
 62
7
 90
5
 70
1
 10
16.226562
 20
75.247500
 10
16.226562
 20
74.699062
 10
17.223438
 20
74.699062
 10
17.223438
 20
75.795938
 10
16.226562
 20
75.795938
  0
LWPOLYLINE
  8
0
 62
7
 90
5
 70
1
 10
14.526563
 20
75.247500
 10
14.526563
 20
74.699062
 10
15.523438
 20
74.699062
 10
15.523438
 20
75.795938
 10
14.526563
 20
75.795938
  0
LWPOLYLINE
  8
0
 62
7
 90
5
 70
1
 10
60.652500
 20
8.730937
 10
60.104063
 20
8.730937
 10
60.104063
 20
7.734063
 10
61.200938
 20
7.734063
 10
61.200938
 20
8.730937
  0
LWPOLYLINE
  8
0
 62
7
 90
5
 70
1
 10
60.652500
 20
10.430937
 10
60.104063
 20
10.430937
 10
60.104063
 20
9.434062
 10
61.200938
 20
9.434062
 10
61.200938
 20
10.430937
  0
LWPOLYLINE
  8
0
 62
7
 90
5
 70
1
 10
68.252500
 20
8.726938
 10
67.704062
 20
8.726938
 10
67.704062
 20
7.730063
 10
68.800938
 20
7.730063
 10
68.800938
 20
8.726938
  0
LWPOLYLINE
  8
0
 62
7
 90
5
 70
1
 10
68.252500
 20
10.426937
 10
67.704062
 20
10.426937
 10
67.704062
 20
9.430063
 10
68.800938
 20
9.430063
 10
68.800938
 20
10.426937
  0
LWPOLYLINE
  8
0
 62
7
 90
5
 70
1
 10
75.872500
 20
8.782500
 10
75.324062
 20
8.782500
 10
75.324062
 20
7.785625
 10
76.420938
 20
7.785625
 10
76.420938
 20
8.782500
  0
LWPOLYLINE
  8
0
 62
7
 90
5
 70
1
 10
75.872500
 20
10.482500
 10
75.324062
 20
10.482500
 10
75.324062
 20
9.485625
 10
76.420938
 20
9.485625
 10
76.420938
 20
10.482500
  0
LWPOLYLINE
  8
0
 62
7
 90
5
 70
1
 10
83.492500
 20
8.560313
 10
82.944063
 20
8.560313
 10
82.944063
 20
7.563438
 10
84.040938
 20
7.563438
 10
84.040938
 20
8.560313
  0
LWPOLYLINE
  8
0
 62
7
 90
5
 70
1
 10
83.492500
 20
10.260312
 10
82.944063
 20
10.260312
 10
82.944063
 20
9.263438
 10
84.040938
 20
9.263438
 10
84.040938
 20
10.260312
  0
LWPOLYLINE
  8
0
 62
7
 90
5
 70
1
 10
27.270938
 20
75.882500
 10
27.270938
 20
76.430937
 10
26.274062
 20
76.430937
 10
26.274062
 20
75.334062
 10
27.270938
 20
75.334062
  0
LWPOLYLINE
  8
0
 62
7
 90
5
 70
1
 10
28.970938
 20
75.882500
 10
28.970938
 20
76.430937
 10
27.974062
 20
76.430937
 10
27.974062
 20
75.334062
 10
28.970938
 20
75.334062
  0
LWPOLYLINE
  8
0
 62
7
 90
5
 70
1
 10
31.466562
 20
75.247500
 10
31.466562
 20
74.699062
 10
32.463437
 20
74.699062
 10
32.463437
 20
75.795938
 10
31.466562
 20
75.795938
  0
LWPOLYLINE
  8
0
 62
7
 90
5
 70
1
 10
29.766562
 20
75.247500
 10
29.766562
 20
74.699062
 10
30.763438
 20
74.699062
 10
30.763438
 20
75.795938
 10
29.766562
 20
75.795938
  0
LWPOLYLINE
  8
0
 62
7
 90
5
 70
1
 10
18.732500
 20
48.770312
 10
19.280938
 20
48.770312
 10
19.280938
 20
49.767187
 10
18.184063
 20
49.767187
 10
18.184063
 20
48.770312
  0
LWPOLYLINE
  8
0
 62
7
 90
5
 70
1
 10
18.732500
 20
47.070312
 10
19.280938
 20
47.070312
 10
19.280938
 20
48.067188
 10
18.184063
 20
48.067188
 10
18.184063
 20
47.070312
  0
LWPOLYLINE
  8
0
 62
7
 90
5
 70
1
 10
76.338437
 20
54.596875
 10
76.338437
 20
55.145312
 10
75.341563
 20
55.145312
 10
75.341563
 20
54.048437
 10
76.338437
 20
54.048437
  0
LWPOLYLINE
  8
0
 62
7
 90
5
 70
1
 10
78.038438
 20
54.596875
 10
78.038438
 20
55.145312
 10
77.041563
 20
55.145312
 10
77.041563
 20
54.048437
 10
78.038438
 20
54.048437
  0
LWPOLYLINE
  8
0
 62
7
 90
5
 70
1
 10
76.300312
 20
52.531250
 10
76.300312
 20
53.079687
 10
75.303438
 20
53.079687
 10
75.303438
 20
51.982813
 10
76.300312
 20
51.982813
  0
LWPOLYLINE
  8
0
 62
7
 90
5
 70
1
 10
78.000312
 20
52.531250
 10
78.000312
 20
53.079687
 10
77.003438
 20
53.079687
 10
77.003438
 20
51.982813
 10
78.000312
 20
51.982813
  0
LWPOLYLINE
  8
0
 62
7
 90
5
 70
1
 10
16.510000
 20
48.067188
 10
15.961563
 20
48.067188
 10
15.961563
 20
47.070312
 10
17.058438
 20
47.070312
 10
17.058438
 20
48.067188
  0
LWPOLYLINE
  8
0
 62
7
 90
5
 70
1
 10
16.510000
 20
49.767187
 10
15.961563
 20
49.767187
 10
15.961563
 20
48.770312
 10
17.058438
 20
48.770312
 10
17.058438
 20
49.767187
  0
LWPOLYLINE
  8
0
 62
7
 90
5
 70
1
 10
76.941563
 20
45.553750
 10
76.941563
 20
45.005313
 10
77.938437
 20
45.005313
 10
77.938437
 20
46.102187
 10
76.941563
 20
46.102187
  0
LWPOLYLINE
  8
0
 62
7
 90
5
 70
1
 10
75.241563
 20
45.553750
 10
75.241563
 20
45.005313
 10
76.238437
 20
45.005313
 10
76.238437
 20
46.102187
 10
75.241563
 20
46.102187
  0
LWPOLYLINE
  8
0
 62
7
 90
5
 70
1
 10
19.333438
 20
27.463750
 10
19.333438
 20
28.012187
 10
18.336562
 20
28.012187
 10
18.336562
 20
26.915313
 10
19.333438
 20
26.915313
  0
LWPOLYLINE
  8
0
 62
7
 90
5
 70
1
 10
21.033438
 20
27.463750
 10
21.033438
 20
28.012187
 10
20.036562
 20
28.012187
 10
20.036562
 20
26.915313
 10
21.033438
 20
26.915313
  0
LWPOLYLINE
  8
0
 62
7
 90
5
 70
1
 10
42.510938
 20
75.882500
 10
42.510938
 20
76.430937
 10
41.514063
 20
76.430937
 10
41.514063
 20
75.334062
 10
42.510938
 20
75.334062
  0
LWPOLYLINE
  8
0
 62
7
 90
5
 70
1
 10
44.210938
 20
75.882500
 10
44.210938
 20
76.430937
 10
43.214062
 20
76.430937
 10
43.214062
 20
75.334062
 10
44.210938
 20
75.334062
  0
LWPOLYLINE
  8
0
 62
7
 90
5
 70
1
 10
46.706562
 20
75.247500
 10
46.706562
 20
74.699062
 10
47.703437
 20
74.699062
 10
47.703437
 20
75.795938
 10
46.706562
 20
75.795938
  0
LWPOLYLINE
  8
0
 62
7
 90
5
 70
1
 10
45.006563
 20
75.247500
 10
45.006563
 20
74.699062
 10
46.003438
 20
74.699062
 10
46.003438
 20
75.795938
 10
45.006563
 20
75.795938
  0
LWPOLYLINE
  8
0
 62
7
 90
5
 70
1
 10
14.128750
 20
24.164062
 10
14.677188
 20
24.164062
 10
14.677188
 20
25.160938
 10
13.580312
 20
25.160938
 10
13.580312
 20
24.164062
  0
LWPOLYLINE
  8
0
 62
7
 90
5
 70
1
 10
14.128750
 20
22.464062
 10
14.677188
 20
22.464062
 10
14.677188
 20
23.460938
 10
13.580312
 20
23.460938
 10
13.580312
 20
22.464062
  0
LWPOLYLINE
  8
0
 62
7
 90
5
 70
1
 10
9.683750
 20
23.460938
 10
9.135312
 20
23.460938
 10
9.135312
 20
22.464062
 10
10.232188
 20
22.464062
 10
10.232188
 20
23.460938
  0
LWPOLYLINE
  8
0
 62
7
 90
5
 70
1
 10
9.683750
 20
25.160938
 10
9.135312
 20
25.160938
 10
9.135312
 20
24.164062
 10
10.232188
 20
24.164062
 10
10.232188
 20
25.160938
  0
LWPOLYLINE
  8
0
 62
7
 90
5
 70
1
 10
12.223750
 20
21.147812
 10
12.772188
 20
21.147812
 10
12.772188
 20
22.144687
 10
11.675313
 20
22.144687
 10
11.675313
 20
21.147812
  0
LWPOLYLINE
  8
0
 62
7
 90
5
 70
1
 10
12.223750
 20
19.447812
 10
12.772188
 20
19.447812
 10
12.772188
 20
20.444688
 10
11.675313
 20
20.444688
 10
11.675313
 20
19.447812
  0
LWPOLYLINE
  8
0
 62
7
 90
5
 70
1
 10
57.750937
 20
75.882500
 10
57.750937
 20
76.430937
 10
56.754062
 20
76.430937
 10
56.754062
 20
75.334062
 10
57.750937
 20
75.334062
  0
LWPOLYLINE
  8
0
 62
7
 90
5
 70
1
 10
59.450938
 20
75.882500
 10
59.450938
 20
76.430937
 10
58.454062
 20
76.430937
 10
58.454062
 20
75.334062
 10
59.450938
 20
75.334062
  0
LWPOLYLINE
  8
0
 62
7
 90
5
 70
1
 10
61.946562
 20
75.247500
 10
61.946562
 20
74.699062
 10
62.943438
 20
74.699062
 10
62.943438
 20
75.795938
 10
61.946562
 20
75.795938
  0
LWPOLYLINE
  8
0
 62
7
 90
5
 70
1
 10
60.246562
 20
75.247500
 10
60.246562
 20
74.699062
 10
61.243437
 20
74.699062
 10
61.243437
 20
75.795938
 10
60.246562
 20
75.795938
  0
LWPOLYLINE
  8
0
 62
7
 90
5
 70
1
 10
21.113750
 20
24.164062
 10
21.662187
 20
24.164062
 10
21.662187
 20
25.160938
 10
20.565313
 20
25.160938
 10
20.565313
 20
24.164062
  0
LWPOLYLINE
  8
0
 62
7
 90
5
 70
1
 10
21.113750
 20
22.464062
 10
21.662187
 20
22.464062
 10
21.662187
 20
23.460938
 10
20.565313
 20
23.460938
 10
20.565313
 20
22.464062
  0
LWPOLYLINE
  8
0
 62
7
 90
5
 70
1
 10
16.668750
 20
23.460938
 10
16.120313
 20
23.460938
 10
16.120313
 20
22.464062
 10
17.217187
 20
22.464062
 10
17.217187
 20
23.460938
  0
LWPOLYLINE
  8
0
 62
7
 90
5
 70
1
 10
16.668750
 20
25.160938
 10
16.120313
 20
25.160938
 10
16.120313
 20
24.164062
 10
17.217187
 20
24.164062
 10
17.217187
 20
25.160938
  0
LWPOLYLINE
  8
0
 62
7
 90
5
 70
1
 10
19.208750
 20
21.147812
 10
19.757187
 20
21.147812
 10
19.757187
 20
22.144687
 10
18.660312
 20
22.144687
 10
18.660312
 20
21.147812
  0
LWPOLYLINE
  8
0
 62
7
 90
5
 70
1
 10
19.208750
 20
19.447812
 10
19.757187
 20
19.447812
 10
19.757187
 20
20.444688
 10
18.660312
 20
20.444688
 10
18.660312
 20
19.447812
  0
LWPOLYLINE
  8
0
 62
7
 90
5
 70
1
 10
28.098750
 20
24.164062
 10
28.647187
 20
24.164062
 10
28.647187
 20
25.160938
 10
27.550313
 20
25.160938
 10
27.550313
 20
24.164062
  0
LWPOLYLINE
  8
0
 62
7
 90
5
 70
1
 10
28.098750
 20
22.464062
 10
28.647187
 20
22.464062
 10
28.647187
 20
23.460938
 10
27.550313
 20
23.460938
 10
27.550313
 20
22.464062
  0
LWPOLYLINE
  8
0
 62
7
 90
5
 70
1
 10
23.653750
 20
23.460938
 10
23.105313
 20
23.460938
 10
23.105313
 20
22.464062
 10
24.202187
 20
22.464062
 10
24.202187
 20
23.460938
  0
LWPOLYLINE
  8
0
 62
7
 90
5
 70
1
 10
23.653750
 20
25.160938
 10
23.105313
 20
25.160938
 10
23.105313
 20
24.164062
 10
24.202187
 20
24.164062
 10
24.202187
 20
25.160938
  0
LWPOLYLINE
  8
0
 62
7
 90
5
 70
1
 10
26.193750
 20
21.147812
 10
26.742188
 20
21.147812
 10
26.742188
 20
22.144687
 10
25.645313
 20
22.144687
 10
25.645313
 20
21.147812
  0
LWPOLYLINE
  8
0
 62
7
 90
5
 70
1
 10
26.193750
 20
19.447812
 10
26.742188
 20
19.447812
 10
26.742188
 20
20.444688
 10
25.645313
 20
20.444688
 10
25.645313
 20
19.447812
  0
LWPOLYLINE
  8
0
 62
7
 90
5
 70
1
 10
35.083750
 20
24.164062
 10
35.632188
 20
24.164062
 10
35.632188
 20
25.160938
 10
34.535313
 20
25.160938
 10
34.535313
 20
24.164062
  0
LWPOLYLINE
  8
0
 62
7
 90
5
 70
1
 10
35.083750
 20
22.464062
 10
35.632188
 20
22.464062
 10
35.632188
 20
23.460938
 10
34.535313
 20
23.460938
 10
34.535313
 20
22.464062
  0
LWPOLYLINE
  8
0
 62
7
 90
5
 70
1
 10
30.638750
 20
23.460938
 10
30.090313
 20
23.460938
 10
30.090313
 20
22.464062
 10
31.187188
 20
22.464062
 10
31.187188
 20
23.460938
  0
LWPOLYLINE
  8
0
 62
7
 90
5
 70
1
 10
30.638750
 20
25.160938
 10
30.090313
 20
25.160938
 10
30.090313
 20
24.164062
 10
31.187188
 20
24.164062
 10
31.187188
 20
25.160938
  0
LWPOLYLINE
  8
0
 62
7
 90
5
 70
1
 10
33.178750
 20
21.147812
 10
33.727187
 20
21.147812
 10
33.727187
 20
22.144687
 10
32.630313
 20
22.144687
 10
32.630313
 20
21.147812
  0
LWPOLYLINE
  8
0
 62
7
 90
5
 70
1
 10
33.178750
 20
19.447812
 10
33.727187
 20
19.447812
 10
33.727187
 20
20.444688
 10
32.630313
 20
20.444688
 10
32.630313
 20
19.447812
  0
LWPOLYLINE
  8
0
 62
7
 90
5
 70
1
 10
72.990938
 20
75.882500
 10
72.990938
 20
76.430937
 10
71.994063
 20
76.430937
 10
71.994063
 20
75.334062
 10
72.990938
 20
75.334062
  0
LWPOLYLINE
  8
0
 62
7
 90
5
 70
1
 10
74.690937
 20
75.882500
 10
74.690937
 20
76.430937
 10
73.694063
 20
76.430937
 10
73.694063
 20
75.334062
 10
74.690937
 20
75.334062
  0
LWPOLYLINE
  8
0
 62
7
 90
5
 70
1
 10
77.186563
 20
75.247500
 10
77.186563
 20
74.699062
 10
78.183437
 20
74.699062
 10
78.183437
 20
75.795938
 10
77.186563
 20
75.795938
  0
LWPOLYLINE
  8
0
 62
7
 90
5
 70
1
 10
75.486563
 20
75.247500
 10
75.486563
 20
74.699062
 10
76.483437
 20
74.699062
 10
76.483437
 20
75.795938
 10
75.486563
 20
75.795938
  0
LWPOLYLINE
  8
0
 62
7
 90
5
 70
1
 10
88.230937
 20
75.882500
 10
88.230937
 20
76.430937
 10
87.234063
 20
76.430937
 10
87.234063
 20
75.334062
 10
88.230937
 20
75.334062
  0
LWPOLYLINE
  8
0
 62
7
 90
5
 70
1
 10
89.930937
 20
75.882500
 10
89.930937
 20
76.430937
 10
88.934063
 20
76.430937
 10
88.934063
 20
75.334062
 10
89.930937
 20
75.334062
  0
LWPOLYLINE
  8
0
 62
7
 90
5
 70
1
 10
92.426563
 20
75.247500
 10
92.426563
 20
74.699062
 10
93.423437
 20
74.699062
 10
93.423437
 20
75.795938
 10
92.426563
 20
75.795938
  0
LWPOLYLINE
  8
0
 62
7
 90
5
 70
1
 10
90.726562
 20
75.247500
 10
90.726562
 20
74.699062
 10
91.723437
 20
74.699062
 10
91.723437
 20
75.795938
 10
90.726562
 20
75.795938
  0
LWPOLYLINE
  8
0
 62
7
 90
5
 70
1
 10
48.170155
 20
26.342030
 10
47.782351
 20
26.729834
 10
47.077454
 20
26.024937
 10
47.853062
 20
25.249329
 10
48.557959
 20
25.954226
  0
LWPOLYLINE
  8
0
 62
7
 90
5
 70
1
 10
49.372239
 20
27.544114
 10
48.984435
 20
27.931918
 10
48.279538
 20
27.227021
 10
49.055146
 20
26.451413
 10
49.760043
 20
27.156310
  0
LWPOLYLINE
  8
0
 62
7
 90
5
 70
1
 10
27.656562
 20
40.481250
 10
27.656562
 20
39.932813
 10
28.653438
 20
39.932813
 10
28.653438
 20
41.029688
 10
27.656562
 20
41.029688
  0
LWPOLYLINE
  8
0
 62
7
 90
5
 70
1
 10
25.956562
 20
40.481250
 10
25.956562
 20
39.932813
 10
26.953437
 20
39.932813
 10
26.953437
 20
41.029688
 10
25.956562
 20
41.029688
  0
LWPOLYLINE
  8
0
 62
7
 90
5
 70
1
 10
26.953437
 20
35.401250
 10
26.953437
 20
35.949687
 10
25.956562
 20
35.949687
 10
25.956562
 20
34.852812
 10
26.953437
 20
34.852812
  0
LWPOLYLINE
  8
0
 62
7
 90
5
 70
1
 10
28.653438
 20
35.401250
 10
28.653438
 20
35.949687
 10
27.656562
 20
35.949687
 10
27.656562
 20
34.852812
 10
28.653438
 20
34.852812
  0
LWPOLYLINE
  8
0
 62
7
 90
5
 70
1
 10
30.001438
 20
27.940000
 10
30.001438
 20
28.488437
 10
29.004562
 20
28.488437
 10
29.004562
 20
27.391563
 10
30.001438
 20
27.391563
  0
LWPOLYLINE
  8
0
 62
7
 90
5
 70
1
 10
31.701438
 20
27.940000
 10
31.701438
 20
28.488437
 10
30.704562
 20
28.488437
 10
30.704562
 20
27.391563
 10
31.701438
 20
27.391563
  0
LWPOLYLINE
  8
0
 62
7
 90
5
 70
1
 10
66.786563
 20
62.230000
 10
66.786563
 20
61.681562
 10
67.783437
 20
61.681562
 10
67.783437
 20
62.778437
 10
66.786563
 20
62.778437
  0
LWPOLYLINE
  8
0
 62
7
 90
5
 70
1
 10
65.086562
 20
62.230000
 10
65.086562
 20
61.681562
 10
66.083437
 20
61.681562
 10
66.083437
 20
62.778437
 10
65.086562
 20
62.778437
  0
LWPOLYLINE
  8
0
 62
7
 90
5
 70
1
 10
66.786563
 20
60.193750
 10
66.786563
 20
59.645313
 10
67.783437
 20
59.645313
 10
67.783437
 20
60.742188
 10
66.786563
 20
60.742188
  0
LWPOLYLINE
  8
0
 62
7
 90
5
 70
1
 10
65.086562
 20
60.193750
 10
65.086562
 20
59.645313
 10
66.083437
 20
59.645313
 10
66.083437
 20
60.742188
 10
65.086562
 20
60.742188
  0
LWPOLYLINE
  8
0
 62
7
 90
5
 70
1
 10
59.838750
 20
18.733438
 10
59.515313
 20
18.733438
 10
59.515313
 20
18.236562
 10
60.162187
 20
18.236562
 10
60.162187
 20
18.733438
  0
LWPOLYLINE
  8
0
 62
7
 90
5
 70
1
 10
59.838750
 20
19.533438
 10
59.515313
 20
19.533438
 10
59.515313
 20
19.036562
 10
60.162187
 20
19.036562
 10
60.162187
 20
19.533438
  0
LWPOLYLINE
  8
0
 62
7
 90
5
 70
1
 10
59.838750
 20
20.333438
 10
59.515313
 20
20.333438
 10
59.515313
 20
19.836562
 10
60.162187
 20
19.836562
 10
60.162187
 20
20.333438
  0
LWPOLYLINE
  8
0
 62
7
 90
5
 70
1
 10
59.838750
 20
21.133438
 10
59.515313
 20
21.133438
 10
59.515313
 20
20.636563
 10
60.162187
 20
20.636563
 10
60.162187
 20
21.133438
  0
LWPOLYLINE
  8
0
 62
7
 90
5
 70
1
 10
58.588750
 20
21.133438
 10
58.265313
 20
21.133438
 10
58.265313
 20
20.636563
 10
58.912187
 20
20.636563
 10
58.912187
 20
21.133438
  0
LWPOLYLINE
  8
0
 62
7
 90
5
 70
1
 10
58.588750
 20
20.333438
 10
58.265313
 20
20.333438
 10
58.265313
 20
19.836562
 10
58.912187
 20
19.836562
 10
58.912187
 20
20.333438
  0
LWPOLYLINE
  8
0
 62
7
 90
5
 70
1
 10
58.588750
 20
19.533438
 10
58.265313
 20
19.533438
 10
58.265313
 20
19.036562
 10
58.912187
 20
19.036562
 10
58.912187
 20
19.533438
  0
LWPOLYLINE
  8
0
 62
7
 90
5
 70
1
 10
58.588750
 20
18.733438
 10
58.265313
 20
18.733438
 10
58.265313
 20
18.236562
 10
58.912187
 20
18.236562
 10
58.912187
 20
18.733438
  0
LWPOLYLINE
  8
0
 62
7
 90
5
 70
1
 10
92.581125
 20
7.426312
 10
93.341562
 20
7.426312
 10
93.341562
 20
8.185187
 10
91.820688
 20
8.185187
 10
91.820688
 20
7.426312
  0
LWPOLYLINE
  8
0
 62
7
 90
5
 70
1
 10
87.501125
 20
7.426312
 10
88.261562
 20
7.426312
 10
88.261562
 20
8.185187
 10
86.740688
 20
8.185187
 10
86.740688
 20
7.426312
  0
LWPOLYLINE
  8
0
 62
7
 90
5
 70
1
 10
92.581125
 20
11.236313
 10
93.341562
 20
11.236313
 10
93.341562
 20
11.995188
 10
91.820688
 20
11.995188
 10
91.820688
 20
11.236313
  0
LWPOLYLINE
  8
0
 62
7
 90
5
 70
1
 10
87.501125
 20
11.236313
 10
88.261562
 20
11.236313
 10
88.261562
 20
11.995188
 10
86.740688
 20
11.995188
 10
86.740688
 20
11.236313
  0
LWPOLYLINE
  8
0
 62
7
 90
5
 70
1
 10
57.193938
 20
55.839750
 10
57.193938
 20
56.600188
 10
56.435063
 20
56.600188
 10
56.435063
 20
55.079313
 10
57.193938
 20
55.079313
  0
LWPOLYLINE
  8
0
 62
7
 90
5
 70
1
 10
57.193938
 20
50.759750
 10
57.193938
 20
51.520187
 10
56.435063
 20
51.520187
 10
56.435063
 20
49.999312
 10
57.193938
 20
49.999312
  0
LWPOLYLINE
  8
0
 62
7
 90
5
 70
1
 10
53.383938
 20
55.839750
 10
53.383938
 20
56.600188
 10
52.625062
 20
56.600188
 10
52.625062
 20
55.079313
 10
53.383938
 20
55.079313
  0
LWPOLYLINE
  8
0
 62
7
 90
5
 70
1
 10
53.383938
 20
50.759750
 10
53.383938
 20
51.520187
 10
52.625062
 20
51.520187
 10
52.625062
 20
49.999312
 10
53.383938
 20
49.999312
  0
LWPOLYLINE
  8
0
 62
7
 90
5
 70
1
 10
26.363750
 20
38.392812
 10
27.062188
 20
38.392812
 10
27.062188
 20
39.389688
 10
25.665312
 20
39.389688
 10
25.665312
 20
38.392812
  0
LWPOLYLINE
  8
0
 62
7
 90
5
 70
1
 10
28.563750
 20
37.442812
 10
29.262187
 20
37.442812
 10
29.262187
 20
38.439687
 10
27.865312
 20
38.439687
 10
27.865312
 20
37.442812
  0
LWPOLYLINE
  8
0
 62
7
 90
5
 70
1
 10
26.363750
 20
36.492812
 10
27.062188
 20
36.492812
 10
27.062188
 20
37.489688
 10
25.665312
 20
37.489688
 10
25.665312
 20
36.492812
  0
LWPOLYLINE
  8
0
 62
7
 90
5
 70
1
 10
81.055000
 20
44.065312
 10
81.653438
 20
44.065312
 10
81.653438
 20
46.062188
 10
80.456563
 20
46.062188
 10
80.456563
 20
44.065312
  0
LWPOLYLINE
  8
0
 62
7
 90
5
 70
1
 10
83.055000
 20
44.065312
 10
83.653438
 20
44.065312
 10
83.653438
 20
46.062188
 10
82.456563
 20
46.062188
 10
82.456563
 20
44.065312
  0
LWPOLYLINE
  8
0
 62
7
 90
5
 70
1
 10
85.055000
 20
44.065312
 10
85.653438
 20
44.065312
 10
85.653438
 20
46.062188
 10
84.456563
 20
46.062188
 10
84.456563
 20
44.065312
  0
LWPOLYLINE
  8
0
 62
7
 90
5
 70
1
 10
87.055000
 20
44.065312
 10
87.653438
 20
44.065312
 10
87.653438
 20
46.062188
 10
86.456563
 20
46.062188
 10
86.456563
 20
44.065312
  0
LWPOLYLINE
  8
0
 62
7
 90
5
 70
1
 10
89.055000
 20
44.065312
 10
89.653438
 20
44.065312
 10
89.653438
 20
46.062188
 10
88.456563
 20
46.062188
 10
88.456563
 20
44.065312
  0
LWPOLYLINE
  8
0
 62
7
 90
5
 70
1
 10
91.055000
 20
44.065312
 10
91.653438
 20
44.065312
 10
91.653438
 20
46.062188
 10
90.456563
 20
46.062188
 10
90.456563
 20
44.065312
  0
LWPOLYLINE
  8
0
 62
7
 90
5
 70
1
 10
93.055000
 20
44.065312
 10
93.653438
 20
44.065312
 10
93.653438
 20
46.062188
 10
92.456563
 20
46.062188
 10
92.456563
 20
44.065312
  0
LWPOLYLINE
  8
0
 62
7
 90
5
 70
1
 10
95.055000
 20
44.065312
 10
95.653438
 20
44.065312
 10
95.653438
 20
46.062188
 10
94.456563
 20
46.062188
 10
94.456563
 20
44.065312
  0
LWPOLYLINE
  8
0
 62
7
 90
5
 70
1
 10
95.055000
 20
60.265313
 10
95.653438
 20
60.265313
 10
95.653438
 20
62.262188
 10
94.456563
 20
62.262188
 10
94.456563
 20
60.265313
  0
LWPOLYLINE
  8
0
 62
7
 90
5
 70
1
 10
93.055000
 20
60.265313
 10
93.653438
 20
60.265313
 10
93.653438
 20
62.262188
 10
92.456563
 20
62.262188
 10
92.456563
 20
60.265313
  0
LWPOLYLINE
  8
0
 62
7
 90
5
 70
1
 10
91.055000
 20
60.265313
 10
91.653438
 20
60.265313
 10
91.653438
 20
62.262188
 10
90.456563
 20
62.262188
 10
90.456563
 20
60.265313
  0
LWPOLYLINE
  8
0
 62
7
 90
5
 70
1
 10
89.055000
 20
60.265313
 10
89.653438
 20
60.265313
 10
89.653438
 20
62.262188
 10
88.456563
 20
62.262188
 10
88.456563
 20
60.265313
  0
LWPOLYLINE
  8
0
 62
7
 90
5
 70
1
 10
87.055000
 20
60.265313
 10
87.653438
 20
60.265313
 10
87.653438
 20
62.262188
 10
86.456563
 20
62.262188
 10
86.456563
 20
60.265313
  0
LWPOLYLINE
  8
0
 62
7
 90
5
 70
1
 10
85.055000
 20
60.265313
 10
85.653438
 20
60.265313
 10
85.653438
 20
62.262188
 10
84.456563
 20
62.262188
 10
84.456563
 20
60.265313
  0
LWPOLYLINE
  8
0
 62
7
 90
5
 70
1
 10
83.055000
 20
60.265313
 10
83.653438
 20
60.265313
 10
83.653438
 20
62.262188
 10
82.456563
 20
62.262188
 10
82.456563
 20
60.265313
  0
LWPOLYLINE
  8
0
 62
7
 90
5
 70
1
 10
81.055000
 20
60.265313
 10
81.653438
 20
60.265313
 10
81.653438
 20
62.262188
 10
80.456563
 20
62.262188
 10
80.456563
 20
60.265313
  0
LWPOLYLINE
  8
0
 62
7
 90
5
 70
1
 10
17.375162
 20
44.608750
 10
17.375162
 20
42.705312
 10
19.454838
 20
42.705312
 10
19.454838
 20
46.512188
 10
17.375162
 20
46.512188
  0
LWPOLYLINE
  8
0
 62
7
 90
5
 70
1
 10
10.161563
 20
33.178750
 10
10.161563
 20
28.735312
 10
21.588437
 20
28.735312
 10
21.588437
 20
37.622188
 10
10.161563
 20
37.622188
  0
LWPOLYLINE
  8
0
 62
7
 90
5
 70
1
 10
12.295162
 20
44.608750
 10
12.295162
 20
42.705312
 10
14.374838
 20
42.705312
 10
14.374838
 20
46.512188
 10
12.295162
 20
46.512188
  0
LWPOLYLINE
  8
0
 62
7
 90
5
 70
1
 10
13.687812
 20
20.040000
 10
13.687812
 20
19.241563
 10
14.684687
 20
19.241563
 10
14.684687
 20
20.838437
 10
13.687812
 20
20.838437
  0
LWPOLYLINE
  8
0
 62
7
 90
5
 70
1
 10
9.127813
 20
20.040000
 10
9.127813
 20
19.241563
 10
10.124688
 20
19.241563
 10
10.124688
 20
20.838437
 10
9.127813
 20
20.838437
  0
LWPOLYLINE
  8
0
 62
7
 90
5
 70
1
 10
9.207812
 20
12.740000
 10
9.207812
 20
9.641562
 10
14.604688
 20
9.641562
 10
14.604688
 20
15.838438
 10
9.207812
 20
15.838438
  0
LWPOLYLINE
  8
0
 62
7
 90
5
 70
1
 10
20.672812
 20
20.040000
 10
20.672812
 20
19.241563
 10
21.669688
 20
19.241563
 10
21.669688
 20
20.838437
 10
20.672812
 20
20.838437
  0
LWPOLYLINE
  8
0
 62
7
 90
5
 70
1
 10
16.112812
 20
20.040000
 10
16.112812
 20
19.241563
 10
17.109687
 20
19.241563
 10
17.109687
 20
20.838437
 10
16.112812
 20
20.838437
  0
LWPOLYLINE
  8
0
 62
7
 90
5
 70
1
 10
16.192812
 20
12.740000
 10
16.192812
 20
9.641562
 10
21.589688
 20
9.641562
 10
21.589688
 20
15.838438
 10
16.192812
 20
15.838438
  0
LWPOLYLINE
  8
0
 62
7
 90
5
 70
1
 10
27.657812
 20
20.040000
 10
27.657812
 20
19.241563
 10
28.654688
 20
19.241563
 10
28.654688
 20
20.838437
 10
27.657812
 20
20.838437
  0
LWPOLYLINE
  8
0
 62
7
 90
5
 70
1
 10
23.097812
 20
20.040000
 10
23.097812
 20
19.241563
 10
24.094688
 20
19.241563
 10
24.094688
 20
20.838437
 10
23.097812
 20
20.838437
  0
LWPOLYLINE
  8
0
 62
7
 90
5
 70
1
 10
23.177812
 20
12.740000
 10
23.177812
 20
9.641562
 10
28.574687
 20
9.641562
 10
28.574687
 20
15.838438
 10
23.177812
 20
15.838438
  0
LWPOLYLINE
  8
0
 62
7
 90
5
 70
1
 10
34.642812
 20
20.040000
 10
34.642812
 20
19.241563
 10
35.639688
 20
19.241563
 10
35.639688
 20
20.838437
 10
34.642812
 20
20.838437
  0
LWPOLYLINE
  8
0
 62
7
 90
5
 70
1
 10
30.082812
 20
20.040000
 10
30.082812
 20
19.241563
 10
31.079688
 20
19.241563
 10
31.079688
 20
20.838437
 10
30.082812
 20
20.838437
  0
LWPOLYLINE
  8
0
 62
7
 90
5
 70
1
 10
30.162812
 20
12.740000
 10
30.162812
 20
9.641562
 10
35.559687
 20
9.641562
 10
35.559687
 20
15.838438
 10
30.162812
 20
15.838438
  0
LWPOLYLINE
  8
0
 62
7
 90
5
 70
1
 10
28.022550
 20
46.089913
 10
26.906512
 20
46.089913
 10
26.906512
 20
44.873838
 10
29.138587
 20
44.873838
 10
29.138587
 20
46.089913
  0
LWPOLYLINE
  8
0
 62
7
 90
5
 70
1
 10
28.022550
 20
48.401313
 10
26.906512
 20
48.401313
 10
26.906512
 20
47.185237
 10
29.138587
 20
47.185237
 10
29.138587
 20
48.401313
  0
LWPOLYLINE
  8
0
 62
7
 90
5
 70
1
 10
28.022550
 20
50.712713
 10
26.906512
 20
50.712713
 10
26.906512
 20
49.496637
 10
29.138587
 20
49.496637
 10
29.138587
 20
50.712713
  0
LWPOLYLINE
  8
0
 62
7
 90
5
 70
1
 10
21.824750
 20
49.591712
 10
20.726313
 20
49.591712
 10
20.726313
 20
45.994838
 10
22.923188
 20
45.994838
 10
22.923188
 20
49.591712
  0
LWPOLYLINE
  8
0
 62
7
 90
5
 70
1
 10
86.875000
 20
24.887188
 10
86.126563
 20
24.887188
 10
86.126563
 20
24.140313
 10
87.623437
 20
24.140313
 10
87.623437
 20
24.887188
  0
LWPOLYLINE
  8
0
 62
7
 90
5
 70
1
 10
86.875000
 20
23.787188
 10
86.126563
 20
23.787188
 10
86.126563
 20
23.040312
 10
87.623437
 20
23.040312
 10
87.623437
 20
23.787188
  0
LWPOLYLINE
  8
0
 62
7
 90
5
 70
1
 10
86.875000
 20
22.687188
 10
86.126563
 20
22.687188
 10
86.126563
 20
21.940312
 10
87.623437
 20
21.940312
 10
87.623437
 20
22.687188
  0
LWPOLYLINE
  8
0
 62
7
 90
5
 70
1
 10
86.875000
 20
21.587188
 10
86.126563
 20
21.587188
 10
86.126563
 20
20.840312
 10
87.623437
 20
20.840312
 10
87.623437
 20
21.587188
  0
LWPOLYLINE
  8
0
 62
7
 90
5
 70
1
 10
86.875000
 20
20.487188
 10
86.126563
 20
20.487188
 10
86.126563
 20
19.740312
 10
87.623437
 20
19.740312
 10
87.623437
 20
20.487188
  0
LWPOLYLINE
  8
0
 62
7
 90
5
 70
1
 10
86.875000
 20
19.387188
 10
86.126563
 20
19.387188
 10
86.126563
 20
18.640313
 10
87.623437
 20
18.640313
 10
87.623437
 20
19.387188
  0
LWPOLYLINE
  8
0
 62
7
 90
5
 70
1
 10
86.875000
 20
18.287188
 10
86.126563
 20
18.287188
 10
86.126563
 20
17.540312
 10
87.623437
 20
17.540312
 10
87.623437
 20
18.287188
  0
LWPOLYLINE
  8
0
 62
7
 90
5
 70
1
 10
86.875000
 20
17.187188
 10
86.126563
 20
17.187188
 10
86.126563
 20
16.440312
 10
87.623437
 20
16.440312
 10
87.623437
 20
17.187188
  0
LWPOLYLINE
  8
0
 62
7
 90
5
 70
1
 10
86.875000
 20
27.287188
 10
86.126563
 20
27.287188
 10
86.126563
 20
26.540312
 10
87.623437
 20
26.540312
 10
87.623437
 20
27.287188
  0
LWPOLYLINE
  8
0
 62
7
 90
5
 70
1
 10
86.875000
 20
26.187188
 10
86.126563
 20
26.187188
 10
86.126563
 20
25.440312
 10
87.623437
 20
25.440312
 10
87.623437
 20
26.187188
  0
LWPOLYLINE
  8
0
 62
7
 90
5
 70
1
 10
95.650000
 20
17.737188
 10
95.151563
 20
17.737188
 10
95.151563
 20
16.340312
 10
96.148438
 20
16.340312
 10
96.148438
 20
17.737188
  0
LWPOLYLINE
  8
0
 62
7
 90
5
 70
1
 10
95.151563
 20
26.363750
 10
95.151563
 20
25.715312
 10
96.148438
 20
25.715312
 10
96.148438
 20
27.012187
 10
95.151563
 20
27.012187
  0
LWPOLYLINE
  8
0
 62
7
 90
5
 70
1
 10
95.550000
 20
15.262187
 10
94.876562
 20
15.262187
 10
94.876562
 20
13.765313
 10
96.223438
 20
13.765313
 10
96.223438
 20
15.262187
  0
LWPOLYLINE
  8
0
 62
7
 90
5
 70
1
 10
95.500000
 20
29.412188
 10
94.826562
 20
29.412188
 10
94.826562
 20
27.915312
 10
96.173438
 20
27.915312
 10
96.173438
 20
29.412188
  0
LWPOLYLINE
  8
0
 62
7
 90
5
 70
1
 10
106.563500
 20
50.272950
 10
106.563500
 20
101.758750
 10
-5.664200
 20
101.758750
 10
-5.664200
 20
-1.212850
 10
106.563500
 20
-1.212850
  0
ENDSEC
  0
EOF
