  0
SECTION
  2
HEADER
  9
$ACADVER
  1
AC1009
  9
$MEASUREMENT
 70
     1
  0
ENDSEC
  0
SECTION
  2
ENTITIES
  0
LWPOLYLINE
  8
0
 62
7
 90
5
 70
1
 10
50.084037
 20
23.363750
 10
50.084037
 20
23.997187
 10
49.452163
 20
23.997187
 10
49.452163
 20
22.730313
 10
50.084037
 20
22.730313
  0
LWPOLYLINE
  8
0
 62
7
 90
5
 70
1
 10
50.907837
 20
23.363750
 10
50.907837
 20
23.997187
 10
50.275963
 20
23.997187
 10
50.275963
 20
22.730313
 10
50.907837
 20
22.730313
  0
LWPOLYLINE
  8
0
 62
7
 90
5
 70
1
 10
53.284037
 20
23.363750
 10
53.284037
 20
23.997187
 10
52.652163
 20
23.997187
 10
52.652163
 20
22.730313
 10
53.284037
 20
22.730313
  0
LWPOLYLINE
  8
0
 62
7
 90
5
 70
1
 10
54.107837
 20
23.363750
 10
54.107837
 20
23.997187
 10
53.475963
 20
23.997187
 10
53.475963
 20
22.730313
 10
54.107837
 20
22.730313
  0
LWPOLYLINE
  8
0
 62
7
 90
5
 70
1
 10
50.275963
 20
17.963750
 10
50.275963
 20
17.330313
 10
50.907837
 20
17.330313
 10
50.907837
 20
18.597188
 10
50.275963
 20
18.597188
  0
LWPOLYLINE
  8
0
 62
7
 90
5
 70
1
 10
49.452163
 20
17.963750
 10
49.452163
 20
17.330313
 10
50.084037
 20
17.330313
 10
50.084037
 20
18.597188
 10
49.452163
 20
18.597188
  0
LWPOLYLINE
  8
0
 62
7
 90
5
 70
1
 10
53.475963
 20
17.963750
 10
53.475963
 20
17.330313
 10
54.107837
 20
17.330313
 10
54.107837
 20
18.597188
 10
53.475963
 20
18.597188
  0
LWPOLYLINE
  8
0
 62
7
 90
5
 70
1
 10
52.652163
 20
17.963750
 10
52.652163
 20
17.330313
 10
53.284037
 20
17.330313
 10
53.284037
 20
18.597188
 10
52.652163
 20
18.597188
  0
LWPOLYLINE
  8
0
 62
7
 90
5
 70
1
 10
50.084037
 20
20.663750
 10
50.084037
 20
21.297187
 10
49.452163
 20
21.297187
 10
49.452163
 20
20.030313
 10
50.084037
 20
20.030313
  0
LWPOLYLINE
  8
0
 62
7
 90
5
 70
1
 10
50.907837
 20
20.663750
 10
50.907837
 20
21.297187
 10
50.275963
 20
21.297187
 10
50.275963
 20
20.030313
 10
50.907837
 20
20.030313
  0
LWPOLYLINE
  8
0
 62
7
 90
5
 70
1
 10
53.284037
 20
20.663750
 10
53.284037
 20
21.297187
 10
52.652163
 20
21.297187
 10
52.652163
 20
20.030313
 10
53.284037
 20
20.030313
  0
LWPOLYLINE
  8
0
 62
7
 90
5
 70
1
 10
54.107837
 20
20.663750
 10
54.107837
 20
21.297187
 10
53.475963
 20
21.297187
 10
53.475963
 20
20.030313
 10
54.107837
 20
20.030313
  0
LWPOLYLINE
  8
0
 62
7
 90
5
 70
1
 10
15.695638
 20
77.628750
 10
15.695638
 20
78.427287
 10
14.530362
 20
78.427287
 10
14.530362
 20
76.830213
 10
15.695638
 20
76.830213
  0
LWPOLYLINE
  8
0
 62
7
 90
5
 70
1
 10
17.219638
 20
77.628750
 10
17.219638
 20
78.427287
 10
16.054362
 20
78.427287
 10
16.054362
 20
76.830213
 10
17.219638
 20
76.830213
  0
LWPOLYLINE
  8
0
 62
7
 90
5
 70
1
 10
15.695638
 20
80.168750
 10
15.695638
 20
80.967287
 10
14.530362
 20
80.967287
 10
14.530362
 20
79.370213
 10
15.695638
 20
79.370213
  0
LWPOLYLINE
  8
0
 62
7
 90
5
 70
1
 10
17.219638
 20
80.168750
 10
17.219638
 20
80.967287
 10
16.054362
 20
80.967287
 10
16.054362
 20
79.370213
 10
17.219638
 20
79.370213
  0
LWPOLYLINE
  8
0
 62
7
 90
5
 70
1
 10
15.695638
 20
82.708750
 10
15.695638
 20
83.507287
 10
14.530362
 20
83.507287
 10
14.530362
 20
81.910213
 10
15.695638
 20
81.910213
  0
LWPOLYLINE
  8
0
 62
7
 90
5
 70
1
 10
17.219638
 20
82.708750
 10
17.219638
 20
83.507287
 10
16.054362
 20
83.507287
 10
16.054362
 20
81.910213
 10
17.219638
 20
81.910213
  0
LWPOLYLINE
  8
0
 62
7
 90
5
 70
1
 10
30.935638
 20
77.628750
 10
30.935638
 20
78.427287
 10
29.770363
 20
78.427287
 10
29.770363
 20
76.830213
 10
30.935638
 20
76.830213
  0
LWPOLYLINE
  8
0
 62
7
 90
5
 70
1
 10
32.459637
 20
77.628750
 10
32.459637
 20
78.427287
 10
31.294362
 20
78.427287
 10
31.294362
 20
76.830213
 10
32.459637
 20
76.830213
  0
LWPOLYLINE
  8
0
 62
7
 90
5
 70
1
 10
30.935638
 20
80.168750
 10
30.935638
 20
80.967287
 10
29.770363
 20
80.967287
 10
29.770363
 20
79.370213
 10
30.935638
 20
79.370213
  0
LWPOLYLINE
  8
0
 62
7
 90
5
 70
1
 10
32.459637
 20
80.168750
 10
32.459637
 20
80.967287
 10
31.294362
 20
80.967287
 10
31.294362
 20
79.370213
 10
32.459637
 20
79.370213
  0
LWPOLYLINE
  8
0
 62
7
 90
5
 70
1
 10
30.935638
 20
82.708750
 10
30.935638
 20
83.507287
 10
29.770363
 20
83.507287
 10
29.770363
 20
81.910213
 10
30.935638
 20
81.910213
  0
LWPOLYLINE
  8
0
 62
7
 90
5
 70
1
 10
32.459637
 20
82.708750
 10
32.459637
 20
83.507287
 10
31.294362
 20
83.507287
 10
31.294362
 20
81.910213
 10
32.459637
 20
81.910213
  0
LWPOLYLINE
  8
0
 62
7
 90
5
 70
1
 10
46.175638
 20
77.628750
 10
46.175638
 20
78.427287
 10
45.010363
 20
78.427287
 10
45.010363
 20
76.830213
 10
46.175638
 20
76.830213
  0
LWPOLYLINE
  8
0
 62
7
 90
5
 70
1
 10
47.699637
 20
77.628750
 10
47.699637
 20
78.427287
 10
46.534363
 20
78.427287
 10
46.534363
 20
76.830213
 10
47.699637
 20
76.830213
  0
LWPOLYLINE
  8
0
 62
7
 90
5
 70
1
 10
46.175638
 20
80.168750
 10
46.175638
 20
80.967287
 10
45.010363
 20
80.967287
 10
45.010363
 20
79.370213
 10
46.175638
 20
79.370213
  0
LWPOLYLINE
  8
0
 62
7
 90
5
 70
1
 10
47.699637
 20
80.168750
 10
47.699637
 20
80.967287
 10
46.534363
 20
80.967287
 10
46.534363
 20
79.370213
 10
47.699637
 20
79.370213
  0
LWPOLYLINE
  8
0
 62
7
 90
5
 70
1
 10
46.175638
 20
82.708750
 10
46.175638
 20
83.507287
 10
45.010363
 20
83.507287
 10
45.010363
 20
81.910213
 10
46.175638
 20
81.910213
  0
LWPOLYLINE
  8
0
 62
7
 90
5
 70
1
 10
47.699637
 20
82.708750
 10
47.699637
 20
83.507287
 10
46.534363
 20
83.507287
 10
46.534363
 20
81.910213
 10
47.699637
 20
81.910213
  0
LWPOLYLINE
  8
0
 62
7
 90
5
 70
1
 10
61.415637
 20
77.628750
 10
61.415637
 20
78.427287
 10
60.250363
 20
78.427287
 10
60.250363
 20
76.830213
 10
61.415637
 20
76.830213
  0
LWPOLYLINE
  8
0
 62
7
 90
5
 70
1
 10
62.939637
 20
77.628750
 10
62.939637
 20
78.427287
 10
61.774363
 20
78.427287
 10
61.774363
 20
76.830213
 10
62.939637
 20
76.830213
  0
LWPOLYLINE
  8
0
 62
7
 90
5
 70
1
 10
61.415637
 20
80.168750
 10
61.415637
 20
80.967287
 10
60.250363
 20
80.967287
 10
60.250363
 20
79.370213
 10
61.415637
 20
79.370213
  0
LWPOLYLINE
  8
0
 62
7
 90
5
 70
1
 10
62.939637
 20
80.168750
 10
62.939637
 20
80.967287
 10
61.774363
 20
80.967287
 10
61.774363
 20
79.370213
 10
62.939637
 20
79.370213
  0
LWPOLYLINE
  8
0
 62
7
 90
5
 70
1
 10
61.415637
 20
82.708750
 10
61.415637
 20
83.507287
 10
60.250363
 20
83.507287
 10
60.250363
 20
81.910213
 10
61.415637
 20
81.910213
  0
LWPOLYLINE
  8
0
 62
7
 90
5
 70
1
 10
62.939637
 20
82.708750
 10
62.939637
 20
83.507287
 10
61.774363
 20
83.507287
 10
61.774363
 20
81.910213
 10
62.939637
 20
81.910213
  0
LWPOLYLINE
  8
0
 62
7
 90
5
 70
1
 10
76.655637
 20
77.628750
 10
76.655637
 20
78.427287
 10
75.490362
 20
78.427287
 10
75.490362
 20
76.830213
 10
76.655637
 20
76.830213
  0
LWPOLYLINE
  8
0
 62
7
 90
5
 70
1
 10
78.179637
 20
77.628750
 10
78.179637
 20
78.427287
 10
77.014362
 20
78.427287
 10
77.014362
 20
76.830213
 10
78.179637
 20
76.830213
  0
LWPOLYLINE
  8
0
 62
7
 90
5
 70
1
 10
76.655637
 20
80.168750
 10
76.655637
 20
80.967287
 10
75.490362
 20
80.967287
 10
75.490362
 20
79.370213
 10
76.655637
 20
79.370213
  0
LWPOLYLINE
  8
0
 62
7
 90
5
 70
1
 10
78.179637
 20
80.168750
 10
78.179637
 20
80.967287
 10
77.014362
 20
80.967287
 10
77.014362
 20
79.370213
 10
78.179637
 20
79.370213
  0
LWPOLYLINE
  8
0
 62
7
 90
5
 70
1
 10
76.655637
 20
82.708750
 10
76.655637
 20
83.507287
 10
75.490362
 20
83.507287
 10
75.490362
 20
81.910213
 10
76.655637
 20
81.910213
  0
LWPOLYLINE
  8
0
 62
7
 90
5
 70
1
 10
78.179637
 20
82.708750
 10
78.179637
 20
83.507287
 10
77.014362
 20
83.507287
 10
77.014362
 20
81.910213
 10
78.179637
 20
81.910213
  0
LWPOLYLINE
  8
0
 62
7
 90
5
 70
1
 10
91.895638
 20
77.628750
 10
91.895638
 20
78.427287
 10
90.730362
 20
78.427287
 10
90.730362
 20
76.830213
 10
91.895638
 20
76.830213
  0
LWPOLYLINE
  8
0
 62
7
 90
5
 70
1
 10
93.419638
 20
77.628750
 10
93.419638
 20
78.427287
 10
92.254362
 20
78.427287
 10
92.254362
 20
76.830213
 10
93.419638
 20
76.830213
  0
LWPOLYLINE
  8
0
 62
7
 90
5
 70
1
 10
91.895638
 20
80.168750
 10
91.895638
 20
80.967287
 10
90.730362
 20
80.967287
 10
90.730362
 20
79.370213
 10
91.895638
 20
79.370213
  0
LWPOLYLINE
  8
0
 62
7
 90
5
 70
1
 10
93.419638
 20
80.168750
 10
93.419638
 20
80.967287
 10
92.254362
 20
80.967287
 10
92.254362
 20
79.370213
 10
93.419638
 20
79.370213
  0
LWPOLYLINE
  8
0
 62
7
 90
5
 70
1
 10
91.895638
 20
82.708750
 10
91.895638
 20
83.507287
 10
90.730362
 20
83.507287
 10
90.730362
 20
81.910213
 10
91.895638
 20
81.910213
  0
LWPOLYLINE
  8
0
 62
7
 90
5
 70
1
 10
93.419638
 20
82.708750
 10
93.419638
 20
83.507287
 10
92.254362
 20
83.507287
 10
92.254362
 20
81.910213
 10
93.419638
 20
81.910213
  0
LWPOLYLINE
  8
0
 62
7
 90
5
 70
1
 10
106.563500
 20
50.272950
 10
106.563500
 20
101.758750
 10
-5.664200
 20
101.758750
 10
-5.664200
 20
-1.212850
 10
106.563500
 20
-1.212850
  0
ENDSEC
  0
EOF
