G75*
G70*
%OFA0B0*%
%FSLAX24Y24*%
%IPPOS*%
%LPD*%
%AMOC8*
5,1,8,0,0,1.08239X$1,22.5*
%
%ADD10C,0.0100*%
%ADD11C,0.0030*%
%ADD12C,0.0080*%
%ADD13C,0.0055*%
%ADD14C,0.0070*%
%ADD15C,0.0050*%
%ADD16C,0.0140*%
%ADD17C,0.0040*%
%ADD18C,0.0200*%
%ADD19C,0.0060*%
%ADD20C,0.0000*%
D10*
X002393Y001821D02*
X002330Y038999D01*
X002331Y038998D02*
X002328Y039067D01*
X002329Y039135D01*
X002334Y039203D01*
X002343Y039271D01*
X002355Y039339D01*
X002371Y039405D01*
X002390Y039471D01*
X002413Y039535D01*
X002440Y039599D01*
X002470Y039660D01*
X002503Y039720D01*
X002539Y039778D01*
X002578Y039834D01*
X002621Y039888D01*
X002666Y039939D01*
X002714Y039988D01*
X002764Y040034D01*
X002817Y040078D01*
X002873Y040118D01*
X002930Y040156D01*
X002989Y040190D01*
X003050Y040221D01*
X003113Y040249D01*
X003177Y040273D01*
X003242Y040294D01*
X003308Y040311D01*
X003375Y040324D01*
X003443Y040334D01*
X003511Y040340D01*
X003511Y040341D02*
X040913Y040341D01*
X040983Y040333D01*
X041052Y040321D01*
X041121Y040306D01*
X041188Y040287D01*
X041255Y040264D01*
X041320Y040238D01*
X041384Y040208D01*
X041446Y040175D01*
X041506Y040138D01*
X041564Y040098D01*
X041619Y040056D01*
X041673Y040010D01*
X041724Y039961D01*
X041772Y039910D01*
X041817Y039856D01*
X041859Y039800D01*
X041898Y039741D01*
X041934Y039681D01*
X041967Y039619D01*
X041996Y039555D01*
X042022Y039489D01*
X042044Y039423D01*
X042062Y039355D01*
X042077Y039286D01*
X042088Y039217D01*
X042095Y039147D01*
X042099Y039077D01*
X042098Y039006D01*
X042094Y038936D01*
X042094Y001759D01*
X042095Y001759D02*
X042081Y001685D01*
X042063Y001613D01*
X042042Y001541D01*
X042016Y001471D01*
X041988Y001402D01*
X041955Y001334D01*
X041919Y001269D01*
X041880Y001205D01*
X041837Y001144D01*
X041792Y001085D01*
X041743Y001028D01*
X041691Y000974D01*
X041637Y000923D01*
X041580Y000874D01*
X041520Y000829D01*
X041459Y000787D01*
X041395Y000748D01*
X041329Y000712D01*
X041261Y000680D01*
X041192Y000652D01*
X041122Y000627D01*
X041050Y000606D01*
X040977Y000589D01*
X040904Y000576D01*
X040829Y000566D01*
X040755Y000561D01*
X040680Y000559D01*
X040605Y000561D01*
X040531Y000567D01*
X040457Y000577D01*
X040456Y000578D02*
X003699Y000578D01*
X003698Y000577D02*
X003629Y000578D01*
X003560Y000581D01*
X003492Y000589D01*
X003424Y000600D01*
X003356Y000615D01*
X003290Y000634D01*
X003224Y000656D01*
X003160Y000682D01*
X003098Y000711D01*
X003037Y000744D01*
X002978Y000779D01*
X002921Y000818D01*
X002866Y000860D01*
X002813Y000905D01*
X002763Y000953D01*
X002716Y001003D01*
X002671Y001056D01*
X002630Y001111D01*
X002591Y001168D01*
X002555Y001227D01*
X002523Y001288D01*
X002494Y001351D01*
X002469Y001415D01*
X002447Y001481D01*
X002429Y001547D01*
X002414Y001615D01*
X002403Y001683D01*
X002396Y001752D01*
X002392Y001821D01*
X035361Y006046D02*
X040125Y006046D01*
X040676Y006675D02*
X040676Y010061D01*
X040681Y010099D01*
X040690Y010137D01*
X040703Y010174D01*
X040719Y010209D01*
X040739Y010243D01*
X040762Y010274D01*
X040788Y010303D01*
X040817Y010329D01*
X040849Y010352D01*
X040882Y010371D01*
X040918Y010388D01*
X040954Y010400D01*
X040992Y010409D01*
X041031Y010414D01*
X041070Y010415D01*
X041070Y010416D02*
X041098Y010418D01*
X041126Y010423D01*
X041154Y010431D01*
X041180Y010443D01*
X041204Y010458D01*
X041226Y010475D01*
X041247Y010496D01*
X041264Y010518D01*
X041279Y010542D01*
X041291Y010568D01*
X041299Y010596D01*
X041304Y010624D01*
X041306Y010652D01*
X041306Y011242D01*
X040519Y011597D02*
X035322Y011597D01*
X035322Y009668D01*
X035322Y008605D02*
X035322Y007423D01*
X035361Y006360D02*
X035361Y006046D01*
X035952Y012187D02*
X037566Y012187D01*
X035952Y012187D02*
X035952Y016990D01*
X037527Y016990D01*
X039141Y016951D02*
X040716Y016951D01*
X040716Y012187D02*
X039141Y012187D01*
D11*
X039177Y002476D02*
X038983Y002476D01*
X038882Y002476D02*
X038737Y002476D01*
X038688Y002428D01*
X038688Y002331D01*
X038737Y002283D01*
X038882Y002283D01*
X038882Y002186D02*
X038882Y002476D01*
X038785Y002283D02*
X038688Y002186D01*
X038587Y002283D02*
X038587Y002476D01*
X038587Y002283D02*
X038491Y002186D01*
X038394Y002283D01*
X038394Y002476D01*
X038293Y002428D02*
X038244Y002476D01*
X038148Y002476D01*
X038099Y002428D01*
X038099Y002235D01*
X038148Y002186D01*
X038244Y002186D01*
X038293Y002235D01*
X038293Y002428D01*
X038062Y002147D02*
X038062Y001953D01*
X038159Y002050D02*
X037965Y002050D01*
X037909Y002098D02*
X037860Y002050D01*
X037764Y002050D01*
X037715Y002002D01*
X037715Y001953D01*
X037764Y001905D01*
X037860Y001905D01*
X037909Y001953D01*
X037909Y002098D02*
X037909Y002147D01*
X037860Y002195D01*
X037764Y002195D01*
X037715Y002147D01*
X037614Y002195D02*
X037517Y002195D01*
X037566Y002195D02*
X037566Y001905D01*
X037614Y001905D02*
X037517Y001905D01*
X037418Y001953D02*
X037369Y001905D01*
X037273Y001905D01*
X037224Y001953D01*
X037224Y002050D01*
X037321Y002050D01*
X037418Y002147D02*
X037418Y001953D01*
X037418Y002147D02*
X037369Y002195D01*
X037273Y002195D01*
X037224Y002147D01*
X038965Y002050D02*
X039159Y002050D01*
X039177Y002186D02*
X038983Y002186D01*
X039080Y002331D02*
X039177Y002331D01*
X039278Y002283D02*
X039278Y002235D01*
X039326Y002186D01*
X039423Y002186D01*
X039471Y002235D01*
X039423Y002331D02*
X039326Y002331D01*
X039278Y002283D01*
X039177Y002186D02*
X039177Y002476D01*
X039278Y002428D02*
X039326Y002476D01*
X039423Y002476D01*
X039471Y002428D01*
X039471Y002380D01*
X039423Y002331D01*
X025618Y007167D02*
X025618Y007397D01*
X025503Y007397D01*
X025465Y007358D01*
X025465Y007282D01*
X025503Y007243D01*
X025618Y007243D01*
X025542Y007243D02*
X025465Y007167D01*
X025379Y007167D02*
X025226Y007397D01*
X025140Y007358D02*
X025101Y007397D01*
X025024Y007397D01*
X024986Y007358D01*
X025140Y007205D01*
X025101Y007167D01*
X025024Y007167D01*
X024986Y007205D01*
X024986Y007358D01*
X025140Y007358D02*
X025140Y007205D01*
X025226Y007167D02*
X025379Y007397D01*
X025379Y007917D02*
X025226Y008147D01*
X025140Y008108D02*
X025101Y008147D01*
X025024Y008147D01*
X024986Y008108D01*
X025140Y007955D01*
X025101Y007917D01*
X025024Y007917D01*
X024986Y007955D01*
X024986Y008108D01*
X025140Y008108D02*
X025140Y007955D01*
X025226Y007917D02*
X025379Y008147D01*
X025465Y008147D02*
X025618Y008147D01*
X025542Y008147D02*
X025542Y007917D01*
X024243Y006991D02*
X024243Y006760D01*
X024090Y006760D01*
X024004Y006799D02*
X023966Y006760D01*
X023889Y006760D01*
X023851Y006799D01*
X023851Y006837D01*
X023889Y006875D01*
X023966Y006875D01*
X024004Y006914D01*
X024004Y006952D01*
X023966Y006991D01*
X023889Y006991D01*
X023851Y006952D01*
X023765Y006991D02*
X023649Y006991D01*
X023611Y006952D01*
X023611Y006875D01*
X023649Y006837D01*
X023765Y006837D01*
X023765Y006760D02*
X023765Y006991D01*
X023525Y006875D02*
X023372Y006875D01*
X023286Y006991D02*
X023132Y006991D01*
X023209Y006991D02*
X023209Y006760D01*
X023046Y006760D02*
X022893Y006991D01*
X023046Y006991D02*
X022893Y006760D01*
X022893Y006241D02*
X023046Y006010D01*
X023132Y006010D02*
X023209Y006087D01*
X023171Y006087D02*
X023286Y006087D01*
X023286Y006010D02*
X023286Y006241D01*
X023171Y006241D01*
X023132Y006202D01*
X023132Y006125D01*
X023171Y006087D01*
X023046Y006241D02*
X022893Y006010D01*
X023372Y006125D02*
X023525Y006125D01*
X023611Y006125D02*
X023649Y006087D01*
X023765Y006087D01*
X023765Y006010D02*
X023765Y006241D01*
X023649Y006241D01*
X023611Y006202D01*
X023611Y006125D01*
X023851Y006087D02*
X023889Y006125D01*
X023966Y006125D01*
X024004Y006164D01*
X024004Y006202D01*
X023966Y006241D01*
X023889Y006241D01*
X023851Y006202D01*
X023851Y006087D02*
X023851Y006049D01*
X023889Y006010D01*
X023966Y006010D01*
X024004Y006049D01*
X024090Y006010D02*
X024243Y006010D01*
X024243Y006241D01*
X024090Y006241D01*
X024167Y006125D02*
X024243Y006125D01*
X024243Y006875D02*
X024167Y006875D01*
X024243Y006991D02*
X024090Y006991D01*
X021559Y007505D02*
X021559Y007562D01*
X021502Y007618D01*
X021436Y007618D02*
X021351Y007618D01*
X021323Y007590D01*
X021323Y007533D01*
X021351Y007505D01*
X021436Y007505D01*
X021436Y007448D02*
X021436Y007618D01*
X021395Y007763D02*
X021281Y007763D01*
X021210Y007763D02*
X021210Y007933D01*
X021125Y007933D01*
X021097Y007905D01*
X021097Y007848D01*
X021125Y007820D01*
X021210Y007820D01*
X021154Y007820D02*
X021097Y007763D01*
X021026Y007763D02*
X020970Y007763D01*
X020998Y007763D02*
X020998Y007933D01*
X021026Y007933D02*
X020970Y007933D01*
X020904Y007877D02*
X020847Y007933D01*
X020790Y007877D01*
X020790Y007763D01*
X020719Y007763D02*
X020606Y007763D01*
X020535Y007763D02*
X020422Y007848D01*
X020535Y007933D01*
X020351Y007933D02*
X020351Y007763D01*
X020238Y007763D01*
X020167Y007792D02*
X020139Y007763D01*
X020082Y007763D01*
X020053Y007792D01*
X020053Y007820D01*
X020082Y007848D01*
X020139Y007848D01*
X020167Y007877D01*
X020167Y007905D01*
X020139Y007933D01*
X020082Y007933D01*
X020053Y007905D01*
X019983Y007933D02*
X019898Y007933D01*
X019869Y007905D01*
X019869Y007848D01*
X019898Y007820D01*
X019983Y007820D01*
X019983Y007763D02*
X019983Y007933D01*
X020238Y007933D02*
X020351Y007933D01*
X020351Y007848D02*
X020294Y007848D01*
X020308Y007562D02*
X020279Y007533D01*
X020279Y007448D01*
X020336Y007448D02*
X020336Y007533D01*
X020308Y007562D01*
X020336Y007533D02*
X020364Y007562D01*
X020393Y007562D01*
X020393Y007448D01*
X020463Y007448D02*
X020549Y007448D01*
X020577Y007477D01*
X020549Y007505D01*
X020463Y007505D01*
X020463Y007533D02*
X020463Y007448D01*
X020463Y007533D02*
X020492Y007562D01*
X020549Y007562D01*
X020645Y007562D02*
X020674Y007562D01*
X020730Y007505D01*
X020730Y007448D02*
X020730Y007562D01*
X020801Y007562D02*
X020886Y007562D01*
X020915Y007533D01*
X020915Y007477D01*
X020886Y007448D01*
X020801Y007448D01*
X020801Y007420D02*
X020801Y007562D01*
X020801Y007420D02*
X020829Y007392D01*
X020858Y007392D01*
X020985Y007477D02*
X020985Y007533D01*
X021014Y007562D01*
X021070Y007562D01*
X021099Y007533D01*
X021099Y007477D01*
X021070Y007448D01*
X021014Y007448D01*
X020985Y007477D01*
X021167Y007562D02*
X021195Y007562D01*
X021252Y007505D01*
X021252Y007448D02*
X021252Y007562D01*
X021395Y007763D02*
X021395Y007933D01*
X021281Y007933D01*
X021338Y007848D02*
X021395Y007848D01*
X021465Y007820D02*
X021465Y007792D01*
X021494Y007763D01*
X021550Y007763D01*
X021579Y007792D01*
X021550Y007848D02*
X021494Y007848D01*
X021465Y007820D01*
X021465Y007905D02*
X021494Y007933D01*
X021550Y007933D01*
X021579Y007905D01*
X021579Y007877D01*
X021550Y007848D01*
X021559Y007505D02*
X021502Y007448D01*
X020904Y007763D02*
X020904Y007877D01*
X020904Y007848D02*
X020790Y007848D01*
X020719Y007933D02*
X020719Y007763D01*
X020024Y007618D02*
X020024Y007448D01*
X019911Y007448D01*
X019840Y007477D02*
X019812Y007448D01*
X019755Y007448D01*
X019727Y007477D01*
X019727Y007505D01*
X019755Y007533D01*
X019812Y007533D01*
X019840Y007562D01*
X019840Y007590D01*
X019812Y007618D01*
X019755Y007618D01*
X019727Y007590D01*
X019656Y007618D02*
X019571Y007618D01*
X019543Y007590D01*
X019543Y007533D01*
X019571Y007505D01*
X019656Y007505D01*
X019656Y007448D02*
X019656Y007618D01*
X019472Y007618D02*
X019415Y007562D01*
X019415Y007505D01*
X019472Y007448D01*
X019911Y007618D02*
X020024Y007618D01*
X020024Y007533D02*
X019968Y007533D01*
X020044Y008511D02*
X020044Y008625D01*
X019987Y008625D02*
X019959Y008625D01*
X019987Y008625D02*
X020044Y008568D01*
X020110Y008511D02*
X020139Y008540D01*
X020139Y008653D01*
X020167Y008625D02*
X020110Y008625D01*
X020238Y008596D02*
X020238Y008511D01*
X020238Y008596D02*
X020266Y008625D01*
X020351Y008625D01*
X020351Y008511D01*
X020422Y008540D02*
X020422Y008596D01*
X020450Y008625D01*
X020507Y008625D01*
X020535Y008596D01*
X020535Y008540D01*
X020507Y008511D01*
X020450Y008511D01*
X020422Y008540D01*
X020606Y008540D02*
X020634Y008511D01*
X020691Y008511D01*
X020719Y008540D01*
X020719Y008653D01*
X020691Y008681D01*
X020634Y008681D01*
X020606Y008653D01*
X020658Y008826D02*
X020658Y008996D01*
X020601Y008940D01*
X020545Y008996D01*
X020545Y008826D01*
X020474Y008855D02*
X020445Y008826D01*
X020389Y008826D01*
X020360Y008855D01*
X020360Y008968D01*
X020389Y008996D01*
X020445Y008996D01*
X020474Y008968D01*
X020474Y008855D01*
X020290Y008855D02*
X020290Y008968D01*
X020261Y008996D01*
X020205Y008996D01*
X020176Y008968D01*
X020176Y008855D01*
X020205Y008826D01*
X020261Y008826D01*
X020290Y008855D01*
X020106Y008996D02*
X019992Y008996D01*
X020049Y008996D02*
X020049Y008826D01*
X019921Y008826D02*
X019921Y008996D01*
X019921Y008911D02*
X019808Y008911D01*
X019808Y008996D02*
X019808Y008826D01*
X019737Y008826D02*
X019680Y008826D01*
X019709Y008826D02*
X019709Y008996D01*
X019737Y008996D02*
X019680Y008996D01*
X019614Y008996D02*
X019614Y008826D01*
X019501Y008826D01*
X019558Y008911D02*
X019614Y008911D01*
X019614Y008996D02*
X019501Y008996D01*
X019584Y008681D02*
X019527Y008625D01*
X019527Y008568D01*
X019584Y008511D01*
X019650Y008511D02*
X019707Y008511D01*
X019678Y008511D02*
X019678Y008681D01*
X019707Y008681D01*
X019777Y008596D02*
X019806Y008625D01*
X019862Y008625D01*
X019891Y008596D01*
X019891Y008540D01*
X019862Y008511D01*
X019806Y008511D01*
X019777Y008540D01*
X019777Y008596D01*
X020729Y008855D02*
X020757Y008826D01*
X020814Y008826D01*
X020842Y008855D01*
X020814Y008911D02*
X020757Y008911D01*
X020729Y008883D01*
X020729Y008855D01*
X020814Y008911D02*
X020842Y008940D01*
X020842Y008968D01*
X020814Y008996D01*
X020757Y008996D01*
X020729Y008968D01*
X020913Y008911D02*
X021026Y008826D01*
X021097Y008911D02*
X021125Y008883D01*
X021210Y008883D01*
X021210Y008826D02*
X021210Y008996D01*
X021125Y008996D01*
X021097Y008968D01*
X021097Y008911D01*
X021026Y008996D02*
X020913Y008911D01*
X020998Y008710D02*
X020998Y008681D01*
X020998Y008625D02*
X020998Y008511D01*
X021026Y008511D02*
X020970Y008511D01*
X020998Y008625D02*
X021026Y008625D01*
X021092Y008596D02*
X021149Y008596D01*
X021121Y008653D02*
X021092Y008681D01*
X021121Y008653D02*
X021121Y008511D01*
X021215Y008511D02*
X021272Y008511D01*
X021243Y008511D02*
X021243Y008625D01*
X021272Y008625D01*
X021243Y008681D02*
X021243Y008710D01*
X021343Y008681D02*
X021343Y008511D01*
X021399Y008568D01*
X021456Y008511D01*
X021456Y008681D01*
X021522Y008681D02*
X021579Y008625D01*
X021579Y008568D01*
X021522Y008511D01*
X021579Y008826D02*
X021465Y008826D01*
X021395Y008855D02*
X021366Y008826D01*
X021310Y008826D01*
X021281Y008855D01*
X021281Y008883D01*
X021310Y008911D01*
X021366Y008911D01*
X021395Y008940D01*
X021395Y008968D01*
X021366Y008996D01*
X021310Y008996D01*
X021281Y008968D01*
X021465Y008996D02*
X021579Y008996D01*
X021579Y008826D01*
X021579Y008911D02*
X021522Y008911D01*
X021522Y009594D02*
X021579Y009651D01*
X021579Y009707D01*
X021522Y009764D01*
X021456Y009764D02*
X021371Y009764D01*
X021343Y009736D01*
X021343Y009707D01*
X021371Y009679D01*
X021456Y009679D01*
X021456Y009594D02*
X021371Y009594D01*
X021343Y009622D01*
X021343Y009651D01*
X021371Y009679D01*
X021272Y009679D02*
X021272Y009622D01*
X021243Y009594D01*
X021187Y009594D01*
X021158Y009622D01*
X021158Y009679D01*
X021187Y009707D01*
X021243Y009707D01*
X021272Y009679D01*
X021088Y009679D02*
X021088Y009622D01*
X021059Y009594D01*
X021003Y009594D01*
X020974Y009622D01*
X020974Y009679D01*
X021003Y009707D01*
X021059Y009707D01*
X021088Y009679D01*
X020904Y009707D02*
X020847Y009707D01*
X020875Y009736D02*
X020875Y009622D01*
X020847Y009594D01*
X020781Y009594D02*
X020724Y009594D01*
X020752Y009594D02*
X020752Y009764D01*
X020781Y009764D01*
X020790Y009889D02*
X020790Y010003D01*
X020847Y010059D01*
X020904Y010003D01*
X020904Y009889D01*
X020970Y009889D02*
X021026Y009889D01*
X020998Y009889D02*
X020998Y010059D01*
X021026Y010059D02*
X020970Y010059D01*
X020904Y009974D02*
X020790Y009974D01*
X020719Y009889D02*
X020606Y009889D01*
X020535Y009889D02*
X020422Y009974D01*
X020535Y010059D01*
X020719Y010059D02*
X020719Y009889D01*
X020630Y009707D02*
X020658Y009679D01*
X020658Y009622D01*
X020630Y009594D01*
X020573Y009594D01*
X020545Y009622D01*
X020545Y009679D01*
X020573Y009707D01*
X020630Y009707D01*
X020474Y009622D02*
X020445Y009651D01*
X020360Y009651D01*
X020360Y009679D02*
X020360Y009594D01*
X020445Y009594D01*
X020474Y009622D01*
X020445Y009707D02*
X020389Y009707D01*
X020360Y009679D01*
X020290Y009679D02*
X020261Y009707D01*
X020176Y009707D01*
X020176Y009764D02*
X020176Y009594D01*
X020261Y009594D01*
X020290Y009622D01*
X020290Y009679D01*
X020106Y009594D02*
X020049Y009651D01*
X020049Y009707D01*
X020106Y009764D01*
X020053Y009889D02*
X020053Y010059D01*
X020110Y010003D01*
X020167Y010059D01*
X020167Y009889D01*
X020238Y009918D02*
X020266Y009889D01*
X020323Y009889D01*
X020351Y009918D01*
X020323Y009974D02*
X020266Y009974D01*
X020238Y009946D01*
X020238Y009918D01*
X020323Y009974D02*
X020351Y010003D01*
X020351Y010031D01*
X020323Y010059D01*
X020266Y010059D01*
X020238Y010031D01*
X019983Y010031D02*
X019983Y009918D01*
X019954Y009889D01*
X019898Y009889D01*
X019869Y009918D01*
X019869Y010031D01*
X019898Y010059D01*
X019954Y010059D01*
X019983Y010031D01*
X019799Y010031D02*
X019799Y009918D01*
X019770Y009889D01*
X019714Y009889D01*
X019685Y009918D01*
X019685Y010031D01*
X019714Y010059D01*
X019770Y010059D01*
X019799Y010031D01*
X019614Y010059D02*
X019501Y010059D01*
X019558Y010059D02*
X019558Y009889D01*
X019430Y009889D02*
X019430Y010059D01*
X019430Y009974D02*
X019317Y009974D01*
X019317Y010059D02*
X019317Y009889D01*
X019246Y009889D02*
X019189Y009889D01*
X019218Y009889D02*
X019218Y010059D01*
X019246Y010059D02*
X019189Y010059D01*
X019123Y010059D02*
X019123Y009889D01*
X019010Y009889D01*
X019067Y009974D02*
X019123Y009974D01*
X019123Y010059D02*
X019010Y010059D01*
X021097Y010031D02*
X021097Y009974D01*
X021125Y009946D01*
X021210Y009946D01*
X021154Y009946D02*
X021097Y009889D01*
X021210Y009889D02*
X021210Y010059D01*
X021125Y010059D01*
X021097Y010031D01*
X021281Y010059D02*
X021395Y010059D01*
X021395Y009889D01*
X021281Y009889D01*
X021338Y009974D02*
X021395Y009974D01*
X021465Y009946D02*
X021465Y009918D01*
X021494Y009889D01*
X021550Y009889D01*
X021579Y009918D01*
X021550Y009974D02*
X021494Y009974D01*
X021465Y009946D01*
X021465Y010031D02*
X021494Y010059D01*
X021550Y010059D01*
X021579Y010031D01*
X021579Y010003D01*
X021550Y009974D01*
X021456Y009764D02*
X021456Y009594D01*
D12*
X022007Y009382D02*
X023346Y009382D01*
X023188Y009107D02*
X022165Y009107D01*
X022283Y008319D02*
X023306Y008319D01*
X023346Y010170D02*
X022125Y010170D01*
X020335Y019370D02*
X020248Y019370D01*
X020161Y019456D01*
X020161Y019890D01*
X020422Y019890D01*
X020508Y019803D01*
X020508Y019630D01*
X020422Y019543D01*
X020161Y019543D01*
X019956Y019543D02*
X019956Y019890D01*
X019696Y019890D01*
X019609Y019803D01*
X019609Y019543D01*
X019403Y019630D02*
X019403Y019803D01*
X019317Y019890D01*
X019143Y019890D01*
X019056Y019803D01*
X019056Y019717D01*
X019403Y019717D01*
X019403Y019630D02*
X019317Y019543D01*
X019143Y019543D01*
X018851Y019630D02*
X018851Y019803D01*
X018764Y019890D01*
X018504Y019890D01*
X018504Y020064D02*
X018504Y019543D01*
X018764Y019543D01*
X018851Y019630D01*
X017746Y019543D02*
X017486Y019543D01*
X017399Y019630D01*
X017399Y019803D01*
X017486Y019890D01*
X017746Y019890D01*
X017746Y020064D02*
X017746Y019543D01*
X017194Y019630D02*
X017107Y019543D01*
X016847Y019543D01*
X016847Y019456D02*
X016933Y019370D01*
X017020Y019370D01*
X016847Y019456D02*
X016847Y019890D01*
X017194Y019890D02*
X017194Y019630D01*
X016089Y019717D02*
X015828Y019717D01*
X015742Y019803D01*
X015742Y019977D01*
X015828Y020064D01*
X016089Y020064D01*
X016089Y019543D01*
X015915Y019717D02*
X015742Y019543D01*
X015536Y019630D02*
X015449Y019717D01*
X015189Y019717D01*
X015189Y019803D02*
X015189Y019543D01*
X015449Y019543D01*
X015536Y019630D01*
X015449Y019890D02*
X015276Y019890D01*
X015189Y019803D01*
X014984Y019890D02*
X014984Y019630D01*
X014897Y019543D01*
X014637Y019543D01*
X014637Y019456D02*
X014723Y019370D01*
X014810Y019370D01*
X014637Y019456D02*
X014637Y019890D01*
X013879Y019717D02*
X013532Y020064D01*
X013326Y020064D02*
X013326Y019543D01*
X013532Y019543D02*
X013792Y019803D01*
X013879Y019543D02*
X013879Y020064D01*
X013326Y019803D02*
X013239Y019890D01*
X013066Y019890D01*
X012979Y019803D01*
X012979Y019543D01*
X012774Y019630D02*
X012687Y019543D01*
X012514Y019543D01*
X012427Y019630D01*
X012427Y019803D01*
X012514Y019890D01*
X012687Y019890D01*
X012774Y019803D01*
X012774Y019630D01*
X012221Y019543D02*
X012048Y019543D01*
X012135Y019543D02*
X012135Y020064D01*
X012221Y020064D01*
X011853Y019803D02*
X011853Y019630D01*
X011766Y019543D01*
X011593Y019543D01*
X011506Y019630D01*
X011506Y019803D01*
X011593Y019890D01*
X011766Y019890D01*
X011853Y019803D01*
X011301Y019803D02*
X011214Y019890D01*
X010954Y019890D01*
X010954Y020064D02*
X010954Y019543D01*
X011214Y019543D01*
X011301Y019630D01*
X011301Y019803D01*
X010748Y019803D02*
X010748Y019630D01*
X010661Y019543D01*
X010488Y019543D01*
X010401Y019630D01*
X010401Y019803D01*
X010488Y019890D01*
X010661Y019890D01*
X010748Y019803D01*
X010196Y019890D02*
X010022Y019543D01*
X009849Y019890D01*
X009643Y019803D02*
X009556Y019890D01*
X009296Y019890D01*
X009383Y019717D02*
X009296Y019630D01*
X009383Y019543D01*
X009643Y019543D01*
X009556Y019717D02*
X009643Y019803D01*
X009556Y019717D02*
X009383Y019717D01*
X009091Y019717D02*
X008830Y019890D01*
X008630Y019890D02*
X008630Y019630D01*
X008543Y019543D01*
X008283Y019543D01*
X008283Y019456D02*
X008370Y019370D01*
X008457Y019370D01*
X008283Y019456D02*
X008283Y019890D01*
X008830Y019543D02*
X009091Y019717D01*
X009091Y019543D02*
X009091Y020064D01*
X010853Y016279D02*
X010853Y015665D01*
X010853Y015972D02*
X009933Y015972D01*
X009933Y015359D02*
X010546Y015359D01*
X010853Y015052D01*
X010546Y014745D01*
X009933Y014745D01*
X009933Y014438D02*
X009933Y013824D01*
X010853Y013824D01*
X010853Y014438D01*
X010393Y014745D02*
X010393Y015359D01*
X009353Y015205D02*
X009353Y014745D01*
X008433Y014745D01*
X008433Y015205D01*
X008586Y015359D01*
X009200Y015359D01*
X009353Y015205D01*
X009353Y014438D02*
X009353Y013824D01*
X008433Y013824D01*
X008433Y014438D01*
X008893Y014131D02*
X008893Y013824D01*
X009046Y013517D02*
X008893Y013363D01*
X008893Y012903D01*
X009353Y012903D02*
X009353Y013363D01*
X009200Y013517D01*
X009046Y013517D01*
X008893Y013363D02*
X008739Y013517D01*
X008586Y013517D01*
X008433Y013363D01*
X008433Y012903D01*
X009353Y012903D01*
X009933Y012903D02*
X010853Y012903D01*
X010393Y012903D02*
X010393Y013517D01*
X010393Y013824D02*
X010393Y014131D01*
X010853Y013517D02*
X009933Y013517D01*
X007853Y013363D02*
X007700Y013517D01*
X007086Y013517D01*
X006933Y013363D01*
X006933Y013057D01*
X007086Y012903D01*
X007700Y012903D01*
X007853Y013057D01*
X007853Y013363D01*
X007853Y013824D02*
X007086Y013824D01*
X006933Y013977D01*
X006933Y014284D01*
X007086Y014438D01*
X007853Y014438D01*
X007853Y014745D02*
X007853Y015359D01*
X007853Y015052D02*
X006933Y015052D01*
X003916Y017166D02*
X003916Y017627D01*
X003762Y017780D01*
X003609Y017780D01*
X003455Y017627D01*
X003455Y017166D01*
X002995Y017166D02*
X002995Y017627D01*
X003148Y017780D01*
X003302Y017780D01*
X003455Y017627D01*
X003455Y018087D02*
X003609Y018241D01*
X003609Y018548D01*
X003455Y018701D01*
X003302Y018701D01*
X003302Y018087D01*
X003455Y018087D02*
X003148Y018087D01*
X002995Y018241D01*
X002995Y018548D01*
X003148Y019008D02*
X003455Y019008D01*
X003609Y019161D01*
X003609Y019622D01*
X003916Y019622D02*
X002995Y019622D01*
X002995Y019161D01*
X003148Y019008D01*
X002995Y017166D02*
X003916Y017166D01*
X003916Y020850D02*
X003302Y020850D01*
X002995Y021156D01*
X003302Y021463D01*
X003916Y021463D01*
X003916Y021770D02*
X003916Y022077D01*
X003916Y021924D02*
X002995Y021924D01*
X002995Y022077D02*
X002995Y021770D01*
X002995Y022384D02*
X003916Y022384D01*
X002995Y022998D01*
X003916Y022998D01*
X016122Y021602D02*
X016122Y021515D01*
X016469Y021168D01*
X016122Y021168D01*
X016674Y021515D02*
X016848Y021168D01*
X017021Y021515D01*
X017227Y021428D02*
X017227Y021342D01*
X017574Y021342D01*
X017574Y021428D02*
X017487Y021515D01*
X017313Y021515D01*
X017227Y021428D01*
X017313Y021168D02*
X017487Y021168D01*
X017574Y021255D01*
X017574Y021428D01*
X017774Y021515D02*
X017861Y021515D01*
X018034Y021342D01*
X018034Y021515D02*
X018034Y021168D01*
X016469Y021602D02*
X016382Y021689D01*
X016209Y021689D01*
X016122Y021602D01*
X020790Y020150D02*
X020790Y020064D01*
X020790Y019890D02*
X020790Y019543D01*
X020877Y019543D02*
X020703Y019543D01*
X020790Y019890D02*
X020877Y019890D01*
X021082Y019890D02*
X021342Y019890D01*
X021429Y019803D01*
X021342Y019717D01*
X021169Y019717D01*
X021082Y019630D01*
X021169Y019543D01*
X021429Y019543D01*
X021635Y019717D02*
X021982Y019717D01*
X021982Y019803D02*
X021895Y019890D01*
X021721Y019890D01*
X021635Y019803D01*
X021635Y019717D01*
X021721Y019543D02*
X021895Y019543D01*
X021982Y019630D01*
X021982Y019803D01*
X022187Y019630D02*
X022187Y019977D01*
X022274Y020064D01*
X022534Y020064D01*
X022534Y019543D01*
X022274Y019543D01*
X022187Y019630D01*
D13*
X022165Y008044D02*
X023188Y008044D01*
X023385Y007256D02*
X022086Y007256D01*
D14*
X022077Y001183D02*
X022077Y000753D01*
X021903Y000753D02*
X021760Y000753D01*
X021832Y000753D02*
X021832Y001183D01*
X021903Y001183D02*
X021760Y001183D01*
X021596Y001183D02*
X021310Y000753D01*
X021310Y001183D01*
X021596Y001183D02*
X021596Y000753D01*
X022077Y001183D02*
X022220Y001040D01*
X022364Y001183D01*
X022364Y000753D01*
X022537Y000968D02*
X022824Y000968D01*
X022998Y001112D02*
X023285Y000825D01*
X023285Y000753D01*
X022998Y000753D01*
X022998Y001112D02*
X022998Y001183D01*
X023285Y001183D01*
X024365Y001152D02*
X024652Y000722D01*
X024826Y000722D02*
X024826Y001009D01*
X024969Y001152D01*
X025112Y001009D01*
X025112Y000722D01*
X025286Y000722D02*
X025286Y001152D01*
X025429Y001009D01*
X025573Y001152D01*
X025573Y000722D01*
X025746Y000937D02*
X026033Y000937D01*
X026207Y001080D02*
X026207Y001152D01*
X026207Y001080D02*
X026350Y000937D01*
X026350Y000722D01*
X026350Y000937D02*
X026494Y001080D01*
X026494Y001152D01*
X027468Y001152D02*
X027468Y000722D01*
X027755Y001152D01*
X027755Y000722D01*
X027918Y000722D02*
X028061Y000722D01*
X027990Y000722D02*
X027990Y001152D01*
X028061Y001152D02*
X027918Y001152D01*
X028235Y001152D02*
X028235Y000722D01*
X028522Y000722D02*
X028522Y001152D01*
X028378Y001009D01*
X028235Y001152D01*
X028695Y000937D02*
X028982Y000937D01*
X029156Y001080D02*
X029156Y001152D01*
X029156Y001080D02*
X029299Y000937D01*
X029299Y000722D01*
X029299Y000937D02*
X029443Y001080D01*
X029443Y001152D01*
X030501Y001152D02*
X030788Y000722D01*
X030961Y000722D02*
X030961Y001009D01*
X031105Y001152D01*
X031248Y001009D01*
X031248Y000722D01*
X031422Y000722D02*
X031422Y001152D01*
X031565Y001009D01*
X031708Y001152D01*
X031708Y000722D01*
X031882Y000937D02*
X032169Y000937D01*
X032342Y001152D02*
X032629Y000722D01*
X032342Y000722D02*
X032629Y001152D01*
X033534Y001152D02*
X033534Y000722D01*
X033821Y001152D01*
X033821Y000722D01*
X033985Y000722D02*
X034128Y000722D01*
X034057Y000722D02*
X034057Y001152D01*
X034128Y001152D02*
X033985Y001152D01*
X034302Y001152D02*
X034302Y000722D01*
X034589Y000722D02*
X034589Y001152D01*
X034445Y001009D01*
X034302Y001152D01*
X034762Y000937D02*
X035049Y000937D01*
X035223Y001152D02*
X035509Y000722D01*
X035223Y000722D02*
X035509Y001152D01*
X031248Y000937D02*
X030961Y000937D01*
X030788Y001152D02*
X030501Y000722D01*
X025112Y000937D02*
X024826Y000937D01*
X024652Y001152D02*
X024365Y000722D01*
X020264Y000722D02*
X019977Y000722D01*
X019804Y000937D02*
X019517Y000937D01*
X019344Y001152D02*
X019200Y001009D01*
X019057Y001152D01*
X019057Y000722D01*
X018883Y000722D02*
X018883Y001009D01*
X018740Y001152D01*
X018596Y001009D01*
X018596Y000722D01*
X018423Y000722D02*
X018136Y001152D01*
X018423Y001152D02*
X018136Y000722D01*
X018596Y000937D02*
X018883Y000937D01*
X019344Y000722D02*
X019344Y001152D01*
X019977Y001152D02*
X019977Y001080D01*
X020264Y000793D01*
X020264Y000722D01*
X020264Y001152D02*
X019977Y001152D01*
X036589Y008196D02*
X036661Y008125D01*
X036876Y008125D01*
X036876Y008411D02*
X036589Y008411D01*
X036589Y008196D01*
X036661Y008585D02*
X036589Y008657D01*
X036589Y008800D01*
X036661Y008872D01*
X036733Y008872D01*
X036805Y008800D01*
X036805Y008657D01*
X036876Y008585D01*
X036948Y008585D01*
X037020Y008657D01*
X037020Y008800D01*
X036948Y008872D01*
X037020Y009045D02*
X036589Y009045D01*
X036589Y009260D01*
X036661Y009332D01*
X036948Y009332D01*
X037020Y009260D01*
X037020Y009045D01*
X041263Y005223D02*
X041593Y005223D01*
X041593Y005113D02*
X041593Y005333D01*
X041593Y004965D02*
X041593Y004745D01*
X041263Y004745D01*
X041263Y004965D01*
X041428Y004855D02*
X041428Y004745D01*
X041373Y004596D02*
X041318Y004596D01*
X041263Y004541D01*
X041263Y004431D01*
X041318Y004376D01*
X041428Y004431D02*
X041428Y004541D01*
X041373Y004596D01*
X041538Y004596D02*
X041593Y004541D01*
X041593Y004431D01*
X041538Y004376D01*
X041483Y004376D01*
X041428Y004431D01*
X041593Y004228D02*
X041593Y004008D01*
X041263Y004008D01*
X041263Y004228D01*
X041428Y004118D02*
X041428Y004008D01*
X041428Y003860D02*
X041373Y003805D01*
X041373Y003640D01*
X041373Y003750D02*
X041263Y003860D01*
X041428Y003860D02*
X041538Y003860D01*
X041593Y003805D01*
X041593Y003640D01*
X041263Y003640D01*
X039343Y013951D02*
X038984Y013951D01*
X038912Y014023D01*
X038912Y014166D01*
X038984Y014238D01*
X039343Y014238D01*
X039271Y014412D02*
X039199Y014412D01*
X039127Y014483D01*
X039127Y014627D01*
X039056Y014699D01*
X038984Y014699D01*
X038912Y014627D01*
X038912Y014483D01*
X038984Y014412D01*
X039271Y014412D02*
X039343Y014483D01*
X039343Y014627D01*
X039271Y014699D01*
X039343Y014872D02*
X039343Y015087D01*
X039271Y015159D01*
X039199Y015159D01*
X039127Y015087D01*
X039127Y014872D01*
X038912Y014872D02*
X039343Y014872D01*
X039127Y015087D02*
X039056Y015159D01*
X038984Y015159D01*
X038912Y015087D01*
X038912Y014872D01*
X035579Y021523D02*
X035507Y021523D01*
X035435Y021594D01*
X035435Y021953D01*
X035435Y021666D02*
X035651Y021666D01*
X035722Y021738D01*
X035722Y021953D01*
X035896Y021881D02*
X035968Y021953D01*
X036183Y021953D01*
X036183Y022097D02*
X036183Y021666D01*
X035968Y021666D01*
X035896Y021738D01*
X035896Y021881D01*
X036817Y021953D02*
X037032Y021953D01*
X037103Y021881D01*
X037103Y021738D01*
X037032Y021666D01*
X036817Y021666D01*
X036817Y022097D01*
X037277Y021881D02*
X037277Y021810D01*
X037564Y021810D01*
X037564Y021881D02*
X037492Y021953D01*
X037349Y021953D01*
X037277Y021881D01*
X037349Y021666D02*
X037492Y021666D01*
X037564Y021738D01*
X037564Y021881D01*
X037732Y021953D02*
X037804Y021953D01*
X037948Y021810D01*
X037948Y021953D02*
X037948Y021666D01*
X038121Y021810D02*
X038408Y021810D01*
X038408Y021881D02*
X038336Y021953D01*
X038193Y021953D01*
X038121Y021881D01*
X038121Y021810D01*
X038193Y021666D02*
X038336Y021666D01*
X038408Y021738D01*
X038408Y021881D01*
X038581Y021953D02*
X038581Y021738D01*
X038653Y021666D01*
X038725Y021738D01*
X038797Y021666D01*
X038868Y021738D01*
X038868Y021953D01*
X039042Y021881D02*
X039114Y021953D01*
X039257Y021953D01*
X039329Y021881D01*
X039329Y021738D01*
X039257Y021666D01*
X039114Y021666D01*
X039042Y021738D01*
X039042Y021881D01*
X039502Y021881D02*
X039574Y021810D01*
X039789Y021810D01*
X039789Y021666D02*
X039789Y022097D01*
X039574Y022097D01*
X039502Y022025D01*
X039502Y021881D01*
X039824Y022929D02*
X039752Y023001D01*
X039752Y023359D01*
X039967Y023359D01*
X040039Y023288D01*
X040039Y023144D01*
X039967Y023072D01*
X039752Y023072D01*
X039824Y022929D02*
X039896Y022929D01*
X039579Y023072D02*
X039435Y023072D01*
X039507Y023072D02*
X039507Y023359D01*
X039579Y023359D01*
X039507Y023503D02*
X039507Y023574D01*
X039507Y023663D02*
X039292Y023663D01*
X039292Y023878D01*
X039364Y023950D01*
X039507Y023950D01*
X039507Y023807D02*
X039292Y023807D01*
X039118Y023878D02*
X039047Y023950D01*
X038831Y023950D01*
X038903Y023807D02*
X039047Y023807D01*
X039118Y023878D01*
X039118Y023663D02*
X038903Y023663D01*
X038831Y023735D01*
X038903Y023807D01*
X038658Y023807D02*
X038371Y023807D01*
X038371Y023878D01*
X038443Y023950D01*
X038586Y023950D01*
X038658Y023878D01*
X038658Y023735D01*
X038586Y023663D01*
X038443Y023663D01*
X038198Y023735D02*
X038198Y023878D01*
X038126Y023950D01*
X037911Y023950D01*
X037911Y024094D02*
X037911Y023663D01*
X038126Y023663D01*
X038198Y023735D01*
X038044Y023503D02*
X038044Y023072D01*
X037829Y023072D01*
X037757Y023144D01*
X037757Y023288D01*
X037829Y023359D01*
X038044Y023359D01*
X038218Y023359D02*
X038218Y023072D01*
X038433Y023072D01*
X038504Y023144D01*
X038504Y023359D01*
X038678Y023288D02*
X038678Y023072D01*
X038678Y023288D02*
X038750Y023359D01*
X038893Y023359D01*
X038965Y023288D01*
X039128Y023359D02*
X039272Y023359D01*
X039200Y023431D02*
X039200Y023144D01*
X039128Y023072D01*
X038965Y023072D02*
X038965Y023503D01*
X039507Y023663D02*
X039579Y023735D01*
X039507Y023807D01*
X039752Y023807D02*
X039752Y023735D01*
X039824Y023663D01*
X040039Y023663D01*
X040039Y024094D01*
X039824Y024094D01*
X039752Y024022D01*
X039752Y023950D01*
X039824Y023878D01*
X040039Y023878D01*
X039824Y023878D02*
X039752Y023807D01*
X037584Y023144D02*
X037512Y023144D01*
X037512Y023072D01*
X037584Y023072D01*
X037584Y023144D01*
X037353Y023144D02*
X037282Y023072D01*
X037067Y023072D01*
X036893Y023144D02*
X036821Y023072D01*
X036678Y023072D01*
X036606Y023144D01*
X036606Y023288D01*
X036678Y023359D01*
X036821Y023359D01*
X036893Y023288D01*
X036893Y023144D01*
X037067Y023359D02*
X037282Y023359D01*
X037353Y023288D01*
X037353Y023144D01*
X037205Y023663D02*
X037277Y023735D01*
X037277Y023878D01*
X037205Y023950D01*
X037062Y023950D01*
X036990Y023878D01*
X036990Y023735D01*
X037062Y023663D01*
X037205Y023663D01*
X036816Y023663D02*
X036816Y023950D01*
X036601Y023950D01*
X036529Y023878D01*
X036529Y023663D01*
X036433Y023359D02*
X036361Y023359D01*
X036289Y023288D01*
X036218Y023359D01*
X036146Y023288D01*
X036146Y023072D01*
X036289Y023072D02*
X036289Y023288D01*
X036433Y023359D02*
X036433Y023072D01*
X035972Y023072D02*
X035685Y023503D01*
X035680Y023663D02*
X035609Y023735D01*
X035609Y023950D01*
X035435Y023878D02*
X035435Y023735D01*
X035363Y023663D01*
X035220Y023663D01*
X035148Y023735D01*
X035148Y023878D01*
X035220Y023950D01*
X035363Y023950D01*
X035435Y023878D01*
X035680Y023663D02*
X035752Y023735D01*
X035824Y023663D01*
X035896Y023735D01*
X035896Y023950D01*
X035440Y023359D02*
X035512Y023288D01*
X035512Y023144D01*
X035440Y023072D01*
X035297Y023072D01*
X035225Y023144D01*
X035225Y023288D01*
X035297Y023359D01*
X035440Y023359D01*
X035052Y023359D02*
X035052Y022929D01*
X035052Y023072D02*
X034836Y023072D01*
X034765Y023144D01*
X034765Y023288D01*
X034836Y023359D01*
X035052Y023359D01*
X034975Y023663D02*
X034975Y023950D01*
X034975Y023807D02*
X034831Y023950D01*
X034760Y023950D01*
X034591Y023807D02*
X034376Y023950D01*
X034591Y023807D02*
X034376Y023663D01*
X034591Y023663D02*
X034591Y024094D01*
X033747Y023878D02*
X033604Y023878D01*
X033675Y024022D02*
X033604Y024094D01*
X033675Y024022D02*
X033675Y023663D01*
X033670Y023503D02*
X033670Y023072D01*
X033844Y023072D02*
X033844Y023288D01*
X033916Y023359D01*
X034131Y023359D01*
X034131Y023072D01*
X034304Y023216D02*
X034304Y023288D01*
X034376Y023359D01*
X034519Y023359D01*
X034591Y023288D01*
X034591Y023144D01*
X034519Y023072D01*
X034376Y023072D01*
X034304Y023216D02*
X034591Y023216D01*
X033670Y023288D02*
X033599Y023359D01*
X033455Y023359D01*
X033383Y023288D01*
X033383Y023072D01*
X033210Y023144D02*
X033138Y023216D01*
X032923Y023216D01*
X032923Y023288D02*
X032923Y023072D01*
X033138Y023072D01*
X033210Y023144D01*
X033138Y023359D02*
X032995Y023359D01*
X032923Y023288D01*
X032750Y023359D02*
X032750Y023072D01*
X032750Y023216D02*
X032606Y023359D01*
X032534Y023359D01*
X032366Y023288D02*
X032366Y023144D01*
X032294Y023072D01*
X032079Y023072D01*
X032079Y023503D01*
X032079Y023359D02*
X032294Y023359D01*
X032366Y023288D01*
X032309Y023663D02*
X032309Y023878D01*
X032381Y023950D01*
X032453Y023878D01*
X032453Y023663D01*
X032596Y023663D02*
X032596Y023950D01*
X032524Y023950D01*
X032453Y023878D01*
X032770Y023878D02*
X032841Y023950D01*
X032985Y023950D01*
X033056Y023878D01*
X033056Y023735D01*
X032985Y023663D01*
X032841Y023663D01*
X032770Y023735D01*
X032770Y023878D01*
X033225Y023950D02*
X033297Y023950D01*
X033440Y023807D01*
X033440Y023950D02*
X033440Y023663D01*
X032136Y023663D02*
X032136Y023735D01*
X032064Y023735D01*
X032064Y023663D01*
X032136Y023663D01*
X032136Y023878D02*
X032136Y023950D01*
X032064Y023950D01*
X032064Y023878D01*
X032136Y023878D01*
X031905Y023359D02*
X031905Y023144D01*
X031834Y023072D01*
X031762Y023144D01*
X031690Y023072D01*
X031619Y023144D01*
X031619Y023359D01*
X031373Y023359D02*
X031230Y023359D01*
X031158Y023288D01*
X031158Y023072D01*
X031373Y023072D01*
X031445Y023144D01*
X031373Y023216D01*
X031158Y023216D01*
X030985Y023216D02*
X030841Y023359D01*
X030770Y023359D01*
X030601Y023288D02*
X030601Y023144D01*
X030529Y023072D01*
X030386Y023072D01*
X030314Y023216D02*
X030601Y023216D01*
X030601Y023288D02*
X030529Y023359D01*
X030386Y023359D01*
X030314Y023288D01*
X030314Y023216D01*
X030141Y023288D02*
X030141Y023144D01*
X030069Y023072D01*
X029854Y023072D01*
X029680Y023144D02*
X029680Y023288D01*
X029609Y023359D01*
X029465Y023359D01*
X029393Y023288D01*
X029393Y023144D01*
X029465Y023072D01*
X029609Y023072D01*
X029680Y023144D01*
X029854Y023359D02*
X030069Y023359D01*
X030141Y023288D01*
X030985Y023359D02*
X030985Y023072D01*
X030893Y021953D02*
X030750Y021953D01*
X030678Y021881D01*
X030678Y021666D01*
X030893Y021666D01*
X030965Y021738D01*
X030893Y021810D01*
X030678Y021810D01*
X030505Y021810D02*
X030361Y021953D01*
X030289Y021953D01*
X030121Y021881D02*
X030049Y021953D01*
X029906Y021953D01*
X029834Y021881D01*
X029834Y021810D01*
X030121Y021810D01*
X030121Y021881D02*
X030121Y021738D01*
X030049Y021666D01*
X029906Y021666D01*
X030505Y021666D02*
X030505Y021953D01*
X031138Y021953D02*
X031138Y021738D01*
X031210Y021666D01*
X031282Y021738D01*
X031354Y021666D01*
X031425Y021738D01*
X031425Y021953D01*
X031599Y021881D02*
X031599Y021810D01*
X031886Y021810D01*
X031886Y021881D02*
X031814Y021953D01*
X031671Y021953D01*
X031599Y021881D01*
X031671Y021666D02*
X031814Y021666D01*
X031886Y021738D01*
X031886Y021881D01*
X032121Y021953D02*
X032121Y021666D01*
X032193Y021666D02*
X032049Y021666D01*
X032121Y021953D02*
X032193Y021953D01*
X032121Y022097D02*
X032121Y022168D01*
X032366Y021881D02*
X032366Y021666D01*
X032366Y021881D02*
X032438Y021953D01*
X032581Y021953D01*
X032653Y021881D01*
X032816Y021953D02*
X032960Y021953D01*
X032888Y022025D02*
X032888Y021738D01*
X032816Y021666D01*
X032653Y021666D02*
X032653Y022097D01*
X033133Y021881D02*
X033205Y021953D01*
X033349Y021953D01*
X033420Y021881D01*
X033420Y021738D01*
X033349Y021666D01*
X033205Y021666D01*
X033133Y021738D01*
X033133Y021881D01*
X033594Y021881D02*
X033666Y021953D01*
X033809Y021953D01*
X033881Y021881D01*
X033881Y021738D01*
X033809Y021666D01*
X033666Y021666D01*
X033594Y021738D01*
X033594Y021881D01*
X034054Y021881D02*
X034054Y021666D01*
X034198Y021666D02*
X034198Y021881D01*
X034126Y021953D01*
X034054Y021881D01*
X034198Y021881D02*
X034269Y021953D01*
X034341Y021953D01*
X034341Y021666D01*
X034515Y021738D02*
X034586Y021666D01*
X034730Y021666D01*
X034802Y021738D01*
X034730Y021881D02*
X034586Y021881D01*
X034515Y021810D01*
X034515Y021738D01*
X034730Y021881D02*
X034802Y021953D01*
X034802Y022025D01*
X034730Y022097D01*
X034586Y022097D01*
X034515Y022025D01*
X034415Y025701D02*
X034128Y025701D01*
X033954Y025701D02*
X033667Y026131D01*
X033494Y026131D02*
X033279Y026131D01*
X033207Y026060D01*
X033207Y025916D01*
X033279Y025845D01*
X033494Y025845D01*
X033494Y025701D02*
X033494Y026131D01*
X033954Y026131D02*
X033667Y025701D01*
X034128Y026131D02*
X034415Y026131D01*
X034415Y025701D01*
X034415Y025916D02*
X034271Y025916D01*
X033033Y026060D02*
X032962Y026131D01*
X032818Y026131D01*
X032747Y026060D01*
X032747Y025988D01*
X033033Y025701D01*
X032747Y025701D01*
X029220Y023359D02*
X028933Y023359D01*
X029220Y023072D01*
X028933Y023072D01*
X028759Y023144D02*
X028688Y023216D01*
X028473Y023216D01*
X028473Y023288D02*
X028473Y023072D01*
X028688Y023072D01*
X028759Y023144D01*
X028688Y023359D02*
X028544Y023359D01*
X028473Y023288D01*
X026415Y025701D02*
X026128Y025701D01*
X025954Y025701D02*
X025667Y026131D01*
X025494Y026131D02*
X025279Y026131D01*
X025207Y026060D01*
X025207Y025916D01*
X025279Y025845D01*
X025494Y025845D01*
X025494Y025701D02*
X025494Y026131D01*
X025954Y026131D02*
X025667Y025701D01*
X026128Y026131D02*
X026415Y026131D01*
X026415Y025701D01*
X026415Y025916D02*
X026271Y025916D01*
X025033Y025988D02*
X024890Y026131D01*
X024890Y025701D01*
X025033Y025701D02*
X024747Y025701D01*
X041256Y026985D02*
X041587Y026985D01*
X041587Y027150D01*
X041532Y027205D01*
X041421Y027205D01*
X041366Y027150D01*
X041366Y026985D01*
X041256Y027354D02*
X041256Y027574D01*
X041256Y027722D02*
X041477Y027722D01*
X041587Y027832D01*
X041477Y027942D01*
X041256Y027942D01*
X041421Y027942D02*
X041421Y027722D01*
X041532Y028090D02*
X041421Y028200D01*
X041256Y028200D01*
X041421Y028200D02*
X041532Y028310D01*
X041587Y028310D01*
X041587Y028090D02*
X041532Y028090D01*
X041587Y027354D02*
X041256Y027354D01*
D15*
X017243Y003403D02*
X017009Y003403D01*
X016743Y003453D02*
X016743Y003103D01*
X016743Y003278D02*
X016626Y003278D01*
X016743Y003453D02*
X016509Y003453D01*
X016374Y003453D02*
X016374Y003103D01*
X016141Y003103D01*
X016257Y003278D02*
X016374Y003278D01*
X016374Y003453D02*
X016141Y003453D01*
X016006Y003453D02*
X015772Y003453D01*
X015889Y003453D02*
X015889Y003103D01*
X015638Y003278D02*
X015404Y003278D01*
X015462Y003453D02*
X015638Y003278D01*
X015462Y003103D02*
X015462Y003453D01*
X015243Y003403D02*
X015009Y003403D01*
X015126Y003519D02*
X015126Y003286D01*
X014243Y003403D02*
X014009Y003403D01*
X013743Y003453D02*
X013743Y003103D01*
X013743Y003278D02*
X013626Y003278D01*
X013743Y003453D02*
X013509Y003453D01*
X013374Y003453D02*
X013374Y003103D01*
X013141Y003103D01*
X013257Y003278D02*
X013374Y003278D01*
X013374Y003453D02*
X013141Y003453D01*
X013006Y003453D02*
X012772Y003453D01*
X012889Y003453D02*
X012889Y003103D01*
X012638Y003161D02*
X012579Y003103D01*
X012462Y003103D01*
X012404Y003161D01*
X012404Y003219D01*
X012462Y003278D01*
X012521Y003278D01*
X012462Y003278D02*
X012404Y003336D01*
X012404Y003394D01*
X012462Y003453D01*
X012579Y003453D01*
X012638Y003394D01*
X012243Y003403D02*
X012009Y003403D01*
X012126Y003519D02*
X012126Y003286D01*
X011243Y003403D02*
X011009Y003403D01*
X010743Y003453D02*
X010509Y003453D01*
X010374Y003453D02*
X010374Y003103D01*
X010141Y003103D01*
X010257Y003278D02*
X010374Y003278D01*
X010374Y003453D02*
X010141Y003453D01*
X010006Y003453D02*
X009772Y003453D01*
X009889Y003453D02*
X009889Y003103D01*
X009638Y003103D02*
X009404Y003336D01*
X009404Y003394D01*
X009462Y003453D01*
X009579Y003453D01*
X009638Y003394D01*
X009638Y003103D02*
X009404Y003103D01*
X009126Y003286D02*
X009126Y003519D01*
X009243Y003403D02*
X009009Y003403D01*
X008243Y003403D02*
X008009Y003403D01*
X007743Y003453D02*
X007743Y003103D01*
X007743Y003278D02*
X007626Y003278D01*
X007743Y003453D02*
X007509Y003453D01*
X007374Y003453D02*
X007374Y003103D01*
X007141Y003103D01*
X007257Y003278D02*
X007374Y003278D01*
X007374Y003453D02*
X007141Y003453D01*
X007006Y003453D02*
X006772Y003453D01*
X006889Y003453D02*
X006889Y003103D01*
X006638Y003103D02*
X006404Y003103D01*
X006521Y003103D02*
X006521Y003453D01*
X006638Y003336D01*
X006243Y003403D02*
X006009Y003403D01*
X006126Y003519D02*
X006126Y003286D01*
X010626Y003278D02*
X010743Y003278D01*
X010743Y003103D02*
X010743Y003453D01*
D16*
X018304Y021198D02*
X018878Y021772D01*
X019348Y021772D02*
X019348Y021198D01*
X019205Y021198D02*
X019492Y021198D01*
X019839Y021198D02*
X019839Y022059D01*
X020126Y021772D01*
X020413Y022059D01*
X020413Y021198D01*
X020759Y021485D02*
X020759Y021629D01*
X020903Y021772D01*
X021190Y021772D01*
X021333Y021629D01*
X021333Y021342D01*
X021190Y021198D01*
X020903Y021198D01*
X020759Y021485D02*
X021333Y021485D01*
X021680Y021629D02*
X021824Y021485D01*
X022254Y021485D01*
X022254Y021198D02*
X022254Y022059D01*
X021824Y022059D01*
X021680Y021915D01*
X021680Y021629D01*
X021967Y021485D02*
X021680Y021198D01*
X021824Y022698D02*
X021680Y022842D01*
X021824Y022698D02*
X022111Y022698D01*
X022254Y022842D01*
X022254Y023415D01*
X022111Y023559D01*
X021824Y023559D01*
X021680Y023415D01*
X021333Y023129D02*
X021333Y022842D01*
X021190Y022698D01*
X020903Y022698D01*
X020759Y022842D01*
X020759Y023129D01*
X020903Y023272D01*
X021190Y023272D01*
X021333Y023129D01*
X020413Y023129D02*
X020269Y023272D01*
X019982Y023272D01*
X019839Y023129D01*
X019839Y022698D01*
X019492Y022842D02*
X019492Y023129D01*
X019348Y023272D01*
X019061Y023272D01*
X018918Y023129D01*
X018918Y022985D01*
X019492Y022985D01*
X019492Y022842D02*
X019348Y022698D01*
X019061Y022698D01*
X018571Y022698D02*
X018141Y022698D01*
X017997Y022842D01*
X018141Y022985D01*
X018427Y022985D01*
X018571Y023129D01*
X018427Y023272D01*
X017997Y023272D01*
X017650Y023272D02*
X017507Y023272D01*
X017507Y022698D01*
X017650Y022698D02*
X017363Y022698D01*
X017036Y022842D02*
X016893Y022698D01*
X016606Y022698D01*
X016462Y022842D01*
X016462Y023129D01*
X016606Y023272D01*
X016893Y023272D01*
X017036Y023129D01*
X017036Y022842D01*
X017507Y023559D02*
X017507Y023702D01*
X016116Y023272D02*
X016116Y022698D01*
X015542Y022698D02*
X015542Y023129D01*
X015685Y023272D01*
X016116Y023272D01*
X015195Y023415D02*
X015051Y023559D01*
X014764Y023559D01*
X014621Y023415D01*
X014621Y023272D01*
X014764Y023129D01*
X014621Y022985D01*
X014621Y022842D01*
X014764Y022698D01*
X015051Y022698D01*
X015195Y022842D01*
X014908Y023129D02*
X014764Y023129D01*
X014274Y023559D02*
X014274Y022698D01*
X013844Y022698D01*
X013700Y022842D01*
X013700Y023415D01*
X013844Y023559D01*
X014274Y023559D01*
X018304Y021772D02*
X018878Y021198D01*
X019348Y021772D02*
X019492Y021772D01*
X019348Y022059D02*
X019348Y022202D01*
X020413Y022698D02*
X020413Y023559D01*
D17*
X019768Y031363D02*
X019768Y031643D01*
X019674Y031550D01*
X019581Y031643D01*
X019581Y031363D01*
X019473Y031410D02*
X019426Y031363D01*
X019333Y031363D01*
X019286Y031410D01*
X019286Y031457D01*
X019333Y031503D01*
X019426Y031503D01*
X019473Y031550D01*
X019473Y031597D01*
X019426Y031643D01*
X019333Y031643D01*
X019286Y031597D01*
X019178Y031550D02*
X019085Y031643D01*
X019085Y031363D01*
X019178Y031363D02*
X018992Y031363D01*
X018992Y032113D02*
X019178Y032113D01*
X018992Y032300D01*
X018992Y032347D01*
X019038Y032393D01*
X019132Y032393D01*
X019178Y032347D01*
X019286Y032347D02*
X019333Y032393D01*
X019426Y032393D01*
X019473Y032347D01*
X019473Y032300D01*
X019426Y032253D01*
X019333Y032253D01*
X019286Y032207D01*
X019286Y032160D01*
X019333Y032113D01*
X019426Y032113D01*
X019473Y032160D01*
X019581Y032113D02*
X019581Y032393D01*
X019674Y032300D01*
X019768Y032393D01*
X019768Y032113D01*
X019768Y033113D02*
X019768Y033393D01*
X019674Y033300D01*
X019581Y033393D01*
X019581Y033113D01*
X019473Y033160D02*
X019426Y033113D01*
X019333Y033113D01*
X019286Y033160D01*
X019286Y033207D01*
X019333Y033253D01*
X019426Y033253D01*
X019473Y033300D01*
X019473Y033347D01*
X019426Y033393D01*
X019333Y033393D01*
X019286Y033347D01*
X019178Y033347D02*
X019132Y033393D01*
X019038Y033393D01*
X018992Y033347D01*
X018992Y033300D01*
X019038Y033253D01*
X018992Y033207D01*
X018992Y033160D01*
X019038Y033113D01*
X019132Y033113D01*
X019178Y033160D01*
X019085Y033253D02*
X019038Y033253D01*
X013768Y033113D02*
X013768Y033393D01*
X013674Y033300D01*
X013581Y033393D01*
X013581Y033113D01*
X013473Y033160D02*
X013426Y033113D01*
X013333Y033113D01*
X013286Y033160D01*
X013286Y033207D01*
X013333Y033253D01*
X013426Y033253D01*
X013473Y033300D01*
X013473Y033347D01*
X013426Y033393D01*
X013333Y033393D01*
X013286Y033347D01*
X013178Y033347D02*
X013132Y033393D01*
X013038Y033393D01*
X012992Y033347D01*
X012992Y033300D01*
X013038Y033253D01*
X012992Y033207D01*
X012992Y033160D01*
X013038Y033113D01*
X013132Y033113D01*
X013178Y033160D01*
X013085Y033253D02*
X013038Y033253D01*
X013038Y032393D02*
X013132Y032393D01*
X013178Y032347D01*
X013286Y032347D02*
X013333Y032393D01*
X013426Y032393D01*
X013473Y032347D01*
X013473Y032300D01*
X013426Y032253D01*
X013333Y032253D01*
X013286Y032207D01*
X013286Y032160D01*
X013333Y032113D01*
X013426Y032113D01*
X013473Y032160D01*
X013581Y032113D02*
X013581Y032393D01*
X013674Y032300D01*
X013768Y032393D01*
X013768Y032113D01*
X013830Y031768D02*
X013737Y031675D01*
X013643Y031768D01*
X013643Y031488D01*
X013536Y031535D02*
X013489Y031488D01*
X013395Y031488D01*
X013349Y031535D01*
X013349Y031582D01*
X013395Y031628D01*
X013489Y031628D01*
X013536Y031675D01*
X013536Y031722D01*
X013489Y031768D01*
X013395Y031768D01*
X013349Y031722D01*
X013241Y031675D02*
X013147Y031768D01*
X013147Y031488D01*
X013054Y031488D02*
X013241Y031488D01*
X013178Y032113D02*
X012992Y032300D01*
X012992Y032347D01*
X013038Y032393D01*
X012992Y032113D02*
X013178Y032113D01*
X013830Y031768D02*
X013830Y031488D01*
X007768Y031363D02*
X007768Y031643D01*
X007674Y031550D01*
X007581Y031643D01*
X007581Y031363D01*
X007473Y031410D02*
X007426Y031363D01*
X007333Y031363D01*
X007286Y031410D01*
X007286Y031457D01*
X007333Y031503D01*
X007426Y031503D01*
X007473Y031550D01*
X007473Y031597D01*
X007426Y031643D01*
X007333Y031643D01*
X007286Y031597D01*
X007178Y031550D02*
X007085Y031643D01*
X007085Y031363D01*
X007178Y031363D02*
X006992Y031363D01*
X006992Y032113D02*
X007178Y032113D01*
X006992Y032300D01*
X006992Y032347D01*
X007038Y032393D01*
X007132Y032393D01*
X007178Y032347D01*
X007286Y032347D02*
X007333Y032393D01*
X007426Y032393D01*
X007473Y032347D01*
X007473Y032300D01*
X007426Y032253D01*
X007333Y032253D01*
X007286Y032207D01*
X007286Y032160D01*
X007333Y032113D01*
X007426Y032113D01*
X007473Y032160D01*
X007581Y032113D02*
X007581Y032393D01*
X007674Y032300D01*
X007768Y032393D01*
X007768Y032113D01*
X007768Y033113D02*
X007768Y033393D01*
X007674Y033300D01*
X007581Y033393D01*
X007581Y033113D01*
X007473Y033160D02*
X007426Y033113D01*
X007333Y033113D01*
X007286Y033160D01*
X007286Y033207D01*
X007333Y033253D01*
X007426Y033253D01*
X007473Y033300D01*
X007473Y033347D01*
X007426Y033393D01*
X007333Y033393D01*
X007286Y033347D01*
X007178Y033347D02*
X007132Y033393D01*
X007038Y033393D01*
X006992Y033347D01*
X006992Y033300D01*
X007038Y033253D01*
X006992Y033207D01*
X006992Y033160D01*
X007038Y033113D01*
X007132Y033113D01*
X007178Y033160D01*
X007085Y033253D02*
X007038Y033253D01*
X024992Y033207D02*
X024992Y033160D01*
X025038Y033113D01*
X025132Y033113D01*
X025178Y033160D01*
X025286Y033160D02*
X025333Y033113D01*
X025426Y033113D01*
X025473Y033160D01*
X025426Y033253D02*
X025333Y033253D01*
X025286Y033207D01*
X025286Y033160D01*
X025426Y033253D02*
X025473Y033300D01*
X025473Y033347D01*
X025426Y033393D01*
X025333Y033393D01*
X025286Y033347D01*
X025178Y033347D02*
X025132Y033393D01*
X025038Y033393D01*
X024992Y033347D01*
X024992Y033300D01*
X025038Y033253D01*
X024992Y033207D01*
X025038Y033253D02*
X025085Y033253D01*
X025581Y033393D02*
X025581Y033113D01*
X025768Y033113D02*
X025768Y033393D01*
X025674Y033300D01*
X025581Y033393D01*
X025581Y032393D02*
X025581Y032113D01*
X025473Y032160D02*
X025426Y032113D01*
X025333Y032113D01*
X025286Y032160D01*
X025286Y032207D01*
X025333Y032253D01*
X025426Y032253D01*
X025473Y032300D01*
X025473Y032347D01*
X025426Y032393D01*
X025333Y032393D01*
X025286Y032347D01*
X025178Y032347D02*
X025132Y032393D01*
X025038Y032393D01*
X024992Y032347D01*
X024992Y032300D01*
X025178Y032113D01*
X024992Y032113D01*
X025085Y031643D02*
X025085Y031363D01*
X025178Y031363D02*
X024992Y031363D01*
X025178Y031550D02*
X025085Y031643D01*
X025286Y031597D02*
X025333Y031643D01*
X025426Y031643D01*
X025473Y031597D01*
X025473Y031550D01*
X025426Y031503D01*
X025333Y031503D01*
X025286Y031457D01*
X025286Y031410D01*
X025333Y031363D01*
X025426Y031363D01*
X025473Y031410D01*
X025581Y031363D02*
X025581Y031643D01*
X025674Y031550D01*
X025768Y031643D01*
X025768Y031363D01*
X025768Y032113D02*
X025768Y032393D01*
X025674Y032300D01*
X025581Y032393D01*
X030992Y032347D02*
X031038Y032393D01*
X031132Y032393D01*
X031178Y032347D01*
X031286Y032347D02*
X031333Y032393D01*
X031426Y032393D01*
X031473Y032347D01*
X031473Y032300D01*
X031426Y032253D01*
X031333Y032253D01*
X031286Y032207D01*
X031286Y032160D01*
X031333Y032113D01*
X031426Y032113D01*
X031473Y032160D01*
X031581Y032113D02*
X031581Y032393D01*
X031674Y032300D01*
X031768Y032393D01*
X031768Y032113D01*
X031768Y031643D02*
X031674Y031550D01*
X031581Y031643D01*
X031581Y031363D01*
X031473Y031410D02*
X031426Y031363D01*
X031333Y031363D01*
X031286Y031410D01*
X031286Y031457D01*
X031333Y031503D01*
X031426Y031503D01*
X031473Y031550D01*
X031473Y031597D01*
X031426Y031643D01*
X031333Y031643D01*
X031286Y031597D01*
X031178Y031550D02*
X031085Y031643D01*
X031085Y031363D01*
X031178Y031363D02*
X030992Y031363D01*
X030992Y032113D02*
X031178Y032113D01*
X030992Y032300D01*
X030992Y032347D01*
X031038Y033113D02*
X031132Y033113D01*
X031178Y033160D01*
X031286Y033160D02*
X031333Y033113D01*
X031426Y033113D01*
X031473Y033160D01*
X031426Y033253D02*
X031333Y033253D01*
X031286Y033207D01*
X031286Y033160D01*
X031426Y033253D02*
X031473Y033300D01*
X031473Y033347D01*
X031426Y033393D01*
X031333Y033393D01*
X031286Y033347D01*
X031178Y033347D02*
X031132Y033393D01*
X031038Y033393D01*
X030992Y033347D01*
X030992Y033300D01*
X031038Y033253D01*
X030992Y033207D01*
X030992Y033160D01*
X031038Y033113D01*
X031038Y033253D02*
X031085Y033253D01*
X031581Y033393D02*
X031581Y033113D01*
X031768Y033113D02*
X031768Y033393D01*
X031674Y033300D01*
X031581Y033393D01*
X031768Y031643D02*
X031768Y031363D01*
X036992Y031363D02*
X037178Y031363D01*
X037085Y031363D02*
X037085Y031643D01*
X037178Y031550D01*
X037286Y031597D02*
X037333Y031643D01*
X037426Y031643D01*
X037473Y031597D01*
X037473Y031550D01*
X037426Y031503D01*
X037333Y031503D01*
X037286Y031457D01*
X037286Y031410D01*
X037333Y031363D01*
X037426Y031363D01*
X037473Y031410D01*
X037581Y031363D02*
X037581Y031643D01*
X037674Y031550D01*
X037768Y031643D01*
X037768Y031363D01*
X037768Y032113D02*
X037768Y032393D01*
X037674Y032300D01*
X037581Y032393D01*
X037581Y032113D01*
X037473Y032160D02*
X037426Y032113D01*
X037333Y032113D01*
X037286Y032160D01*
X037286Y032207D01*
X037333Y032253D01*
X037426Y032253D01*
X037473Y032300D01*
X037473Y032347D01*
X037426Y032393D01*
X037333Y032393D01*
X037286Y032347D01*
X037178Y032347D02*
X037132Y032393D01*
X037038Y032393D01*
X036992Y032347D01*
X036992Y032300D01*
X037178Y032113D01*
X036992Y032113D01*
X037038Y033113D02*
X037132Y033113D01*
X037178Y033160D01*
X037286Y033160D02*
X037333Y033113D01*
X037426Y033113D01*
X037473Y033160D01*
X037426Y033253D02*
X037333Y033253D01*
X037286Y033207D01*
X037286Y033160D01*
X037426Y033253D02*
X037473Y033300D01*
X037473Y033347D01*
X037426Y033393D01*
X037333Y033393D01*
X037286Y033347D01*
X037178Y033347D02*
X037132Y033393D01*
X037038Y033393D01*
X036992Y033347D01*
X036992Y033300D01*
X037038Y033253D01*
X036992Y033207D01*
X036992Y033160D01*
X037038Y033113D01*
X037038Y033253D02*
X037085Y033253D01*
X037581Y033393D02*
X037581Y033113D01*
X037768Y033113D02*
X037768Y033393D01*
X037674Y033300D01*
X037581Y033393D01*
X020289Y007234D02*
X020195Y007234D01*
X020149Y007187D01*
X020149Y007140D01*
X020195Y007093D01*
X020149Y007047D01*
X020149Y007000D01*
X020195Y006953D01*
X020289Y006953D01*
X020335Y007000D01*
X020242Y007093D02*
X020195Y007093D01*
X020335Y007187D02*
X020289Y007234D01*
X020041Y007000D02*
X019994Y007000D01*
X019994Y006953D01*
X020041Y006953D01*
X020041Y007000D01*
X019893Y007000D02*
X019847Y006953D01*
X019753Y006953D01*
X019707Y007000D01*
X019707Y007047D01*
X019753Y007093D01*
X019800Y007093D01*
X019753Y007093D02*
X019707Y007140D01*
X019707Y007187D01*
X019753Y007234D01*
X019847Y007234D01*
X019893Y007187D01*
X019599Y007140D02*
X019505Y006953D01*
X019412Y007140D01*
X018023Y007093D02*
X017929Y007140D01*
X017883Y007140D01*
X017836Y007093D01*
X017836Y007000D01*
X017883Y006953D01*
X017976Y006953D01*
X018023Y007000D01*
X018023Y007093D02*
X018023Y007234D01*
X017836Y007234D01*
X017728Y007140D02*
X017635Y006953D01*
X017541Y007140D01*
X003092Y007093D02*
X003092Y007323D01*
X003015Y007400D01*
X002861Y007400D01*
X002785Y007323D01*
X002785Y007093D01*
X002785Y007247D02*
X002631Y007400D01*
X002631Y007093D02*
X003092Y007093D01*
X003092Y006940D02*
X003092Y006633D01*
X002631Y006633D01*
X002631Y006940D01*
X002861Y006786D02*
X002861Y006633D01*
X002631Y006479D02*
X003092Y006479D01*
X003092Y006172D02*
X002631Y006172D01*
X002785Y006326D01*
X002631Y006479D01*
X002708Y006019D02*
X002631Y005942D01*
X002631Y005789D01*
X002708Y005712D01*
X003015Y005712D01*
X003092Y005789D01*
X003092Y005942D01*
X003015Y006019D01*
X002708Y006019D01*
X002861Y005558D02*
X002785Y005482D01*
X002785Y005252D01*
X002631Y005252D02*
X003092Y005252D01*
X003092Y005482D01*
X003015Y005558D01*
X002861Y005558D01*
X003092Y004638D02*
X003092Y004331D01*
X003092Y004484D02*
X002631Y004484D01*
X002631Y004177D02*
X002631Y003870D01*
X003092Y003870D01*
X003092Y004177D01*
X002861Y004024D02*
X002861Y003870D01*
X003092Y003717D02*
X003092Y003410D01*
X002631Y003410D01*
X002861Y003410D02*
X002861Y003563D01*
X002631Y008014D02*
X002631Y008167D01*
X002631Y008091D02*
X003092Y008091D01*
X003092Y008167D02*
X003092Y008014D01*
X003092Y008321D02*
X002631Y008321D01*
X002631Y008628D02*
X003092Y008628D01*
X003092Y008321D02*
X002631Y008628D01*
D18*
X006581Y012515D02*
X006581Y013382D01*
X006581Y015421D02*
X006581Y016289D01*
X007014Y015855D02*
X006147Y015855D01*
X006581Y018390D02*
X006581Y019257D01*
X006581Y021421D02*
X006581Y022289D01*
X007014Y021855D02*
X006147Y021855D01*
X006581Y024640D02*
X006581Y025507D01*
X006581Y027671D02*
X006581Y028539D01*
X007014Y028105D02*
X006147Y028105D01*
D19*
X004176Y028049D02*
X003535Y028049D01*
X003749Y028262D01*
X003535Y028476D01*
X004176Y028476D01*
X004176Y028693D02*
X003535Y028693D01*
X003535Y029120D01*
X003535Y029338D02*
X004176Y029338D01*
X004176Y029658D01*
X004069Y029765D01*
X003855Y029765D01*
X003749Y029658D01*
X003749Y029338D01*
X003749Y029551D02*
X003535Y029765D01*
X003535Y030627D02*
X003535Y030841D01*
X003535Y030734D02*
X004176Y030734D01*
X004176Y030627D02*
X004176Y030841D01*
X004176Y031057D02*
X003535Y031484D01*
X004176Y031484D01*
X004176Y031057D02*
X003535Y031057D01*
X004176Y029120D02*
X004176Y028693D01*
X003855Y028693D02*
X003855Y028907D01*
X003642Y027831D02*
X003535Y027725D01*
X003535Y027511D01*
X003642Y027404D01*
X004069Y027404D01*
X004176Y027511D01*
X004176Y027725D01*
X004069Y027831D01*
X003642Y027831D01*
X003855Y027187D02*
X003749Y027080D01*
X003749Y026760D01*
X003535Y026760D02*
X004176Y026760D01*
X004176Y027080D01*
X004069Y027187D01*
X003855Y027187D01*
X003535Y025898D02*
X004176Y025898D01*
X004176Y025471D02*
X003535Y025898D01*
X003535Y025471D02*
X004176Y025471D01*
X004176Y025254D02*
X004176Y025041D01*
X004176Y025148D02*
X003535Y025148D01*
X003535Y025254D02*
X003535Y025041D01*
X003535Y024823D02*
X003962Y024823D01*
X004176Y024610D01*
X003962Y024396D01*
X003535Y024396D01*
X003535Y024179D02*
X004176Y024179D01*
X003962Y023965D01*
X004176Y023752D01*
X003535Y023752D01*
X003855Y024396D02*
X003855Y024823D01*
X008030Y030740D02*
X009130Y030740D01*
X009147Y030742D01*
X009164Y030746D01*
X009180Y030753D01*
X009194Y030763D01*
X009207Y030776D01*
X009217Y030790D01*
X009224Y030806D01*
X009228Y030823D01*
X009230Y030840D01*
X009230Y031440D01*
X009228Y031457D01*
X009224Y031474D01*
X009217Y031490D01*
X009207Y031504D01*
X009194Y031517D01*
X009180Y031527D01*
X009164Y031534D01*
X009147Y031538D01*
X009130Y031540D01*
X008030Y031540D01*
X008013Y031538D01*
X007996Y031534D01*
X007980Y031527D01*
X007966Y031517D01*
X007953Y031504D01*
X007943Y031490D01*
X007936Y031474D01*
X007932Y031457D01*
X007930Y031440D01*
X007930Y030840D01*
X007932Y030823D01*
X007936Y030806D01*
X007943Y030790D01*
X007953Y030776D01*
X007966Y030763D01*
X007980Y030753D01*
X007996Y030746D01*
X008013Y030742D01*
X008030Y030740D01*
X008030Y031740D02*
X009130Y031740D01*
X009147Y031742D01*
X009164Y031746D01*
X009180Y031753D01*
X009194Y031763D01*
X009207Y031776D01*
X009217Y031790D01*
X009224Y031806D01*
X009228Y031823D01*
X009230Y031840D01*
X009230Y032440D01*
X009228Y032457D01*
X009224Y032474D01*
X009217Y032490D01*
X009207Y032504D01*
X009194Y032517D01*
X009180Y032527D01*
X009164Y032534D01*
X009147Y032538D01*
X009130Y032540D01*
X008030Y032540D01*
X008013Y032538D01*
X007996Y032534D01*
X007980Y032527D01*
X007966Y032517D01*
X007953Y032504D01*
X007943Y032490D01*
X007936Y032474D01*
X007932Y032457D01*
X007930Y032440D01*
X007930Y031840D01*
X007932Y031823D01*
X007936Y031806D01*
X007943Y031790D01*
X007953Y031776D01*
X007966Y031763D01*
X007980Y031753D01*
X007996Y031746D01*
X008013Y031742D01*
X008030Y031740D01*
X008030Y032740D02*
X009130Y032740D01*
X009147Y032742D01*
X009164Y032746D01*
X009180Y032753D01*
X009194Y032763D01*
X009207Y032776D01*
X009217Y032790D01*
X009224Y032806D01*
X009228Y032823D01*
X009230Y032840D01*
X009230Y033440D01*
X009228Y033457D01*
X009224Y033474D01*
X009217Y033490D01*
X009207Y033504D01*
X009194Y033517D01*
X009180Y033527D01*
X009164Y033534D01*
X009147Y033538D01*
X009130Y033540D01*
X008030Y033540D01*
X008013Y033538D01*
X007996Y033534D01*
X007980Y033527D01*
X007966Y033517D01*
X007953Y033504D01*
X007943Y033490D01*
X007936Y033474D01*
X007932Y033457D01*
X007930Y033440D01*
X007930Y032840D01*
X007932Y032823D01*
X007936Y032806D01*
X007943Y032790D01*
X007953Y032776D01*
X007966Y032763D01*
X007980Y032753D01*
X007996Y032746D01*
X008013Y032742D01*
X008030Y032740D01*
X013930Y032840D02*
X013930Y033440D01*
X013932Y033457D01*
X013936Y033474D01*
X013943Y033490D01*
X013953Y033504D01*
X013966Y033517D01*
X013980Y033527D01*
X013996Y033534D01*
X014013Y033538D01*
X014030Y033540D01*
X015130Y033540D01*
X015147Y033538D01*
X015164Y033534D01*
X015180Y033527D01*
X015194Y033517D01*
X015207Y033504D01*
X015217Y033490D01*
X015224Y033474D01*
X015228Y033457D01*
X015230Y033440D01*
X015230Y032840D01*
X015228Y032823D01*
X015224Y032806D01*
X015217Y032790D01*
X015207Y032776D01*
X015194Y032763D01*
X015180Y032753D01*
X015164Y032746D01*
X015147Y032742D01*
X015130Y032740D01*
X014030Y032740D01*
X014013Y032742D01*
X013996Y032746D01*
X013980Y032753D01*
X013966Y032763D01*
X013953Y032776D01*
X013943Y032790D01*
X013936Y032806D01*
X013932Y032823D01*
X013930Y032840D01*
X014030Y032540D02*
X015130Y032540D01*
X015147Y032538D01*
X015164Y032534D01*
X015180Y032527D01*
X015194Y032517D01*
X015207Y032504D01*
X015217Y032490D01*
X015224Y032474D01*
X015228Y032457D01*
X015230Y032440D01*
X015230Y031840D01*
X015228Y031823D01*
X015224Y031806D01*
X015217Y031790D01*
X015207Y031776D01*
X015194Y031763D01*
X015180Y031753D01*
X015164Y031746D01*
X015147Y031742D01*
X015130Y031740D01*
X014030Y031740D01*
X014013Y031742D01*
X013996Y031746D01*
X013980Y031753D01*
X013966Y031763D01*
X013953Y031776D01*
X013943Y031790D01*
X013936Y031806D01*
X013932Y031823D01*
X013930Y031840D01*
X013930Y032440D01*
X013932Y032457D01*
X013936Y032474D01*
X013943Y032490D01*
X013953Y032504D01*
X013966Y032517D01*
X013980Y032527D01*
X013996Y032534D01*
X014013Y032538D01*
X014030Y032540D01*
X014030Y031540D02*
X015130Y031540D01*
X015147Y031538D01*
X015164Y031534D01*
X015180Y031527D01*
X015194Y031517D01*
X015207Y031504D01*
X015217Y031490D01*
X015224Y031474D01*
X015228Y031457D01*
X015230Y031440D01*
X015230Y030840D01*
X015228Y030823D01*
X015224Y030806D01*
X015217Y030790D01*
X015207Y030776D01*
X015194Y030763D01*
X015180Y030753D01*
X015164Y030746D01*
X015147Y030742D01*
X015130Y030740D01*
X014030Y030740D01*
X014013Y030742D01*
X013996Y030746D01*
X013980Y030753D01*
X013966Y030763D01*
X013953Y030776D01*
X013943Y030790D01*
X013936Y030806D01*
X013932Y030823D01*
X013930Y030840D01*
X013930Y031440D01*
X013932Y031457D01*
X013936Y031474D01*
X013943Y031490D01*
X013953Y031504D01*
X013966Y031517D01*
X013980Y031527D01*
X013996Y031534D01*
X014013Y031538D01*
X014030Y031540D01*
X019930Y031440D02*
X019930Y030840D01*
X019932Y030823D01*
X019936Y030806D01*
X019943Y030790D01*
X019953Y030776D01*
X019966Y030763D01*
X019980Y030753D01*
X019996Y030746D01*
X020013Y030742D01*
X020030Y030740D01*
X021130Y030740D01*
X021147Y030742D01*
X021164Y030746D01*
X021180Y030753D01*
X021194Y030763D01*
X021207Y030776D01*
X021217Y030790D01*
X021224Y030806D01*
X021228Y030823D01*
X021230Y030840D01*
X021230Y031440D01*
X021228Y031457D01*
X021224Y031474D01*
X021217Y031490D01*
X021207Y031504D01*
X021194Y031517D01*
X021180Y031527D01*
X021164Y031534D01*
X021147Y031538D01*
X021130Y031540D01*
X020030Y031540D01*
X020013Y031538D01*
X019996Y031534D01*
X019980Y031527D01*
X019966Y031517D01*
X019953Y031504D01*
X019943Y031490D01*
X019936Y031474D01*
X019932Y031457D01*
X019930Y031440D01*
X020030Y031740D02*
X021130Y031740D01*
X021147Y031742D01*
X021164Y031746D01*
X021180Y031753D01*
X021194Y031763D01*
X021207Y031776D01*
X021217Y031790D01*
X021224Y031806D01*
X021228Y031823D01*
X021230Y031840D01*
X021230Y032440D01*
X021228Y032457D01*
X021224Y032474D01*
X021217Y032490D01*
X021207Y032504D01*
X021194Y032517D01*
X021180Y032527D01*
X021164Y032534D01*
X021147Y032538D01*
X021130Y032540D01*
X020030Y032540D01*
X020013Y032538D01*
X019996Y032534D01*
X019980Y032527D01*
X019966Y032517D01*
X019953Y032504D01*
X019943Y032490D01*
X019936Y032474D01*
X019932Y032457D01*
X019930Y032440D01*
X019930Y031840D01*
X019932Y031823D01*
X019936Y031806D01*
X019943Y031790D01*
X019953Y031776D01*
X019966Y031763D01*
X019980Y031753D01*
X019996Y031746D01*
X020013Y031742D01*
X020030Y031740D01*
X020030Y032740D02*
X021130Y032740D01*
X021147Y032742D01*
X021164Y032746D01*
X021180Y032753D01*
X021194Y032763D01*
X021207Y032776D01*
X021217Y032790D01*
X021224Y032806D01*
X021228Y032823D01*
X021230Y032840D01*
X021230Y033440D01*
X021228Y033457D01*
X021224Y033474D01*
X021217Y033490D01*
X021207Y033504D01*
X021194Y033517D01*
X021180Y033527D01*
X021164Y033534D01*
X021147Y033538D01*
X021130Y033540D01*
X020030Y033540D01*
X020013Y033538D01*
X019996Y033534D01*
X019980Y033527D01*
X019966Y033517D01*
X019953Y033504D01*
X019943Y033490D01*
X019936Y033474D01*
X019932Y033457D01*
X019930Y033440D01*
X019930Y032840D01*
X019932Y032823D01*
X019936Y032806D01*
X019943Y032790D01*
X019953Y032776D01*
X019966Y032763D01*
X019980Y032753D01*
X019996Y032746D01*
X020013Y032742D01*
X020030Y032740D01*
X025930Y032840D02*
X025930Y033440D01*
X025932Y033457D01*
X025936Y033474D01*
X025943Y033490D01*
X025953Y033504D01*
X025966Y033517D01*
X025980Y033527D01*
X025996Y033534D01*
X026013Y033538D01*
X026030Y033540D01*
X027130Y033540D01*
X027147Y033538D01*
X027164Y033534D01*
X027180Y033527D01*
X027194Y033517D01*
X027207Y033504D01*
X027217Y033490D01*
X027224Y033474D01*
X027228Y033457D01*
X027230Y033440D01*
X027230Y032840D01*
X027228Y032823D01*
X027224Y032806D01*
X027217Y032790D01*
X027207Y032776D01*
X027194Y032763D01*
X027180Y032753D01*
X027164Y032746D01*
X027147Y032742D01*
X027130Y032740D01*
X026030Y032740D01*
X026013Y032742D01*
X025996Y032746D01*
X025980Y032753D01*
X025966Y032763D01*
X025953Y032776D01*
X025943Y032790D01*
X025936Y032806D01*
X025932Y032823D01*
X025930Y032840D01*
X026030Y032540D02*
X027130Y032540D01*
X027147Y032538D01*
X027164Y032534D01*
X027180Y032527D01*
X027194Y032517D01*
X027207Y032504D01*
X027217Y032490D01*
X027224Y032474D01*
X027228Y032457D01*
X027230Y032440D01*
X027230Y031840D01*
X027228Y031823D01*
X027224Y031806D01*
X027217Y031790D01*
X027207Y031776D01*
X027194Y031763D01*
X027180Y031753D01*
X027164Y031746D01*
X027147Y031742D01*
X027130Y031740D01*
X026030Y031740D01*
X026013Y031742D01*
X025996Y031746D01*
X025980Y031753D01*
X025966Y031763D01*
X025953Y031776D01*
X025943Y031790D01*
X025936Y031806D01*
X025932Y031823D01*
X025930Y031840D01*
X025930Y032440D01*
X025932Y032457D01*
X025936Y032474D01*
X025943Y032490D01*
X025953Y032504D01*
X025966Y032517D01*
X025980Y032527D01*
X025996Y032534D01*
X026013Y032538D01*
X026030Y032540D01*
X026030Y031540D02*
X027130Y031540D01*
X027147Y031538D01*
X027164Y031534D01*
X027180Y031527D01*
X027194Y031517D01*
X027207Y031504D01*
X027217Y031490D01*
X027224Y031474D01*
X027228Y031457D01*
X027230Y031440D01*
X027230Y030840D01*
X027228Y030823D01*
X027224Y030806D01*
X027217Y030790D01*
X027207Y030776D01*
X027194Y030763D01*
X027180Y030753D01*
X027164Y030746D01*
X027147Y030742D01*
X027130Y030740D01*
X026030Y030740D01*
X026013Y030742D01*
X025996Y030746D01*
X025980Y030753D01*
X025966Y030763D01*
X025953Y030776D01*
X025943Y030790D01*
X025936Y030806D01*
X025932Y030823D01*
X025930Y030840D01*
X025930Y031440D01*
X025932Y031457D01*
X025936Y031474D01*
X025943Y031490D01*
X025953Y031504D01*
X025966Y031517D01*
X025980Y031527D01*
X025996Y031534D01*
X026013Y031538D01*
X026030Y031540D01*
X031930Y031440D02*
X031930Y030840D01*
X031932Y030823D01*
X031936Y030806D01*
X031943Y030790D01*
X031953Y030776D01*
X031966Y030763D01*
X031980Y030753D01*
X031996Y030746D01*
X032013Y030742D01*
X032030Y030740D01*
X033130Y030740D01*
X033147Y030742D01*
X033164Y030746D01*
X033180Y030753D01*
X033194Y030763D01*
X033207Y030776D01*
X033217Y030790D01*
X033224Y030806D01*
X033228Y030823D01*
X033230Y030840D01*
X033230Y031440D01*
X033228Y031457D01*
X033224Y031474D01*
X033217Y031490D01*
X033207Y031504D01*
X033194Y031517D01*
X033180Y031527D01*
X033164Y031534D01*
X033147Y031538D01*
X033130Y031540D01*
X032030Y031540D01*
X032013Y031538D01*
X031996Y031534D01*
X031980Y031527D01*
X031966Y031517D01*
X031953Y031504D01*
X031943Y031490D01*
X031936Y031474D01*
X031932Y031457D01*
X031930Y031440D01*
X032030Y031740D02*
X033130Y031740D01*
X033147Y031742D01*
X033164Y031746D01*
X033180Y031753D01*
X033194Y031763D01*
X033207Y031776D01*
X033217Y031790D01*
X033224Y031806D01*
X033228Y031823D01*
X033230Y031840D01*
X033230Y032440D01*
X033228Y032457D01*
X033224Y032474D01*
X033217Y032490D01*
X033207Y032504D01*
X033194Y032517D01*
X033180Y032527D01*
X033164Y032534D01*
X033147Y032538D01*
X033130Y032540D01*
X032030Y032540D01*
X032013Y032538D01*
X031996Y032534D01*
X031980Y032527D01*
X031966Y032517D01*
X031953Y032504D01*
X031943Y032490D01*
X031936Y032474D01*
X031932Y032457D01*
X031930Y032440D01*
X031930Y031840D01*
X031932Y031823D01*
X031936Y031806D01*
X031943Y031790D01*
X031953Y031776D01*
X031966Y031763D01*
X031980Y031753D01*
X031996Y031746D01*
X032013Y031742D01*
X032030Y031740D01*
X032030Y032740D02*
X033130Y032740D01*
X033147Y032742D01*
X033164Y032746D01*
X033180Y032753D01*
X033194Y032763D01*
X033207Y032776D01*
X033217Y032790D01*
X033224Y032806D01*
X033228Y032823D01*
X033230Y032840D01*
X033230Y033440D01*
X033228Y033457D01*
X033224Y033474D01*
X033217Y033490D01*
X033207Y033504D01*
X033194Y033517D01*
X033180Y033527D01*
X033164Y033534D01*
X033147Y033538D01*
X033130Y033540D01*
X032030Y033540D01*
X032013Y033538D01*
X031996Y033534D01*
X031980Y033527D01*
X031966Y033517D01*
X031953Y033504D01*
X031943Y033490D01*
X031936Y033474D01*
X031932Y033457D01*
X031930Y033440D01*
X031930Y032840D01*
X031932Y032823D01*
X031936Y032806D01*
X031943Y032790D01*
X031953Y032776D01*
X031966Y032763D01*
X031980Y032753D01*
X031996Y032746D01*
X032013Y032742D01*
X032030Y032740D01*
X037930Y032840D02*
X037930Y033440D01*
X037932Y033457D01*
X037936Y033474D01*
X037943Y033490D01*
X037953Y033504D01*
X037966Y033517D01*
X037980Y033527D01*
X037996Y033534D01*
X038013Y033538D01*
X038030Y033540D01*
X039130Y033540D01*
X039147Y033538D01*
X039164Y033534D01*
X039180Y033527D01*
X039194Y033517D01*
X039207Y033504D01*
X039217Y033490D01*
X039224Y033474D01*
X039228Y033457D01*
X039230Y033440D01*
X039230Y032840D01*
X039228Y032823D01*
X039224Y032806D01*
X039217Y032790D01*
X039207Y032776D01*
X039194Y032763D01*
X039180Y032753D01*
X039164Y032746D01*
X039147Y032742D01*
X039130Y032740D01*
X038030Y032740D01*
X038013Y032742D01*
X037996Y032746D01*
X037980Y032753D01*
X037966Y032763D01*
X037953Y032776D01*
X037943Y032790D01*
X037936Y032806D01*
X037932Y032823D01*
X037930Y032840D01*
X038030Y032540D02*
X039130Y032540D01*
X039147Y032538D01*
X039164Y032534D01*
X039180Y032527D01*
X039194Y032517D01*
X039207Y032504D01*
X039217Y032490D01*
X039224Y032474D01*
X039228Y032457D01*
X039230Y032440D01*
X039230Y031840D01*
X039228Y031823D01*
X039224Y031806D01*
X039217Y031790D01*
X039207Y031776D01*
X039194Y031763D01*
X039180Y031753D01*
X039164Y031746D01*
X039147Y031742D01*
X039130Y031740D01*
X038030Y031740D01*
X038013Y031742D01*
X037996Y031746D01*
X037980Y031753D01*
X037966Y031763D01*
X037953Y031776D01*
X037943Y031790D01*
X037936Y031806D01*
X037932Y031823D01*
X037930Y031840D01*
X037930Y032440D01*
X037932Y032457D01*
X037936Y032474D01*
X037943Y032490D01*
X037953Y032504D01*
X037966Y032517D01*
X037980Y032527D01*
X037996Y032534D01*
X038013Y032538D01*
X038030Y032540D01*
X038030Y031540D02*
X039130Y031540D01*
X039147Y031538D01*
X039164Y031534D01*
X039180Y031527D01*
X039194Y031517D01*
X039207Y031504D01*
X039217Y031490D01*
X039224Y031474D01*
X039228Y031457D01*
X039230Y031440D01*
X039230Y030840D01*
X039228Y030823D01*
X039224Y030806D01*
X039217Y030790D01*
X039207Y030776D01*
X039194Y030763D01*
X039180Y030753D01*
X039164Y030746D01*
X039147Y030742D01*
X039130Y030740D01*
X038030Y030740D01*
X038013Y030742D01*
X037996Y030746D01*
X037980Y030753D01*
X037966Y030763D01*
X037953Y030776D01*
X037943Y030790D01*
X037936Y030806D01*
X037932Y030823D01*
X037930Y030840D01*
X037930Y031440D01*
X037932Y031457D01*
X037936Y031474D01*
X037943Y031490D01*
X037953Y031504D01*
X037966Y031517D01*
X037980Y031527D01*
X037996Y031534D01*
X038013Y031538D01*
X038030Y031540D01*
X023661Y010170D02*
X023031Y010170D01*
X023012Y010170D01*
X022993Y010166D01*
X022975Y010160D01*
X022959Y010151D01*
X022944Y010138D01*
X022932Y010124D01*
X022922Y010107D01*
X022916Y010089D01*
X022912Y010071D01*
X022913Y010071D02*
X022913Y009481D01*
X022912Y009480D02*
X022916Y009461D01*
X022922Y009444D01*
X022932Y009427D01*
X022944Y009413D01*
X022959Y009401D01*
X022975Y009391D01*
X022993Y009385D01*
X023012Y009381D01*
X023031Y009381D01*
X023031Y009382D02*
X023661Y009382D01*
X023661Y009381D02*
X023680Y009381D01*
X023699Y009385D01*
X023717Y009391D01*
X023733Y009401D01*
X023748Y009413D01*
X023760Y009427D01*
X023770Y009444D01*
X023776Y009461D01*
X023780Y009480D01*
X023779Y009481D02*
X023779Y010071D01*
X023780Y010071D02*
X023776Y010090D01*
X023770Y010107D01*
X023760Y010124D01*
X023748Y010138D01*
X023733Y010150D01*
X023717Y010160D01*
X023699Y010166D01*
X023680Y010170D01*
X023661Y010170D01*
X023661Y009107D02*
X023031Y009107D01*
X023012Y009107D01*
X022993Y009103D01*
X022975Y009097D01*
X022959Y009088D01*
X022944Y009075D01*
X022932Y009061D01*
X022922Y009044D01*
X022916Y009026D01*
X022912Y009008D01*
X022913Y009008D02*
X022913Y008418D01*
X022912Y008417D02*
X022916Y008398D01*
X022922Y008381D01*
X022932Y008364D01*
X022944Y008350D01*
X022959Y008338D01*
X022975Y008328D01*
X022993Y008322D01*
X023012Y008318D01*
X023031Y008318D01*
X023031Y008319D02*
X023661Y008319D01*
X023661Y008318D02*
X023680Y008318D01*
X023699Y008322D01*
X023717Y008328D01*
X023733Y008338D01*
X023748Y008350D01*
X023760Y008364D01*
X023770Y008381D01*
X023776Y008398D01*
X023780Y008417D01*
X023779Y008418D02*
X023779Y009008D01*
X023780Y009008D02*
X023776Y009027D01*
X023770Y009044D01*
X023760Y009061D01*
X023748Y009075D01*
X023733Y009087D01*
X023717Y009097D01*
X023699Y009103D01*
X023680Y009107D01*
X023661Y009107D01*
X023661Y008044D02*
X023031Y008044D01*
X023012Y008044D01*
X022993Y008040D01*
X022975Y008034D01*
X022959Y008024D01*
X022944Y008012D01*
X022932Y007998D01*
X022922Y007981D01*
X022916Y007964D01*
X022912Y007945D01*
X022913Y007945D02*
X022913Y007355D01*
X022912Y007354D02*
X022916Y007335D01*
X022922Y007318D01*
X022932Y007301D01*
X022944Y007287D01*
X022959Y007275D01*
X022975Y007265D01*
X022993Y007259D01*
X023012Y007255D01*
X023031Y007255D01*
X023031Y007256D02*
X023661Y007256D01*
X023661Y007255D02*
X023680Y007255D01*
X023699Y007259D01*
X023717Y007265D01*
X023733Y007274D01*
X023748Y007287D01*
X023760Y007301D01*
X023770Y007318D01*
X023776Y007336D01*
X023780Y007354D01*
X023779Y007355D02*
X023779Y007945D01*
X023780Y007945D02*
X023776Y007964D01*
X023770Y007981D01*
X023760Y007998D01*
X023748Y008012D01*
X023733Y008024D01*
X023717Y008034D01*
X023699Y008040D01*
X023680Y008044D01*
X023661Y008044D01*
X022519Y007945D02*
X022519Y007355D01*
X022520Y007354D02*
X022516Y007336D01*
X022510Y007318D01*
X022500Y007301D01*
X022488Y007287D01*
X022473Y007274D01*
X022457Y007265D01*
X022439Y007259D01*
X022420Y007255D01*
X022401Y007255D01*
X022401Y007256D02*
X021771Y007256D01*
X021771Y007255D02*
X021752Y007255D01*
X021733Y007259D01*
X021715Y007265D01*
X021699Y007275D01*
X021684Y007287D01*
X021672Y007301D01*
X021662Y007318D01*
X021656Y007335D01*
X021652Y007354D01*
X021653Y007355D02*
X021653Y007945D01*
X021652Y007945D02*
X021656Y007964D01*
X021662Y007981D01*
X021672Y007998D01*
X021684Y008012D01*
X021699Y008024D01*
X021715Y008034D01*
X021733Y008040D01*
X021752Y008044D01*
X021771Y008044D01*
X022401Y008044D01*
X022420Y008044D01*
X022439Y008040D01*
X022457Y008034D01*
X022473Y008024D01*
X022488Y008012D01*
X022500Y007998D01*
X022510Y007981D01*
X022516Y007964D01*
X022520Y007945D01*
X022401Y008319D02*
X021771Y008319D01*
X021771Y008318D02*
X021752Y008318D01*
X021733Y008322D01*
X021715Y008328D01*
X021699Y008338D01*
X021684Y008350D01*
X021672Y008364D01*
X021662Y008381D01*
X021656Y008398D01*
X021652Y008417D01*
X021653Y008418D02*
X021653Y009008D01*
X021652Y009008D02*
X021656Y009026D01*
X021662Y009044D01*
X021672Y009061D01*
X021684Y009075D01*
X021699Y009088D01*
X021715Y009097D01*
X021733Y009103D01*
X021752Y009107D01*
X021771Y009107D01*
X022401Y009107D01*
X022420Y009107D01*
X022439Y009103D01*
X022457Y009097D01*
X022473Y009087D01*
X022488Y009075D01*
X022500Y009061D01*
X022510Y009044D01*
X022516Y009027D01*
X022520Y009008D01*
X022519Y009008D02*
X022519Y008418D01*
X022520Y008417D02*
X022516Y008398D01*
X022510Y008381D01*
X022500Y008364D01*
X022488Y008350D01*
X022473Y008338D01*
X022457Y008328D01*
X022439Y008322D01*
X022420Y008318D01*
X022401Y008318D01*
X022401Y009382D02*
X021771Y009382D01*
X021771Y009381D02*
X021752Y009381D01*
X021733Y009385D01*
X021715Y009391D01*
X021699Y009401D01*
X021684Y009413D01*
X021672Y009427D01*
X021662Y009444D01*
X021656Y009461D01*
X021652Y009480D01*
X021653Y009481D02*
X021653Y010071D01*
X021652Y010071D02*
X021656Y010089D01*
X021662Y010107D01*
X021672Y010124D01*
X021684Y010138D01*
X021699Y010151D01*
X021715Y010160D01*
X021733Y010166D01*
X021752Y010170D01*
X021771Y010170D01*
X022401Y010170D01*
X022420Y010170D01*
X022439Y010166D01*
X022457Y010160D01*
X022473Y010150D01*
X022488Y010138D01*
X022500Y010124D01*
X022510Y010107D01*
X022516Y010090D01*
X022520Y010071D01*
X022519Y010071D02*
X022519Y009481D01*
X022520Y009480D02*
X022516Y009461D01*
X022510Y009444D01*
X022500Y009427D01*
X022488Y009413D01*
X022473Y009401D01*
X022457Y009391D01*
X022439Y009385D01*
X022420Y009381D01*
X022401Y009381D01*
X019343Y007297D02*
X019343Y006697D01*
X019341Y006680D01*
X019337Y006663D01*
X019330Y006647D01*
X019320Y006633D01*
X019307Y006620D01*
X019293Y006610D01*
X019277Y006603D01*
X019260Y006599D01*
X019243Y006597D01*
X018243Y006597D01*
X018226Y006599D01*
X018209Y006603D01*
X018193Y006610D01*
X018179Y006620D01*
X018166Y006633D01*
X018156Y006647D01*
X018149Y006663D01*
X018145Y006680D01*
X018143Y006697D01*
X018143Y007297D01*
X018145Y007314D01*
X018149Y007331D01*
X018156Y007347D01*
X018166Y007361D01*
X018179Y007374D01*
X018193Y007384D01*
X018209Y007391D01*
X018226Y007395D01*
X018243Y007397D01*
X019243Y007397D01*
X019260Y007395D01*
X019277Y007391D01*
X019293Y007384D01*
X019307Y007374D01*
X019320Y007361D01*
X019330Y007347D01*
X019337Y007331D01*
X019341Y007314D01*
X019343Y007297D01*
D20*
X037684Y007109D02*
X037686Y007144D01*
X037692Y007179D01*
X037702Y007213D01*
X037715Y007246D01*
X037732Y007277D01*
X037753Y007305D01*
X037776Y007332D01*
X037803Y007355D01*
X037831Y007376D01*
X037862Y007393D01*
X037895Y007406D01*
X037929Y007416D01*
X037964Y007422D01*
X037999Y007424D01*
X038034Y007422D01*
X038069Y007416D01*
X038103Y007406D01*
X038136Y007393D01*
X038167Y007376D01*
X038195Y007355D01*
X038222Y007332D01*
X038245Y007305D01*
X038266Y007277D01*
X038283Y007246D01*
X038296Y007213D01*
X038306Y007179D01*
X038312Y007144D01*
X038314Y007109D01*
X038312Y007074D01*
X038306Y007039D01*
X038296Y007005D01*
X038283Y006972D01*
X038266Y006941D01*
X038245Y006913D01*
X038222Y006886D01*
X038195Y006863D01*
X038167Y006842D01*
X038136Y006825D01*
X038103Y006812D01*
X038069Y006802D01*
X038034Y006796D01*
X037999Y006794D01*
X037964Y006796D01*
X037929Y006802D01*
X037895Y006812D01*
X037862Y006825D01*
X037831Y006842D01*
X037803Y006863D01*
X037776Y006886D01*
X037753Y006913D01*
X037732Y006941D01*
X037715Y006972D01*
X037702Y007005D01*
X037692Y007039D01*
X037686Y007074D01*
X037684Y007109D01*
X037684Y011046D02*
X037686Y011081D01*
X037692Y011116D01*
X037702Y011150D01*
X037715Y011183D01*
X037732Y011214D01*
X037753Y011242D01*
X037776Y011269D01*
X037803Y011292D01*
X037831Y011313D01*
X037862Y011330D01*
X037895Y011343D01*
X037929Y011353D01*
X037964Y011359D01*
X037999Y011361D01*
X038034Y011359D01*
X038069Y011353D01*
X038103Y011343D01*
X038136Y011330D01*
X038167Y011313D01*
X038195Y011292D01*
X038222Y011269D01*
X038245Y011242D01*
X038266Y011214D01*
X038283Y011183D01*
X038296Y011150D01*
X038306Y011116D01*
X038312Y011081D01*
X038314Y011046D01*
X038312Y011011D01*
X038306Y010976D01*
X038296Y010942D01*
X038283Y010909D01*
X038266Y010878D01*
X038245Y010850D01*
X038222Y010823D01*
X038195Y010800D01*
X038167Y010779D01*
X038136Y010762D01*
X038103Y010749D01*
X038069Y010739D01*
X038034Y010733D01*
X037999Y010731D01*
X037964Y010733D01*
X037929Y010739D01*
X037895Y010749D01*
X037862Y010762D01*
X037831Y010779D01*
X037803Y010800D01*
X037776Y010823D01*
X037753Y010850D01*
X037732Y010878D01*
X037715Y010909D01*
X037702Y010942D01*
X037692Y010976D01*
X037686Y011011D01*
X037684Y011046D01*
M02*
