G75*
G70*
%OFA0B0*%
%FSLAX24Y24*%
%IPPOS*%
%LPD*%
%AMOC8*
5,1,8,0,0,1.08239X$1,22.5*
%
%ADD10C,0.0100*%
%ADD11C,0.0700*%
%ADD12C,0.1340*%
%ADD13R,0.0290X0.0540*%
%ADD14C,0.0634*%
%ADD15OC8,0.0670*%
%ADD16C,0.0670*%
%ADD17C,0.0926*%
%ADD18C,0.0780*%
%ADD19C,0.0000*%
%ADD20C,0.0670*%
%ADD21R,0.0780X0.0780*%
%ADD22C,0.0740*%
%ADD23R,0.0500X0.0670*%
%ADD24R,0.0060X0.0720*%
%ADD25C,0.0865*%
%ADD26C,0.0709*%
%ADD27OC8,0.0640*%
%ADD28C,0.0050*%
%ADD29C,0.2290*%
D10*
X002393Y001821D02*
X002330Y038999D01*
X002331Y038998D02*
X002328Y039067D01*
X002329Y039135D01*
X002334Y039203D01*
X002343Y039271D01*
X002355Y039339D01*
X002371Y039405D01*
X002390Y039471D01*
X002413Y039535D01*
X002440Y039599D01*
X002470Y039660D01*
X002503Y039720D01*
X002539Y039778D01*
X002578Y039834D01*
X002621Y039888D01*
X002666Y039939D01*
X002714Y039988D01*
X002764Y040034D01*
X002817Y040078D01*
X002873Y040118D01*
X002930Y040156D01*
X002989Y040190D01*
X003050Y040221D01*
X003113Y040249D01*
X003177Y040273D01*
X003242Y040294D01*
X003308Y040311D01*
X003375Y040324D01*
X003443Y040334D01*
X003511Y040340D01*
X003511Y040341D02*
X040913Y040341D01*
X040983Y040333D01*
X041052Y040321D01*
X041121Y040306D01*
X041188Y040287D01*
X041255Y040264D01*
X041320Y040238D01*
X041384Y040208D01*
X041446Y040175D01*
X041506Y040138D01*
X041564Y040098D01*
X041619Y040056D01*
X041673Y040010D01*
X041724Y039961D01*
X041772Y039910D01*
X041817Y039856D01*
X041859Y039800D01*
X041898Y039741D01*
X041934Y039681D01*
X041967Y039619D01*
X041996Y039555D01*
X042022Y039489D01*
X042044Y039423D01*
X042062Y039355D01*
X042077Y039286D01*
X042088Y039217D01*
X042095Y039147D01*
X042099Y039077D01*
X042098Y039006D01*
X042094Y038936D01*
X042094Y001759D01*
X042095Y001759D02*
X042081Y001685D01*
X042063Y001613D01*
X042042Y001541D01*
X042016Y001471D01*
X041988Y001402D01*
X041955Y001334D01*
X041919Y001269D01*
X041880Y001205D01*
X041837Y001144D01*
X041792Y001085D01*
X041743Y001028D01*
X041691Y000974D01*
X041637Y000923D01*
X041580Y000874D01*
X041520Y000829D01*
X041459Y000787D01*
X041395Y000748D01*
X041329Y000712D01*
X041261Y000680D01*
X041192Y000652D01*
X041122Y000627D01*
X041050Y000606D01*
X040977Y000589D01*
X040904Y000576D01*
X040829Y000566D01*
X040755Y000561D01*
X040680Y000559D01*
X040605Y000561D01*
X040531Y000567D01*
X040457Y000577D01*
X040456Y000578D02*
X003699Y000578D01*
X003698Y000577D02*
X003629Y000578D01*
X003560Y000581D01*
X003492Y000589D01*
X003424Y000600D01*
X003356Y000615D01*
X003290Y000634D01*
X003224Y000656D01*
X003160Y000682D01*
X003098Y000711D01*
X003037Y000744D01*
X002978Y000779D01*
X002921Y000818D01*
X002866Y000860D01*
X002813Y000905D01*
X002763Y000953D01*
X002716Y001003D01*
X002671Y001056D01*
X002630Y001111D01*
X002591Y001168D01*
X002555Y001227D01*
X002523Y001288D01*
X002494Y001351D01*
X002469Y001415D01*
X002447Y001481D01*
X002429Y001547D01*
X002414Y001615D01*
X002403Y001683D01*
X002396Y001752D01*
X002392Y001821D01*
D11*
X036913Y014079D03*
X037693Y014079D03*
X037693Y015063D03*
X036913Y015063D03*
D12*
X038763Y016941D03*
X038763Y012201D03*
D13*
X023508Y009776D03*
X023184Y009776D03*
X022248Y009776D03*
X021924Y009776D03*
X021924Y008713D03*
X022248Y008713D03*
X023184Y008713D03*
X023508Y008713D03*
X023508Y007650D03*
X023184Y007650D03*
X022248Y007650D03*
X021924Y007650D03*
X019093Y006997D03*
X018743Y006997D03*
X018393Y006997D03*
D14*
X024080Y026703D03*
X024080Y027703D03*
X025080Y027703D03*
X026080Y027703D03*
X026080Y026703D03*
X025080Y026703D03*
X027080Y026703D03*
X027080Y027703D03*
X028080Y027703D03*
X028080Y026703D03*
X032080Y026703D03*
X032080Y027703D03*
X033080Y027703D03*
X034080Y027703D03*
X034080Y026703D03*
X033080Y026703D03*
X035080Y026703D03*
X035080Y027703D03*
X036080Y027703D03*
X036080Y026703D03*
X040322Y026593D03*
X040322Y028364D03*
X040197Y005286D03*
X040197Y003514D03*
D15*
X024580Y005828D03*
X024580Y006578D03*
X024580Y007328D03*
X024580Y008078D03*
X013526Y021727D03*
X008798Y027223D03*
D16*
X008798Y028223D03*
X013526Y022727D03*
D17*
X039338Y026101D03*
X039338Y028857D03*
X039213Y005778D03*
X039213Y003022D03*
D18*
X039080Y001378D03*
X038080Y001278D03*
X037080Y001378D03*
X034517Y001784D03*
X033517Y001684D03*
X031454Y001784D03*
X030454Y001684D03*
X028393Y001784D03*
X027393Y001684D03*
X025329Y001784D03*
X024329Y001684D03*
X022267Y001784D03*
X021267Y001684D03*
X019204Y001784D03*
X018204Y001684D03*
X016900Y003928D03*
X015760Y003928D03*
X013900Y003928D03*
X012760Y003928D03*
X010900Y003928D03*
X009760Y003928D03*
X007900Y003928D03*
X006760Y003928D03*
X018208Y006150D03*
X019208Y006150D03*
X020208Y006150D03*
X021208Y006150D03*
X022208Y006150D03*
X026580Y006028D03*
X027580Y006128D03*
X028580Y006028D03*
X029580Y006128D03*
X030580Y006028D03*
X031580Y006128D03*
X032580Y006028D03*
X016643Y015628D03*
X015643Y015528D03*
X014643Y015628D03*
X002924Y030039D03*
X002924Y031179D03*
X007536Y038153D03*
X007536Y039153D03*
X008536Y039253D03*
X009536Y039153D03*
X009536Y038153D03*
X008536Y038253D03*
X013518Y038153D03*
X014518Y038253D03*
X015518Y038153D03*
X015518Y039153D03*
X014518Y039253D03*
X013518Y039153D03*
X019518Y039153D03*
X019518Y038153D03*
X020518Y038253D03*
X021518Y038153D03*
X021518Y039153D03*
X020518Y039253D03*
X025518Y039153D03*
X026518Y039253D03*
X027518Y039153D03*
X027518Y038153D03*
X026518Y038253D03*
X025518Y038153D03*
X031518Y038153D03*
X032518Y038253D03*
X033518Y038153D03*
X033518Y039153D03*
X032518Y039253D03*
X031518Y039153D03*
X037080Y039153D03*
X038080Y039253D03*
X038080Y038253D03*
X037080Y038153D03*
X039080Y038153D03*
X039080Y039153D03*
X041518Y031179D03*
X041518Y030039D03*
D19*
X037684Y011046D02*
X037686Y011081D01*
X037692Y011116D01*
X037702Y011150D01*
X037715Y011183D01*
X037732Y011214D01*
X037753Y011242D01*
X037776Y011269D01*
X037803Y011292D01*
X037831Y011313D01*
X037862Y011330D01*
X037895Y011343D01*
X037929Y011353D01*
X037964Y011359D01*
X037999Y011361D01*
X038034Y011359D01*
X038069Y011353D01*
X038103Y011343D01*
X038136Y011330D01*
X038167Y011313D01*
X038195Y011292D01*
X038222Y011269D01*
X038245Y011242D01*
X038266Y011214D01*
X038283Y011183D01*
X038296Y011150D01*
X038306Y011116D01*
X038312Y011081D01*
X038314Y011046D01*
X038312Y011011D01*
X038306Y010976D01*
X038296Y010942D01*
X038283Y010909D01*
X038266Y010878D01*
X038245Y010850D01*
X038222Y010823D01*
X038195Y010800D01*
X038167Y010779D01*
X038136Y010762D01*
X038103Y010749D01*
X038069Y010739D01*
X038034Y010733D01*
X037999Y010731D01*
X037964Y010733D01*
X037929Y010739D01*
X037895Y010749D01*
X037862Y010762D01*
X037831Y010779D01*
X037803Y010800D01*
X037776Y010823D01*
X037753Y010850D01*
X037732Y010878D01*
X037715Y010909D01*
X037702Y010942D01*
X037692Y010976D01*
X037686Y011011D01*
X037684Y011046D01*
X037684Y007109D02*
X037686Y007144D01*
X037692Y007179D01*
X037702Y007213D01*
X037715Y007246D01*
X037732Y007277D01*
X037753Y007305D01*
X037776Y007332D01*
X037803Y007355D01*
X037831Y007376D01*
X037862Y007393D01*
X037895Y007406D01*
X037929Y007416D01*
X037964Y007422D01*
X037999Y007424D01*
X038034Y007422D01*
X038069Y007416D01*
X038103Y007406D01*
X038136Y007393D01*
X038167Y007376D01*
X038195Y007355D01*
X038222Y007332D01*
X038245Y007305D01*
X038266Y007277D01*
X038283Y007246D01*
X038296Y007213D01*
X038306Y007179D01*
X038312Y007144D01*
X038314Y007109D01*
X038312Y007074D01*
X038306Y007039D01*
X038296Y007005D01*
X038283Y006972D01*
X038266Y006941D01*
X038245Y006913D01*
X038222Y006886D01*
X038195Y006863D01*
X038167Y006842D01*
X038136Y006825D01*
X038103Y006812D01*
X038069Y006802D01*
X038034Y006796D01*
X037999Y006794D01*
X037964Y006796D01*
X037929Y006802D01*
X037895Y006812D01*
X037862Y006825D01*
X037831Y006842D01*
X037803Y006863D01*
X037776Y006886D01*
X037753Y006913D01*
X037732Y006941D01*
X037715Y006972D01*
X037702Y007005D01*
X037692Y007039D01*
X037686Y007074D01*
X037684Y007109D01*
D20*
X037999Y007109D03*
X037999Y011046D03*
D21*
X035517Y001684D03*
X032454Y001684D03*
X029393Y001684D03*
X026329Y001684D03*
X023267Y001684D03*
X020204Y001684D03*
X025580Y006128D03*
X024518Y038253D03*
X024518Y039253D03*
X030518Y039253D03*
X030518Y038253D03*
X036080Y038253D03*
X036080Y039253D03*
X018518Y039253D03*
X018518Y038253D03*
X012518Y038253D03*
X012518Y039253D03*
X006536Y039253D03*
X006536Y038253D03*
D22*
X004661Y037159D03*
X004661Y036159D03*
X004661Y035159D03*
X004661Y034159D03*
X004661Y033159D03*
X004661Y032159D03*
X004661Y031159D03*
X004661Y030159D03*
X009661Y030159D03*
X009661Y031159D03*
X009661Y032159D03*
X010658Y032159D03*
X010658Y031159D03*
X010658Y030159D03*
X010658Y033159D03*
X010658Y034159D03*
X009661Y034159D03*
X009661Y033159D03*
X009661Y035159D03*
X009661Y036159D03*
X010658Y036159D03*
X010658Y035159D03*
X010658Y037159D03*
X009661Y037159D03*
X015658Y037159D03*
X016658Y037159D03*
X016658Y036159D03*
X015658Y036159D03*
X015658Y035159D03*
X016658Y035159D03*
X016658Y034159D03*
X015658Y034159D03*
X015658Y033159D03*
X016658Y033159D03*
X016658Y032159D03*
X015658Y032159D03*
X015658Y031159D03*
X016658Y031159D03*
X016658Y030159D03*
X015658Y030159D03*
X021658Y030159D03*
X021658Y031159D03*
X021658Y032159D03*
X021658Y033159D03*
X021658Y034159D03*
X021658Y035159D03*
X021658Y036159D03*
X021658Y037159D03*
X022658Y037159D03*
X022658Y036159D03*
X022658Y035159D03*
X022658Y034159D03*
X022658Y033159D03*
X022658Y032159D03*
X022658Y031159D03*
X022658Y030159D03*
X027658Y030159D03*
X027658Y031159D03*
X027658Y032159D03*
X028658Y032159D03*
X028658Y031159D03*
X028658Y030159D03*
X028658Y033159D03*
X028658Y034159D03*
X027658Y034159D03*
X027658Y033159D03*
X027658Y035159D03*
X027658Y036159D03*
X028658Y036159D03*
X028658Y035159D03*
X028658Y037159D03*
X027658Y037159D03*
X033658Y037159D03*
X034658Y037159D03*
X034658Y036159D03*
X034658Y035159D03*
X033658Y035159D03*
X033658Y036159D03*
X033658Y034159D03*
X033658Y033159D03*
X034658Y033159D03*
X034658Y034159D03*
X034658Y032159D03*
X034658Y031159D03*
X034658Y030159D03*
X033658Y030159D03*
X033658Y031159D03*
X033658Y032159D03*
X039658Y032159D03*
X039658Y031159D03*
X039658Y030159D03*
X039658Y033159D03*
X039658Y034159D03*
X039658Y035159D03*
X039658Y036159D03*
X039658Y037159D03*
D23*
X038880Y033140D03*
X038280Y033140D03*
X038280Y032140D03*
X038880Y032140D03*
X038880Y031140D03*
X038280Y031140D03*
X032880Y031140D03*
X032280Y031140D03*
X032280Y032140D03*
X032880Y032140D03*
X032880Y033140D03*
X032280Y033140D03*
X026880Y033140D03*
X026280Y033140D03*
X026280Y032140D03*
X026880Y032140D03*
X026880Y031140D03*
X026280Y031140D03*
X020880Y031140D03*
X020280Y031140D03*
X020280Y032140D03*
X020880Y032140D03*
X020880Y033140D03*
X020280Y033140D03*
X014880Y033140D03*
X014280Y033140D03*
X014280Y032140D03*
X014880Y032140D03*
X014880Y031140D03*
X014280Y031140D03*
X008880Y031140D03*
X008280Y031140D03*
X008280Y032140D03*
X008880Y032140D03*
X008880Y033140D03*
X008280Y033140D03*
D24*
X008580Y033140D03*
X008580Y032140D03*
X008580Y031140D03*
X014580Y031140D03*
X014580Y032140D03*
X014580Y033140D03*
X020580Y033140D03*
X020580Y032140D03*
X020580Y031140D03*
X026580Y031140D03*
X026580Y032140D03*
X026580Y033140D03*
X032580Y033140D03*
X032580Y032140D03*
X032580Y031140D03*
X038580Y031140D03*
X038580Y032140D03*
X038580Y033140D03*
D25*
X005493Y028015D02*
X004668Y028015D01*
X004668Y025015D02*
X005493Y025015D01*
X005493Y021890D02*
X004668Y021890D01*
X004668Y018890D02*
X005493Y018890D01*
X005493Y015890D02*
X004668Y015890D01*
X004668Y012890D02*
X005493Y012890D01*
X004493Y006390D02*
X003668Y006390D01*
X003668Y004390D02*
X004493Y004390D01*
D26*
X006391Y001976D03*
X007769Y001976D03*
X009341Y001976D03*
X010719Y001976D03*
X012291Y001976D03*
X013669Y001976D03*
X015241Y001976D03*
X016619Y001976D03*
D27*
X016580Y012578D03*
X015580Y012578D03*
X015580Y013578D03*
X016580Y013578D03*
X017580Y013578D03*
X018580Y013578D03*
X018580Y012578D03*
X017580Y012578D03*
X014580Y012578D03*
X013580Y012578D03*
X012580Y012578D03*
X012580Y013578D03*
X013580Y013578D03*
X014580Y013578D03*
D28*
X004450Y010025D02*
X004468Y009958D01*
X004474Y009890D01*
X004468Y009822D01*
X004450Y009755D01*
X004421Y009693D01*
X004382Y009637D01*
X004333Y009588D01*
X004277Y009549D01*
X004215Y009520D01*
X004148Y009502D01*
X004080Y009496D01*
X004012Y009502D01*
X003945Y009520D01*
X003883Y009549D01*
X003827Y009588D01*
X003778Y009637D01*
X003739Y009693D01*
X003710Y009755D01*
X003692Y009822D01*
X003686Y009890D01*
X003692Y009958D01*
X003710Y010025D01*
X003739Y010087D01*
X003778Y010143D01*
X003827Y010192D01*
X003883Y010231D01*
X003945Y010260D01*
X004012Y010278D01*
X004080Y010284D01*
X004148Y010278D01*
X004215Y010260D01*
X004277Y010231D01*
X004333Y010192D01*
X004382Y010143D01*
X004421Y010087D01*
X004450Y010025D01*
X004445Y010035D02*
X003715Y010035D01*
X003700Y009987D02*
X004460Y009987D01*
X004469Y009938D02*
X003691Y009938D01*
X003686Y009890D02*
X004474Y009890D01*
X004469Y009841D02*
X003691Y009841D01*
X003700Y009793D02*
X004460Y009793D01*
X004445Y009744D02*
X003715Y009744D01*
X003738Y009696D02*
X004422Y009696D01*
X004389Y009647D02*
X003771Y009647D01*
X003817Y009599D02*
X004343Y009599D01*
X004278Y009550D02*
X003882Y009550D01*
X004020Y009502D02*
X004140Y009502D01*
X004422Y010084D02*
X003738Y010084D01*
X003771Y010132D02*
X004389Y010132D01*
X004344Y010181D02*
X003816Y010181D01*
X003880Y010229D02*
X004280Y010229D01*
X004149Y010278D02*
X004011Y010278D01*
X038936Y009078D02*
X038942Y009146D01*
X038960Y009212D01*
X038989Y009274D01*
X039028Y009331D01*
X039077Y009379D01*
X039133Y009418D01*
X039195Y009447D01*
X039262Y009465D01*
X039330Y009471D01*
X039398Y009465D01*
X039465Y009447D01*
X039527Y009418D01*
X039583Y009379D01*
X039632Y009331D01*
X039671Y009274D01*
X039700Y009212D01*
X039718Y009146D01*
X039724Y009078D01*
X039718Y009009D01*
X039700Y008943D01*
X039671Y008881D01*
X039632Y008824D01*
X039583Y008776D01*
X039527Y008737D01*
X039465Y008708D01*
X039398Y008690D01*
X039330Y008684D01*
X039262Y008690D01*
X039195Y008708D01*
X039133Y008737D01*
X039077Y008776D01*
X039028Y008824D01*
X038989Y008881D01*
X038960Y008943D01*
X038942Y009009D01*
X038936Y009078D01*
X038937Y009065D02*
X039723Y009065D01*
X039721Y009114D02*
X038939Y009114D01*
X038947Y009162D02*
X039713Y009162D01*
X039700Y009211D02*
X038960Y009211D01*
X038982Y009259D02*
X039678Y009259D01*
X039648Y009308D02*
X039012Y009308D01*
X039054Y009356D02*
X039606Y009356D01*
X039547Y009405D02*
X039113Y009405D01*
X039216Y009453D02*
X039444Y009453D01*
X039718Y009017D02*
X038942Y009017D01*
X038953Y008968D02*
X039707Y008968D01*
X039689Y008920D02*
X038971Y008920D01*
X038996Y008871D02*
X039664Y008871D01*
X039630Y008823D02*
X039030Y008823D01*
X039080Y008774D02*
X039580Y008774D01*
X039503Y008726D02*
X039157Y008726D01*
X041449Y031690D02*
X041383Y031708D01*
X041321Y031737D01*
X041264Y031776D01*
X041216Y031824D01*
X041177Y031881D01*
X041148Y031943D01*
X041130Y032009D01*
X041124Y032078D01*
X041130Y032146D01*
X041148Y032212D01*
X041177Y032274D01*
X041216Y032331D01*
X041264Y032379D01*
X041321Y032418D01*
X041383Y032447D01*
X041449Y032465D01*
X041518Y032471D01*
X041586Y032465D01*
X041652Y032447D01*
X041714Y032418D01*
X041771Y032379D01*
X041819Y032331D01*
X041858Y032274D01*
X041887Y032212D01*
X041905Y032146D01*
X041911Y032078D01*
X041905Y032009D01*
X041887Y031943D01*
X041858Y031881D01*
X041819Y031824D01*
X041771Y031776D01*
X041714Y031737D01*
X041652Y031708D01*
X041586Y031690D01*
X041518Y031684D01*
X041449Y031690D01*
X041368Y031715D02*
X041667Y031715D01*
X041752Y031763D02*
X041283Y031763D01*
X041229Y031812D02*
X041806Y031812D01*
X041844Y031860D02*
X041191Y031860D01*
X041163Y031909D02*
X041872Y031909D01*
X041891Y031957D02*
X041144Y031957D01*
X041131Y032006D02*
X041904Y032006D01*
X041909Y032054D02*
X041126Y032054D01*
X041126Y032103D02*
X041909Y032103D01*
X041904Y032151D02*
X041131Y032151D01*
X041144Y032200D02*
X041891Y032200D01*
X041871Y032248D02*
X041164Y032248D01*
X041192Y032297D02*
X041843Y032297D01*
X041804Y032345D02*
X041231Y032345D01*
X041285Y032394D02*
X041750Y032394D01*
X041664Y032442D02*
X041371Y032442D01*
D29*
X040913Y039160D03*
X003511Y039160D03*
X003511Y001759D03*
X040913Y001759D03*
M02*
