G75*
G70*
%OFA0B0*%
%FSLAX24Y24*%
%IPPOS*%
%LPD*%
%AMOC8*
5,1,8,0,0,1.08239X$1,22.5*
%
%ADD10C,0.0100*%
%ADD11C,0.0700*%
%ADD12C,0.1340*%
%ADD13R,0.0290X0.0540*%
%ADD14C,0.0634*%
%ADD15C,0.0926*%
%ADD16C,0.0780*%
%ADD17C,0.0000*%
%ADD18C,0.0670*%
%ADD19R,0.0780X0.0780*%
%ADD20C,0.0740*%
%ADD21R,0.0500X0.0670*%
%ADD22R,0.0060X0.0720*%
%ADD23C,0.0865*%
%ADD24OC8,0.0640*%
%ADD25OC8,0.0670*%
%ADD26C,0.0709*%
%ADD27C,0.2290*%
D10*
X002330Y001759D02*
X002330Y039160D01*
X002332Y039226D01*
X002337Y039292D01*
X002347Y039358D01*
X002360Y039423D01*
X002376Y039487D01*
X002396Y039550D01*
X002420Y039612D01*
X002447Y039672D01*
X002477Y039731D01*
X002511Y039788D01*
X002548Y039843D01*
X002588Y039896D01*
X002630Y039947D01*
X002676Y039995D01*
X002724Y040041D01*
X002775Y040083D01*
X002828Y040123D01*
X002883Y040160D01*
X002940Y040194D01*
X002999Y040224D01*
X003059Y040251D01*
X003121Y040275D01*
X003184Y040295D01*
X003248Y040311D01*
X003313Y040324D01*
X003379Y040334D01*
X003445Y040339D01*
X003511Y040341D01*
X040913Y040341D01*
X040979Y040339D01*
X041045Y040334D01*
X041111Y040324D01*
X041176Y040311D01*
X041240Y040295D01*
X041303Y040275D01*
X041365Y040251D01*
X041425Y040224D01*
X041484Y040194D01*
X041541Y040160D01*
X041596Y040123D01*
X041649Y040083D01*
X041700Y040041D01*
X041748Y039995D01*
X041794Y039947D01*
X041836Y039896D01*
X041876Y039843D01*
X041913Y039788D01*
X041947Y039731D01*
X041977Y039672D01*
X042004Y039612D01*
X042028Y039550D01*
X042048Y039487D01*
X042064Y039423D01*
X042077Y039358D01*
X042087Y039292D01*
X042092Y039226D01*
X042094Y039160D01*
X042094Y001759D01*
X042092Y001693D01*
X042087Y001627D01*
X042077Y001561D01*
X042064Y001496D01*
X042048Y001432D01*
X042028Y001369D01*
X042004Y001307D01*
X041977Y001247D01*
X041947Y001188D01*
X041913Y001131D01*
X041876Y001076D01*
X041836Y001023D01*
X041794Y000972D01*
X041748Y000924D01*
X041700Y000878D01*
X041649Y000836D01*
X041596Y000796D01*
X041541Y000759D01*
X041484Y000725D01*
X041425Y000695D01*
X041365Y000668D01*
X041303Y000644D01*
X041240Y000624D01*
X041176Y000608D01*
X041111Y000595D01*
X041045Y000585D01*
X040979Y000580D01*
X040913Y000578D01*
X003511Y000578D01*
X003445Y000580D01*
X003379Y000585D01*
X003313Y000595D01*
X003248Y000608D01*
X003184Y000624D01*
X003121Y000644D01*
X003059Y000668D01*
X002999Y000695D01*
X002940Y000725D01*
X002883Y000759D01*
X002828Y000796D01*
X002775Y000836D01*
X002724Y000878D01*
X002676Y000924D01*
X002630Y000972D01*
X002588Y001023D01*
X002548Y001076D01*
X002511Y001131D01*
X002477Y001188D01*
X002447Y001247D01*
X002420Y001307D01*
X002396Y001369D01*
X002376Y001432D01*
X002360Y001496D01*
X002347Y001561D01*
X002337Y001627D01*
X002332Y001693D01*
X002330Y001759D01*
D11*
X036913Y014079D03*
X037693Y014079D03*
X037693Y015063D03*
X036913Y015063D03*
D12*
X038763Y016941D03*
X038763Y012201D03*
D13*
X023508Y009776D03*
X023184Y009776D03*
X022248Y009776D03*
X021924Y009776D03*
X021924Y008713D03*
X022248Y008713D03*
X023184Y008713D03*
X023508Y008713D03*
X023508Y007650D03*
X023184Y007650D03*
X022248Y007650D03*
X021924Y007650D03*
X019093Y006997D03*
X018743Y006997D03*
X018393Y006997D03*
D14*
X024080Y026703D03*
X024080Y027703D03*
X025080Y027703D03*
X026080Y027703D03*
X026080Y026703D03*
X025080Y026703D03*
X027080Y026703D03*
X027080Y027703D03*
X028080Y027703D03*
X028080Y026703D03*
X032080Y026703D03*
X032080Y027703D03*
X033080Y027703D03*
X034080Y027703D03*
X034080Y026703D03*
X033080Y026703D03*
X035080Y026703D03*
X035080Y027703D03*
X036080Y027703D03*
X036080Y026703D03*
X040322Y026593D03*
X040322Y028364D03*
X040197Y005286D03*
X040197Y003514D03*
D15*
X039213Y003022D03*
X039213Y005778D03*
X039338Y026101D03*
X039338Y028857D03*
D16*
X041518Y030039D03*
X041518Y031179D03*
X039080Y038153D03*
X039080Y039153D03*
X038080Y039253D03*
X037080Y039153D03*
X037080Y038153D03*
X038080Y038253D03*
X033518Y038153D03*
X032518Y038253D03*
X031518Y038153D03*
X031518Y039153D03*
X032518Y039253D03*
X033518Y039153D03*
X027518Y039153D03*
X026518Y039253D03*
X025518Y039153D03*
X025518Y038153D03*
X026518Y038253D03*
X027518Y038153D03*
X021518Y038153D03*
X020518Y038253D03*
X020518Y039253D03*
X021518Y039153D03*
X019518Y039153D03*
X019518Y038153D03*
X015518Y038153D03*
X014518Y038253D03*
X013518Y038153D03*
X013518Y039153D03*
X014518Y039253D03*
X015518Y039153D03*
X009536Y039153D03*
X008536Y039253D03*
X008536Y038253D03*
X009536Y038153D03*
X007536Y038153D03*
X007536Y039153D03*
X002924Y031179D03*
X002924Y030039D03*
X014643Y015628D03*
X015643Y015528D03*
X016643Y015628D03*
X018208Y006150D03*
X019208Y006150D03*
X020208Y006150D03*
X021208Y006150D03*
X022208Y006150D03*
X026580Y006028D03*
X027580Y006128D03*
X028580Y006028D03*
X029580Y006128D03*
X030580Y006028D03*
X031580Y006128D03*
X032580Y006028D03*
X033204Y001684D03*
X034204Y001784D03*
X037080Y001378D03*
X038080Y001278D03*
X039080Y001378D03*
X031204Y001784D03*
X030204Y001684D03*
X028204Y001784D03*
X027204Y001684D03*
X025204Y001784D03*
X024204Y001684D03*
X022204Y001784D03*
X021204Y001684D03*
X019204Y001784D03*
X018204Y001684D03*
X016150Y003928D03*
X015010Y003928D03*
X013400Y003928D03*
X012260Y003928D03*
X010650Y003928D03*
X009510Y003928D03*
X007900Y003928D03*
X006760Y003928D03*
D17*
X037684Y007109D02*
X037686Y007144D01*
X037692Y007179D01*
X037702Y007213D01*
X037715Y007246D01*
X037732Y007277D01*
X037753Y007305D01*
X037776Y007332D01*
X037803Y007355D01*
X037831Y007376D01*
X037862Y007393D01*
X037895Y007406D01*
X037929Y007416D01*
X037964Y007422D01*
X037999Y007424D01*
X038034Y007422D01*
X038069Y007416D01*
X038103Y007406D01*
X038136Y007393D01*
X038167Y007376D01*
X038195Y007355D01*
X038222Y007332D01*
X038245Y007305D01*
X038266Y007277D01*
X038283Y007246D01*
X038296Y007213D01*
X038306Y007179D01*
X038312Y007144D01*
X038314Y007109D01*
X038312Y007074D01*
X038306Y007039D01*
X038296Y007005D01*
X038283Y006972D01*
X038266Y006941D01*
X038245Y006913D01*
X038222Y006886D01*
X038195Y006863D01*
X038167Y006842D01*
X038136Y006825D01*
X038103Y006812D01*
X038069Y006802D01*
X038034Y006796D01*
X037999Y006794D01*
X037964Y006796D01*
X037929Y006802D01*
X037895Y006812D01*
X037862Y006825D01*
X037831Y006842D01*
X037803Y006863D01*
X037776Y006886D01*
X037753Y006913D01*
X037732Y006941D01*
X037715Y006972D01*
X037702Y007005D01*
X037692Y007039D01*
X037686Y007074D01*
X037684Y007109D01*
X037684Y011046D02*
X037686Y011081D01*
X037692Y011116D01*
X037702Y011150D01*
X037715Y011183D01*
X037732Y011214D01*
X037753Y011242D01*
X037776Y011269D01*
X037803Y011292D01*
X037831Y011313D01*
X037862Y011330D01*
X037895Y011343D01*
X037929Y011353D01*
X037964Y011359D01*
X037999Y011361D01*
X038034Y011359D01*
X038069Y011353D01*
X038103Y011343D01*
X038136Y011330D01*
X038167Y011313D01*
X038195Y011292D01*
X038222Y011269D01*
X038245Y011242D01*
X038266Y011214D01*
X038283Y011183D01*
X038296Y011150D01*
X038306Y011116D01*
X038312Y011081D01*
X038314Y011046D01*
X038312Y011011D01*
X038306Y010976D01*
X038296Y010942D01*
X038283Y010909D01*
X038266Y010878D01*
X038245Y010850D01*
X038222Y010823D01*
X038195Y010800D01*
X038167Y010779D01*
X038136Y010762D01*
X038103Y010749D01*
X038069Y010739D01*
X038034Y010733D01*
X037999Y010731D01*
X037964Y010733D01*
X037929Y010739D01*
X037895Y010749D01*
X037862Y010762D01*
X037831Y010779D01*
X037803Y010800D01*
X037776Y010823D01*
X037753Y010850D01*
X037732Y010878D01*
X037715Y010909D01*
X037702Y010942D01*
X037692Y010976D01*
X037686Y011011D01*
X037684Y011046D01*
D18*
X037999Y011046D03*
X037999Y007109D03*
D19*
X035204Y001684D03*
X032204Y001684D03*
X029204Y001684D03*
X026204Y001684D03*
X023204Y001684D03*
X020204Y001684D03*
X025580Y006128D03*
X024518Y038253D03*
X024518Y039253D03*
X030518Y039253D03*
X030518Y038253D03*
X036080Y038253D03*
X036080Y039253D03*
X018518Y039253D03*
X018518Y038253D03*
X012518Y038253D03*
X012518Y039253D03*
X006536Y039253D03*
X006536Y038253D03*
D20*
X004661Y037159D03*
X004661Y036159D03*
X004661Y035159D03*
X004661Y034159D03*
X004661Y033159D03*
X004661Y032159D03*
X004661Y031159D03*
X004661Y030159D03*
X009661Y030159D03*
X009661Y031159D03*
X009661Y032159D03*
X010658Y032159D03*
X010658Y031159D03*
X010658Y030159D03*
X010658Y033159D03*
X010658Y034159D03*
X009661Y034159D03*
X009661Y033159D03*
X009661Y035159D03*
X009661Y036159D03*
X010658Y036159D03*
X010658Y035159D03*
X010658Y037159D03*
X009661Y037159D03*
X015658Y037159D03*
X016658Y037159D03*
X016658Y036159D03*
X015658Y036159D03*
X015658Y035159D03*
X016658Y035159D03*
X016658Y034159D03*
X015658Y034159D03*
X015658Y033159D03*
X016658Y033159D03*
X016658Y032159D03*
X015658Y032159D03*
X015658Y031159D03*
X016658Y031159D03*
X016658Y030159D03*
X015658Y030159D03*
X021658Y030159D03*
X021658Y031159D03*
X021658Y032159D03*
X021658Y033159D03*
X021658Y034159D03*
X021658Y035159D03*
X021658Y036159D03*
X021658Y037159D03*
X022658Y037159D03*
X022658Y036159D03*
X022658Y035159D03*
X022658Y034159D03*
X022658Y033159D03*
X022658Y032159D03*
X022658Y031159D03*
X022658Y030159D03*
X027658Y030159D03*
X027658Y031159D03*
X027658Y032159D03*
X028658Y032159D03*
X028658Y031159D03*
X028658Y030159D03*
X028658Y033159D03*
X028658Y034159D03*
X027658Y034159D03*
X027658Y033159D03*
X027658Y035159D03*
X027658Y036159D03*
X028658Y036159D03*
X028658Y035159D03*
X028658Y037159D03*
X027658Y037159D03*
X033658Y037159D03*
X034658Y037159D03*
X034658Y036159D03*
X034658Y035159D03*
X033658Y035159D03*
X033658Y036159D03*
X033658Y034159D03*
X033658Y033159D03*
X034658Y033159D03*
X034658Y034159D03*
X034658Y032159D03*
X034658Y031159D03*
X034658Y030159D03*
X033658Y030159D03*
X033658Y031159D03*
X033658Y032159D03*
X039658Y032159D03*
X039658Y031159D03*
X039658Y030159D03*
X039658Y033159D03*
X039658Y034159D03*
X039658Y035159D03*
X039658Y036159D03*
X039658Y037159D03*
D21*
X038880Y033140D03*
X038280Y033140D03*
X038280Y032140D03*
X038880Y032140D03*
X038880Y031140D03*
X038280Y031140D03*
X032880Y031140D03*
X032280Y031140D03*
X032280Y032140D03*
X032880Y032140D03*
X032880Y033140D03*
X032280Y033140D03*
X026880Y033140D03*
X026280Y033140D03*
X026280Y032140D03*
X026880Y032140D03*
X026880Y031140D03*
X026280Y031140D03*
X020880Y031140D03*
X020280Y031140D03*
X020280Y032140D03*
X020880Y032140D03*
X020880Y033140D03*
X020280Y033140D03*
X014880Y033140D03*
X014280Y033140D03*
X014280Y032140D03*
X014880Y032140D03*
X014880Y031140D03*
X014280Y031140D03*
X008880Y031140D03*
X008280Y031140D03*
X008280Y032140D03*
X008880Y032140D03*
X008880Y033140D03*
X008280Y033140D03*
D22*
X008580Y033140D03*
X008580Y032140D03*
X008580Y031140D03*
X014580Y031140D03*
X014580Y032140D03*
X014580Y033140D03*
X020580Y033140D03*
X020580Y032140D03*
X020580Y031140D03*
X026580Y031140D03*
X026580Y032140D03*
X026580Y033140D03*
X032580Y033140D03*
X032580Y032140D03*
X032580Y031140D03*
X038580Y031140D03*
X038580Y032140D03*
X038580Y033140D03*
D23*
X005493Y027778D02*
X004668Y027778D01*
X004668Y024778D02*
X005493Y024778D01*
X005493Y021778D02*
X004668Y021778D01*
X004668Y018778D02*
X005493Y018778D01*
X005493Y015778D02*
X004668Y015778D01*
X004668Y012778D02*
X005493Y012778D01*
X004493Y006390D02*
X003668Y006390D01*
X003668Y004390D02*
X004493Y004390D01*
D24*
X012580Y012578D03*
X013580Y012578D03*
X014580Y012578D03*
X014580Y013578D03*
X013580Y013578D03*
X012580Y013578D03*
X015580Y013578D03*
X016580Y013578D03*
X017580Y013578D03*
X018580Y013578D03*
X018580Y012578D03*
X017580Y012578D03*
X016580Y012578D03*
X015580Y012578D03*
D25*
X024580Y008078D03*
X024580Y007328D03*
X024580Y006578D03*
X024580Y005828D03*
D26*
X016053Y001968D03*
X014675Y001968D03*
X013297Y001968D03*
X011919Y001968D03*
X010541Y001968D03*
X009163Y001968D03*
X007785Y001968D03*
X006407Y001968D03*
D27*
X003511Y001759D03*
X040913Y001759D03*
X040913Y039160D03*
X003511Y039160D03*
M02*
