G75*
G70*
%OFA0B0*%
%FSLAX24Y24*%
%IPPOS*%
%LPD*%
%AMOC8*
5,1,8,0,0,1.08239X$1,22.5*
%
%ADD10C,0.0100*%
%ADD11R,0.0106X0.0591*%
%ADD12R,0.0591X0.0106*%
%ADD13R,0.0551X0.0472*%
%ADD14R,0.0433X0.0394*%
%ADD15R,0.0394X0.0433*%
%ADD16R,0.0600X0.0300*%
%ADD17R,0.0315X0.0315*%
%ADD18R,0.0300X0.0600*%
%ADD19R,0.0197X0.0197*%
%ADD20R,0.0327X0.0248*%
%ADD21R,0.1000X0.1000*%
%ADD22R,0.4098X0.4252*%
%ADD23R,0.0850X0.0420*%
%ADD24R,0.2126X0.1575*%
%ADD25R,0.0827X0.0500*%
%ADD26R,0.0472X0.0787*%
%ADD27R,0.0531X0.0591*%
%ADD28R,0.0394X0.0551*%
%ADD29R,0.0394X0.0512*%
%ADD30R,0.0591X0.0295*%
%ADD31C,0.0000*%
%ADD32R,0.1378X0.0630*%
%ADD33R,0.0820X0.1500*%
%ADD34R,0.4500X0.3500*%
%ADD35R,0.2126X0.2441*%
%ADD36R,0.0394X0.0630*%
%ADD37R,0.0880X0.0480*%
%ADD38R,0.0866X0.1417*%
%ADD39R,0.0256X0.0197*%
%ADD40R,0.0551X0.0394*%
%ADD41R,0.0248X0.0327*%
%ADD42R,0.0472X0.0217*%
%ADD43R,0.0630X0.1378*%
%ADD44R,0.1378X0.0984*%
D10*
X002330Y001759D02*
X002330Y039160D01*
X002332Y039226D01*
X002337Y039292D01*
X002347Y039358D01*
X002360Y039423D01*
X002376Y039487D01*
X002396Y039550D01*
X002420Y039612D01*
X002447Y039672D01*
X002477Y039731D01*
X002511Y039788D01*
X002548Y039843D01*
X002588Y039896D01*
X002630Y039947D01*
X002676Y039995D01*
X002724Y040041D01*
X002775Y040083D01*
X002828Y040123D01*
X002883Y040160D01*
X002940Y040194D01*
X002999Y040224D01*
X003059Y040251D01*
X003121Y040275D01*
X003184Y040295D01*
X003248Y040311D01*
X003313Y040324D01*
X003379Y040334D01*
X003445Y040339D01*
X003511Y040341D01*
X040913Y040341D01*
X040979Y040339D01*
X041045Y040334D01*
X041111Y040324D01*
X041176Y040311D01*
X041240Y040295D01*
X041303Y040275D01*
X041365Y040251D01*
X041425Y040224D01*
X041484Y040194D01*
X041541Y040160D01*
X041596Y040123D01*
X041649Y040083D01*
X041700Y040041D01*
X041748Y039995D01*
X041794Y039947D01*
X041836Y039896D01*
X041876Y039843D01*
X041913Y039788D01*
X041947Y039731D01*
X041977Y039672D01*
X042004Y039612D01*
X042028Y039550D01*
X042048Y039487D01*
X042064Y039423D01*
X042077Y039358D01*
X042087Y039292D01*
X042092Y039226D01*
X042094Y039160D01*
X042094Y001759D01*
X042092Y001693D01*
X042087Y001627D01*
X042077Y001561D01*
X042064Y001496D01*
X042048Y001432D01*
X042028Y001369D01*
X042004Y001307D01*
X041977Y001247D01*
X041947Y001188D01*
X041913Y001131D01*
X041876Y001076D01*
X041836Y001023D01*
X041794Y000972D01*
X041748Y000924D01*
X041700Y000878D01*
X041649Y000836D01*
X041596Y000796D01*
X041541Y000759D01*
X041484Y000725D01*
X041425Y000695D01*
X041365Y000668D01*
X041303Y000644D01*
X041240Y000624D01*
X041176Y000608D01*
X041111Y000595D01*
X041045Y000585D01*
X040979Y000580D01*
X040913Y000578D01*
X003511Y000578D01*
X003445Y000580D01*
X003379Y000585D01*
X003313Y000595D01*
X003248Y000608D01*
X003184Y000624D01*
X003121Y000644D01*
X003059Y000668D01*
X002999Y000695D01*
X002940Y000725D01*
X002883Y000759D01*
X002828Y000796D01*
X002775Y000836D01*
X002724Y000878D01*
X002676Y000924D01*
X002630Y000972D01*
X002588Y001023D01*
X002548Y001076D01*
X002511Y001131D01*
X002477Y001188D01*
X002447Y001247D01*
X002420Y001307D01*
X002396Y001369D01*
X002376Y001432D01*
X002360Y001496D01*
X002347Y001561D01*
X002337Y001627D01*
X002332Y001693D01*
X002330Y001759D01*
D11*
G36*
X021583Y015023D02*
X021508Y014948D01*
X021091Y015365D01*
X021166Y015440D01*
X021583Y015023D01*
G37*
G36*
X021722Y015162D02*
X021647Y015087D01*
X021230Y015504D01*
X021305Y015579D01*
X021722Y015162D01*
G37*
G36*
X021861Y015301D02*
X021786Y015226D01*
X021369Y015643D01*
X021444Y015718D01*
X021861Y015301D01*
G37*
G36*
X022000Y015441D02*
X021925Y015366D01*
X021508Y015783D01*
X021583Y015858D01*
X022000Y015441D01*
G37*
G36*
X022140Y015580D02*
X022065Y015505D01*
X021648Y015922D01*
X021723Y015997D01*
X022140Y015580D01*
G37*
G36*
X022279Y015719D02*
X022204Y015644D01*
X021787Y016061D01*
X021862Y016136D01*
X022279Y015719D01*
G37*
G36*
X022418Y015858D02*
X022343Y015783D01*
X021926Y016200D01*
X022001Y016275D01*
X022418Y015858D01*
G37*
G36*
X022557Y015997D02*
X022482Y015922D01*
X022065Y016339D01*
X022140Y016414D01*
X022557Y015997D01*
G37*
G36*
X022696Y016137D02*
X022621Y016062D01*
X022204Y016479D01*
X022279Y016554D01*
X022696Y016137D01*
G37*
G36*
X022836Y016276D02*
X022761Y016201D01*
X022344Y016618D01*
X022419Y016693D01*
X022836Y016276D01*
G37*
G36*
X022975Y016415D02*
X022900Y016340D01*
X022483Y016757D01*
X022558Y016832D01*
X022975Y016415D01*
G37*
G36*
X023114Y016554D02*
X023039Y016479D01*
X022622Y016896D01*
X022697Y016971D01*
X023114Y016554D01*
G37*
G36*
X023253Y016693D02*
X023178Y016618D01*
X022761Y017035D01*
X022836Y017110D01*
X023253Y016693D01*
G37*
G36*
X023392Y016833D02*
X023317Y016758D01*
X022900Y017175D01*
X022975Y017250D01*
X023392Y016833D01*
G37*
G36*
X023532Y016972D02*
X023457Y016897D01*
X023040Y017314D01*
X023115Y017389D01*
X023532Y016972D01*
G37*
G36*
X023671Y017111D02*
X023596Y017036D01*
X023179Y017453D01*
X023254Y017528D01*
X023671Y017111D01*
G37*
G36*
X023810Y017250D02*
X023735Y017175D01*
X023318Y017592D01*
X023393Y017667D01*
X023810Y017250D01*
G37*
G36*
X023949Y017389D02*
X023874Y017314D01*
X023457Y017731D01*
X023532Y017806D01*
X023949Y017389D01*
G37*
G36*
X024088Y017529D02*
X024013Y017454D01*
X023596Y017871D01*
X023671Y017946D01*
X024088Y017529D01*
G37*
G36*
X024227Y017668D02*
X024152Y017593D01*
X023735Y018010D01*
X023810Y018085D01*
X024227Y017668D01*
G37*
G36*
X024367Y017807D02*
X024292Y017732D01*
X023875Y018149D01*
X023950Y018224D01*
X024367Y017807D01*
G37*
G36*
X024506Y017946D02*
X024431Y017871D01*
X024014Y018288D01*
X024089Y018363D01*
X024506Y017946D01*
G37*
G36*
X024645Y018085D02*
X024570Y018010D01*
X024153Y018427D01*
X024228Y018502D01*
X024645Y018085D01*
G37*
G36*
X024784Y018225D02*
X024709Y018150D01*
X024292Y018567D01*
X024367Y018642D01*
X024784Y018225D01*
G37*
G36*
X024923Y018364D02*
X024848Y018289D01*
X024431Y018706D01*
X024506Y018781D01*
X024923Y018364D01*
G37*
G36*
X029238Y014049D02*
X029163Y013974D01*
X028746Y014391D01*
X028821Y014466D01*
X029238Y014049D01*
G37*
G36*
X029099Y013910D02*
X029024Y013835D01*
X028607Y014252D01*
X028682Y014327D01*
X029099Y013910D01*
G37*
G36*
X028960Y013770D02*
X028885Y013695D01*
X028468Y014112D01*
X028543Y014187D01*
X028960Y013770D01*
G37*
G36*
X028821Y013631D02*
X028746Y013556D01*
X028329Y013973D01*
X028404Y014048D01*
X028821Y013631D01*
G37*
G36*
X028682Y013492D02*
X028607Y013417D01*
X028190Y013834D01*
X028265Y013909D01*
X028682Y013492D01*
G37*
G36*
X028543Y013353D02*
X028468Y013278D01*
X028051Y013695D01*
X028126Y013770D01*
X028543Y013353D01*
G37*
G36*
X028403Y013214D02*
X028328Y013139D01*
X027911Y013556D01*
X027986Y013631D01*
X028403Y013214D01*
G37*
G36*
X028264Y013074D02*
X028189Y012999D01*
X027772Y013416D01*
X027847Y013491D01*
X028264Y013074D01*
G37*
G36*
X028125Y012935D02*
X028050Y012860D01*
X027633Y013277D01*
X027708Y013352D01*
X028125Y012935D01*
G37*
G36*
X027986Y012796D02*
X027911Y012721D01*
X027494Y013138D01*
X027569Y013213D01*
X027986Y012796D01*
G37*
G36*
X027847Y012657D02*
X027772Y012582D01*
X027355Y012999D01*
X027430Y013074D01*
X027847Y012657D01*
G37*
G36*
X027707Y012518D02*
X027632Y012443D01*
X027215Y012860D01*
X027290Y012935D01*
X027707Y012518D01*
G37*
G36*
X027568Y012378D02*
X027493Y012303D01*
X027076Y012720D01*
X027151Y012795D01*
X027568Y012378D01*
G37*
G36*
X027429Y012239D02*
X027354Y012164D01*
X026937Y012581D01*
X027012Y012656D01*
X027429Y012239D01*
G37*
G36*
X027290Y012100D02*
X027215Y012025D01*
X026798Y012442D01*
X026873Y012517D01*
X027290Y012100D01*
G37*
G36*
X027151Y011961D02*
X027076Y011886D01*
X026659Y012303D01*
X026734Y012378D01*
X027151Y011961D01*
G37*
G36*
X027011Y011822D02*
X026936Y011747D01*
X026519Y012164D01*
X026594Y012239D01*
X027011Y011822D01*
G37*
G36*
X026872Y011682D02*
X026797Y011607D01*
X026380Y012024D01*
X026455Y012099D01*
X026872Y011682D01*
G37*
G36*
X026733Y011543D02*
X026658Y011468D01*
X026241Y011885D01*
X026316Y011960D01*
X026733Y011543D01*
G37*
G36*
X026594Y011404D02*
X026519Y011329D01*
X026102Y011746D01*
X026177Y011821D01*
X026594Y011404D01*
G37*
G36*
X026455Y011265D02*
X026380Y011190D01*
X025963Y011607D01*
X026038Y011682D01*
X026455Y011265D01*
G37*
G36*
X026315Y011126D02*
X026240Y011051D01*
X025823Y011468D01*
X025898Y011543D01*
X026315Y011126D01*
G37*
G36*
X026176Y010986D02*
X026101Y010911D01*
X025684Y011328D01*
X025759Y011403D01*
X026176Y010986D01*
G37*
G36*
X026037Y010847D02*
X025962Y010772D01*
X025545Y011189D01*
X025620Y011264D01*
X026037Y010847D01*
G37*
G36*
X025898Y010708D02*
X025823Y010633D01*
X025406Y011050D01*
X025481Y011125D01*
X025898Y010708D01*
G37*
D12*
G36*
X024923Y011050D02*
X024506Y010633D01*
X024431Y010708D01*
X024848Y011125D01*
X024923Y011050D01*
G37*
G36*
X024784Y011189D02*
X024367Y010772D01*
X024292Y010847D01*
X024709Y011264D01*
X024784Y011189D01*
G37*
G36*
X024645Y011328D02*
X024228Y010911D01*
X024153Y010986D01*
X024570Y011403D01*
X024645Y011328D01*
G37*
G36*
X024506Y011468D02*
X024089Y011051D01*
X024014Y011126D01*
X024431Y011543D01*
X024506Y011468D01*
G37*
G36*
X024367Y011607D02*
X023950Y011190D01*
X023875Y011265D01*
X024292Y011682D01*
X024367Y011607D01*
G37*
G36*
X024227Y011746D02*
X023810Y011329D01*
X023735Y011404D01*
X024152Y011821D01*
X024227Y011746D01*
G37*
G36*
X024088Y011885D02*
X023671Y011468D01*
X023596Y011543D01*
X024013Y011960D01*
X024088Y011885D01*
G37*
G36*
X023949Y012024D02*
X023532Y011607D01*
X023457Y011682D01*
X023874Y012099D01*
X023949Y012024D01*
G37*
G36*
X023810Y012164D02*
X023393Y011747D01*
X023318Y011822D01*
X023735Y012239D01*
X023810Y012164D01*
G37*
G36*
X023671Y012303D02*
X023254Y011886D01*
X023179Y011961D01*
X023596Y012378D01*
X023671Y012303D01*
G37*
G36*
X023532Y012442D02*
X023115Y012025D01*
X023040Y012100D01*
X023457Y012517D01*
X023532Y012442D01*
G37*
G36*
X023392Y012581D02*
X022975Y012164D01*
X022900Y012239D01*
X023317Y012656D01*
X023392Y012581D01*
G37*
G36*
X023253Y012720D02*
X022836Y012303D01*
X022761Y012378D01*
X023178Y012795D01*
X023253Y012720D01*
G37*
G36*
X023114Y012860D02*
X022697Y012443D01*
X022622Y012518D01*
X023039Y012935D01*
X023114Y012860D01*
G37*
G36*
X022975Y012999D02*
X022558Y012582D01*
X022483Y012657D01*
X022900Y013074D01*
X022975Y012999D01*
G37*
G36*
X022836Y013138D02*
X022419Y012721D01*
X022344Y012796D01*
X022761Y013213D01*
X022836Y013138D01*
G37*
G36*
X022696Y013277D02*
X022279Y012860D01*
X022204Y012935D01*
X022621Y013352D01*
X022696Y013277D01*
G37*
G36*
X022557Y013416D02*
X022140Y012999D01*
X022065Y013074D01*
X022482Y013491D01*
X022557Y013416D01*
G37*
G36*
X022418Y013556D02*
X022001Y013139D01*
X021926Y013214D01*
X022343Y013631D01*
X022418Y013556D01*
G37*
G36*
X022279Y013695D02*
X021862Y013278D01*
X021787Y013353D01*
X022204Y013770D01*
X022279Y013695D01*
G37*
G36*
X022140Y013834D02*
X021723Y013417D01*
X021648Y013492D01*
X022065Y013909D01*
X022140Y013834D01*
G37*
G36*
X022000Y013973D02*
X021583Y013556D01*
X021508Y013631D01*
X021925Y014048D01*
X022000Y013973D01*
G37*
G36*
X021861Y014112D02*
X021444Y013695D01*
X021369Y013770D01*
X021786Y014187D01*
X021861Y014112D01*
G37*
G36*
X021722Y014252D02*
X021305Y013835D01*
X021230Y013910D01*
X021647Y014327D01*
X021722Y014252D01*
G37*
G36*
X021583Y014391D02*
X021166Y013974D01*
X021091Y014049D01*
X021508Y014466D01*
X021583Y014391D01*
G37*
G36*
X025898Y018706D02*
X025481Y018289D01*
X025406Y018364D01*
X025823Y018781D01*
X025898Y018706D01*
G37*
G36*
X026037Y018567D02*
X025620Y018150D01*
X025545Y018225D01*
X025962Y018642D01*
X026037Y018567D01*
G37*
G36*
X026176Y018427D02*
X025759Y018010D01*
X025684Y018085D01*
X026101Y018502D01*
X026176Y018427D01*
G37*
G36*
X026315Y018288D02*
X025898Y017871D01*
X025823Y017946D01*
X026240Y018363D01*
X026315Y018288D01*
G37*
G36*
X026455Y018149D02*
X026038Y017732D01*
X025963Y017807D01*
X026380Y018224D01*
X026455Y018149D01*
G37*
G36*
X026594Y018010D02*
X026177Y017593D01*
X026102Y017668D01*
X026519Y018085D01*
X026594Y018010D01*
G37*
G36*
X026733Y017871D02*
X026316Y017454D01*
X026241Y017529D01*
X026658Y017946D01*
X026733Y017871D01*
G37*
G36*
X026872Y017731D02*
X026455Y017314D01*
X026380Y017389D01*
X026797Y017806D01*
X026872Y017731D01*
G37*
G36*
X027011Y017592D02*
X026594Y017175D01*
X026519Y017250D01*
X026936Y017667D01*
X027011Y017592D01*
G37*
G36*
X027151Y017453D02*
X026734Y017036D01*
X026659Y017111D01*
X027076Y017528D01*
X027151Y017453D01*
G37*
G36*
X027290Y017314D02*
X026873Y016897D01*
X026798Y016972D01*
X027215Y017389D01*
X027290Y017314D01*
G37*
G36*
X027429Y017175D02*
X027012Y016758D01*
X026937Y016833D01*
X027354Y017250D01*
X027429Y017175D01*
G37*
G36*
X027568Y017035D02*
X027151Y016618D01*
X027076Y016693D01*
X027493Y017110D01*
X027568Y017035D01*
G37*
G36*
X027707Y016896D02*
X027290Y016479D01*
X027215Y016554D01*
X027632Y016971D01*
X027707Y016896D01*
G37*
G36*
X027847Y016757D02*
X027430Y016340D01*
X027355Y016415D01*
X027772Y016832D01*
X027847Y016757D01*
G37*
G36*
X027986Y016618D02*
X027569Y016201D01*
X027494Y016276D01*
X027911Y016693D01*
X027986Y016618D01*
G37*
G36*
X028125Y016479D02*
X027708Y016062D01*
X027633Y016137D01*
X028050Y016554D01*
X028125Y016479D01*
G37*
G36*
X028264Y016339D02*
X027847Y015922D01*
X027772Y015997D01*
X028189Y016414D01*
X028264Y016339D01*
G37*
G36*
X028403Y016200D02*
X027986Y015783D01*
X027911Y015858D01*
X028328Y016275D01*
X028403Y016200D01*
G37*
G36*
X028543Y016061D02*
X028126Y015644D01*
X028051Y015719D01*
X028468Y016136D01*
X028543Y016061D01*
G37*
G36*
X028682Y015922D02*
X028265Y015505D01*
X028190Y015580D01*
X028607Y015997D01*
X028682Y015922D01*
G37*
G36*
X028821Y015783D02*
X028404Y015366D01*
X028329Y015441D01*
X028746Y015858D01*
X028821Y015783D01*
G37*
G36*
X028960Y015643D02*
X028543Y015226D01*
X028468Y015301D01*
X028885Y015718D01*
X028960Y015643D01*
G37*
G36*
X029099Y015504D02*
X028682Y015087D01*
X028607Y015162D01*
X029024Y015579D01*
X029099Y015504D01*
G37*
G36*
X029238Y015365D02*
X028821Y014948D01*
X028746Y015023D01*
X029163Y015440D01*
X029238Y015365D01*
G37*
D13*
X029482Y013022D03*
X029482Y012392D03*
X030348Y012392D03*
X030348Y013022D03*
D14*
X030409Y011657D03*
X029740Y011657D03*
X029736Y010861D03*
X030406Y010861D03*
G36*
X029327Y009774D02*
X029022Y010079D01*
X029301Y010358D01*
X029606Y010053D01*
X029327Y009774D01*
G37*
G36*
X028854Y010247D02*
X028549Y010552D01*
X028828Y010831D01*
X029133Y010526D01*
X028854Y010247D01*
G37*
G36*
X028478Y011349D02*
X028173Y011044D01*
X027894Y011323D01*
X028199Y011628D01*
X028478Y011349D01*
G37*
G36*
X028952Y011823D02*
X028647Y011518D01*
X028368Y011797D01*
X028673Y012102D01*
X028952Y011823D01*
G37*
G36*
X029477Y016549D02*
X029172Y016244D01*
X028893Y016523D01*
X029198Y016828D01*
X029477Y016549D01*
G37*
G36*
X029950Y017022D02*
X029645Y016717D01*
X029366Y016996D01*
X029671Y017301D01*
X029950Y017022D01*
G37*
G36*
X027734Y019131D02*
X028039Y019436D01*
X028318Y019157D01*
X028013Y018852D01*
X027734Y019131D01*
G37*
G36*
X027261Y018657D02*
X027566Y018962D01*
X027845Y018683D01*
X027540Y018378D01*
X027261Y018657D01*
G37*
G36*
X023606Y018734D02*
X023301Y019039D01*
X023580Y019318D01*
X023885Y019013D01*
X023606Y018734D01*
G37*
G36*
X023133Y019207D02*
X022828Y019512D01*
X023107Y019791D01*
X023412Y019486D01*
X023133Y019207D01*
G37*
G36*
X020669Y016628D02*
X020974Y016323D01*
X020695Y016044D01*
X020390Y016349D01*
X020669Y016628D01*
G37*
G36*
X020196Y017101D02*
X020501Y016796D01*
X020222Y016517D01*
X019917Y016822D01*
X020196Y017101D01*
G37*
X016920Y018658D03*
X016251Y018658D03*
X009705Y019305D03*
X009705Y019975D03*
X008830Y019975D03*
X008830Y019305D03*
X008893Y010287D03*
X008893Y009618D03*
X009893Y009100D03*
X010643Y009618D03*
X010643Y010287D03*
X011643Y010287D03*
X011643Y009618D03*
X012643Y009100D03*
X012643Y008430D03*
X013393Y009618D03*
X013393Y010287D03*
X014393Y010287D03*
X014393Y009618D03*
X015393Y009100D03*
X015393Y008430D03*
X016143Y009618D03*
X016143Y010287D03*
X019433Y010140D03*
X020102Y010140D03*
G36*
X020297Y012029D02*
X020602Y012334D01*
X020881Y012055D01*
X020576Y011750D01*
X020297Y012029D01*
G37*
G36*
X020770Y012502D02*
X021075Y012807D01*
X021354Y012528D01*
X021049Y012223D01*
X020770Y012502D01*
G37*
G36*
X022571Y009810D02*
X022876Y010115D01*
X023155Y009836D01*
X022850Y009531D01*
X022571Y009810D01*
G37*
G36*
X022098Y009337D02*
X022403Y009642D01*
X022682Y009363D01*
X022377Y009058D01*
X022098Y009337D01*
G37*
X023209Y004507D03*
X023209Y003837D03*
X026209Y003819D03*
X026209Y004488D03*
X029201Y004486D03*
X029201Y003817D03*
X032201Y003839D03*
X032201Y004508D03*
X035201Y004421D03*
X035201Y003751D03*
X035049Y008871D03*
X034379Y008871D03*
X034392Y009759D03*
X035062Y009759D03*
X034807Y013536D03*
X035476Y013536D03*
X035496Y015735D03*
X034826Y015735D03*
X032858Y023094D03*
X032188Y023094D03*
X038620Y027969D03*
X039290Y027969D03*
X036227Y030453D03*
X035558Y030453D03*
X030227Y030453D03*
X029558Y030453D03*
X024227Y030453D03*
X023558Y030453D03*
X018227Y030453D03*
X017558Y030453D03*
X012227Y030453D03*
X011558Y030453D03*
X006227Y030453D03*
X005558Y030453D03*
X006143Y010287D03*
X006143Y009618D03*
X007143Y009100D03*
X007893Y009618D03*
X007893Y010287D03*
X007143Y008430D03*
X009893Y008430D03*
X020201Y004461D03*
X020201Y003792D03*
D15*
X021409Y003841D03*
X021409Y004511D03*
X018409Y004461D03*
X018409Y003791D03*
X024459Y003833D03*
X024459Y004502D03*
X027459Y004509D03*
X027459Y003840D03*
X030459Y003810D03*
X030459Y004479D03*
X033459Y004427D03*
X033459Y003758D03*
X034323Y007032D03*
X034992Y007032D03*
X034993Y007915D03*
X034324Y007915D03*
X034386Y010602D03*
X035055Y010602D03*
X035055Y011420D03*
X034386Y011420D03*
X034807Y012832D03*
X035476Y012832D03*
X035476Y014239D03*
X034807Y014239D03*
X034807Y014983D03*
X035476Y014983D03*
X032818Y018512D03*
X032149Y018512D03*
X032169Y019437D03*
X032838Y019437D03*
X032838Y020441D03*
X032169Y020441D03*
X032173Y021259D03*
X032843Y021259D03*
X032858Y022072D03*
X032188Y022072D03*
X028821Y021852D03*
X028152Y021852D03*
X028152Y022664D03*
X028821Y022664D03*
X028821Y023471D03*
X028152Y023471D03*
X028151Y024276D03*
X028820Y024276D03*
X028820Y025078D03*
X028151Y025078D03*
X028152Y021033D03*
X028821Y021033D03*
X025803Y020944D03*
X025803Y020275D03*
G36*
X024378Y019894D02*
X024657Y019615D01*
X024352Y019310D01*
X024073Y019589D01*
X024378Y019894D01*
G37*
G36*
X023905Y020367D02*
X024184Y020088D01*
X023879Y019783D01*
X023600Y020062D01*
X023905Y020367D01*
G37*
X031115Y013042D03*
X031115Y012372D03*
X030830Y008162D03*
X030830Y007493D03*
X030080Y007493D03*
X029330Y007493D03*
X029330Y008162D03*
X030080Y008162D03*
X028580Y008162D03*
X028580Y007493D03*
G36*
X021921Y011270D02*
X021642Y010991D01*
X021337Y011296D01*
X021616Y011575D01*
X021921Y011270D01*
G37*
G36*
X021448Y010797D02*
X021169Y010518D01*
X020864Y010823D01*
X021143Y011102D01*
X021448Y010797D01*
G37*
X013415Y014515D03*
X012745Y014515D03*
X012745Y016515D03*
X013415Y016515D03*
X010415Y011390D03*
X009745Y011390D03*
X008915Y030203D03*
X008245Y030203D03*
X007540Y030453D03*
X006870Y030453D03*
X012870Y030453D03*
X013540Y030453D03*
X014245Y030203D03*
X014915Y030203D03*
X018870Y030453D03*
X019540Y030453D03*
X020245Y030203D03*
X020915Y030203D03*
X024870Y030453D03*
X025540Y030453D03*
X026245Y030203D03*
X026915Y030203D03*
X030870Y030453D03*
X031540Y030453D03*
X032245Y030203D03*
X032915Y030203D03*
X036870Y030453D03*
X037540Y030453D03*
X038245Y030203D03*
X038915Y030203D03*
X037852Y029296D03*
X037183Y029296D03*
X038625Y027097D03*
X039295Y027097D03*
X035561Y036699D03*
X035561Y037368D03*
X029561Y037362D03*
X029561Y036693D03*
X023561Y036693D03*
X023561Y037362D03*
X017561Y037362D03*
X017561Y036693D03*
X011549Y036693D03*
X011549Y037362D03*
X005561Y037362D03*
X005561Y036693D03*
D16*
X036779Y005151D03*
X036779Y003651D03*
X038779Y003651D03*
X038779Y005151D03*
D17*
X030057Y021033D03*
X029466Y021033D03*
X029466Y021852D03*
X030057Y021852D03*
X030057Y022664D03*
X029466Y022664D03*
X029466Y023471D03*
X030057Y023471D03*
X030060Y024276D03*
X029470Y024276D03*
X029470Y025078D03*
X030060Y025078D03*
X040097Y029390D03*
X040688Y029390D03*
X015268Y010123D03*
X015268Y009532D03*
X012518Y009532D03*
X012518Y010123D03*
X009768Y010123D03*
X009768Y009532D03*
X008875Y011390D03*
X008285Y011390D03*
X007018Y010123D03*
X007018Y009532D03*
D18*
X023198Y020562D03*
X024698Y020562D03*
X024698Y022562D03*
X023198Y022562D03*
D19*
X034247Y017264D03*
X034621Y017264D03*
X034995Y017264D03*
X034995Y016319D03*
X034621Y016319D03*
X034247Y016319D03*
D20*
X034260Y004537D03*
X034260Y003631D03*
X031260Y003693D03*
X031260Y004599D03*
X028260Y004627D03*
X028260Y003721D03*
X025260Y003715D03*
X025260Y004620D03*
X022260Y004640D03*
X022260Y003735D03*
X019260Y003692D03*
X019260Y004598D03*
X014230Y004180D03*
X014230Y003275D03*
X011480Y003275D03*
X011480Y004180D03*
X008730Y004180D03*
X008730Y003275D03*
X005980Y003275D03*
X005980Y004180D03*
D21*
X016134Y023160D03*
X017984Y023160D03*
X032999Y013073D03*
X032999Y011223D03*
D22*
X015444Y026282D03*
D23*
X012164Y026282D03*
X012164Y026952D03*
X012164Y027622D03*
X012164Y025612D03*
X012164Y024942D03*
D24*
X009102Y025344D03*
X009102Y021485D03*
D25*
X010830Y026423D03*
X010830Y027982D03*
D26*
X034241Y024697D03*
X035029Y024697D03*
X035816Y024697D03*
X036604Y024697D03*
X037391Y024697D03*
X038178Y024697D03*
X038966Y024697D03*
X039753Y024697D03*
X039753Y018319D03*
X038966Y018319D03*
X038178Y018319D03*
X037391Y018319D03*
X036604Y018319D03*
X035816Y018319D03*
X035029Y018319D03*
X034241Y018319D03*
D27*
X039928Y011862D03*
X039948Y006292D03*
D28*
X039987Y007286D03*
D29*
X039987Y010957D03*
D30*
X036533Y011173D03*
X036533Y010740D03*
X036533Y010229D03*
X036533Y009796D03*
X036533Y009362D03*
X036533Y008929D03*
X036533Y008496D03*
X036533Y008063D03*
X036533Y007630D03*
X036533Y007197D03*
D31*
X037684Y007109D02*
X037686Y007144D01*
X037692Y007179D01*
X037702Y007213D01*
X037715Y007246D01*
X037732Y007277D01*
X037753Y007305D01*
X037776Y007332D01*
X037803Y007355D01*
X037831Y007376D01*
X037862Y007393D01*
X037895Y007406D01*
X037929Y007416D01*
X037964Y007422D01*
X037999Y007424D01*
X038034Y007422D01*
X038069Y007416D01*
X038103Y007406D01*
X038136Y007393D01*
X038167Y007376D01*
X038195Y007355D01*
X038222Y007332D01*
X038245Y007305D01*
X038266Y007277D01*
X038283Y007246D01*
X038296Y007213D01*
X038306Y007179D01*
X038312Y007144D01*
X038314Y007109D01*
X038312Y007074D01*
X038306Y007039D01*
X038296Y007005D01*
X038283Y006972D01*
X038266Y006941D01*
X038245Y006913D01*
X038222Y006886D01*
X038195Y006863D01*
X038167Y006842D01*
X038136Y006825D01*
X038103Y006812D01*
X038069Y006802D01*
X038034Y006796D01*
X037999Y006794D01*
X037964Y006796D01*
X037929Y006802D01*
X037895Y006812D01*
X037862Y006825D01*
X037831Y006842D01*
X037803Y006863D01*
X037776Y006886D01*
X037753Y006913D01*
X037732Y006941D01*
X037715Y006972D01*
X037702Y007005D01*
X037692Y007039D01*
X037686Y007074D01*
X037684Y007109D01*
X037684Y011046D02*
X037686Y011081D01*
X037692Y011116D01*
X037702Y011150D01*
X037715Y011183D01*
X037732Y011214D01*
X037753Y011242D01*
X037776Y011269D01*
X037803Y011292D01*
X037831Y011313D01*
X037862Y011330D01*
X037895Y011343D01*
X037929Y011353D01*
X037964Y011359D01*
X037999Y011361D01*
X038034Y011359D01*
X038069Y011353D01*
X038103Y011343D01*
X038136Y011330D01*
X038167Y011313D01*
X038195Y011292D01*
X038222Y011269D01*
X038245Y011242D01*
X038266Y011214D01*
X038283Y011183D01*
X038296Y011150D01*
X038306Y011116D01*
X038312Y011081D01*
X038314Y011046D01*
X038312Y011011D01*
X038306Y010976D01*
X038296Y010942D01*
X038283Y010909D01*
X038266Y010878D01*
X038245Y010850D01*
X038222Y010823D01*
X038195Y010800D01*
X038167Y010779D01*
X038136Y010762D01*
X038103Y010749D01*
X038069Y010739D01*
X038034Y010733D01*
X037999Y010731D01*
X037964Y010733D01*
X037929Y010739D01*
X037895Y010749D01*
X037862Y010762D01*
X037831Y010779D01*
X037803Y010800D01*
X037776Y010823D01*
X037753Y010850D01*
X037732Y010878D01*
X037715Y010909D01*
X037702Y010942D01*
X037692Y010976D01*
X037686Y011011D01*
X037684Y011046D01*
D32*
X017643Y020328D03*
X015517Y020328D03*
X014549Y032515D03*
X012423Y032515D03*
X008549Y032515D03*
X006423Y032515D03*
X018423Y032515D03*
X020549Y032515D03*
X024423Y032515D03*
X026549Y032515D03*
X030423Y032515D03*
X032549Y032515D03*
X036423Y032515D03*
X038549Y032515D03*
D33*
X009580Y018140D03*
X007580Y018140D03*
D34*
X008580Y013640D03*
D35*
X009768Y005593D03*
X012518Y005593D03*
X015268Y005593D03*
X007018Y005593D03*
D36*
X007915Y008467D03*
X008870Y008467D03*
X010665Y008467D03*
X011620Y008467D03*
X013415Y008467D03*
X014370Y008467D03*
X016165Y008467D03*
X006120Y008467D03*
D37*
X013363Y018484D03*
X013363Y019394D03*
X013363Y020304D03*
D38*
X010922Y019394D03*
D39*
X025396Y008800D03*
X025396Y008485D03*
X025396Y008170D03*
X025396Y007855D03*
X025889Y007855D03*
X025889Y008170D03*
X025889Y008485D03*
X025889Y008800D03*
D40*
X013576Y015515D03*
X012709Y015141D03*
X012709Y015889D03*
D41*
X014477Y014728D03*
X015383Y014728D03*
X015827Y014728D03*
X016733Y014728D03*
X005283Y010840D03*
X004377Y010840D03*
D42*
X018818Y010953D03*
X018818Y011328D03*
X018818Y011702D03*
X019842Y011702D03*
X019842Y010953D03*
D43*
X032580Y009890D03*
X032580Y007765D03*
D44*
X014790Y022428D03*
X012230Y022428D03*
X009510Y027878D03*
X006950Y027878D03*
M02*
