G75*
G70*
%OFA0B0*%
%FSLAX24Y24*%
%IPPOS*%
%LPD*%
%AMOC8*
5,1,8,0,0,1.08239X$1,22.5*
%
%ADD10C,0.0100*%
%ADD11C,0.0000*%
D10*
X002330Y001759D02*
X002330Y039160D01*
X002332Y039226D01*
X002337Y039292D01*
X002347Y039358D01*
X002360Y039423D01*
X002376Y039487D01*
X002396Y039550D01*
X002420Y039612D01*
X002447Y039672D01*
X002477Y039731D01*
X002511Y039788D01*
X002548Y039843D01*
X002588Y039896D01*
X002630Y039947D01*
X002676Y039995D01*
X002724Y040041D01*
X002775Y040083D01*
X002828Y040123D01*
X002883Y040160D01*
X002940Y040194D01*
X002999Y040224D01*
X003059Y040251D01*
X003121Y040275D01*
X003184Y040295D01*
X003248Y040311D01*
X003313Y040324D01*
X003379Y040334D01*
X003445Y040339D01*
X003511Y040341D01*
X040913Y040341D01*
X040979Y040339D01*
X041045Y040334D01*
X041111Y040324D01*
X041176Y040311D01*
X041240Y040295D01*
X041303Y040275D01*
X041365Y040251D01*
X041425Y040224D01*
X041484Y040194D01*
X041541Y040160D01*
X041596Y040123D01*
X041649Y040083D01*
X041700Y040041D01*
X041748Y039995D01*
X041794Y039947D01*
X041836Y039896D01*
X041876Y039843D01*
X041913Y039788D01*
X041947Y039731D01*
X041977Y039672D01*
X042004Y039612D01*
X042028Y039550D01*
X042048Y039487D01*
X042064Y039423D01*
X042077Y039358D01*
X042087Y039292D01*
X042092Y039226D01*
X042094Y039160D01*
X042094Y001759D01*
X042092Y001693D01*
X042087Y001627D01*
X042077Y001561D01*
X042064Y001496D01*
X042048Y001432D01*
X042028Y001369D01*
X042004Y001307D01*
X041977Y001247D01*
X041947Y001188D01*
X041913Y001131D01*
X041876Y001076D01*
X041836Y001023D01*
X041794Y000972D01*
X041748Y000924D01*
X041700Y000878D01*
X041649Y000836D01*
X041596Y000796D01*
X041541Y000759D01*
X041484Y000725D01*
X041425Y000695D01*
X041365Y000668D01*
X041303Y000644D01*
X041240Y000624D01*
X041176Y000608D01*
X041111Y000595D01*
X041045Y000585D01*
X040979Y000580D01*
X040913Y000578D01*
X003511Y000578D01*
X003445Y000580D01*
X003379Y000585D01*
X003313Y000595D01*
X003248Y000608D01*
X003184Y000624D01*
X003121Y000644D01*
X003059Y000668D01*
X002999Y000695D01*
X002940Y000725D01*
X002883Y000759D01*
X002828Y000796D01*
X002775Y000836D01*
X002724Y000878D01*
X002676Y000924D01*
X002630Y000972D01*
X002588Y001023D01*
X002548Y001076D01*
X002511Y001131D01*
X002477Y001188D01*
X002447Y001247D01*
X002420Y001307D01*
X002396Y001369D01*
X002376Y001432D01*
X002360Y001496D01*
X002347Y001561D01*
X002337Y001627D01*
X002332Y001693D01*
X002330Y001759D01*
D11*
X037684Y007109D02*
X037686Y007144D01*
X037692Y007179D01*
X037702Y007213D01*
X037715Y007246D01*
X037732Y007277D01*
X037753Y007305D01*
X037776Y007332D01*
X037803Y007355D01*
X037831Y007376D01*
X037862Y007393D01*
X037895Y007406D01*
X037929Y007416D01*
X037964Y007422D01*
X037999Y007424D01*
X038034Y007422D01*
X038069Y007416D01*
X038103Y007406D01*
X038136Y007393D01*
X038167Y007376D01*
X038195Y007355D01*
X038222Y007332D01*
X038245Y007305D01*
X038266Y007277D01*
X038283Y007246D01*
X038296Y007213D01*
X038306Y007179D01*
X038312Y007144D01*
X038314Y007109D01*
X038312Y007074D01*
X038306Y007039D01*
X038296Y007005D01*
X038283Y006972D01*
X038266Y006941D01*
X038245Y006913D01*
X038222Y006886D01*
X038195Y006863D01*
X038167Y006842D01*
X038136Y006825D01*
X038103Y006812D01*
X038069Y006802D01*
X038034Y006796D01*
X037999Y006794D01*
X037964Y006796D01*
X037929Y006802D01*
X037895Y006812D01*
X037862Y006825D01*
X037831Y006842D01*
X037803Y006863D01*
X037776Y006886D01*
X037753Y006913D01*
X037732Y006941D01*
X037715Y006972D01*
X037702Y007005D01*
X037692Y007039D01*
X037686Y007074D01*
X037684Y007109D01*
X037684Y011046D02*
X037686Y011081D01*
X037692Y011116D01*
X037702Y011150D01*
X037715Y011183D01*
X037732Y011214D01*
X037753Y011242D01*
X037776Y011269D01*
X037803Y011292D01*
X037831Y011313D01*
X037862Y011330D01*
X037895Y011343D01*
X037929Y011353D01*
X037964Y011359D01*
X037999Y011361D01*
X038034Y011359D01*
X038069Y011353D01*
X038103Y011343D01*
X038136Y011330D01*
X038167Y011313D01*
X038195Y011292D01*
X038222Y011269D01*
X038245Y011242D01*
X038266Y011214D01*
X038283Y011183D01*
X038296Y011150D01*
X038306Y011116D01*
X038312Y011081D01*
X038314Y011046D01*
X038312Y011011D01*
X038306Y010976D01*
X038296Y010942D01*
X038283Y010909D01*
X038266Y010878D01*
X038245Y010850D01*
X038222Y010823D01*
X038195Y010800D01*
X038167Y010779D01*
X038136Y010762D01*
X038103Y010749D01*
X038069Y010739D01*
X038034Y010733D01*
X037999Y010731D01*
X037964Y010733D01*
X037929Y010739D01*
X037895Y010749D01*
X037862Y010762D01*
X037831Y010779D01*
X037803Y010800D01*
X037776Y010823D01*
X037753Y010850D01*
X037732Y010878D01*
X037715Y010909D01*
X037702Y010942D01*
X037692Y010976D01*
X037686Y011011D01*
X037684Y011046D01*
M02*
