%
M48
M72
T01C0.0157
T02C0.0190
T03C0.0197
T04C0.0236
T05C0.0320
T06C0.0354
T07C0.0360
T08C0.0394
T09C0.0400
T10C0.0433
T11C0.0550
T12C0.0591
T13C0.0630
T14C0.0900
T15C0.1260
%
T01
X17280Y11828
X19230Y12928
X19930Y12628
X20705Y12703
X22111Y12390
X22080Y11984
X19430Y9328
X19030Y9378
X19030Y8978
X18480Y9128
X17780Y9778
X17780Y15278
X13455Y18073
X28680Y4378
X31730Y4078
X34680Y4128
T02
X22549Y6796
T03
X4924Y1109
X4924Y1609
X5424Y1609
X5424Y1109
X5424Y2109
X5424Y2609
X4924Y2609
X4924Y2109
X5174Y3109
X5424Y3484
X4924Y3484
X4674Y3109
X4424Y3484
X4174Y3109
X3924Y3484
X3674Y3109
X3424Y3484
X3174Y3109
X5580Y7953
X6018Y7953
X6455Y7953
X6455Y8453
X6455Y8953
X5580Y8953
X5580Y8453
X8580Y8453
X8580Y8953
X9455Y8953
X9455Y8453
X9455Y7953
X9018Y7953
X8580Y7953
X11580Y7953
X12018Y7953
X12455Y7953
X12455Y8453
X12455Y8953
X11580Y8953
X11580Y8453
X14580Y8453
X14580Y8953
X15455Y8953
X15455Y8453
X15455Y7953
X15018Y7953
X14580Y7953
X20230Y9228
X21580Y7703
X21611Y7046
X22518Y8015
X23768Y6578
X26580Y8515
X27330Y8140
X27705Y8109
X28205Y8078
X29330Y8578
X30080Y8578
X30830Y8578
X28580Y9578
X28080Y9328
X27580Y9921
X27330Y9640
X27049Y9359
X25830Y10078
X25330Y10078
X24830Y10078
X24393Y9828
X24111Y10265
X23830Y9828
X23580Y12828
X24080Y12828
X24580Y12828
X25080Y12828
X23643Y13515
X23236Y13765
X23455Y14296
X22893Y14703
X22486Y15421
X23080Y16078
X23393Y15640
X24049Y15078
X24018Y16953
X25018Y16890
X24736Y17796
X25330Y18015
X25580Y18828
X25268Y19093
X25893Y19828
X26580Y20828
X25330Y21390
X25018Y21703
X25393Y21828
X24643Y21078
X23705Y20953
X23518Y21578
X23830Y21953
X23503Y22179
X23628Y22929
X22580Y23078
X22486Y22484
X20830Y24328
X20580Y25828
X21080Y25828
X20643Y26453
X20580Y26828
X20143Y27171
X19580Y27109
X19549Y27546
X19549Y28203
X18799Y27953
X18299Y28203
X18205Y27828
X18258Y27390
X17239Y27553
X16767Y27120
X17239Y26727
X16767Y26294
X17239Y25860
X16767Y25427
X17239Y25034
X16767Y24561
X17239Y24168
X16137Y24168
X16176Y24994
X16176Y25860
X16216Y26687
X16216Y27553
X13106Y27711
X11688Y27711
X11373Y25782
X6330Y30828
X6870Y31318
X6093Y31828
X7830Y31203
X7580Y33828
X7080Y33828
X3705Y33703
X3705Y34203
X3205Y34203
X2705Y34203
X2705Y33703
X3205Y33703
X3205Y33203
X2705Y33203
X2705Y32703
X3205Y32703
X3705Y32703
X3705Y33203
X3705Y34703
X3705Y35203
X3705Y35703
X3705Y36203
X3205Y36203
X2705Y36203
X2705Y35703
X3205Y35703
X3205Y35203
X2705Y35203
X2705Y34703
X3205Y34703
X3205Y36703
X3205Y37203
X2705Y37203
X2705Y36703
X3705Y36703
X3705Y37203
X12193Y31703
X12580Y31078
X12955Y31278
X13830Y31265
X13611Y33703
X13080Y33703
X18080Y31828
X18861Y31328
X18330Y30953
X19861Y31203
X19580Y33765
X19080Y33765
X24080Y31828
X24736Y31421
X24330Y31078
X25893Y31140
X25580Y33765
X25080Y33765
X30080Y31828
X30330Y31078
X30768Y31328
X31893Y31140
X31080Y33765
X31580Y33828
X35830Y31828
X36268Y31046
X36611Y31296
X37861Y31140
X35830Y29453
X36580Y28828
X38080Y28328
X36705Y26453
X37018Y25703
X34143Y24078
X32736Y24578
X32580Y25578
X31330Y26578
X30680Y25378
X30643Y23890
X31828Y23579
X32205Y22484
X34378Y21229
X34778Y21229
X35178Y21229
X34643Y19828
X34330Y19078
X35830Y19328
X33580Y17588
X32549Y17265
X32143Y16328
X31768Y16328
X31393Y16328
X31002Y16328
X30580Y16328
X30174Y16328
X29768Y16328
X30174Y15578
X29330Y14765
X28018Y14359
X27830Y15046
X27861Y15421
X27393Y14859
X27268Y14265
X26893Y15453
X26299Y15546
X26533Y15906
X28284Y19429
X30080Y20578
X31174Y19078
X31768Y18203
X31080Y17890
X30268Y17890
X33643Y15078
X33830Y14640
X33393Y14390
X33830Y14078
X33205Y13796
X33865Y13053
X35834Y13506
X35834Y14234
X36050Y15337
X36079Y15770
X35480Y16321
X34361Y16640
X32080Y14578
X31830Y13328
X31568Y12975
X32096Y11828
X35401Y9825
X36031Y8801
X37580Y8578
X37545Y9362
X37501Y7502
X37080Y7453
X36018Y6078
X36832Y5494
X37205Y4640
X36455Y4265
X36018Y4203
X35643Y2390
X36486Y2390
X36830Y2078
X33526Y2774
X30330Y2578
X27330Y2578
X24330Y2578
X21330Y2578
X20830Y3203
X18230Y2528
X27330Y10453
X28481Y12461
X33708Y7990
X34326Y8451
X35580Y6828
X41178Y17479
X41678Y17479
X39580Y19078
X39080Y19078
X38580Y19078
X38278Y20029
X38278Y20429
X38278Y20829
X38278Y21229
X41580Y29078
X41455Y32703
X41455Y33203
X41455Y33703
X41455Y34203
X40955Y34203
X40455Y34203
X40455Y33703
X40955Y33703
X40955Y33203
X40455Y33203
X40455Y32703
X40955Y32703
X40955Y34703
X40955Y35203
X40955Y35703
X40955Y36203
X40455Y36203
X40455Y35703
X40455Y35203
X40455Y34703
X41455Y34703
X41455Y35203
X41455Y35703
X41455Y36203
X41455Y36703
X41455Y37203
X40955Y37203
X40455Y37203
X40455Y36703
X40955Y36703
X22518Y13859
X21080Y15078
X19830Y14828
X19393Y15890
X19705Y16171
X19830Y17640
X19986Y18015
X20330Y17796
X20830Y18578
X21268Y18609
X21674Y18609
X22049Y18515
X23315Y20023
X27768Y22015
X27768Y22828
X27768Y23609
X26799Y25953
X27580Y26359
X29580Y27828
X23768Y26234
X22330Y28078
X20549Y27734
X20455Y28171
X15548Y18658
X16268Y16765
X16830Y17078
X17299Y17109
X17330Y17515
X17736Y17296
X17768Y17703
X17830Y16171
X17330Y16078
X17330Y14828
X13752Y15937
X12400Y14688
X8580Y17390
X8580Y17890
X8080Y17890
X8080Y17390
X8080Y16890
X7580Y16890
X7080Y16890
X7080Y17390
X7080Y17890
X6580Y17890
X6580Y17390
X6580Y16890
X6080Y17890
X5580Y17890
X5080Y17890
X6080Y18390
X6080Y18890
X6080Y19390
X6080Y19890
X5580Y19890
X5080Y19890
X6580Y19890
X6580Y19390
X6580Y18890
X6580Y18390
X7080Y18390
X7080Y18890
X7080Y19390
X7080Y19890
X7580Y19390
X8080Y19390
X8080Y18890
X8080Y18390
X8580Y18390
X8580Y18890
X5580Y14140
X5580Y13640
X5080Y13640
X5080Y14140
X4580Y14140
X4580Y13640
X4080Y13640
X4080Y13140
X4080Y12640
X3580Y12640
X3580Y13140
X3580Y13640
X3580Y14140
X4080Y14140
X3080Y14140
X3080Y13640
X3080Y13140
X3080Y12640
X3080Y12140
X3080Y11640
X3580Y11640
X3580Y12140
X4080Y12140
X4080Y11640
X4580Y11640
X4580Y12140
X5080Y12140
X5080Y11640
X5580Y11640
X5580Y12140
X6080Y12140
X6080Y11640
X6580Y11640
X7080Y11640
X7580Y11640
X6080Y12640
X2705Y23953
X2705Y24453
X2705Y24953
X2705Y25453
X2705Y25953
X2705Y26453
X2705Y26953
X2705Y27453
X2705Y27953
X2705Y28453
X2705Y28953
X37080Y33828
X37580Y33828
T04
X18066Y6747
X23330Y14890
X19455Y18328
X16130Y20578
X13804Y20377
X21580Y26578
X24971Y19406
X28830Y11328
X33180Y8428
X38830Y4328
X38330Y3078
T05
X13526Y21727
X13526Y22727
X8798Y27223
X8798Y28223
T06
X4661Y30159
X4661Y31159
X4661Y32159
X4661Y33159
X4661Y34159
X4661Y35159
X4661Y36159
X4661Y37159
X9661Y37159
X10658Y37159
X10658Y36159
X10658Y35159
X9661Y35159
X9661Y36159
X9661Y34159
X9661Y33159
X10658Y33159
X10658Y34159
X10658Y32159
X10658Y31159
X10658Y30159
X9661Y30159
X9661Y31159
X9661Y32159
X15658Y32159
X16658Y32159
X16658Y31159
X15658Y31159
X15658Y30159
X16658Y30159
X16658Y33159
X16658Y34159
X15658Y34159
X15658Y33159
X15658Y35159
X15658Y36159
X16658Y36159
X16658Y35159
X16658Y37159
X15658Y37159
X21658Y37159
X22658Y37159
X22658Y36159
X22658Y35159
X21658Y35159
X21658Y36159
X21658Y34159
X21658Y33159
X22658Y33159
X22658Y34159
X22658Y32159
X22658Y31159
X22658Y30159
X21658Y30159
X21658Y31159
X21658Y32159
X27658Y32159
X28658Y32159
X28658Y31159
X27658Y31159
X27658Y30159
X28658Y30159
X28658Y33159
X28658Y34159
X27658Y34159
X27658Y33159
X27658Y35159
X27658Y36159
X28658Y36159
X28658Y35159
X28658Y37159
X27658Y37159
X33658Y37159
X34658Y37159
X34658Y36159
X34658Y35159
X33658Y35159
X33658Y36159
X33658Y34159
X33658Y33159
X34658Y33159
X34658Y34159
X34658Y32159
X34658Y31159
X34658Y30159
X33658Y30159
X33658Y31159
X33658Y32159
X39658Y32159
X39658Y31159
X39658Y30159
X39658Y33159
X39658Y34159
X39658Y35159
X39658Y36159
X39658Y37159
T07
X24580Y5828
X24580Y6578
X24580Y7328
X24580Y8078
X36913Y14079
X37693Y14079
X37693Y15063
X36913Y15063
T08
X24080Y26703
X24080Y27703
X25080Y27703
X26080Y27703
X26080Y26703
X25080Y26703
X27080Y26703
X27080Y27703
X28080Y27703
X28080Y26703
X32080Y26703
X32080Y27703
X33080Y27703
X34080Y27703
X34080Y26703
X33080Y26703
X35080Y26703
X35080Y27703
X36080Y27703
X36080Y26703
X40322Y26593
X40322Y28364
X40197Y5286
X40197Y3514
T09
X6760Y3928
X7900Y3928
X9760Y3928
X10900Y3928
X12760Y3928
X13900Y3928
X15760Y3928
X16900Y3928
X18204Y1684
X19204Y1784
X20204Y1684
X21204Y1684
X22204Y1784
X23204Y1684
X24204Y1684
X25204Y1784
X26204Y1684
X27204Y1684
X28204Y1784
X29204Y1684
X30204Y1684
X31204Y1784
X32204Y1684
X33204Y1684
X34204Y1784
X35204Y1684
X37080Y1378
X38080Y1278
X39080Y1378
X32580Y6028
X31580Y6128
X30580Y6028
X29580Y6128
X28580Y6028
X27580Y6128
X26580Y6028
X25580Y6128
X22208Y6150
X21208Y6150
X20208Y6150
X19208Y6150
X18208Y6150
X18580Y12578
X17580Y12578
X16580Y12578
X15580Y12578
X15580Y13578
X16580Y13578
X17580Y13578
X18580Y13578
X16643Y15628
X15643Y15528
X14643Y15628
X14580Y13578
X13580Y13578
X12580Y13578
X12580Y12578
X13580Y12578
X14580Y12578
X2924Y30039
X2924Y31179
X6536Y38253
X7536Y38153
X7536Y39153
X6536Y39253
X8536Y39253
X9536Y39153
X9536Y38153
X8536Y38253
X12518Y38253
X13518Y38153
X14518Y38253
X15518Y38153
X15518Y39153
X14518Y39253
X13518Y39153
X12518Y39253
X18518Y39253
X19518Y39153
X19518Y38153
X18518Y38253
X20518Y38253
X21518Y38153
X21518Y39153
X20518Y39253
X24518Y39253
X25518Y39153
X26518Y39253
X27518Y39153
X27518Y38153
X26518Y38253
X25518Y38153
X24518Y38253
X30518Y38253
X30518Y39253
X31518Y39153
X32518Y39253
X33518Y39153
X33518Y38153
X32518Y38253
X31518Y38153
X36080Y38253
X37080Y38153
X38080Y38253
X38080Y39253
X37080Y39153
X36080Y39253
X39080Y39153
X39080Y38153
X41518Y31179
X41518Y30039
T10
X6391Y1976
X7769Y1976
X9341Y1976
X10719Y1976
X12291Y1976
X13669Y1976
X15241Y1976
X16619Y1976
T11
X4080Y4390
X4080Y6390
X5080Y12890
X5080Y15890
X5080Y18890
X5080Y21890
X5080Y25015
X5080Y28015
T12
X39213Y5778
X39213Y3022
X39338Y26101
X39338Y28857
T13
X37999Y7109
X37999Y11046
T14
X38763Y12201
X38763Y16941
T15
X3511Y1759
X40913Y1759
X3511Y39160
X40913Y39160
M30
