G75*
G70*
%OFA0B0*%
%FSLAX24Y24*%
%IPPOS*%
%LPD*%
%AMOC8*
5,1,8,0,0,1.08239X$1,22.5*
%
%ADD10C,0.0100*%
%ADD11R,0.0146X0.0631*%
%ADD12R,0.0631X0.0146*%
%ADD13R,0.0591X0.0512*%
%ADD14R,0.0473X0.0434*%
%ADD15R,0.0434X0.0473*%
%ADD16R,0.0640X0.0340*%
%ADD17R,0.0355X0.0355*%
%ADD18R,0.0340X0.0640*%
%ADD19C,0.0700*%
%ADD20C,0.1340*%
%ADD21R,0.0237X0.0237*%
%ADD22C,0.0634*%
%ADD23R,0.0367X0.0288*%
%ADD24R,0.1040X0.1040*%
%ADD25R,0.4138X0.4292*%
%ADD26R,0.0890X0.0460*%
%ADD27R,0.2166X0.1615*%
%ADD28R,0.0867X0.0540*%
%ADD29OC8,0.0670*%
%ADD30C,0.0670*%
%ADD31R,0.0512X0.0827*%
%ADD32C,0.0926*%
%ADD33C,0.0780*%
%ADD34R,0.0571X0.0631*%
%ADD35R,0.0434X0.0591*%
%ADD36R,0.0434X0.0552*%
%ADD37R,0.0631X0.0335*%
%ADD38C,0.0000*%
%ADD39C,0.0670*%
%ADD40R,0.0780X0.0780*%
%ADD41C,0.0740*%
%ADD42R,0.1418X0.0670*%
%ADD43R,0.0860X0.1540*%
%ADD44R,0.4540X0.3540*%
%ADD45C,0.0865*%
%ADD46C,0.0050*%
%ADD47R,0.2166X0.2481*%
%ADD48R,0.0434X0.0670*%
%ADD49C,0.0709*%
%ADD50R,0.0920X0.0520*%
%ADD51R,0.0906X0.1457*%
%ADD52R,0.0296X0.0237*%
%ADD53R,0.0591X0.0434*%
%ADD54R,0.0288X0.0367*%
%ADD55OC8,0.0640*%
%ADD56R,0.0512X0.0257*%
%ADD57R,0.0290X0.0540*%
%ADD58R,0.0670X0.1418*%
%ADD59C,0.2290*%
D10*
X002393Y001821D02*
X002330Y038999D01*
X002331Y038998D02*
X002328Y039067D01*
X002329Y039135D01*
X002334Y039203D01*
X002343Y039271D01*
X002355Y039339D01*
X002371Y039405D01*
X002390Y039471D01*
X002413Y039535D01*
X002440Y039599D01*
X002470Y039660D01*
X002503Y039720D01*
X002539Y039778D01*
X002578Y039834D01*
X002621Y039888D01*
X002666Y039939D01*
X002714Y039988D01*
X002764Y040034D01*
X002817Y040078D01*
X002873Y040118D01*
X002930Y040156D01*
X002989Y040190D01*
X003050Y040221D01*
X003113Y040249D01*
X003177Y040273D01*
X003242Y040294D01*
X003308Y040311D01*
X003375Y040324D01*
X003443Y040334D01*
X003511Y040340D01*
X003511Y040341D02*
X040913Y040341D01*
X040983Y040333D01*
X041052Y040321D01*
X041121Y040306D01*
X041188Y040287D01*
X041255Y040264D01*
X041320Y040238D01*
X041384Y040208D01*
X041446Y040175D01*
X041506Y040138D01*
X041564Y040098D01*
X041619Y040056D01*
X041673Y040010D01*
X041724Y039961D01*
X041772Y039910D01*
X041817Y039856D01*
X041859Y039800D01*
X041898Y039741D01*
X041934Y039681D01*
X041967Y039619D01*
X041996Y039555D01*
X042022Y039489D01*
X042044Y039423D01*
X042062Y039355D01*
X042077Y039286D01*
X042088Y039217D01*
X042095Y039147D01*
X042099Y039077D01*
X042098Y039006D01*
X042094Y038936D01*
X042094Y001759D01*
X042095Y001759D02*
X042081Y001685D01*
X042063Y001613D01*
X042042Y001541D01*
X042016Y001471D01*
X041988Y001402D01*
X041955Y001334D01*
X041919Y001269D01*
X041880Y001205D01*
X041837Y001144D01*
X041792Y001085D01*
X041743Y001028D01*
X041691Y000974D01*
X041637Y000923D01*
X041580Y000874D01*
X041520Y000829D01*
X041459Y000787D01*
X041395Y000748D01*
X041329Y000712D01*
X041261Y000680D01*
X041192Y000652D01*
X041122Y000627D01*
X041050Y000606D01*
X040977Y000589D01*
X040904Y000576D01*
X040829Y000566D01*
X040755Y000561D01*
X040680Y000559D01*
X040605Y000561D01*
X040531Y000567D01*
X040457Y000577D01*
X040456Y000578D02*
X003699Y000578D01*
X003698Y000577D02*
X003629Y000578D01*
X003560Y000581D01*
X003492Y000589D01*
X003424Y000600D01*
X003356Y000615D01*
X003290Y000634D01*
X003224Y000656D01*
X003160Y000682D01*
X003098Y000711D01*
X003037Y000744D01*
X002978Y000779D01*
X002921Y000818D01*
X002866Y000860D01*
X002813Y000905D01*
X002763Y000953D01*
X002716Y001003D01*
X002671Y001056D01*
X002630Y001111D01*
X002591Y001168D01*
X002555Y001227D01*
X002523Y001288D01*
X002494Y001351D01*
X002469Y001415D01*
X002447Y001481D01*
X002429Y001547D01*
X002414Y001615D01*
X002403Y001683D01*
X002396Y001752D01*
X002392Y001821D01*
D11*
G36*
X021611Y015023D02*
X021508Y014920D01*
X021063Y015365D01*
X021166Y015468D01*
X021611Y015023D01*
G37*
G36*
X021750Y015162D02*
X021647Y015059D01*
X021202Y015504D01*
X021305Y015607D01*
X021750Y015162D01*
G37*
G36*
X021889Y015301D02*
X021786Y015198D01*
X021341Y015643D01*
X021444Y015746D01*
X021889Y015301D01*
G37*
G36*
X022028Y015441D02*
X021925Y015338D01*
X021480Y015783D01*
X021583Y015886D01*
X022028Y015441D01*
G37*
G36*
X022168Y015580D02*
X022065Y015477D01*
X021620Y015922D01*
X021723Y016025D01*
X022168Y015580D01*
G37*
G36*
X022307Y015719D02*
X022204Y015616D01*
X021759Y016061D01*
X021862Y016164D01*
X022307Y015719D01*
G37*
G36*
X022446Y015858D02*
X022343Y015755D01*
X021898Y016200D01*
X022001Y016303D01*
X022446Y015858D01*
G37*
G36*
X022585Y015997D02*
X022482Y015894D01*
X022037Y016339D01*
X022140Y016442D01*
X022585Y015997D01*
G37*
G36*
X022724Y016137D02*
X022621Y016034D01*
X022176Y016479D01*
X022279Y016582D01*
X022724Y016137D01*
G37*
G36*
X022864Y016276D02*
X022761Y016173D01*
X022316Y016618D01*
X022419Y016721D01*
X022864Y016276D01*
G37*
G36*
X023003Y016415D02*
X022900Y016312D01*
X022455Y016757D01*
X022558Y016860D01*
X023003Y016415D01*
G37*
G36*
X023142Y016554D02*
X023039Y016451D01*
X022594Y016896D01*
X022697Y016999D01*
X023142Y016554D01*
G37*
G36*
X023281Y016693D02*
X023178Y016590D01*
X022733Y017035D01*
X022836Y017138D01*
X023281Y016693D01*
G37*
G36*
X023420Y016833D02*
X023317Y016730D01*
X022872Y017175D01*
X022975Y017278D01*
X023420Y016833D01*
G37*
G36*
X023560Y016972D02*
X023457Y016869D01*
X023012Y017314D01*
X023115Y017417D01*
X023560Y016972D01*
G37*
G36*
X023699Y017111D02*
X023596Y017008D01*
X023151Y017453D01*
X023254Y017556D01*
X023699Y017111D01*
G37*
G36*
X023838Y017250D02*
X023735Y017147D01*
X023290Y017592D01*
X023393Y017695D01*
X023838Y017250D01*
G37*
G36*
X023977Y017389D02*
X023874Y017286D01*
X023429Y017731D01*
X023532Y017834D01*
X023977Y017389D01*
G37*
G36*
X024116Y017529D02*
X024013Y017426D01*
X023568Y017871D01*
X023671Y017974D01*
X024116Y017529D01*
G37*
G36*
X024255Y017668D02*
X024152Y017565D01*
X023707Y018010D01*
X023810Y018113D01*
X024255Y017668D01*
G37*
G36*
X024395Y017807D02*
X024292Y017704D01*
X023847Y018149D01*
X023950Y018252D01*
X024395Y017807D01*
G37*
G36*
X024534Y017946D02*
X024431Y017843D01*
X023986Y018288D01*
X024089Y018391D01*
X024534Y017946D01*
G37*
G36*
X024673Y018085D02*
X024570Y017982D01*
X024125Y018427D01*
X024228Y018530D01*
X024673Y018085D01*
G37*
G36*
X024812Y018225D02*
X024709Y018122D01*
X024264Y018567D01*
X024367Y018670D01*
X024812Y018225D01*
G37*
G36*
X024951Y018364D02*
X024848Y018261D01*
X024403Y018706D01*
X024506Y018809D01*
X024951Y018364D01*
G37*
G36*
X029266Y014049D02*
X029163Y013946D01*
X028718Y014391D01*
X028821Y014494D01*
X029266Y014049D01*
G37*
G36*
X029127Y013910D02*
X029024Y013807D01*
X028579Y014252D01*
X028682Y014355D01*
X029127Y013910D01*
G37*
G36*
X028988Y013770D02*
X028885Y013667D01*
X028440Y014112D01*
X028543Y014215D01*
X028988Y013770D01*
G37*
G36*
X028849Y013631D02*
X028746Y013528D01*
X028301Y013973D01*
X028404Y014076D01*
X028849Y013631D01*
G37*
G36*
X028710Y013492D02*
X028607Y013389D01*
X028162Y013834D01*
X028265Y013937D01*
X028710Y013492D01*
G37*
G36*
X028571Y013353D02*
X028468Y013250D01*
X028023Y013695D01*
X028126Y013798D01*
X028571Y013353D01*
G37*
G36*
X028431Y013214D02*
X028328Y013111D01*
X027883Y013556D01*
X027986Y013659D01*
X028431Y013214D01*
G37*
G36*
X028292Y013074D02*
X028189Y012971D01*
X027744Y013416D01*
X027847Y013519D01*
X028292Y013074D01*
G37*
G36*
X028153Y012935D02*
X028050Y012832D01*
X027605Y013277D01*
X027708Y013380D01*
X028153Y012935D01*
G37*
G36*
X028014Y012796D02*
X027911Y012693D01*
X027466Y013138D01*
X027569Y013241D01*
X028014Y012796D01*
G37*
G36*
X027875Y012657D02*
X027772Y012554D01*
X027327Y012999D01*
X027430Y013102D01*
X027875Y012657D01*
G37*
G36*
X027735Y012518D02*
X027632Y012415D01*
X027187Y012860D01*
X027290Y012963D01*
X027735Y012518D01*
G37*
G36*
X027596Y012378D02*
X027493Y012275D01*
X027048Y012720D01*
X027151Y012823D01*
X027596Y012378D01*
G37*
G36*
X027457Y012239D02*
X027354Y012136D01*
X026909Y012581D01*
X027012Y012684D01*
X027457Y012239D01*
G37*
G36*
X027318Y012100D02*
X027215Y011997D01*
X026770Y012442D01*
X026873Y012545D01*
X027318Y012100D01*
G37*
G36*
X027179Y011961D02*
X027076Y011858D01*
X026631Y012303D01*
X026734Y012406D01*
X027179Y011961D01*
G37*
G36*
X027039Y011822D02*
X026936Y011719D01*
X026491Y012164D01*
X026594Y012267D01*
X027039Y011822D01*
G37*
G36*
X026900Y011682D02*
X026797Y011579D01*
X026352Y012024D01*
X026455Y012127D01*
X026900Y011682D01*
G37*
G36*
X026761Y011543D02*
X026658Y011440D01*
X026213Y011885D01*
X026316Y011988D01*
X026761Y011543D01*
G37*
G36*
X026622Y011404D02*
X026519Y011301D01*
X026074Y011746D01*
X026177Y011849D01*
X026622Y011404D01*
G37*
G36*
X026483Y011265D02*
X026380Y011162D01*
X025935Y011607D01*
X026038Y011710D01*
X026483Y011265D01*
G37*
G36*
X026343Y011126D02*
X026240Y011023D01*
X025795Y011468D01*
X025898Y011571D01*
X026343Y011126D01*
G37*
G36*
X026204Y010986D02*
X026101Y010883D01*
X025656Y011328D01*
X025759Y011431D01*
X026204Y010986D01*
G37*
G36*
X026065Y010847D02*
X025962Y010744D01*
X025517Y011189D01*
X025620Y011292D01*
X026065Y010847D01*
G37*
G36*
X025926Y010708D02*
X025823Y010605D01*
X025378Y011050D01*
X025481Y011153D01*
X025926Y010708D01*
G37*
D12*
G36*
X024951Y011050D02*
X024506Y010605D01*
X024403Y010708D01*
X024848Y011153D01*
X024951Y011050D01*
G37*
G36*
X024812Y011189D02*
X024367Y010744D01*
X024264Y010847D01*
X024709Y011292D01*
X024812Y011189D01*
G37*
G36*
X024673Y011328D02*
X024228Y010883D01*
X024125Y010986D01*
X024570Y011431D01*
X024673Y011328D01*
G37*
G36*
X024534Y011468D02*
X024089Y011023D01*
X023986Y011126D01*
X024431Y011571D01*
X024534Y011468D01*
G37*
G36*
X024395Y011607D02*
X023950Y011162D01*
X023847Y011265D01*
X024292Y011710D01*
X024395Y011607D01*
G37*
G36*
X024255Y011746D02*
X023810Y011301D01*
X023707Y011404D01*
X024152Y011849D01*
X024255Y011746D01*
G37*
G36*
X024116Y011885D02*
X023671Y011440D01*
X023568Y011543D01*
X024013Y011988D01*
X024116Y011885D01*
G37*
G36*
X023977Y012024D02*
X023532Y011579D01*
X023429Y011682D01*
X023874Y012127D01*
X023977Y012024D01*
G37*
G36*
X023838Y012164D02*
X023393Y011719D01*
X023290Y011822D01*
X023735Y012267D01*
X023838Y012164D01*
G37*
G36*
X023699Y012303D02*
X023254Y011858D01*
X023151Y011961D01*
X023596Y012406D01*
X023699Y012303D01*
G37*
G36*
X023560Y012442D02*
X023115Y011997D01*
X023012Y012100D01*
X023457Y012545D01*
X023560Y012442D01*
G37*
G36*
X023420Y012581D02*
X022975Y012136D01*
X022872Y012239D01*
X023317Y012684D01*
X023420Y012581D01*
G37*
G36*
X023281Y012720D02*
X022836Y012275D01*
X022733Y012378D01*
X023178Y012823D01*
X023281Y012720D01*
G37*
G36*
X023142Y012860D02*
X022697Y012415D01*
X022594Y012518D01*
X023039Y012963D01*
X023142Y012860D01*
G37*
G36*
X023003Y012999D02*
X022558Y012554D01*
X022455Y012657D01*
X022900Y013102D01*
X023003Y012999D01*
G37*
G36*
X022864Y013138D02*
X022419Y012693D01*
X022316Y012796D01*
X022761Y013241D01*
X022864Y013138D01*
G37*
G36*
X022724Y013277D02*
X022279Y012832D01*
X022176Y012935D01*
X022621Y013380D01*
X022724Y013277D01*
G37*
G36*
X022585Y013416D02*
X022140Y012971D01*
X022037Y013074D01*
X022482Y013519D01*
X022585Y013416D01*
G37*
G36*
X022446Y013556D02*
X022001Y013111D01*
X021898Y013214D01*
X022343Y013659D01*
X022446Y013556D01*
G37*
G36*
X022307Y013695D02*
X021862Y013250D01*
X021759Y013353D01*
X022204Y013798D01*
X022307Y013695D01*
G37*
G36*
X022168Y013834D02*
X021723Y013389D01*
X021620Y013492D01*
X022065Y013937D01*
X022168Y013834D01*
G37*
G36*
X022028Y013973D02*
X021583Y013528D01*
X021480Y013631D01*
X021925Y014076D01*
X022028Y013973D01*
G37*
G36*
X021889Y014112D02*
X021444Y013667D01*
X021341Y013770D01*
X021786Y014215D01*
X021889Y014112D01*
G37*
G36*
X021750Y014252D02*
X021305Y013807D01*
X021202Y013910D01*
X021647Y014355D01*
X021750Y014252D01*
G37*
G36*
X021611Y014391D02*
X021166Y013946D01*
X021063Y014049D01*
X021508Y014494D01*
X021611Y014391D01*
G37*
G36*
X025926Y018706D02*
X025481Y018261D01*
X025378Y018364D01*
X025823Y018809D01*
X025926Y018706D01*
G37*
G36*
X026065Y018567D02*
X025620Y018122D01*
X025517Y018225D01*
X025962Y018670D01*
X026065Y018567D01*
G37*
G36*
X026204Y018427D02*
X025759Y017982D01*
X025656Y018085D01*
X026101Y018530D01*
X026204Y018427D01*
G37*
G36*
X026343Y018288D02*
X025898Y017843D01*
X025795Y017946D01*
X026240Y018391D01*
X026343Y018288D01*
G37*
G36*
X026483Y018149D02*
X026038Y017704D01*
X025935Y017807D01*
X026380Y018252D01*
X026483Y018149D01*
G37*
G36*
X026622Y018010D02*
X026177Y017565D01*
X026074Y017668D01*
X026519Y018113D01*
X026622Y018010D01*
G37*
G36*
X026761Y017871D02*
X026316Y017426D01*
X026213Y017529D01*
X026658Y017974D01*
X026761Y017871D01*
G37*
G36*
X026900Y017731D02*
X026455Y017286D01*
X026352Y017389D01*
X026797Y017834D01*
X026900Y017731D01*
G37*
G36*
X027039Y017592D02*
X026594Y017147D01*
X026491Y017250D01*
X026936Y017695D01*
X027039Y017592D01*
G37*
G36*
X027179Y017453D02*
X026734Y017008D01*
X026631Y017111D01*
X027076Y017556D01*
X027179Y017453D01*
G37*
G36*
X027318Y017314D02*
X026873Y016869D01*
X026770Y016972D01*
X027215Y017417D01*
X027318Y017314D01*
G37*
G36*
X027457Y017175D02*
X027012Y016730D01*
X026909Y016833D01*
X027354Y017278D01*
X027457Y017175D01*
G37*
G36*
X027596Y017035D02*
X027151Y016590D01*
X027048Y016693D01*
X027493Y017138D01*
X027596Y017035D01*
G37*
G36*
X027735Y016896D02*
X027290Y016451D01*
X027187Y016554D01*
X027632Y016999D01*
X027735Y016896D01*
G37*
G36*
X027875Y016757D02*
X027430Y016312D01*
X027327Y016415D01*
X027772Y016860D01*
X027875Y016757D01*
G37*
G36*
X028014Y016618D02*
X027569Y016173D01*
X027466Y016276D01*
X027911Y016721D01*
X028014Y016618D01*
G37*
G36*
X028153Y016479D02*
X027708Y016034D01*
X027605Y016137D01*
X028050Y016582D01*
X028153Y016479D01*
G37*
G36*
X028292Y016339D02*
X027847Y015894D01*
X027744Y015997D01*
X028189Y016442D01*
X028292Y016339D01*
G37*
G36*
X028431Y016200D02*
X027986Y015755D01*
X027883Y015858D01*
X028328Y016303D01*
X028431Y016200D01*
G37*
G36*
X028571Y016061D02*
X028126Y015616D01*
X028023Y015719D01*
X028468Y016164D01*
X028571Y016061D01*
G37*
G36*
X028710Y015922D02*
X028265Y015477D01*
X028162Y015580D01*
X028607Y016025D01*
X028710Y015922D01*
G37*
G36*
X028849Y015783D02*
X028404Y015338D01*
X028301Y015441D01*
X028746Y015886D01*
X028849Y015783D01*
G37*
G36*
X028988Y015643D02*
X028543Y015198D01*
X028440Y015301D01*
X028885Y015746D01*
X028988Y015643D01*
G37*
G36*
X029127Y015504D02*
X028682Y015059D01*
X028579Y015162D01*
X029024Y015607D01*
X029127Y015504D01*
G37*
G36*
X029266Y015365D02*
X028821Y014920D01*
X028718Y015023D01*
X029163Y015468D01*
X029266Y015365D01*
G37*
D13*
X029482Y013022D03*
X029482Y012392D03*
X030348Y012392D03*
X030348Y013022D03*
D14*
X030299Y011807D03*
X030296Y011011D03*
X029626Y011011D03*
X029630Y011807D03*
G36*
X028980Y011823D02*
X028647Y011490D01*
X028340Y011797D01*
X028673Y012130D01*
X028980Y011823D01*
G37*
G36*
X028506Y011349D02*
X028173Y011016D01*
X027866Y011323D01*
X028199Y011656D01*
X028506Y011349D01*
G37*
G36*
X028854Y010219D02*
X028521Y010552D01*
X028828Y010859D01*
X029161Y010526D01*
X028854Y010219D01*
G37*
G36*
X029327Y009746D02*
X028994Y010079D01*
X029301Y010386D01*
X029634Y010053D01*
X029327Y009746D01*
G37*
X034392Y009759D03*
X035062Y009759D03*
X035049Y008871D03*
X034379Y008871D03*
X032201Y004508D03*
X032201Y003839D03*
X029201Y003817D03*
X029201Y004486D03*
X026209Y004488D03*
X026209Y003819D03*
X023209Y003837D03*
X023209Y004507D03*
X020201Y004461D03*
X020201Y003792D03*
X016143Y008430D03*
X016143Y009100D03*
X016893Y009618D03*
X016893Y010287D03*
X015143Y010287D03*
X015143Y009618D03*
X013893Y009618D03*
X013893Y010287D03*
X013143Y009100D03*
X013143Y008430D03*
X012143Y009618D03*
X012143Y010287D03*
X010893Y010287D03*
X010893Y009618D03*
X010143Y009100D03*
X010143Y008430D03*
X009143Y009618D03*
X009143Y010287D03*
X007893Y010287D03*
X007893Y009618D03*
X007143Y009100D03*
X007143Y008430D03*
X006143Y009618D03*
X006143Y010287D03*
X008830Y019305D03*
X008830Y019975D03*
X009705Y019975D03*
X009705Y019305D03*
X016251Y018658D03*
X016920Y018658D03*
G36*
X020196Y017129D02*
X020529Y016796D01*
X020222Y016489D01*
X019889Y016822D01*
X020196Y017129D01*
G37*
G36*
X020669Y016656D02*
X021002Y016323D01*
X020695Y016016D01*
X020362Y016349D01*
X020669Y016656D01*
G37*
G36*
X023133Y019179D02*
X022800Y019512D01*
X023107Y019819D01*
X023440Y019486D01*
X023133Y019179D01*
G37*
G36*
X023606Y018706D02*
X023273Y019039D01*
X023580Y019346D01*
X023913Y019013D01*
X023606Y018706D01*
G37*
G36*
X027233Y018657D02*
X027566Y018990D01*
X027873Y018683D01*
X027540Y018350D01*
X027233Y018657D01*
G37*
G36*
X027706Y019131D02*
X028039Y019464D01*
X028346Y019157D01*
X028013Y018824D01*
X027706Y019131D01*
G37*
G36*
X029978Y017022D02*
X029645Y016689D01*
X029338Y016996D01*
X029671Y017329D01*
X029978Y017022D01*
G37*
G36*
X029505Y016549D02*
X029172Y016216D01*
X028865Y016523D01*
X029198Y016856D01*
X029505Y016549D01*
G37*
X034826Y015735D03*
X035496Y015735D03*
X035476Y013536D03*
X034807Y013536D03*
X035201Y004421D03*
X035201Y003751D03*
G36*
X022543Y009810D02*
X022876Y010143D01*
X023183Y009836D01*
X022850Y009503D01*
X022543Y009810D01*
G37*
G36*
X022070Y009337D02*
X022403Y009670D01*
X022710Y009363D01*
X022377Y009030D01*
X022070Y009337D01*
G37*
X020102Y010140D03*
X019433Y010140D03*
G36*
X020269Y012029D02*
X020602Y012362D01*
X020909Y012055D01*
X020576Y011722D01*
X020269Y012029D01*
G37*
G36*
X020742Y012502D02*
X021075Y012835D01*
X021382Y012528D01*
X021049Y012195D01*
X020742Y012502D01*
G37*
X032188Y023094D03*
X032858Y023094D03*
X038620Y027969D03*
X039290Y027969D03*
X036227Y030453D03*
X035558Y030453D03*
X030227Y030453D03*
X029558Y030453D03*
X024227Y030453D03*
X023558Y030453D03*
X018227Y030453D03*
X017558Y030453D03*
X012227Y030453D03*
X011558Y030453D03*
X006227Y030453D03*
X005558Y030453D03*
D15*
X006870Y030453D03*
X007540Y030453D03*
X008245Y030203D03*
X008915Y030203D03*
X012870Y030453D03*
X013540Y030453D03*
X014245Y030203D03*
X014915Y030203D03*
X018870Y030453D03*
X019540Y030453D03*
X020245Y030203D03*
X020915Y030203D03*
X024870Y030453D03*
X025540Y030453D03*
X026245Y030203D03*
X026915Y030203D03*
X030870Y030453D03*
X031540Y030453D03*
X032245Y030203D03*
X032915Y030203D03*
X036870Y030453D03*
X037540Y030453D03*
X038245Y030203D03*
X038915Y030203D03*
X037852Y029296D03*
X037183Y029296D03*
X038625Y027097D03*
X039295Y027097D03*
X032858Y022072D03*
X032188Y022072D03*
X032173Y021259D03*
X032843Y021259D03*
X032838Y020441D03*
X032169Y020441D03*
X032169Y019437D03*
X032838Y019437D03*
X032818Y018512D03*
X032149Y018512D03*
X028821Y021033D03*
X028152Y021033D03*
X028152Y021852D03*
X028821Y021852D03*
X028821Y022664D03*
X028152Y022664D03*
X028152Y023471D03*
X028821Y023471D03*
X028820Y024276D03*
X028151Y024276D03*
X028151Y025078D03*
X028820Y025078D03*
X025803Y020944D03*
X025803Y020275D03*
G36*
X024378Y019922D02*
X024685Y019615D01*
X024352Y019282D01*
X024045Y019589D01*
X024378Y019922D01*
G37*
G36*
X023905Y020395D02*
X024212Y020088D01*
X023879Y019755D01*
X023572Y020062D01*
X023905Y020395D01*
G37*
X031065Y013042D03*
X031065Y012372D03*
X034386Y011420D03*
X035055Y011420D03*
X035055Y010602D03*
X034386Y010602D03*
X034807Y012832D03*
X035476Y012832D03*
X035476Y014239D03*
X034807Y014239D03*
X034807Y014983D03*
X035476Y014983D03*
X030830Y008162D03*
X030830Y007493D03*
X030080Y007493D03*
X029330Y007493D03*
X029330Y008162D03*
X030080Y008162D03*
X028580Y008162D03*
X028580Y007493D03*
X027459Y004509D03*
X027459Y003840D03*
X024459Y003833D03*
X024459Y004502D03*
X021409Y004511D03*
X021409Y003841D03*
X018409Y003791D03*
X018409Y004461D03*
G36*
X021476Y010797D02*
X021169Y010490D01*
X020836Y010823D01*
X021143Y011130D01*
X021476Y010797D01*
G37*
G36*
X021949Y011270D02*
X021642Y010963D01*
X021309Y011296D01*
X021616Y011603D01*
X021949Y011270D01*
G37*
X013415Y014515D03*
X012745Y014515D03*
X012745Y016515D03*
X013415Y016515D03*
X010415Y011390D03*
X009745Y011390D03*
X030459Y004479D03*
X030459Y003810D03*
X033459Y003758D03*
X033459Y004427D03*
X034323Y007032D03*
X034992Y007032D03*
X034993Y007915D03*
X034324Y007915D03*
X035561Y036699D03*
X035561Y037368D03*
X029561Y037362D03*
X029561Y036693D03*
X023561Y036693D03*
X023561Y037362D03*
X017561Y037362D03*
X017561Y036693D03*
X011549Y036693D03*
X011549Y037362D03*
X005561Y037362D03*
X005561Y036693D03*
D16*
X036779Y005151D03*
X036779Y003651D03*
X038779Y003651D03*
X038779Y005151D03*
D17*
X030057Y021033D03*
X029466Y021033D03*
X029466Y021852D03*
X030057Y021852D03*
X030057Y022664D03*
X029466Y022664D03*
X029466Y023471D03*
X030057Y023471D03*
X030060Y024276D03*
X029470Y024276D03*
X029470Y025078D03*
X030060Y025078D03*
X040097Y029390D03*
X040688Y029390D03*
X016018Y010123D03*
X016018Y009532D03*
X013018Y009532D03*
X013018Y010123D03*
X010018Y010123D03*
X010018Y009532D03*
X008875Y011390D03*
X008285Y011390D03*
X007018Y010123D03*
X007018Y009532D03*
D18*
X023198Y020562D03*
X024698Y020562D03*
X024698Y022562D03*
X023198Y022562D03*
D19*
X036913Y015063D03*
X037693Y015063D03*
X037693Y014079D03*
X036913Y014079D03*
D20*
X038763Y012201D03*
X038763Y016941D03*
D21*
X034995Y017264D03*
X034621Y017264D03*
X034247Y017264D03*
X034247Y016319D03*
X034621Y016319D03*
X034995Y016319D03*
D22*
X035080Y026703D03*
X035080Y027703D03*
X036080Y027703D03*
X036080Y026703D03*
X034080Y026703D03*
X034080Y027703D03*
X033080Y027703D03*
X032080Y027703D03*
X032080Y026703D03*
X033080Y026703D03*
X028080Y026703D03*
X028080Y027703D03*
X027080Y027703D03*
X027080Y026703D03*
X026080Y026703D03*
X026080Y027703D03*
X025080Y027703D03*
X024080Y027703D03*
X024080Y026703D03*
X025080Y026703D03*
X040322Y026593D03*
X040322Y028364D03*
X040197Y005286D03*
X040197Y003514D03*
D23*
X034260Y003631D03*
X034260Y004537D03*
X031260Y004599D03*
X031260Y003693D03*
X028260Y003721D03*
X028260Y004627D03*
X025260Y004620D03*
X025260Y003715D03*
X022260Y003735D03*
X022260Y004640D03*
X019260Y004598D03*
X019260Y003692D03*
X014980Y003275D03*
X014980Y004180D03*
X011980Y004180D03*
X011980Y003275D03*
X008980Y003275D03*
X008980Y004180D03*
X005980Y004180D03*
X005980Y003275D03*
D24*
X015584Y022910D03*
X017434Y022910D03*
X032999Y013073D03*
X032999Y011223D03*
D25*
X015444Y025782D03*
D26*
X012164Y025782D03*
X012164Y026452D03*
X012164Y027122D03*
X012164Y025112D03*
X012164Y024442D03*
D27*
X009202Y025444D03*
X009202Y021585D03*
D28*
X010830Y026423D03*
X010830Y027982D03*
D29*
X008798Y027223D03*
X013526Y021727D03*
X024580Y008078D03*
X024580Y007328D03*
X024580Y006578D03*
X024580Y005828D03*
D30*
X013526Y022727D03*
X008798Y028223D03*
D31*
X034241Y024697D03*
X035029Y024697D03*
X035816Y024697D03*
X036604Y024697D03*
X037391Y024697D03*
X038178Y024697D03*
X038966Y024697D03*
X039753Y024697D03*
X039753Y018319D03*
X038966Y018319D03*
X038178Y018319D03*
X037391Y018319D03*
X036604Y018319D03*
X035816Y018319D03*
X035029Y018319D03*
X034241Y018319D03*
D32*
X039338Y026101D03*
X039338Y028857D03*
X039213Y005778D03*
X039213Y003022D03*
D33*
X039080Y001378D03*
X038080Y001278D03*
X037080Y001378D03*
X034517Y001784D03*
X033517Y001684D03*
X031454Y001784D03*
X030454Y001684D03*
X028393Y001784D03*
X027393Y001684D03*
X025329Y001784D03*
X024329Y001684D03*
X022267Y001784D03*
X021267Y001684D03*
X019204Y001784D03*
X018204Y001684D03*
X016900Y003928D03*
X015760Y003928D03*
X013900Y003928D03*
X012760Y003928D03*
X010900Y003928D03*
X009760Y003928D03*
X007900Y003928D03*
X006760Y003928D03*
X018208Y006150D03*
X019208Y006150D03*
X020208Y006150D03*
X021208Y006150D03*
X022208Y006150D03*
X026580Y006028D03*
X027580Y006128D03*
X028580Y006028D03*
X029580Y006128D03*
X030580Y006028D03*
X031580Y006128D03*
X032580Y006028D03*
X016643Y015628D03*
X015643Y015528D03*
X014643Y015628D03*
X002924Y030039D03*
X002924Y031179D03*
X007536Y038153D03*
X007536Y039153D03*
X008536Y039253D03*
X009536Y039153D03*
X009536Y038153D03*
X008536Y038253D03*
X013518Y038153D03*
X014518Y038253D03*
X015518Y038153D03*
X015518Y039153D03*
X014518Y039253D03*
X013518Y039153D03*
X019518Y039153D03*
X019518Y038153D03*
X020518Y038253D03*
X021518Y038153D03*
X021518Y039153D03*
X020518Y039253D03*
X025518Y039153D03*
X026518Y039253D03*
X027518Y039153D03*
X027518Y038153D03*
X026518Y038253D03*
X025518Y038153D03*
X031518Y038153D03*
X032518Y038253D03*
X033518Y038153D03*
X033518Y039153D03*
X032518Y039253D03*
X031518Y039153D03*
X037080Y039153D03*
X038080Y039253D03*
X038080Y038253D03*
X037080Y038153D03*
X039080Y038153D03*
X039080Y039153D03*
X041518Y031179D03*
X041518Y030039D03*
D34*
X039928Y011862D03*
X039948Y006292D03*
D35*
X039987Y007286D03*
D36*
X039987Y010957D03*
D37*
X036533Y011173D03*
X036533Y010740D03*
X036533Y010229D03*
X036533Y009796D03*
X036533Y009362D03*
X036533Y008929D03*
X036533Y008496D03*
X036533Y008063D03*
X036533Y007630D03*
X036533Y007197D03*
D38*
X037684Y007109D02*
X037686Y007144D01*
X037692Y007179D01*
X037702Y007213D01*
X037715Y007246D01*
X037732Y007277D01*
X037753Y007305D01*
X037776Y007332D01*
X037803Y007355D01*
X037831Y007376D01*
X037862Y007393D01*
X037895Y007406D01*
X037929Y007416D01*
X037964Y007422D01*
X037999Y007424D01*
X038034Y007422D01*
X038069Y007416D01*
X038103Y007406D01*
X038136Y007393D01*
X038167Y007376D01*
X038195Y007355D01*
X038222Y007332D01*
X038245Y007305D01*
X038266Y007277D01*
X038283Y007246D01*
X038296Y007213D01*
X038306Y007179D01*
X038312Y007144D01*
X038314Y007109D01*
X038312Y007074D01*
X038306Y007039D01*
X038296Y007005D01*
X038283Y006972D01*
X038266Y006941D01*
X038245Y006913D01*
X038222Y006886D01*
X038195Y006863D01*
X038167Y006842D01*
X038136Y006825D01*
X038103Y006812D01*
X038069Y006802D01*
X038034Y006796D01*
X037999Y006794D01*
X037964Y006796D01*
X037929Y006802D01*
X037895Y006812D01*
X037862Y006825D01*
X037831Y006842D01*
X037803Y006863D01*
X037776Y006886D01*
X037753Y006913D01*
X037732Y006941D01*
X037715Y006972D01*
X037702Y007005D01*
X037692Y007039D01*
X037686Y007074D01*
X037684Y007109D01*
X037684Y011046D02*
X037686Y011081D01*
X037692Y011116D01*
X037702Y011150D01*
X037715Y011183D01*
X037732Y011214D01*
X037753Y011242D01*
X037776Y011269D01*
X037803Y011292D01*
X037831Y011313D01*
X037862Y011330D01*
X037895Y011343D01*
X037929Y011353D01*
X037964Y011359D01*
X037999Y011361D01*
X038034Y011359D01*
X038069Y011353D01*
X038103Y011343D01*
X038136Y011330D01*
X038167Y011313D01*
X038195Y011292D01*
X038222Y011269D01*
X038245Y011242D01*
X038266Y011214D01*
X038283Y011183D01*
X038296Y011150D01*
X038306Y011116D01*
X038312Y011081D01*
X038314Y011046D01*
X038312Y011011D01*
X038306Y010976D01*
X038296Y010942D01*
X038283Y010909D01*
X038266Y010878D01*
X038245Y010850D01*
X038222Y010823D01*
X038195Y010800D01*
X038167Y010779D01*
X038136Y010762D01*
X038103Y010749D01*
X038069Y010739D01*
X038034Y010733D01*
X037999Y010731D01*
X037964Y010733D01*
X037929Y010739D01*
X037895Y010749D01*
X037862Y010762D01*
X037831Y010779D01*
X037803Y010800D01*
X037776Y010823D01*
X037753Y010850D01*
X037732Y010878D01*
X037715Y010909D01*
X037702Y010942D01*
X037692Y010976D01*
X037686Y011011D01*
X037684Y011046D01*
D39*
X037999Y011046D03*
X037999Y007109D03*
D40*
X035517Y001684D03*
X032454Y001684D03*
X029393Y001684D03*
X026329Y001684D03*
X023267Y001684D03*
X020204Y001684D03*
X025580Y006128D03*
X024518Y038253D03*
X024518Y039253D03*
X030518Y039253D03*
X030518Y038253D03*
X036080Y038253D03*
X036080Y039253D03*
X018518Y039253D03*
X018518Y038253D03*
X012518Y038253D03*
X012518Y039253D03*
X006536Y039253D03*
X006536Y038253D03*
D41*
X004661Y037159D03*
X004661Y036159D03*
X004661Y035159D03*
X004661Y034159D03*
X004661Y033159D03*
X004661Y032159D03*
X004661Y031159D03*
X004661Y030159D03*
X009661Y030159D03*
X009661Y031159D03*
X009661Y032159D03*
X010658Y032159D03*
X010658Y031159D03*
X010658Y030159D03*
X010658Y033159D03*
X010658Y034159D03*
X009661Y034159D03*
X009661Y033159D03*
X009661Y035159D03*
X009661Y036159D03*
X010658Y036159D03*
X010658Y035159D03*
X010658Y037159D03*
X009661Y037159D03*
X015658Y037159D03*
X016658Y037159D03*
X016658Y036159D03*
X015658Y036159D03*
X015658Y035159D03*
X016658Y035159D03*
X016658Y034159D03*
X015658Y034159D03*
X015658Y033159D03*
X016658Y033159D03*
X016658Y032159D03*
X015658Y032159D03*
X015658Y031159D03*
X016658Y031159D03*
X016658Y030159D03*
X015658Y030159D03*
X021658Y030159D03*
X021658Y031159D03*
X021658Y032159D03*
X021658Y033159D03*
X021658Y034159D03*
X021658Y035159D03*
X021658Y036159D03*
X021658Y037159D03*
X022658Y037159D03*
X022658Y036159D03*
X022658Y035159D03*
X022658Y034159D03*
X022658Y033159D03*
X022658Y032159D03*
X022658Y031159D03*
X022658Y030159D03*
X027658Y030159D03*
X027658Y031159D03*
X027658Y032159D03*
X028658Y032159D03*
X028658Y031159D03*
X028658Y030159D03*
X028658Y033159D03*
X028658Y034159D03*
X027658Y034159D03*
X027658Y033159D03*
X027658Y035159D03*
X027658Y036159D03*
X028658Y036159D03*
X028658Y035159D03*
X028658Y037159D03*
X027658Y037159D03*
X033658Y037159D03*
X034658Y037159D03*
X034658Y036159D03*
X034658Y035159D03*
X033658Y035159D03*
X033658Y036159D03*
X033658Y034159D03*
X033658Y033159D03*
X034658Y033159D03*
X034658Y034159D03*
X034658Y032159D03*
X034658Y031159D03*
X034658Y030159D03*
X033658Y030159D03*
X033658Y031159D03*
X033658Y032159D03*
X039658Y032159D03*
X039658Y031159D03*
X039658Y030159D03*
X039658Y033159D03*
X039658Y034159D03*
X039658Y035159D03*
X039658Y036159D03*
X039658Y037159D03*
D42*
X038549Y032515D03*
X036423Y032515D03*
X032549Y032515D03*
X030423Y032515D03*
X026549Y032515D03*
X024423Y032515D03*
X020549Y032515D03*
X018423Y032515D03*
X014549Y032515D03*
X012423Y032515D03*
X008549Y032515D03*
X006423Y032515D03*
X015267Y020578D03*
X017393Y020578D03*
D43*
X009580Y018140D03*
X007580Y018140D03*
D44*
X008580Y013640D03*
D45*
X005493Y012890D02*
X004668Y012890D01*
X004668Y015890D02*
X005493Y015890D01*
X005493Y018890D02*
X004668Y018890D01*
X004668Y021890D02*
X005493Y021890D01*
X005493Y025015D02*
X004668Y025015D01*
X004668Y028015D02*
X005493Y028015D01*
X004493Y006390D02*
X003668Y006390D01*
X003668Y004390D02*
X004493Y004390D01*
D46*
X004080Y009496D02*
X004148Y009502D01*
X004215Y009520D01*
X004277Y009549D01*
X004333Y009588D01*
X004382Y009637D01*
X004421Y009693D01*
X004450Y009755D01*
X004468Y009822D01*
X004474Y009890D01*
X004468Y009958D01*
X004450Y010025D01*
X004421Y010087D01*
X004382Y010143D01*
X004333Y010192D01*
X004277Y010231D01*
X004215Y010260D01*
X004148Y010278D01*
X004080Y010284D01*
X004012Y010278D01*
X003945Y010260D01*
X003883Y010231D01*
X003827Y010192D01*
X003778Y010143D01*
X003739Y010087D01*
X003710Y010025D01*
X003692Y009958D01*
X003686Y009890D01*
X003692Y009822D01*
X003710Y009755D01*
X003739Y009693D01*
X003778Y009637D01*
X003827Y009588D01*
X003883Y009549D01*
X003945Y009520D01*
X004012Y009502D01*
X004080Y009496D01*
X004020Y009502D02*
X004140Y009502D01*
X004278Y009550D02*
X003882Y009550D01*
X003817Y009599D02*
X004343Y009599D01*
X004389Y009647D02*
X003771Y009647D01*
X003738Y009696D02*
X004422Y009696D01*
X004445Y009744D02*
X003715Y009744D01*
X003700Y009793D02*
X004460Y009793D01*
X004469Y009841D02*
X003691Y009841D01*
X003686Y009890D02*
X004474Y009890D01*
X004469Y009938D02*
X003691Y009938D01*
X003700Y009987D02*
X004460Y009987D01*
X004445Y010035D02*
X003715Y010035D01*
X003738Y010084D02*
X004422Y010084D01*
X004389Y010132D02*
X003771Y010132D01*
X003816Y010181D02*
X004344Y010181D01*
X004280Y010229D02*
X003880Y010229D01*
X004011Y010278D02*
X004149Y010278D01*
X038936Y009078D02*
X038942Y009146D01*
X038960Y009212D01*
X038989Y009274D01*
X039028Y009331D01*
X039077Y009379D01*
X039133Y009418D01*
X039195Y009447D01*
X039262Y009465D01*
X039330Y009471D01*
X039398Y009465D01*
X039465Y009447D01*
X039527Y009418D01*
X039583Y009379D01*
X039632Y009331D01*
X039671Y009274D01*
X039700Y009212D01*
X039718Y009146D01*
X039724Y009078D01*
X039718Y009009D01*
X039700Y008943D01*
X039671Y008881D01*
X039632Y008824D01*
X039583Y008776D01*
X039527Y008737D01*
X039465Y008708D01*
X039398Y008690D01*
X039330Y008684D01*
X039262Y008690D01*
X039195Y008708D01*
X039133Y008737D01*
X039077Y008776D01*
X039028Y008824D01*
X038989Y008881D01*
X038960Y008943D01*
X038942Y009009D01*
X038936Y009078D01*
X038937Y009065D02*
X039723Y009065D01*
X039721Y009114D02*
X038939Y009114D01*
X038947Y009162D02*
X039713Y009162D01*
X039700Y009211D02*
X038960Y009211D01*
X038982Y009259D02*
X039678Y009259D01*
X039648Y009308D02*
X039012Y009308D01*
X039054Y009356D02*
X039606Y009356D01*
X039547Y009405D02*
X039113Y009405D01*
X039216Y009453D02*
X039444Y009453D01*
X039718Y009017D02*
X038942Y009017D01*
X038953Y008968D02*
X039707Y008968D01*
X039689Y008920D02*
X038971Y008920D01*
X038996Y008871D02*
X039664Y008871D01*
X039630Y008823D02*
X039030Y008823D01*
X039080Y008774D02*
X039580Y008774D01*
X039503Y008726D02*
X039157Y008726D01*
X040736Y031559D02*
X040805Y031565D01*
X040871Y031583D01*
X040933Y031612D01*
X040989Y031651D01*
X041038Y031699D01*
X041077Y031756D01*
X041106Y031818D01*
X041124Y031884D01*
X041130Y031953D01*
X041124Y032021D01*
X041106Y032087D01*
X041077Y032149D01*
X041038Y032206D01*
X040989Y032254D01*
X040933Y032293D01*
X040871Y032322D01*
X040805Y032340D01*
X040736Y032346D01*
X040668Y032340D01*
X040602Y032322D01*
X040539Y032293D01*
X040483Y032254D01*
X040435Y032206D01*
X040395Y032149D01*
X040366Y032087D01*
X040349Y032021D01*
X040343Y031953D01*
X040349Y031884D01*
X040366Y031818D01*
X040395Y031756D01*
X040435Y031699D01*
X040483Y031651D01*
X040539Y031612D01*
X040602Y031583D01*
X040668Y031565D01*
X040736Y031559D01*
X040652Y031569D02*
X040821Y031569D01*
X040942Y031618D02*
X040531Y031618D01*
X040468Y031666D02*
X041005Y031666D01*
X041049Y031715D02*
X040424Y031715D01*
X040392Y031763D02*
X041081Y031763D01*
X041103Y031812D02*
X040369Y031812D01*
X040355Y031860D02*
X041118Y031860D01*
X041126Y031909D02*
X040346Y031909D01*
X040343Y031957D02*
X041130Y031957D01*
X041125Y032006D02*
X040347Y032006D01*
X040357Y032054D02*
X041115Y032054D01*
X041099Y032103D02*
X040374Y032103D01*
X040397Y032151D02*
X041076Y032151D01*
X041042Y032200D02*
X040431Y032200D01*
X040477Y032248D02*
X040995Y032248D01*
X040926Y032297D02*
X040546Y032297D01*
X040724Y032345D02*
X040748Y032345D01*
D47*
X016018Y005593D03*
X013018Y005593D03*
X010018Y005593D03*
X007018Y005593D03*
D48*
X007915Y008467D03*
X009120Y008467D03*
X010915Y008467D03*
X012120Y008467D03*
X013915Y008467D03*
X015120Y008467D03*
X016915Y008467D03*
X006120Y008467D03*
D49*
X006391Y001976D03*
X007769Y001976D03*
X009341Y001976D03*
X010719Y001976D03*
X012291Y001976D03*
X013669Y001976D03*
X015241Y001976D03*
X016619Y001976D03*
D50*
X013363Y018574D03*
X013363Y019484D03*
X013363Y020394D03*
D51*
X010922Y019484D03*
D52*
X025396Y008800D03*
X025396Y008485D03*
X025396Y008170D03*
X025396Y007855D03*
X025889Y007855D03*
X025889Y008170D03*
X025889Y008485D03*
X025889Y008800D03*
D53*
X013576Y015515D03*
X012709Y015141D03*
X012709Y015889D03*
D54*
X014477Y014728D03*
X015383Y014728D03*
X015827Y014728D03*
X016733Y014728D03*
X005283Y010890D03*
X004377Y010890D03*
D55*
X012580Y012578D03*
X013580Y012578D03*
X014580Y012578D03*
X014580Y013578D03*
X013580Y013578D03*
X012580Y013578D03*
X015580Y013578D03*
X016580Y013578D03*
X017580Y013578D03*
X018580Y013578D03*
X018580Y012578D03*
X017580Y012578D03*
X016580Y012578D03*
X015580Y012578D03*
D56*
X018818Y011702D03*
X018818Y011328D03*
X018818Y010953D03*
X019842Y010953D03*
X019842Y011702D03*
D57*
X036480Y002765D03*
X036830Y002765D03*
X037180Y002765D03*
D58*
X032580Y007765D03*
X032580Y009890D03*
D59*
X040913Y001759D03*
X003511Y001759D03*
X003511Y039160D03*
X040913Y039160D03*
M02*
