%
M48
M72
T01C0.0157
T02C0.0197
T03C0.0236
T04C0.0354
T05C0.0394
T06C0.0400
T07C0.0512
T08C0.0550
T09C0.0551
T10C0.1260
%
T01
X33350Y9369
X34550Y10669
X34650Y11119
X35900Y8869
X39050Y9919
X33300Y20469
X27400Y20669
X26950Y21419
X27900Y21669
X28400Y21169
X23650Y20319
X23300Y20169
X14450Y20069
X16150Y21769
T02
X17400Y7919
X18150Y7169
X18650Y7169
X18650Y7669
X17550Y6819
X36250Y8569
X34900Y3269
X20200Y20469
X19750Y20469
X21400Y21019
X21400Y21419
X21400Y21819
X38900Y28169
X9400Y21519
X9400Y21119
X9400Y20719
X9850Y20719
X9850Y21119
X9850Y21519
X10250Y21519
X10250Y21119
X10250Y20719
X10650Y20719
X16400Y20819
X16150Y22169
X16400Y22669
X16000Y23319
T03
X33650Y21169
X33150Y22919
X33650Y24319
X37900Y27669
X38900Y27669
X36400Y24169
X16150Y36419
X16900Y36669
X16650Y35419
X16150Y31169
X16650Y30669
X23750Y23319
T04
X2481Y29750
X2481Y30750
X2481Y31750
X2481Y32750
X2481Y33750
X2481Y34750
X2481Y35750
X2481Y36750
X7481Y29750
X8478Y29750
X8478Y30750
X8478Y31750
X7481Y31750
X7481Y30750
X7481Y32750
X7481Y33750
X8478Y33750
X8478Y32750
X8478Y34750
X8478Y35750
X7481Y35750
X7481Y34750
X7481Y36750
X8478Y36750
X13478Y36750
X14478Y36750
X14478Y35750
X13478Y35750
X13478Y34750
X14478Y34750
X14478Y33750
X13478Y33750
X13478Y32750
X14478Y32750
X14478Y31750
X13478Y31750
X13478Y30750
X14478Y30750
X14478Y29750
X13478Y29750
X19478Y29750
X20478Y29750
X20478Y30750
X19478Y30750
X19478Y31750
X20478Y31750
X20478Y32750
X19478Y32750
X19478Y33750
X20478Y33750
X20478Y34750
X19478Y34750
X19478Y35750
X20478Y35750
X20478Y36750
X19478Y36750
X25478Y36750
X26478Y36750
X26478Y35750
X25478Y35750
X25478Y34750
X26478Y34750
X26478Y33750
X25478Y33750
X25478Y32750
X26478Y32750
X26478Y31750
X25478Y31750
X25478Y30750
X26478Y30750
X26478Y29750
X25478Y29750
X31478Y29750
X32478Y29750
X32478Y30750
X31478Y30750
X31478Y31750
X32478Y31750
X32478Y32750
X31478Y32750
X31478Y33750
X32478Y33750
X32478Y34750
X31478Y34750
X31478Y35750
X32478Y35750
X32478Y36750
X31478Y36750
X37478Y36750
X37478Y35750
X37478Y34750
X37478Y33750
X37478Y32750
X37478Y31750
X37478Y30750
X37478Y29750
T05
X5150Y9919
X6150Y9919
X7150Y9919
X8150Y9919
X7650Y10919
X6650Y10919
X5650Y10919
X8650Y10919
X11150Y9919
X12150Y9919
X13150Y9919
X14150Y9919
X13650Y10919
X12650Y10919
X11650Y10919
X14650Y10919
X17150Y9919
X18150Y9919
X19150Y9919
X20150Y9919
X19650Y10919
X18650Y10919
X17650Y10919
X20650Y10919
X11150Y21419
X11650Y22419
X12150Y21419
X13150Y21419
X12650Y22419
X13650Y22419
X14150Y21419
X14650Y22419
X17150Y21419
X17650Y22419
X18150Y21419
X19150Y21419
X18650Y22419
X19650Y22419
X20150Y21419
X20650Y22419
X36650Y22419
X35650Y22419
X35150Y21419
X36150Y21419
X37150Y21419
X38150Y21419
X37650Y22419
X38650Y22419
X32150Y21419
X31150Y21419
X30650Y22419
X31650Y22419
X32650Y22419
X30150Y21419
X29150Y21419
X29650Y22419
X26650Y22419
X26150Y21419
X25150Y21419
X24650Y22419
X25650Y22419
X24150Y21419
X23150Y21419
X23650Y22419
X8650Y22419
X8150Y21419
X7650Y22419
X6650Y22419
X5650Y22419
X5150Y21419
X6150Y21419
X7150Y21419
X28150Y11919
X27650Y10919
X28650Y10919
X29650Y10919
X29150Y11919
X30150Y11919
X30650Y10919
X31150Y11919
X35150Y9919
X36150Y9919
X37150Y9919
X38150Y9919
X37650Y10919
X38650Y10919
X36650Y10919
X35650Y10919
T06
X4580Y3519
X5720Y3519
X7330Y3519
X8470Y3519
X10080Y3519
X11220Y3519
X12830Y3519
X13970Y3519
X16024Y1275
X17024Y1375
X18024Y1275
X19024Y1275
X20024Y1375
X21024Y1275
X22024Y1275
X23024Y1375
X24024Y1275
X25024Y1275
X26024Y1375
X27024Y1275
X28024Y1275
X29024Y1375
X30024Y1275
X31024Y1275
X32024Y1375
X33024Y1275
X34900Y969
X35900Y869
X36900Y969
X29400Y5719
X28400Y5619
X27400Y5719
X26400Y5619
X25400Y5719
X24400Y5619
X23400Y5719
X23330Y7919
X24470Y7919
X30400Y5619
X12463Y15219
X13463Y15119
X14463Y15219
T07
X5150Y14919
X5150Y12950
T08
X7900Y24606
X7900Y27606
T09
X21266Y13336
X19613Y13336
X17959Y13336
X16306Y13336
X16306Y15501
X17959Y15501
X19613Y15501
X21266Y15501
X22920Y15501
X24573Y15501
X26227Y15501
X27880Y15501
X29534Y15501
X31187Y15501
X32841Y15501
X34494Y15501
X34494Y13336
X32841Y13336
X31187Y13336
X29534Y13336
X27880Y13336
X26227Y13336
X24573Y13336
X22920Y13336
X10420Y23986
X12073Y23986
X13727Y23986
X15380Y23986
X15380Y26151
X13727Y26151
X12073Y26151
X10420Y26151
T10
X1331Y1350
X4650Y7419
X9150Y7419
X10650Y7419
X15150Y7419
X16650Y7419
X21150Y7419
X27150Y8419
X31650Y8419
X34650Y7419
X39150Y7419
X38733Y1350
X39150Y18919
X34650Y18919
X33150Y18919
X28650Y18919
X27150Y18919
X22650Y18919
X21150Y18919
X16650Y18919
X15150Y18919
X10650Y18919
X9150Y18919
X4650Y18919
X1331Y38751
X38733Y38751
M30
